G04 start of page 2 for group 0 idx 0 *
G04 Title: (unknown), top *
G04 Creator: pcb 4.0.2 *
G04 CreationDate: Mon Jan 25 18:16:20 2021 UTC *
G04 For: ndholmes *
G04 Format: Gerber/RS-274X *
G04 PCB-Dimensions (mil): 2000.00 2000.00 *
G04 PCB-Coordinate-Origin: lower left *
%MOIN*%
%FSLAX25Y25*%
%LNTOP*%
%ADD20C,0.0480*%
%ADD19C,0.0550*%
%ADD18C,0.1285*%
%ADD17C,0.0730*%
%ADD16C,0.0800*%
%ADD15C,0.0900*%
%ADD14C,0.0001*%
%ADD13C,0.2937*%
%ADD12C,0.1030*%
%ADD11C,0.1250*%
G54D11*X100000Y107500D02*X86927Y120573D01*
X71684D01*
X41500Y106500D02*Y117000D01*
X61000Y136500D01*
X107603D01*
X175500Y45000D02*X162743D01*
X128316Y79427D01*
X175500Y25000D02*X156500D01*
X100000Y81500D01*
X107603Y136500D02*X110815Y133287D01*
X128316Y120572D02*X135000Y100000D01*
X71684Y79428D02*X65000Y100000D01*
X100000Y107500D02*Y81500D01*
X41500Y86500D02*Y69000D01*
X49000Y61500D01*
X83972D01*
X89185Y66713D01*
G54D12*X110815Y133287D03*
G54D13*X20000Y155000D03*
G54D14*G36*
X37000Y111000D02*Y102000D01*
X46000D01*
Y111000D01*
X37000D01*
G37*
G54D15*X41500Y86500D03*
G54D12*X71684Y120573D03*
X65000Y100000D03*
G54D14*G36*
X32500Y45500D02*Y36500D01*
X41500D01*
Y45500D01*
X32500D01*
G37*
G54D15*X57000Y41000D03*
G54D13*X100000Y30000D03*
G54D12*X89185Y66713D03*
X71684Y79428D03*
G54D14*G36*
X171500Y29000D02*Y21000D01*
X179500D01*
Y29000D01*
X171500D01*
G37*
G54D16*X175500Y45000D03*
G54D13*X180000Y155000D03*
G54D12*X128316Y120572D03*
X135000Y100000D03*
X128316Y79427D03*
G54D17*G54D18*G54D19*G54D17*G54D19*G54D18*G54D17*G54D20*G54D18*G54D17*M02*
