G04 start of page 3 for group 1 idx 1 *
G04 Title: (unknown), bottom *
G04 Creator: pcb 4.0.2 *
G04 CreationDate: Mon Jan 25 18:16:20 2021 UTC *
G04 For: ndholmes *
G04 Format: Gerber/RS-274X *
G04 PCB-Dimensions (mil): 2000.00 2000.00 *
G04 PCB-Coordinate-Origin: lower left *
%MOIN*%
%FSLAX25Y25*%
%LNBOTTOM*%
%ADD29C,0.0480*%
%ADD28C,0.0550*%
%ADD27C,0.1285*%
%ADD26C,0.0730*%
%ADD25C,0.0800*%
%ADD24C,0.0900*%
%ADD23C,0.2937*%
%ADD22C,0.1030*%
%ADD21C,0.0001*%
G54D21*G36*
X70139Y100293D02*X70144Y100241D01*
Y99759D01*
X70139Y99708D01*
Y100293D01*
G37*
G36*
X89175Y18620D02*X90753Y17272D01*
X92858Y15982D01*
X95138Y15038D01*
X97539Y14461D01*
X100000Y14268D01*
Y2500D01*
X89175D01*
Y18620D01*
G37*
G36*
Y110000D02*X100000D01*
Y45732D01*
X97539Y45539D01*
X95138Y44962D01*
X92858Y44018D01*
X90753Y42728D01*
X89175Y41380D01*
Y60545D01*
X89185Y60544D01*
X90150Y60620D01*
X91091Y60846D01*
X91985Y61216D01*
X92811Y61722D01*
X93547Y62351D01*
X94175Y63087D01*
X94681Y63912D01*
X95052Y64807D01*
X95278Y65748D01*
X95335Y66713D01*
X95278Y67678D01*
X95052Y68619D01*
X94681Y69514D01*
X94175Y70339D01*
X93547Y71075D01*
X92811Y71704D01*
X91985Y72210D01*
X91091Y72580D01*
X90150Y72806D01*
X89185Y72882D01*
X89175Y72881D01*
Y110000D01*
G37*
G36*
X76823Y79720D02*X76828Y79668D01*
Y79187D01*
X76823Y79135D01*
Y79720D01*
G37*
G36*
Y110000D02*X89175D01*
Y72881D01*
X88220Y72806D01*
X87278Y72580D01*
X86384Y72210D01*
X85559Y71704D01*
X84823Y71075D01*
X84194Y70339D01*
X83688Y69514D01*
X83318Y68619D01*
X83092Y67678D01*
X83016Y66713D01*
X83092Y65748D01*
X83318Y64807D01*
X83688Y63912D01*
X84194Y63087D01*
X84823Y62351D01*
X85559Y61722D01*
X86384Y61216D01*
X87278Y60846D01*
X88220Y60620D01*
X89175Y60545D01*
Y41380D01*
X88876Y41124D01*
X87272Y39247D01*
X85982Y37142D01*
X85038Y34862D01*
X84461Y32461D01*
X84268Y30000D01*
X84461Y27539D01*
X85038Y25138D01*
X85982Y22858D01*
X87272Y20753D01*
X88876Y18876D01*
X89175Y18620D01*
Y2500D01*
X76823D01*
Y76057D01*
X77043Y76396D01*
X77302Y76910D01*
X77513Y77446D01*
X77673Y78000D01*
X77780Y78566D01*
X77834Y79140D01*
Y79716D01*
X77780Y80289D01*
X77673Y80855D01*
X77513Y81409D01*
X77302Y81945D01*
X77043Y82459D01*
X76823Y82807D01*
Y110000D01*
G37*
G36*
X70139D02*X76823D01*
Y82807D01*
X76736Y82947D01*
X76686Y83008D01*
X76626Y83061D01*
X76559Y83104D01*
X76486Y83136D01*
X76409Y83156D01*
X76330Y83164D01*
X76251Y83159D01*
X76173Y83142D01*
X76099Y83113D01*
X76030Y83073D01*
X75969Y83023D01*
X75916Y82963D01*
X75873Y82896D01*
X75841Y82823D01*
X75821Y82746D01*
X75813Y82667D01*
X75818Y82588D01*
X75835Y82510D01*
X75864Y82436D01*
X75905Y82368D01*
X76166Y81963D01*
X76384Y81533D01*
X76560Y81085D01*
X76694Y80622D01*
X76783Y80148D01*
X76823Y79720D01*
Y79135D01*
X76783Y78707D01*
X76694Y78233D01*
X76560Y77770D01*
X76384Y77322D01*
X76166Y76892D01*
X75910Y76484D01*
X75869Y76417D01*
X75840Y76344D01*
X75823Y76267D01*
X75819Y76188D01*
X75826Y76110D01*
X75846Y76034D01*
X75878Y75962D01*
X75920Y75895D01*
X75973Y75837D01*
X76033Y75787D01*
X76101Y75747D01*
X76175Y75718D01*
X76251Y75701D01*
X76330Y75697D01*
X76408Y75705D01*
X76484Y75724D01*
X76557Y75756D01*
X76623Y75798D01*
X76682Y75851D01*
X76730Y75912D01*
X76823Y76057D01*
Y2500D01*
X70139D01*
Y73472D01*
X70256Y73439D01*
X70822Y73331D01*
X71396Y73278D01*
X71972D01*
X72545Y73331D01*
X73111Y73439D01*
X73665Y73598D01*
X74201Y73809D01*
X74715Y74069D01*
X75203Y74376D01*
X75265Y74426D01*
X75317Y74485D01*
X75360Y74552D01*
X75392Y74625D01*
X75412Y74702D01*
X75420Y74781D01*
X75416Y74861D01*
X75399Y74938D01*
X75370Y75013D01*
X75329Y75081D01*
X75279Y75143D01*
X75219Y75196D01*
X75152Y75239D01*
X75079Y75271D01*
X75002Y75291D01*
X74923Y75298D01*
X74844Y75294D01*
X74766Y75277D01*
X74692Y75248D01*
X74624Y75206D01*
X74220Y74945D01*
X73789Y74728D01*
X73341Y74551D01*
X72878Y74418D01*
X72405Y74328D01*
X71925Y74283D01*
X71443D01*
X70963Y74328D01*
X70490Y74418D01*
X70139Y74519D01*
Y84336D01*
X70490Y84437D01*
X70963Y84527D01*
X71443Y84572D01*
X71925D01*
X72405Y84527D01*
X72878Y84437D01*
X73341Y84304D01*
X73789Y84127D01*
X74220Y83910D01*
X74627Y83653D01*
X74694Y83612D01*
X74768Y83584D01*
X74845Y83567D01*
X74923Y83562D01*
X75001Y83570D01*
X75078Y83590D01*
X75150Y83621D01*
X75216Y83664D01*
X75275Y83716D01*
X75325Y83777D01*
X75364Y83845D01*
X75393Y83918D01*
X75410Y83995D01*
X75415Y84074D01*
X75407Y84152D01*
X75387Y84228D01*
X75355Y84300D01*
X75313Y84367D01*
X75261Y84425D01*
X75199Y84474D01*
X74715Y84786D01*
X74201Y85046D01*
X73665Y85257D01*
X73111Y85416D01*
X72545Y85524D01*
X71972Y85578D01*
X71396D01*
X70822Y85524D01*
X70256Y85416D01*
X70139Y85383D01*
Y96629D01*
X70358Y96969D01*
X70618Y97483D01*
X70829Y98019D01*
X70989Y98573D01*
X71096Y99139D01*
X71150Y99712D01*
Y100288D01*
X71096Y100862D01*
X70989Y101428D01*
X70829Y101981D01*
X70618Y102518D01*
X70358Y103032D01*
X70139Y103380D01*
Y110000D01*
G37*
G36*
X66544D02*X70139D01*
Y103380D01*
X70052Y103519D01*
X70001Y103581D01*
X69942Y103634D01*
X69875Y103677D01*
X69802Y103709D01*
X69725Y103729D01*
X69646Y103737D01*
X69566Y103732D01*
X69489Y103715D01*
X69415Y103686D01*
X69346Y103646D01*
X69284Y103595D01*
X69231Y103536D01*
X69189Y103469D01*
X69157Y103396D01*
X69136Y103319D01*
X69129Y103240D01*
X69133Y103160D01*
X69150Y103083D01*
X69179Y103008D01*
X69221Y102941D01*
X69482Y102536D01*
X69699Y102106D01*
X69876Y101658D01*
X70009Y101195D01*
X70099Y100721D01*
X70139Y100293D01*
Y99708D01*
X70099Y99280D01*
X70009Y98806D01*
X69876Y98343D01*
X69699Y97895D01*
X69482Y97465D01*
X69225Y97057D01*
X69184Y96990D01*
X69156Y96917D01*
X69139Y96840D01*
X69134Y96761D01*
X69142Y96683D01*
X69162Y96607D01*
X69194Y96535D01*
X69236Y96468D01*
X69288Y96409D01*
X69349Y96360D01*
X69417Y96320D01*
X69490Y96291D01*
X69567Y96274D01*
X69646Y96270D01*
X69724Y96277D01*
X69800Y96297D01*
X69872Y96329D01*
X69939Y96371D01*
X69997Y96424D01*
X70046Y96485D01*
X70139Y96629D01*
Y85383D01*
X69703Y85257D01*
X69167Y85046D01*
X68652Y84786D01*
X68165Y84480D01*
X68103Y84429D01*
X68050Y84370D01*
X68007Y84303D01*
X67975Y84230D01*
X67955Y84153D01*
X67947Y84074D01*
X67952Y83994D01*
X67969Y83917D01*
X67998Y83843D01*
X68038Y83774D01*
X68089Y83712D01*
X68148Y83659D01*
X68215Y83616D01*
X68288Y83585D01*
X68365Y83564D01*
X68444Y83557D01*
X68524Y83561D01*
X68602Y83578D01*
X68676Y83607D01*
X68744Y83649D01*
X69148Y83910D01*
X69578Y84127D01*
X70027Y84304D01*
X70139Y84336D01*
Y74519D01*
X70027Y74551D01*
X69578Y74728D01*
X69148Y74945D01*
X68740Y75202D01*
X68673Y75243D01*
X68600Y75271D01*
X68523Y75288D01*
X68445Y75293D01*
X68366Y75285D01*
X68290Y75265D01*
X68218Y75234D01*
X68152Y75191D01*
X68093Y75139D01*
X68043Y75078D01*
X68003Y75010D01*
X67975Y74937D01*
X67958Y74860D01*
X67953Y74781D01*
X67961Y74703D01*
X67981Y74627D01*
X68012Y74555D01*
X68055Y74489D01*
X68107Y74430D01*
X68169Y74381D01*
X68652Y74069D01*
X69167Y73809D01*
X69703Y73598D01*
X70139Y73472D01*
Y2500D01*
X66544D01*
Y76048D01*
X66632Y75909D01*
X66682Y75847D01*
X66741Y75794D01*
X66808Y75751D01*
X66881Y75719D01*
X66958Y75699D01*
X67038Y75691D01*
X67117Y75696D01*
X67195Y75713D01*
X67269Y75742D01*
X67338Y75782D01*
X67399Y75833D01*
X67452Y75892D01*
X67495Y75959D01*
X67527Y76032D01*
X67547Y76109D01*
X67555Y76188D01*
X67550Y76268D01*
X67533Y76345D01*
X67504Y76419D01*
X67463Y76487D01*
X67201Y76892D01*
X66984Y77322D01*
X66808Y77770D01*
X66674Y78233D01*
X66585Y78707D01*
X66544Y79135D01*
Y79720D01*
X66585Y80148D01*
X66674Y80622D01*
X66808Y81085D01*
X66984Y81533D01*
X67201Y81963D01*
X67458Y82371D01*
X67499Y82438D01*
X67528Y82511D01*
X67545Y82588D01*
X67549Y82667D01*
X67541Y82745D01*
X67522Y82821D01*
X67490Y82893D01*
X67447Y82960D01*
X67395Y83019D01*
X67334Y83068D01*
X67266Y83108D01*
X67193Y83137D01*
X67116Y83154D01*
X67038Y83158D01*
X66959Y83151D01*
X66883Y83131D01*
X66811Y83099D01*
X66745Y83057D01*
X66686Y83004D01*
X66637Y82943D01*
X66544Y82798D01*
Y94045D01*
X66981Y94171D01*
X67517Y94382D01*
X68031Y94642D01*
X68519Y94948D01*
X68580Y94999D01*
X68633Y95058D01*
X68676Y95125D01*
X68708Y95198D01*
X68728Y95275D01*
X68736Y95354D01*
X68731Y95434D01*
X68714Y95511D01*
X68685Y95585D01*
X68645Y95654D01*
X68595Y95716D01*
X68535Y95769D01*
X68468Y95811D01*
X68395Y95843D01*
X68318Y95864D01*
X68239Y95871D01*
X68160Y95867D01*
X68082Y95850D01*
X68008Y95821D01*
X67940Y95779D01*
X67535Y95518D01*
X67105Y95301D01*
X66657Y95124D01*
X66544Y95092D01*
Y104909D01*
X66657Y104877D01*
X67105Y104700D01*
X67535Y104483D01*
X67943Y104226D01*
X68010Y104185D01*
X68083Y104157D01*
X68160Y104140D01*
X68239Y104135D01*
X68317Y104143D01*
X68393Y104163D01*
X68465Y104194D01*
X68532Y104237D01*
X68591Y104289D01*
X68640Y104350D01*
X68680Y104418D01*
X68709Y104491D01*
X68726Y104568D01*
X68730Y104647D01*
X68723Y104725D01*
X68703Y104801D01*
X68671Y104873D01*
X68629Y104939D01*
X68576Y104998D01*
X68515Y105047D01*
X68031Y105359D01*
X67517Y105619D01*
X66981Y105830D01*
X66544Y105956D01*
Y110000D01*
G37*
G36*
Y79135D02*X66539Y79187D01*
Y79668D01*
X66544Y79720D01*
Y79135D01*
G37*
G36*
Y95092D02*X66194Y94991D01*
X65720Y94901D01*
X65241Y94856D01*
X65002D01*
Y105145D01*
X65241D01*
X65720Y105100D01*
X66194Y105010D01*
X66544Y104909D01*
Y95092D01*
G37*
G36*
Y2500D02*X65002D01*
Y93850D01*
X65288D01*
X65861Y93904D01*
X66427Y94011D01*
X66544Y94045D01*
Y82798D01*
X66325Y82459D01*
X66065Y81945D01*
X65855Y81409D01*
X65695Y80855D01*
X65588Y80289D01*
X65534Y79716D01*
Y79140D01*
X65588Y78566D01*
X65695Y78000D01*
X65855Y77446D01*
X66065Y76910D01*
X66325Y76396D01*
X66544Y76048D01*
Y2500D01*
G37*
G36*
X65002Y110000D02*X66544D01*
Y105956D01*
X66427Y105989D01*
X65861Y106097D01*
X65288Y106150D01*
X65002D01*
Y110000D01*
G37*
G36*
X61926Y94669D02*X61968Y94642D01*
X62482Y94382D01*
X63019Y94171D01*
X63572Y94011D01*
X64138Y93904D01*
X64712Y93850D01*
X65002D01*
Y2500D01*
X61926D01*
Y37803D01*
X61930Y37805D01*
X62033Y37864D01*
X62125Y37938D01*
X62204Y38025D01*
X62266Y38125D01*
X62511Y38612D01*
X62705Y39122D01*
X62852Y39648D01*
X62951Y40184D01*
X63000Y40727D01*
Y41273D01*
X62951Y41816D01*
X62852Y42352D01*
X62705Y42878D01*
X62511Y43388D01*
X62272Y43878D01*
X62208Y43978D01*
X62128Y44066D01*
X62035Y44140D01*
X61932Y44199D01*
X61926Y44202D01*
Y94669D01*
G37*
G36*
Y104154D02*X61992Y104180D01*
X62059Y104222D01*
X62464Y104483D01*
X62894Y104700D01*
X63342Y104877D01*
X63805Y105010D01*
X64279Y105100D01*
X64759Y105145D01*
X65002D01*
Y94856D01*
X64759D01*
X64279Y94901D01*
X63805Y94991D01*
X63342Y95124D01*
X62894Y95301D01*
X62464Y95518D01*
X62056Y95775D01*
X61989Y95816D01*
X61926Y95840D01*
Y104154D01*
G37*
G36*
Y110000D02*X65002D01*
Y106150D01*
X64712D01*
X64138Y106097D01*
X63572Y105989D01*
X63019Y105830D01*
X62482Y105619D01*
X61968Y105359D01*
X61926Y105332D01*
Y110000D01*
G37*
G36*
X59860D02*X61926D01*
Y105332D01*
X61481Y105052D01*
X61419Y105002D01*
X61366Y104943D01*
X61323Y104876D01*
X61291Y104803D01*
X61271Y104726D01*
X61263Y104647D01*
X61268Y104567D01*
X61285Y104489D01*
X61314Y104415D01*
X61354Y104347D01*
X61405Y104285D01*
X61464Y104232D01*
X61531Y104189D01*
X61604Y104157D01*
X61681Y104137D01*
X61760Y104129D01*
X61840Y104134D01*
X61917Y104151D01*
X61926Y104154D01*
Y95840D01*
X61916Y95844D01*
X61839Y95861D01*
X61760Y95866D01*
X61682Y95858D01*
X61606Y95838D01*
X61534Y95806D01*
X61467Y95764D01*
X61409Y95712D01*
X61359Y95651D01*
X61319Y95583D01*
X61290Y95510D01*
X61273Y95433D01*
X61269Y95354D01*
X61277Y95276D01*
X61296Y95200D01*
X61328Y95128D01*
X61370Y95061D01*
X61423Y95003D01*
X61485Y94954D01*
X61926Y94669D01*
Y44202D01*
X61821Y44242D01*
X61705Y44266D01*
X61587Y44272D01*
X61468Y44260D01*
X61354Y44229D01*
X61245Y44180D01*
X61146Y44115D01*
X61058Y44035D01*
X60983Y43943D01*
X60924Y43840D01*
X60882Y43729D01*
X60857Y43613D01*
X60851Y43494D01*
X60864Y43376D01*
X60895Y43261D01*
X60946Y43154D01*
X61129Y42789D01*
X61274Y42407D01*
X61384Y42013D01*
X61458Y41611D01*
X61495Y41204D01*
Y40796D01*
X61458Y40389D01*
X61384Y39987D01*
X61274Y39593D01*
X61129Y39211D01*
X60950Y38844D01*
X60900Y38737D01*
X60869Y38623D01*
X60856Y38506D01*
X60862Y38388D01*
X60886Y38272D01*
X60928Y38162D01*
X60987Y38060D01*
X61061Y37968D01*
X61149Y37889D01*
X61248Y37824D01*
X61355Y37776D01*
X61469Y37745D01*
X61587Y37732D01*
X61705Y37738D01*
X61820Y37763D01*
X61926Y37803D01*
Y2500D01*
X59860D01*
Y35719D01*
X59878Y35728D01*
X59978Y35792D01*
X60066Y35872D01*
X60140Y35965D01*
X60199Y36068D01*
X60242Y36179D01*
X60266Y36295D01*
X60272Y36413D01*
X60260Y36532D01*
X60229Y36646D01*
X60180Y36755D01*
X60115Y36854D01*
X60035Y36942D01*
X59943Y37017D01*
X59860Y37064D01*
Y44941D01*
X59940Y44987D01*
X60032Y45061D01*
X60111Y45149D01*
X60176Y45248D01*
X60224Y45355D01*
X60255Y45469D01*
X60268Y45587D01*
X60262Y45705D01*
X60237Y45820D01*
X60195Y45930D01*
X60136Y46033D01*
X60062Y46125D01*
X59975Y46204D01*
X59875Y46266D01*
X59860Y46274D01*
Y96621D01*
X59948Y96481D01*
X59998Y96420D01*
X60057Y96367D01*
X60124Y96324D01*
X60197Y96292D01*
X60274Y96272D01*
X60353Y96264D01*
X60433Y96269D01*
X60511Y96286D01*
X60585Y96315D01*
X60653Y96355D01*
X60715Y96405D01*
X60768Y96465D01*
X60811Y96532D01*
X60843Y96605D01*
X60863Y96682D01*
X60871Y96761D01*
X60866Y96840D01*
X60849Y96918D01*
X60820Y96992D01*
X60778Y97060D01*
X60517Y97465D01*
X60300Y97895D01*
X60124Y98343D01*
X59990Y98806D01*
X59900Y99280D01*
X59860Y99708D01*
Y100293D01*
X59900Y100721D01*
X59990Y101195D01*
X60124Y101658D01*
X60300Y102106D01*
X60517Y102536D01*
X60774Y102944D01*
X60815Y103011D01*
X60843Y103084D01*
X60860Y103161D01*
X60865Y103240D01*
X60857Y103318D01*
X60837Y103394D01*
X60806Y103466D01*
X60763Y103533D01*
X60711Y103591D01*
X60650Y103641D01*
X60582Y103681D01*
X60509Y103710D01*
X60432Y103727D01*
X60353Y103731D01*
X60275Y103723D01*
X60199Y103704D01*
X60127Y103672D01*
X60061Y103630D01*
X60002Y103577D01*
X59953Y103515D01*
X59860Y103371D01*
Y110000D01*
G37*
G36*
Y99708D02*X59855Y99759D01*
Y100241D01*
X59860Y100293D01*
Y99708D01*
G37*
G36*
X52074Y110000D02*X59860D01*
Y103371D01*
X59641Y103032D01*
X59381Y102518D01*
X59170Y101981D01*
X59011Y101428D01*
X58903Y100862D01*
X58850Y100288D01*
Y99712D01*
X58903Y99139D01*
X59011Y98573D01*
X59170Y98019D01*
X59381Y97483D01*
X59641Y96969D01*
X59860Y96621D01*
Y46274D01*
X59388Y46511D01*
X58878Y46705D01*
X58352Y46852D01*
X57816Y46951D01*
X57273Y47000D01*
X56727D01*
X56184Y46951D01*
X55648Y46852D01*
X55122Y46705D01*
X54612Y46511D01*
X54122Y46272D01*
X54022Y46208D01*
X53934Y46128D01*
X53860Y46035D01*
X53801Y45932D01*
X53758Y45821D01*
X53734Y45705D01*
X53728Y45587D01*
X53740Y45468D01*
X53771Y45354D01*
X53820Y45245D01*
X53885Y45146D01*
X53965Y45058D01*
X54057Y44983D01*
X54160Y44924D01*
X54271Y44882D01*
X54387Y44857D01*
X54506Y44851D01*
X54624Y44864D01*
X54739Y44895D01*
X54846Y44946D01*
X55211Y45129D01*
X55593Y45274D01*
X55987Y45384D01*
X56389Y45458D01*
X56796Y45495D01*
X57204D01*
X57611Y45458D01*
X58013Y45384D01*
X58407Y45274D01*
X58789Y45129D01*
X59156Y44950D01*
X59263Y44900D01*
X59377Y44869D01*
X59494Y44856D01*
X59612Y44862D01*
X59728Y44886D01*
X59838Y44928D01*
X59860Y44941D01*
Y37064D01*
X59840Y37076D01*
X59729Y37118D01*
X59613Y37143D01*
X59494Y37149D01*
X59376Y37136D01*
X59261Y37105D01*
X59154Y37054D01*
X58789Y36871D01*
X58407Y36726D01*
X58013Y36616D01*
X57611Y36542D01*
X57204Y36505D01*
X56796D01*
X56389Y36542D01*
X55987Y36616D01*
X55593Y36726D01*
X55211Y36871D01*
X54844Y37050D01*
X54737Y37100D01*
X54623Y37131D01*
X54506Y37144D01*
X54388Y37138D01*
X54272Y37114D01*
X54162Y37072D01*
X54060Y37013D01*
X53968Y36939D01*
X53889Y36851D01*
X53824Y36752D01*
X53776Y36645D01*
X53745Y36531D01*
X53732Y36413D01*
X53738Y36295D01*
X53763Y36180D01*
X53805Y36070D01*
X53864Y35967D01*
X53938Y35875D01*
X54025Y35796D01*
X54125Y35734D01*
X54612Y35489D01*
X55122Y35295D01*
X55648Y35148D01*
X56184Y35049D01*
X56727Y35000D01*
X57273D01*
X57816Y35049D01*
X58352Y35148D01*
X58878Y35295D01*
X59388Y35489D01*
X59860Y35719D01*
Y2500D01*
X52074D01*
Y37798D01*
X52179Y37758D01*
X52295Y37734D01*
X52413Y37728D01*
X52532Y37740D01*
X52646Y37771D01*
X52755Y37820D01*
X52854Y37885D01*
X52942Y37965D01*
X53017Y38057D01*
X53076Y38160D01*
X53118Y38271D01*
X53143Y38387D01*
X53149Y38506D01*
X53136Y38624D01*
X53105Y38739D01*
X53054Y38846D01*
X52871Y39211D01*
X52726Y39593D01*
X52616Y39987D01*
X52542Y40389D01*
X52505Y40796D01*
Y41204D01*
X52542Y41611D01*
X52616Y42013D01*
X52726Y42407D01*
X52871Y42789D01*
X53050Y43156D01*
X53100Y43263D01*
X53131Y43377D01*
X53144Y43494D01*
X53138Y43612D01*
X53114Y43728D01*
X53072Y43838D01*
X53013Y43940D01*
X52939Y44032D01*
X52851Y44111D01*
X52752Y44176D01*
X52645Y44224D01*
X52531Y44255D01*
X52413Y44268D01*
X52295Y44262D01*
X52180Y44237D01*
X52074Y44197D01*
Y110000D01*
G37*
G36*
X48000Y2500D02*Y110000D01*
X52074D01*
Y44197D01*
X52070Y44195D01*
X51967Y44136D01*
X51875Y44062D01*
X51796Y43975D01*
X51734Y43875D01*
X51489Y43388D01*
X51295Y42878D01*
X51148Y42352D01*
X51049Y41816D01*
X51000Y41273D01*
Y40727D01*
X51049Y40184D01*
X51148Y39648D01*
X51295Y39122D01*
X51489Y38612D01*
X51728Y38122D01*
X51792Y38022D01*
X51872Y37934D01*
X51965Y37860D01*
X52068Y37801D01*
X52074Y37798D01*
Y2500D01*
X48000D01*
G37*
G36*
X37000Y100500D02*X46000Y100514D01*
Y90470D01*
X45756Y90756D01*
X45038Y91369D01*
X44232Y91863D01*
X43360Y92224D01*
X42442Y92444D01*
X41500Y92519D01*
X40558Y92444D01*
X39640Y92224D01*
X38768Y91863D01*
X37962Y91369D01*
X37244Y90756D01*
X37000Y90470D01*
Y100500D01*
G37*
G36*
Y172500D02*X46000D01*
Y112500D01*
X37000Y112486D01*
Y172500D01*
G37*
G36*
X46000Y2500D02*X42250D01*
Y37248D01*
X42368Y37257D01*
X42482Y37285D01*
X42592Y37330D01*
X42692Y37391D01*
X42782Y37468D01*
X42859Y37558D01*
X42920Y37658D01*
X42965Y37768D01*
X42993Y37882D01*
X43000Y38000D01*
Y44000D01*
X42993Y44118D01*
X42965Y44232D01*
X42920Y44342D01*
X42859Y44442D01*
X42782Y44532D01*
X42692Y44609D01*
X42592Y44670D01*
X42482Y44715D01*
X42368Y44743D01*
X42250Y44752D01*
Y80541D01*
X42442Y80556D01*
X43360Y80776D01*
X44232Y81137D01*
X45038Y81631D01*
X45756Y82244D01*
X46000Y82530D01*
Y2500D01*
G37*
G36*
X42250D02*X37000D01*
Y35000D01*
X40000D01*
X40118Y35007D01*
X40232Y35035D01*
X40342Y35080D01*
X40442Y35141D01*
X40532Y35218D01*
X40609Y35308D01*
X40670Y35408D01*
X40715Y35518D01*
X40743Y35632D01*
X40752Y35750D01*
X40743Y35868D01*
X40715Y35982D01*
X40670Y36092D01*
X40609Y36192D01*
X40532Y36282D01*
X40442Y36359D01*
X40342Y36420D01*
X40232Y36465D01*
X40118Y36493D01*
X40000Y36500D01*
X37000D01*
Y45500D01*
X40000D01*
X40118Y45507D01*
X40232Y45535D01*
X40342Y45580D01*
X40442Y45641D01*
X40532Y45718D01*
X40609Y45808D01*
X40670Y45908D01*
X40715Y46018D01*
X40743Y46132D01*
X40752Y46250D01*
X40743Y46368D01*
X40715Y46482D01*
X40670Y46592D01*
X40609Y46692D01*
X40532Y46782D01*
X40442Y46859D01*
X40342Y46920D01*
X40232Y46965D01*
X40118Y46993D01*
X40000Y47000D01*
X37000D01*
Y82530D01*
X37244Y82244D01*
X37962Y81631D01*
X38768Y81137D01*
X39640Y80776D01*
X40558Y80556D01*
X41500Y80481D01*
X42250Y80541D01*
Y44752D01*
X42132Y44743D01*
X42018Y44715D01*
X41908Y44670D01*
X41808Y44609D01*
X41718Y44532D01*
X41641Y44442D01*
X41580Y44342D01*
X41535Y44232D01*
X41507Y44118D01*
X41500Y44000D01*
Y38000D01*
X41507Y37882D01*
X41535Y37768D01*
X41580Y37658D01*
X41641Y37558D01*
X41718Y37468D01*
X41808Y37391D01*
X41908Y37330D01*
X42018Y37285D01*
X42132Y37257D01*
X42250Y37248D01*
Y2500D01*
G37*
G36*
X37000D02*X31750D01*
Y37248D01*
X31868Y37257D01*
X31982Y37285D01*
X32092Y37330D01*
X32192Y37391D01*
X32282Y37468D01*
X32359Y37558D01*
X32420Y37658D01*
X32465Y37768D01*
X32493Y37882D01*
X32500Y38000D01*
Y44000D01*
X32493Y44118D01*
X32465Y44232D01*
X32420Y44342D01*
X32359Y44442D01*
X32282Y44532D01*
X32192Y44609D01*
X32092Y44670D01*
X31982Y44715D01*
X31868Y44743D01*
X31750Y44752D01*
Y144608D01*
X32728Y145753D01*
X34018Y147858D01*
X34962Y150138D01*
X35539Y152539D01*
X35684Y155000D01*
X35539Y157461D01*
X34962Y159862D01*
X34018Y162142D01*
X32728Y164247D01*
X31750Y165392D01*
Y172500D01*
X37000D01*
Y112486D01*
X36765Y112486D01*
X36535Y112431D01*
X36317Y112341D01*
X36116Y112217D01*
X35936Y112064D01*
X35783Y111884D01*
X35659Y111683D01*
X35569Y111465D01*
X35514Y111235D01*
X35500Y111000D01*
X35514Y101765D01*
X35569Y101535D01*
X35659Y101317D01*
X35783Y101116D01*
X35936Y100936D01*
X36116Y100783D01*
X36317Y100659D01*
X36535Y100569D01*
X36765Y100514D01*
X37000Y100500D01*
Y90470D01*
X36631Y90038D01*
X36137Y89232D01*
X35776Y88360D01*
X35556Y87442D01*
X35481Y86500D01*
X35556Y85558D01*
X35776Y84640D01*
X36137Y83768D01*
X36631Y82962D01*
X37000Y82530D01*
Y47000D01*
X34000D01*
X33882Y46993D01*
X33768Y46965D01*
X33658Y46920D01*
X33558Y46859D01*
X33468Y46782D01*
X33391Y46692D01*
X33330Y46592D01*
X33285Y46482D01*
X33257Y46368D01*
X33248Y46250D01*
X33257Y46132D01*
X33285Y46018D01*
X33330Y45908D01*
X33391Y45808D01*
X33468Y45718D01*
X33558Y45641D01*
X33658Y45580D01*
X33768Y45535D01*
X33882Y45507D01*
X34000Y45500D01*
X37000D01*
Y36500D01*
X34000D01*
X33882Y36493D01*
X33768Y36465D01*
X33658Y36420D01*
X33558Y36359D01*
X33468Y36282D01*
X33391Y36192D01*
X33330Y36092D01*
X33285Y35982D01*
X33257Y35868D01*
X33248Y35750D01*
X33257Y35632D01*
X33285Y35518D01*
X33330Y35408D01*
X33391Y35308D01*
X33468Y35218D01*
X33558Y35141D01*
X33658Y35080D01*
X33768Y35035D01*
X33882Y35007D01*
X34000Y35000D01*
X37000D01*
Y2500D01*
G37*
G36*
X31750Y165392D02*X31124Y166124D01*
X29247Y167728D01*
X27142Y169018D01*
X24862Y169962D01*
X22461Y170539D01*
X20000Y170732D01*
X19976Y170730D01*
Y172500D01*
X31750D01*
Y165392D01*
G37*
G36*
Y2500D02*X19976D01*
Y139270D01*
X20000Y139268D01*
X22461Y139461D01*
X24862Y140038D01*
X27142Y140982D01*
X29247Y142272D01*
X31124Y143876D01*
X31750Y144608D01*
Y44752D01*
X31632Y44743D01*
X31518Y44715D01*
X31408Y44670D01*
X31308Y44609D01*
X31218Y44532D01*
X31141Y44442D01*
X31080Y44342D01*
X31035Y44232D01*
X31007Y44118D01*
X31000Y44000D01*
Y38000D01*
X31007Y37882D01*
X31035Y37768D01*
X31080Y37658D01*
X31141Y37558D01*
X31218Y37468D01*
X31308Y37391D01*
X31408Y37330D01*
X31518Y37285D01*
X31632Y37257D01*
X31750Y37248D01*
Y2500D01*
G37*
G36*
X19976D02*X2500D01*
Y172500D01*
X19976D01*
Y170730D01*
X17539Y170539D01*
X15138Y169962D01*
X12858Y169018D01*
X10753Y167728D01*
X8876Y166124D01*
X7272Y164247D01*
X5982Y162142D01*
X5038Y159862D01*
X4461Y157461D01*
X4268Y155000D01*
X4461Y152539D01*
X5038Y150138D01*
X5982Y147858D01*
X7272Y145753D01*
X8876Y143876D01*
X10753Y142272D01*
X12858Y140982D01*
X15138Y140038D01*
X17539Y139461D01*
X19976Y139270D01*
Y2500D01*
G37*
G36*
X133456Y120865D02*X133460Y120813D01*
Y120332D01*
X133456Y120280D01*
Y120865D01*
G37*
G36*
Y172500D02*X150000D01*
Y112000D01*
X133456D01*
Y117202D01*
X133675Y117541D01*
X133935Y118055D01*
X134145Y118591D01*
X134305Y119145D01*
X134412Y119711D01*
X134466Y120284D01*
Y120860D01*
X134412Y121434D01*
X134305Y122000D01*
X134145Y122554D01*
X133935Y123090D01*
X133675Y123604D01*
X133456Y123952D01*
Y172500D01*
G37*
G36*
X128319D02*X133456D01*
Y123952D01*
X133368Y124091D01*
X133318Y124153D01*
X133259Y124206D01*
X133192Y124249D01*
X133119Y124281D01*
X133042Y124301D01*
X132962Y124309D01*
X132883Y124304D01*
X132805Y124287D01*
X132731Y124258D01*
X132662Y124218D01*
X132601Y124167D01*
X132548Y124108D01*
X132505Y124041D01*
X132473Y123968D01*
X132453Y123891D01*
X132445Y123812D01*
X132450Y123732D01*
X132467Y123655D01*
X132496Y123581D01*
X132537Y123513D01*
X132799Y123108D01*
X133016Y122678D01*
X133192Y122230D01*
X133326Y121767D01*
X133415Y121293D01*
X133456Y120865D01*
Y120280D01*
X133415Y119852D01*
X133326Y119378D01*
X133192Y118915D01*
X133016Y118467D01*
X132799Y118037D01*
X132542Y117629D01*
X132501Y117562D01*
X132472Y117489D01*
X132455Y117412D01*
X132451Y117333D01*
X132459Y117255D01*
X132478Y117179D01*
X132510Y117107D01*
X132553Y117040D01*
X132605Y116981D01*
X132666Y116932D01*
X132734Y116892D01*
X132807Y116863D01*
X132884Y116846D01*
X132962Y116842D01*
X133041Y116849D01*
X133117Y116869D01*
X133189Y116901D01*
X133255Y116943D01*
X133314Y116996D01*
X133363Y117057D01*
X133456Y117202D01*
Y112000D01*
X128319D01*
Y114422D01*
X128604D01*
X129178Y114476D01*
X129744Y114584D01*
X130297Y114743D01*
X130833Y114954D01*
X131348Y115214D01*
X131835Y115520D01*
X131897Y115571D01*
X131950Y115630D01*
X131993Y115697D01*
X132025Y115770D01*
X132045Y115847D01*
X132053Y115926D01*
X132048Y116006D01*
X132031Y116083D01*
X132002Y116158D01*
X131962Y116226D01*
X131911Y116288D01*
X131852Y116341D01*
X131785Y116384D01*
X131712Y116415D01*
X131635Y116436D01*
X131556Y116443D01*
X131476Y116439D01*
X131398Y116422D01*
X131324Y116393D01*
X131256Y116351D01*
X130852Y116090D01*
X130422Y115873D01*
X129973Y115696D01*
X129510Y115563D01*
X129037Y115473D01*
X128557Y115428D01*
X128319D01*
Y125717D01*
X128557D01*
X129037Y125672D01*
X129510Y125582D01*
X129973Y125449D01*
X130422Y125272D01*
X130852Y125055D01*
X131260Y124798D01*
X131327Y124757D01*
X131400Y124729D01*
X131477Y124712D01*
X131555Y124707D01*
X131634Y124715D01*
X131710Y124735D01*
X131782Y124766D01*
X131848Y124809D01*
X131907Y124861D01*
X131957Y124922D01*
X131997Y124990D01*
X132025Y125063D01*
X132042Y125140D01*
X132047Y125219D01*
X132039Y125297D01*
X132019Y125373D01*
X131988Y125445D01*
X131945Y125511D01*
X131893Y125570D01*
X131831Y125619D01*
X131348Y125931D01*
X130833Y126191D01*
X130297Y126402D01*
X129744Y126561D01*
X129178Y126669D01*
X128604Y126722D01*
X128319D01*
Y172500D01*
G37*
G36*
X123177D02*X128319D01*
Y126722D01*
X128028D01*
X127455Y126669D01*
X126889Y126561D01*
X126335Y126402D01*
X125799Y126191D01*
X125285Y125931D01*
X124797Y125624D01*
X124735Y125574D01*
X124683Y125515D01*
X124640Y125448D01*
X124608Y125375D01*
X124588Y125298D01*
X124580Y125219D01*
X124584Y125139D01*
X124601Y125062D01*
X124630Y124987D01*
X124671Y124919D01*
X124721Y124857D01*
X124781Y124804D01*
X124848Y124761D01*
X124921Y124729D01*
X124998Y124709D01*
X125077Y124702D01*
X125156Y124706D01*
X125234Y124723D01*
X125308Y124752D01*
X125376Y124794D01*
X125780Y125055D01*
X126211Y125272D01*
X126659Y125449D01*
X127122Y125582D01*
X127595Y125672D01*
X128075Y125717D01*
X128319D01*
Y115428D01*
X128075D01*
X127595Y115473D01*
X127122Y115563D01*
X126659Y115696D01*
X126211Y115873D01*
X125780Y116090D01*
X125373Y116347D01*
X125306Y116388D01*
X125232Y116416D01*
X125155Y116433D01*
X125077Y116438D01*
X124999Y116430D01*
X124922Y116410D01*
X124850Y116379D01*
X124784Y116336D01*
X124725Y116284D01*
X124675Y116223D01*
X124636Y116155D01*
X124607Y116082D01*
X124590Y116005D01*
X124585Y115926D01*
X124593Y115848D01*
X124613Y115772D01*
X124645Y115700D01*
X124687Y115633D01*
X124739Y115575D01*
X124801Y115526D01*
X125285Y115214D01*
X125799Y114954D01*
X126335Y114743D01*
X126889Y114584D01*
X127455Y114476D01*
X128028Y114422D01*
X128319D01*
Y112000D01*
X123177D01*
Y117193D01*
X123264Y117053D01*
X123314Y116992D01*
X123374Y116939D01*
X123441Y116896D01*
X123514Y116864D01*
X123591Y116844D01*
X123670Y116836D01*
X123749Y116841D01*
X123827Y116858D01*
X123901Y116887D01*
X123970Y116927D01*
X124031Y116977D01*
X124084Y117037D01*
X124127Y117104D01*
X124159Y117177D01*
X124179Y117254D01*
X124187Y117333D01*
X124182Y117412D01*
X124165Y117490D01*
X124136Y117564D01*
X124095Y117632D01*
X123834Y118037D01*
X123616Y118467D01*
X123440Y118915D01*
X123306Y119378D01*
X123217Y119852D01*
X123177Y120280D01*
Y120865D01*
X123217Y121293D01*
X123306Y121767D01*
X123440Y122230D01*
X123616Y122678D01*
X123834Y123108D01*
X124090Y123516D01*
X124131Y123583D01*
X124160Y123656D01*
X124177Y123733D01*
X124181Y123812D01*
X124174Y123890D01*
X124154Y123966D01*
X124122Y124038D01*
X124080Y124105D01*
X124027Y124163D01*
X123967Y124213D01*
X123899Y124253D01*
X123825Y124282D01*
X123749Y124299D01*
X123670Y124303D01*
X123592Y124295D01*
X123516Y124276D01*
X123443Y124244D01*
X123377Y124202D01*
X123318Y124149D01*
X123270Y124088D01*
X123177Y123943D01*
Y172500D01*
G37*
G36*
Y120280D02*X123172Y120332D01*
Y120813D01*
X123177Y120865D01*
Y120280D01*
G37*
G36*
X110806Y172500D02*X123177D01*
Y123943D01*
X122957Y123604D01*
X122698Y123090D01*
X122487Y122554D01*
X122327Y122000D01*
X122220Y121434D01*
X122166Y120860D01*
Y120284D01*
X122220Y119711D01*
X122327Y119145D01*
X122487Y118591D01*
X122698Y118055D01*
X122957Y117541D01*
X123177Y117193D01*
Y112000D01*
X110806D01*
Y127119D01*
X110815Y127118D01*
X111780Y127194D01*
X112722Y127420D01*
X113616Y127790D01*
X114441Y128296D01*
X115177Y128925D01*
X115806Y129661D01*
X116312Y130486D01*
X116682Y131381D01*
X116908Y132322D01*
X116965Y133287D01*
X116908Y134252D01*
X116682Y135193D01*
X116312Y136088D01*
X115806Y136913D01*
X115177Y137649D01*
X114441Y138278D01*
X113616Y138784D01*
X112722Y139154D01*
X111780Y139380D01*
X110815Y139456D01*
X110806Y139455D01*
Y172500D01*
G37*
G36*
X71675D02*X110806D01*
Y139455D01*
X109850Y139380D01*
X108909Y139154D01*
X108015Y138784D01*
X107189Y138278D01*
X106453Y137649D01*
X105825Y136913D01*
X105319Y136088D01*
X104948Y135193D01*
X104722Y134252D01*
X104646Y133287D01*
X104722Y132322D01*
X104948Y131381D01*
X105319Y130486D01*
X105825Y129661D01*
X106453Y128925D01*
X107189Y128296D01*
X108015Y127790D01*
X108909Y127420D01*
X109850Y127194D01*
X110806Y127119D01*
Y112000D01*
X71675D01*
Y114405D01*
X71684Y114404D01*
X72649Y114480D01*
X73591Y114706D01*
X74485Y115076D01*
X75310Y115582D01*
X76046Y116211D01*
X76675Y116947D01*
X77181Y117772D01*
X77551Y118667D01*
X77777Y119608D01*
X77834Y120573D01*
X77777Y121538D01*
X77551Y122479D01*
X77181Y123373D01*
X76675Y124199D01*
X76046Y124935D01*
X75310Y125564D01*
X74485Y126069D01*
X73591Y126440D01*
X72649Y126666D01*
X71684Y126742D01*
X71675Y126741D01*
Y172500D01*
G37*
G36*
X19976D02*X71675D01*
Y126741D01*
X70719Y126666D01*
X69778Y126440D01*
X68884Y126069D01*
X68058Y125564D01*
X67322Y124935D01*
X66693Y124199D01*
X66188Y123373D01*
X65817Y122479D01*
X65591Y121538D01*
X65515Y120573D01*
X65591Y119608D01*
X65817Y118667D01*
X66188Y117772D01*
X66693Y116947D01*
X67322Y116211D01*
X68058Y115582D01*
X68884Y115076D01*
X69778Y114706D01*
X70719Y114480D01*
X71675Y114405D01*
Y112000D01*
X47119D01*
X47064Y112064D01*
X46884Y112217D01*
X46683Y112341D01*
X46465Y112431D01*
X46235Y112486D01*
X46000Y112500D01*
X36765Y112486D01*
X36535Y112431D01*
X36317Y112341D01*
X36116Y112217D01*
X35936Y112064D01*
X35881Y112000D01*
X19976D01*
Y139270D01*
X20000Y139268D01*
X22461Y139461D01*
X24862Y140038D01*
X27142Y140982D01*
X29247Y142272D01*
X31124Y143876D01*
X32728Y145753D01*
X34018Y147858D01*
X34962Y150138D01*
X35539Y152539D01*
X35684Y155000D01*
X35539Y157461D01*
X34962Y159862D01*
X34018Y162142D01*
X32728Y164247D01*
X31124Y166124D01*
X29247Y167728D01*
X27142Y169018D01*
X24862Y169962D01*
X22461Y170539D01*
X20000Y170732D01*
X19976Y170730D01*
Y172500D01*
G37*
G36*
X2500D02*X19976D01*
Y170730D01*
X17539Y170539D01*
X15138Y169962D01*
X12858Y169018D01*
X10753Y167728D01*
X8876Y166124D01*
X7272Y164247D01*
X5982Y162142D01*
X5038Y159862D01*
X4461Y157461D01*
X4268Y155000D01*
X4461Y152539D01*
X5038Y150138D01*
X5982Y147858D01*
X7272Y145753D01*
X8876Y143876D01*
X10753Y142272D01*
X12858Y140982D01*
X15138Y140038D01*
X17539Y139461D01*
X19976Y139270D01*
Y112000D01*
X2500D01*
Y172500D01*
G37*
G36*
X179976D02*X197500D01*
Y89500D01*
X179976D01*
Y139270D01*
X180000Y139268D01*
X182461Y139461D01*
X184862Y140038D01*
X187142Y140982D01*
X189247Y142272D01*
X191124Y143876D01*
X192728Y145753D01*
X194018Y147858D01*
X194962Y150138D01*
X195539Y152539D01*
X195684Y155000D01*
X195539Y157461D01*
X194962Y159862D01*
X194018Y162142D01*
X192728Y164247D01*
X191124Y166124D01*
X189247Y167728D01*
X187142Y169018D01*
X184862Y169962D01*
X182461Y170539D01*
X180000Y170732D01*
X179976Y170730D01*
Y172500D01*
G37*
G36*
X133456Y120865D02*X133460Y120813D01*
Y120332D01*
X133456Y120280D01*
Y120865D01*
G37*
G36*
X140140Y100292D02*X140145Y100241D01*
Y99759D01*
X140140Y99707D01*
Y100292D01*
G37*
G36*
Y172500D02*X179976D01*
Y170730D01*
X177539Y170539D01*
X175138Y169962D01*
X172858Y169018D01*
X170753Y167728D01*
X168876Y166124D01*
X167272Y164247D01*
X165982Y162142D01*
X165038Y159862D01*
X164461Y157461D01*
X164268Y155000D01*
X164461Y152539D01*
X165038Y150138D01*
X165982Y147858D01*
X167272Y145753D01*
X168876Y143876D01*
X170753Y142272D01*
X172858Y140982D01*
X175138Y140038D01*
X177539Y139461D01*
X179976Y139270D01*
Y89500D01*
X140140D01*
Y96629D01*
X140359Y96968D01*
X140619Y97482D01*
X140830Y98019D01*
X140989Y98572D01*
X141097Y99138D01*
X141150Y99712D01*
Y100288D01*
X141097Y100861D01*
X140989Y101427D01*
X140830Y101981D01*
X140619Y102517D01*
X140359Y103031D01*
X140140Y103379D01*
Y172500D01*
G37*
G36*
X133456D02*X140140D01*
Y103379D01*
X140052Y103519D01*
X140002Y103580D01*
X139943Y103633D01*
X139876Y103676D01*
X139803Y103708D01*
X139726Y103728D01*
X139647Y103736D01*
X139567Y103731D01*
X139489Y103714D01*
X139415Y103685D01*
X139347Y103645D01*
X139285Y103595D01*
X139232Y103535D01*
X139189Y103468D01*
X139157Y103395D01*
X139137Y103318D01*
X139129Y103239D01*
X139134Y103160D01*
X139151Y103082D01*
X139180Y103008D01*
X139222Y102940D01*
X139483Y102535D01*
X139700Y102105D01*
X139876Y101657D01*
X140010Y101194D01*
X140100Y100720D01*
X140140Y100292D01*
Y99707D01*
X140100Y99279D01*
X140010Y98805D01*
X139876Y98342D01*
X139700Y97894D01*
X139483Y97464D01*
X139226Y97056D01*
X139185Y96989D01*
X139157Y96916D01*
X139140Y96839D01*
X139135Y96760D01*
X139143Y96682D01*
X139163Y96606D01*
X139194Y96534D01*
X139237Y96467D01*
X139289Y96409D01*
X139350Y96359D01*
X139418Y96319D01*
X139491Y96290D01*
X139568Y96273D01*
X139647Y96269D01*
X139725Y96277D01*
X139801Y96296D01*
X139873Y96328D01*
X139939Y96370D01*
X139998Y96423D01*
X140047Y96485D01*
X140140Y96629D01*
Y89500D01*
X133456D01*
Y94044D01*
X133573Y94011D01*
X134139Y93903D01*
X134712Y93850D01*
X135288D01*
X135862Y93903D01*
X136428Y94011D01*
X136981Y94170D01*
X137518Y94381D01*
X138032Y94641D01*
X138519Y94948D01*
X138581Y94998D01*
X138634Y95057D01*
X138677Y95124D01*
X138709Y95197D01*
X138729Y95274D01*
X138737Y95353D01*
X138732Y95433D01*
X138715Y95511D01*
X138686Y95585D01*
X138646Y95653D01*
X138595Y95715D01*
X138536Y95768D01*
X138469Y95811D01*
X138396Y95843D01*
X138319Y95863D01*
X138240Y95871D01*
X138160Y95866D01*
X138083Y95849D01*
X138008Y95820D01*
X137941Y95778D01*
X137536Y95517D01*
X137106Y95300D01*
X136658Y95124D01*
X136195Y94990D01*
X135721Y94900D01*
X135241Y94855D01*
X134759D01*
X134280Y94900D01*
X133806Y94990D01*
X133456Y95091D01*
Y104908D01*
X133806Y105009D01*
X134280Y105099D01*
X134759Y105144D01*
X135241D01*
X135721Y105099D01*
X136195Y105009D01*
X136658Y104876D01*
X137106Y104699D01*
X137536Y104482D01*
X137944Y104225D01*
X138011Y104184D01*
X138084Y104156D01*
X138161Y104139D01*
X138240Y104134D01*
X138318Y104142D01*
X138394Y104162D01*
X138466Y104194D01*
X138533Y104236D01*
X138591Y104288D01*
X138641Y104349D01*
X138681Y104417D01*
X138710Y104490D01*
X138727Y104567D01*
X138731Y104646D01*
X138723Y104724D01*
X138704Y104800D01*
X138672Y104872D01*
X138630Y104939D01*
X138577Y104997D01*
X138515Y105046D01*
X138032Y105358D01*
X137518Y105618D01*
X136981Y105829D01*
X136428Y105989D01*
X135862Y106096D01*
X135288Y106150D01*
X134712D01*
X134139Y106096D01*
X133573Y105989D01*
X133456Y105955D01*
Y117202D01*
X133675Y117541D01*
X133935Y118055D01*
X134145Y118591D01*
X134305Y119145D01*
X134412Y119711D01*
X134466Y120284D01*
Y120860D01*
X134412Y121434D01*
X134305Y122000D01*
X134145Y122554D01*
X133935Y123090D01*
X133675Y123604D01*
X133456Y123952D01*
Y172500D01*
G37*
G36*
X129861D02*X133456D01*
Y123952D01*
X133368Y124091D01*
X133318Y124153D01*
X133259Y124206D01*
X133192Y124249D01*
X133119Y124281D01*
X133042Y124301D01*
X132962Y124309D01*
X132883Y124304D01*
X132805Y124287D01*
X132731Y124258D01*
X132662Y124218D01*
X132601Y124167D01*
X132548Y124108D01*
X132505Y124041D01*
X132473Y123968D01*
X132453Y123891D01*
X132445Y123812D01*
X132450Y123732D01*
X132467Y123655D01*
X132496Y123581D01*
X132537Y123513D01*
X132799Y123108D01*
X133016Y122678D01*
X133192Y122230D01*
X133326Y121767D01*
X133415Y121293D01*
X133456Y120865D01*
Y120280D01*
X133415Y119852D01*
X133326Y119378D01*
X133192Y118915D01*
X133016Y118467D01*
X132799Y118037D01*
X132542Y117629D01*
X132501Y117562D01*
X132472Y117489D01*
X132455Y117412D01*
X132451Y117333D01*
X132459Y117255D01*
X132478Y117179D01*
X132510Y117107D01*
X132553Y117040D01*
X132605Y116981D01*
X132666Y116932D01*
X132734Y116892D01*
X132807Y116863D01*
X132884Y116846D01*
X132962Y116842D01*
X133041Y116849D01*
X133117Y116869D01*
X133189Y116901D01*
X133255Y116943D01*
X133314Y116996D01*
X133363Y117057D01*
X133456Y117202D01*
Y105955D01*
X133019Y105829D01*
X132483Y105618D01*
X131969Y105358D01*
X131481Y105052D01*
X131420Y105001D01*
X131367Y104942D01*
X131324Y104875D01*
X131292Y104802D01*
X131272Y104725D01*
X131264Y104646D01*
X131269Y104566D01*
X131286Y104489D01*
X131315Y104415D01*
X131355Y104346D01*
X131405Y104284D01*
X131465Y104231D01*
X131532Y104189D01*
X131605Y104157D01*
X131682Y104136D01*
X131761Y104129D01*
X131840Y104133D01*
X131918Y104150D01*
X131992Y104179D01*
X132060Y104221D01*
X132465Y104482D01*
X132895Y104699D01*
X133343Y104876D01*
X133456Y104908D01*
Y95091D01*
X133343Y95124D01*
X132895Y95300D01*
X132465Y95517D01*
X132057Y95774D01*
X131990Y95815D01*
X131917Y95843D01*
X131840Y95860D01*
X131761Y95865D01*
X131683Y95857D01*
X131607Y95837D01*
X131535Y95806D01*
X131468Y95763D01*
X131409Y95711D01*
X131360Y95650D01*
X131320Y95582D01*
X131291Y95509D01*
X131274Y95432D01*
X131270Y95353D01*
X131277Y95275D01*
X131297Y95199D01*
X131329Y95127D01*
X131371Y95061D01*
X131424Y95002D01*
X131485Y94953D01*
X131969Y94641D01*
X132483Y94381D01*
X133019Y94170D01*
X133456Y94044D01*
Y89500D01*
X129861D01*
Y96620D01*
X129948Y96481D01*
X129999Y96419D01*
X130058Y96366D01*
X130125Y96323D01*
X130198Y96291D01*
X130275Y96271D01*
X130354Y96263D01*
X130434Y96268D01*
X130511Y96285D01*
X130585Y96314D01*
X130654Y96354D01*
X130716Y96405D01*
X130769Y96464D01*
X130811Y96531D01*
X130843Y96604D01*
X130864Y96681D01*
X130871Y96760D01*
X130867Y96840D01*
X130850Y96917D01*
X130821Y96992D01*
X130779Y97059D01*
X130518Y97464D01*
X130301Y97894D01*
X130124Y98342D01*
X129991Y98805D01*
X129901Y99279D01*
X129861Y99707D01*
Y100292D01*
X129901Y100720D01*
X129991Y101194D01*
X130124Y101657D01*
X130301Y102105D01*
X130518Y102535D01*
X130775Y102943D01*
X130816Y103010D01*
X130844Y103083D01*
X130861Y103160D01*
X130866Y103239D01*
X130858Y103317D01*
X130838Y103393D01*
X130806Y103465D01*
X130764Y103532D01*
X130712Y103591D01*
X130651Y103640D01*
X130583Y103680D01*
X130510Y103709D01*
X130433Y103726D01*
X130354Y103730D01*
X130276Y103723D01*
X130200Y103703D01*
X130128Y103671D01*
X130061Y103629D01*
X130003Y103576D01*
X129954Y103515D01*
X129861Y103371D01*
Y114617D01*
X130297Y114743D01*
X130833Y114954D01*
X131348Y115214D01*
X131835Y115520D01*
X131897Y115571D01*
X131950Y115630D01*
X131993Y115697D01*
X132025Y115770D01*
X132045Y115847D01*
X132053Y115926D01*
X132048Y116006D01*
X132031Y116083D01*
X132002Y116158D01*
X131962Y116226D01*
X131911Y116288D01*
X131852Y116341D01*
X131785Y116384D01*
X131712Y116415D01*
X131635Y116436D01*
X131556Y116443D01*
X131476Y116439D01*
X131398Y116422D01*
X131324Y116393D01*
X131256Y116351D01*
X130852Y116090D01*
X130422Y115873D01*
X129973Y115696D01*
X129861Y115664D01*
Y125481D01*
X129973Y125449D01*
X130422Y125272D01*
X130852Y125055D01*
X131260Y124798D01*
X131327Y124757D01*
X131400Y124729D01*
X131477Y124712D01*
X131555Y124707D01*
X131634Y124715D01*
X131710Y124735D01*
X131782Y124766D01*
X131848Y124809D01*
X131907Y124861D01*
X131957Y124922D01*
X131997Y124990D01*
X132025Y125063D01*
X132042Y125140D01*
X132047Y125219D01*
X132039Y125297D01*
X132019Y125373D01*
X131988Y125445D01*
X131945Y125511D01*
X131893Y125570D01*
X131831Y125619D01*
X131348Y125931D01*
X130833Y126191D01*
X130297Y126402D01*
X129861Y126528D01*
Y172500D01*
G37*
G36*
Y99707D02*X129856Y99759D01*
Y100241D01*
X129861Y100292D01*
Y99707D01*
G37*
G36*
Y115664D02*X129510Y115563D01*
X129037Y115473D01*
X128557Y115428D01*
X128319D01*
Y125717D01*
X128557D01*
X129037Y125672D01*
X129510Y125582D01*
X129861Y125481D01*
Y115664D01*
G37*
G36*
Y89500D02*X128319D01*
Y114422D01*
X128604D01*
X129178Y114476D01*
X129744Y114584D01*
X129861Y114617D01*
Y103371D01*
X129642Y103031D01*
X129382Y102517D01*
X129171Y101981D01*
X129011Y101427D01*
X128904Y100861D01*
X128850Y100288D01*
Y99712D01*
X128904Y99138D01*
X129011Y98572D01*
X129171Y98019D01*
X129382Y97482D01*
X129642Y96968D01*
X129861Y96620D01*
Y89500D01*
G37*
G36*
X128319Y172500D02*X129861D01*
Y126528D01*
X129744Y126561D01*
X129178Y126669D01*
X128604Y126722D01*
X128319D01*
Y172500D01*
G37*
G36*
X123177D02*X128319D01*
Y126722D01*
X128028D01*
X127455Y126669D01*
X126889Y126561D01*
X126335Y126402D01*
X125799Y126191D01*
X125285Y125931D01*
X124797Y125624D01*
X124735Y125574D01*
X124683Y125515D01*
X124640Y125448D01*
X124608Y125375D01*
X124588Y125298D01*
X124580Y125219D01*
X124584Y125139D01*
X124601Y125062D01*
X124630Y124987D01*
X124671Y124919D01*
X124721Y124857D01*
X124781Y124804D01*
X124848Y124761D01*
X124921Y124729D01*
X124998Y124709D01*
X125077Y124702D01*
X125156Y124706D01*
X125234Y124723D01*
X125308Y124752D01*
X125376Y124794D01*
X125780Y125055D01*
X126211Y125272D01*
X126659Y125449D01*
X127122Y125582D01*
X127595Y125672D01*
X128075Y125717D01*
X128319D01*
Y115428D01*
X128075D01*
X127595Y115473D01*
X127122Y115563D01*
X126659Y115696D01*
X126211Y115873D01*
X125780Y116090D01*
X125373Y116347D01*
X125306Y116388D01*
X125232Y116416D01*
X125155Y116433D01*
X125077Y116438D01*
X124999Y116430D01*
X124922Y116410D01*
X124850Y116379D01*
X124784Y116336D01*
X124725Y116284D01*
X124675Y116223D01*
X124636Y116155D01*
X124607Y116082D01*
X124590Y116005D01*
X124585Y115926D01*
X124593Y115848D01*
X124613Y115772D01*
X124645Y115700D01*
X124687Y115633D01*
X124739Y115575D01*
X124801Y115526D01*
X125285Y115214D01*
X125799Y114954D01*
X126335Y114743D01*
X126889Y114584D01*
X127455Y114476D01*
X128028Y114422D01*
X128319D01*
Y89500D01*
X123177D01*
Y117193D01*
X123264Y117053D01*
X123314Y116992D01*
X123374Y116939D01*
X123441Y116896D01*
X123514Y116864D01*
X123591Y116844D01*
X123670Y116836D01*
X123749Y116841D01*
X123827Y116858D01*
X123901Y116887D01*
X123970Y116927D01*
X124031Y116977D01*
X124084Y117037D01*
X124127Y117104D01*
X124159Y117177D01*
X124179Y117254D01*
X124187Y117333D01*
X124182Y117412D01*
X124165Y117490D01*
X124136Y117564D01*
X124095Y117632D01*
X123834Y118037D01*
X123616Y118467D01*
X123440Y118915D01*
X123306Y119378D01*
X123217Y119852D01*
X123177Y120280D01*
Y120865D01*
X123217Y121293D01*
X123306Y121767D01*
X123440Y122230D01*
X123616Y122678D01*
X123834Y123108D01*
X124090Y123516D01*
X124131Y123583D01*
X124160Y123656D01*
X124177Y123733D01*
X124181Y123812D01*
X124174Y123890D01*
X124154Y123966D01*
X124122Y124038D01*
X124080Y124105D01*
X124027Y124163D01*
X123967Y124213D01*
X123899Y124253D01*
X123825Y124282D01*
X123749Y124299D01*
X123670Y124303D01*
X123592Y124295D01*
X123516Y124276D01*
X123443Y124244D01*
X123377Y124202D01*
X123318Y124149D01*
X123270Y124088D01*
X123177Y123943D01*
Y172500D01*
G37*
G36*
Y120280D02*X123172Y120332D01*
Y120813D01*
X123177Y120865D01*
Y120280D01*
G37*
G36*
X110806Y172500D02*X123177D01*
Y123943D01*
X122957Y123604D01*
X122698Y123090D01*
X122487Y122554D01*
X122327Y122000D01*
X122220Y121434D01*
X122166Y120860D01*
Y120284D01*
X122220Y119711D01*
X122327Y119145D01*
X122487Y118591D01*
X122698Y118055D01*
X122957Y117541D01*
X123177Y117193D01*
Y89500D01*
X110806D01*
Y127119D01*
X110815Y127118D01*
X111780Y127194D01*
X112722Y127420D01*
X113616Y127790D01*
X114441Y128296D01*
X115177Y128925D01*
X115806Y129661D01*
X116312Y130486D01*
X116682Y131381D01*
X116908Y132322D01*
X116965Y133287D01*
X116908Y134252D01*
X116682Y135193D01*
X116312Y136088D01*
X115806Y136913D01*
X115177Y137649D01*
X114441Y138278D01*
X113616Y138784D01*
X112722Y139154D01*
X111780Y139380D01*
X110815Y139456D01*
X110806Y139455D01*
Y172500D01*
G37*
G36*
X102000Y89500D02*Y172500D01*
X110806D01*
Y139455D01*
X109850Y139380D01*
X108909Y139154D01*
X108015Y138784D01*
X107189Y138278D01*
X106453Y137649D01*
X105825Y136913D01*
X105319Y136088D01*
X104948Y135193D01*
X104722Y134252D01*
X104646Y133287D01*
X104722Y132322D01*
X104948Y131381D01*
X105319Y130486D01*
X105825Y129661D01*
X106453Y128925D01*
X107189Y128296D01*
X108015Y127790D01*
X108909Y127420D01*
X109850Y127194D01*
X110806Y127119D01*
Y89500D01*
X102000D01*
G37*
G36*
X128306Y87500D02*X156000D01*
Y2500D01*
X128306D01*
Y73259D01*
X128316Y73258D01*
X129281Y73334D01*
X130222Y73560D01*
X131116Y73931D01*
X131942Y74436D01*
X132678Y75065D01*
X133307Y75801D01*
X133812Y76627D01*
X134183Y77521D01*
X134409Y78462D01*
X134466Y79427D01*
X134409Y80392D01*
X134183Y81333D01*
X133812Y82228D01*
X133307Y83053D01*
X132678Y83789D01*
X131942Y84418D01*
X131116Y84924D01*
X130222Y85294D01*
X129281Y85520D01*
X128316Y85596D01*
X128306Y85595D01*
Y87500D01*
G37*
G36*
X99976D02*X128306D01*
Y85595D01*
X127351Y85520D01*
X126409Y85294D01*
X125515Y84924D01*
X124690Y84418D01*
X123954Y83789D01*
X123325Y83053D01*
X122819Y82228D01*
X122449Y81333D01*
X122223Y80392D01*
X122147Y79427D01*
X122223Y78462D01*
X122449Y77521D01*
X122819Y76627D01*
X123325Y75801D01*
X123954Y75065D01*
X124690Y74436D01*
X125515Y73931D01*
X126409Y73560D01*
X127351Y73334D01*
X128306Y73259D01*
Y2500D01*
X99976D01*
Y14270D01*
X100000Y14268D01*
X102461Y14461D01*
X104862Y15038D01*
X107142Y15982D01*
X109247Y17272D01*
X111124Y18876D01*
X112728Y20753D01*
X114018Y22858D01*
X114962Y25138D01*
X115539Y27539D01*
X115684Y30000D01*
X115539Y32461D01*
X114962Y34862D01*
X114018Y37142D01*
X112728Y39247D01*
X111124Y41124D01*
X109247Y42728D01*
X107142Y44018D01*
X104862Y44962D01*
X102461Y45539D01*
X100000Y45732D01*
X99976Y45730D01*
Y87500D01*
G37*
G36*
X89175Y18620D02*X90753Y17272D01*
X92858Y15982D01*
X95138Y15038D01*
X97539Y14461D01*
X99976Y14270D01*
Y2500D01*
X89175D01*
Y18620D01*
G37*
G36*
Y87500D02*X99976D01*
Y45730D01*
X97539Y45539D01*
X95138Y44962D01*
X92858Y44018D01*
X90753Y42728D01*
X89175Y41380D01*
Y60545D01*
X89185Y60544D01*
X90150Y60620D01*
X91091Y60846D01*
X91985Y61216D01*
X92811Y61722D01*
X93547Y62351D01*
X94175Y63087D01*
X94681Y63912D01*
X95052Y64807D01*
X95278Y65748D01*
X95335Y66713D01*
X95278Y67678D01*
X95052Y68619D01*
X94681Y69514D01*
X94175Y70339D01*
X93547Y71075D01*
X92811Y71704D01*
X91985Y72210D01*
X91091Y72580D01*
X90150Y72806D01*
X89185Y72882D01*
X89175Y72881D01*
Y87500D01*
G37*
G36*
X77000Y2500D02*Y76330D01*
X77043Y76396D01*
X77302Y76910D01*
X77513Y77446D01*
X77673Y78000D01*
X77780Y78566D01*
X77834Y79140D01*
Y79716D01*
X77780Y80289D01*
X77673Y80855D01*
X77513Y81409D01*
X77302Y81945D01*
X77043Y82459D01*
X77000Y82527D01*
Y87500D01*
X89175D01*
Y72881D01*
X88220Y72806D01*
X87278Y72580D01*
X86384Y72210D01*
X85559Y71704D01*
X84823Y71075D01*
X84194Y70339D01*
X83688Y69514D01*
X83318Y68619D01*
X83092Y67678D01*
X83016Y66713D01*
X83092Y65748D01*
X83318Y64807D01*
X83688Y63912D01*
X84194Y63087D01*
X84823Y62351D01*
X85559Y61722D01*
X86384Y61216D01*
X87278Y60846D01*
X88220Y60620D01*
X89175Y60545D01*
Y41380D01*
X88876Y41124D01*
X87272Y39247D01*
X85982Y37142D01*
X85038Y34862D01*
X84461Y32461D01*
X84268Y30000D01*
X84461Y27539D01*
X85038Y25138D01*
X85982Y22858D01*
X87272Y20753D01*
X88876Y18876D01*
X89175Y18620D01*
Y2500D01*
X77000D01*
G37*
G54D22*X110815Y133287D03*
G54D23*X20000Y155000D03*
G54D21*G36*
X37000Y111000D02*Y102000D01*
X46000D01*
Y111000D01*
X37000D01*
G37*
G54D24*X41500Y86500D03*
G54D22*X71684Y120573D03*
X65000Y100000D03*
G54D21*G36*
X32500Y45500D02*Y36500D01*
X41500D01*
Y45500D01*
X32500D01*
G37*
G54D24*X57000Y41000D03*
G54D23*X100000Y30000D03*
G54D22*X89185Y66713D03*
X71684Y79428D03*
G54D21*G36*
X171500Y29000D02*Y21000D01*
X179500D01*
Y29000D01*
X171500D01*
G37*
G54D25*X175500Y45000D03*
G54D23*X180000Y155000D03*
G54D22*X128316Y120572D03*
X135000Y100000D03*
X128316Y79427D03*
G54D26*G54D27*G54D28*G54D26*G54D28*G54D27*G54D26*G54D29*G54D27*G54D26*M02*
