G04 start of page 3 for group 1 idx 1 *
G04 Title: (unknown), solder *
G04 Creator: pcb 4.0.2 *
G04 CreationDate: Thu Jul  2 20:29:44 2020 UTC *
G04 For: ndholmes *
G04 Format: Gerber/RS-274X *
G04 PCB-Dimensions (mil): 4000.00 2900.00 *
G04 PCB-Coordinate-Origin: lower left *
%MOIN*%
%FSLAX25Y25*%
%LNBOTTOM*%
%ADD47C,0.1100*%
%ADD46C,0.1250*%
%ADD45C,0.0390*%
%ADD44C,0.0480*%
%ADD43C,0.0380*%
%ADD42C,0.1285*%
%ADD41C,0.0120*%
%ADD40C,0.0260*%
%ADD39C,0.1500*%
%ADD38C,0.1750*%
%ADD37C,0.0690*%
%ADD36C,0.0800*%
%ADD35C,0.0600*%
%ADD34C,0.2937*%
%ADD33C,0.0400*%
%ADD32C,0.0100*%
%ADD31C,0.0250*%
%ADD30C,0.0001*%
G54D30*G36*
X259000Y171543D02*X253493D01*
Y268487D01*
X253500Y268486D01*
X254206Y268542D01*
X254895Y268707D01*
X255549Y268978D01*
X256153Y269348D01*
X256692Y269808D01*
X257152Y270347D01*
X257522Y270951D01*
X257793Y271605D01*
X257958Y272294D01*
X258000Y273000D01*
X257958Y273706D01*
X257793Y274395D01*
X257522Y275049D01*
X257152Y275653D01*
X256692Y276192D01*
X256153Y276652D01*
X255549Y277022D01*
X254895Y277293D01*
X254206Y277458D01*
X253500Y277514D01*
X253493Y277513D01*
Y288000D01*
X259000D01*
Y273176D01*
X258986Y273000D01*
X259000Y272824D01*
Y171543D01*
G37*
G36*
X253493D02*X243493D01*
Y268487D01*
X243500Y268486D01*
X244206Y268542D01*
X244895Y268707D01*
X245549Y268978D01*
X246153Y269348D01*
X246692Y269808D01*
X247152Y270347D01*
X247522Y270951D01*
X247793Y271605D01*
X247958Y272294D01*
X248000Y273000D01*
X247958Y273706D01*
X247793Y274395D01*
X247522Y275049D01*
X247152Y275653D01*
X246692Y276192D01*
X246153Y276652D01*
X245549Y277022D01*
X244895Y277293D01*
X244206Y277458D01*
X243500Y277514D01*
X243493Y277513D01*
Y288000D01*
X253493D01*
Y277513D01*
X252794Y277458D01*
X252105Y277293D01*
X251451Y277022D01*
X250847Y276652D01*
X250308Y276192D01*
X249848Y275653D01*
X249478Y275049D01*
X249207Y274395D01*
X249042Y273706D01*
X248986Y273000D01*
X249042Y272294D01*
X249207Y271605D01*
X249478Y270951D01*
X249848Y270347D01*
X250308Y269808D01*
X250847Y269348D01*
X251451Y268978D01*
X252105Y268707D01*
X252794Y268542D01*
X253493Y268487D01*
Y171543D01*
G37*
G36*
X243493D02*X233493D01*
Y268487D01*
X233500Y268486D01*
X234206Y268542D01*
X234895Y268707D01*
X235549Y268978D01*
X236153Y269348D01*
X236692Y269808D01*
X237152Y270347D01*
X237522Y270951D01*
X237793Y271605D01*
X237958Y272294D01*
X238000Y273000D01*
X237958Y273706D01*
X237793Y274395D01*
X237522Y275049D01*
X237152Y275653D01*
X236692Y276192D01*
X236153Y276652D01*
X235549Y277022D01*
X234895Y277293D01*
X234206Y277458D01*
X233500Y277514D01*
X233493Y277513D01*
Y288000D01*
X243493D01*
Y277513D01*
X242794Y277458D01*
X242105Y277293D01*
X241451Y277022D01*
X240847Y276652D01*
X240308Y276192D01*
X239848Y275653D01*
X239478Y275049D01*
X239207Y274395D01*
X239042Y273706D01*
X238986Y273000D01*
X239042Y272294D01*
X239207Y271605D01*
X239478Y270951D01*
X239848Y270347D01*
X240308Y269808D01*
X240847Y269348D01*
X241451Y268978D01*
X242105Y268707D01*
X242794Y268542D01*
X243493Y268487D01*
Y171543D01*
G37*
G36*
X233493D02*X223493D01*
Y268487D01*
X223500Y268486D01*
X224206Y268542D01*
X224895Y268707D01*
X225549Y268978D01*
X226153Y269348D01*
X226692Y269808D01*
X227152Y270347D01*
X227522Y270951D01*
X227793Y271605D01*
X227958Y272294D01*
X228000Y273000D01*
X227958Y273706D01*
X227793Y274395D01*
X227522Y275049D01*
X227152Y275653D01*
X226692Y276192D01*
X226153Y276652D01*
X225549Y277022D01*
X224895Y277293D01*
X224206Y277458D01*
X223500Y277514D01*
X223493Y277513D01*
Y288000D01*
X233493D01*
Y277513D01*
X232794Y277458D01*
X232105Y277293D01*
X231451Y277022D01*
X230847Y276652D01*
X230308Y276192D01*
X229848Y275653D01*
X229478Y275049D01*
X229207Y274395D01*
X229042Y273706D01*
X228986Y273000D01*
X229042Y272294D01*
X229207Y271605D01*
X229478Y270951D01*
X229848Y270347D01*
X230308Y269808D01*
X230847Y269348D01*
X231451Y268978D01*
X232105Y268707D01*
X232794Y268542D01*
X233493Y268487D01*
Y171543D01*
G37*
G36*
X223493D02*X213493D01*
Y268487D01*
X213500Y268486D01*
X214206Y268542D01*
X214895Y268707D01*
X215549Y268978D01*
X216153Y269348D01*
X216692Y269808D01*
X217152Y270347D01*
X217522Y270951D01*
X217793Y271605D01*
X217958Y272294D01*
X218000Y273000D01*
X217958Y273706D01*
X217793Y274395D01*
X217522Y275049D01*
X217152Y275653D01*
X216692Y276192D01*
X216153Y276652D01*
X215549Y277022D01*
X214895Y277293D01*
X214206Y277458D01*
X213500Y277514D01*
X213493Y277513D01*
Y288000D01*
X223493D01*
Y277513D01*
X222794Y277458D01*
X222105Y277293D01*
X221451Y277022D01*
X220847Y276652D01*
X220308Y276192D01*
X219848Y275653D01*
X219478Y275049D01*
X219207Y274395D01*
X219042Y273706D01*
X218986Y273000D01*
X219042Y272294D01*
X219207Y271605D01*
X219478Y270951D01*
X219848Y270347D01*
X220308Y269808D01*
X220847Y269348D01*
X221451Y268978D01*
X222105Y268707D01*
X222794Y268542D01*
X223493Y268487D01*
Y171543D01*
G37*
G36*
X213493D02*X203493D01*
Y268487D01*
X203500Y268486D01*
X204206Y268542D01*
X204895Y268707D01*
X205549Y268978D01*
X206153Y269348D01*
X206692Y269808D01*
X207152Y270347D01*
X207522Y270951D01*
X207793Y271605D01*
X207958Y272294D01*
X208000Y273000D01*
X207958Y273706D01*
X207793Y274395D01*
X207522Y275049D01*
X207152Y275653D01*
X206692Y276192D01*
X206153Y276652D01*
X205549Y277022D01*
X204895Y277293D01*
X204206Y277458D01*
X203500Y277514D01*
X203493Y277513D01*
Y288000D01*
X213493D01*
Y277513D01*
X212794Y277458D01*
X212105Y277293D01*
X211451Y277022D01*
X210847Y276652D01*
X210308Y276192D01*
X209848Y275653D01*
X209478Y275049D01*
X209207Y274395D01*
X209042Y273706D01*
X208986Y273000D01*
X209042Y272294D01*
X209207Y271605D01*
X209478Y270951D01*
X209848Y270347D01*
X210308Y269808D01*
X210847Y269348D01*
X211451Y268978D01*
X212105Y268707D01*
X212794Y268542D01*
X213493Y268487D01*
Y171543D01*
G37*
G36*
X203493D02*X165246D01*
Y244900D01*
X174379D01*
X175000Y244279D01*
Y236244D01*
X174869Y236131D01*
X174634Y235856D01*
X174444Y235547D01*
X174306Y235213D01*
X174221Y234861D01*
X174193Y234500D01*
X174221Y234139D01*
X174306Y233787D01*
X174444Y233453D01*
X174634Y233144D01*
X174869Y232869D01*
X175144Y232634D01*
X175453Y232444D01*
X175787Y232306D01*
X176139Y232221D01*
X176500Y232193D01*
X176861Y232221D01*
X177213Y232306D01*
X177547Y232444D01*
X177856Y232634D01*
X178131Y232869D01*
X178366Y233144D01*
X178556Y233453D01*
X178694Y233787D01*
X178779Y234139D01*
X178800Y234500D01*
X178779Y234861D01*
X178694Y235213D01*
X178556Y235547D01*
X178366Y235856D01*
X178131Y236131D01*
X178000Y236244D01*
Y244841D01*
X178005Y244900D01*
X177986Y245135D01*
X177931Y245365D01*
X177841Y245583D01*
X177717Y245784D01*
X177564Y245964D01*
X177519Y246002D01*
X176102Y247419D01*
X176064Y247464D01*
X175884Y247617D01*
X175683Y247741D01*
X175465Y247831D01*
X175235Y247886D01*
X175000Y247905D01*
X174941Y247900D01*
X165246D01*
Y288000D01*
X203493D01*
Y277513D01*
X202794Y277458D01*
X202105Y277293D01*
X201451Y277022D01*
X200847Y276652D01*
X200308Y276192D01*
X199848Y275653D01*
X199478Y275049D01*
X199207Y274395D01*
X199042Y273706D01*
X198986Y273000D01*
X199042Y272294D01*
X199207Y271605D01*
X199478Y270951D01*
X199848Y270347D01*
X200308Y269808D01*
X200847Y269348D01*
X201451Y268978D01*
X202105Y268707D01*
X202794Y268542D01*
X203493Y268487D01*
Y171543D01*
G37*
G36*
X165246D02*X110000D01*
Y288000D01*
X165246D01*
Y247900D01*
X155829D01*
X155631Y248131D01*
X155356Y248366D01*
X155047Y248556D01*
X154713Y248694D01*
X154361Y248779D01*
X154000Y248807D01*
X153639Y248779D01*
X153287Y248694D01*
X152953Y248556D01*
X152644Y248366D01*
X152369Y248131D01*
X152134Y247856D01*
X151944Y247547D01*
X151806Y247213D01*
X151721Y246861D01*
X151693Y246500D01*
X151721Y246139D01*
X151806Y245787D01*
X151944Y245453D01*
X152134Y245144D01*
X152369Y244869D01*
X152644Y244634D01*
X152953Y244444D01*
X153287Y244306D01*
X153639Y244221D01*
X154000Y244193D01*
X154361Y244221D01*
X154713Y244306D01*
X155047Y244444D01*
X155356Y244634D01*
X155631Y244869D01*
X155658Y244900D01*
X165246D01*
Y171543D01*
G37*
G36*
X53996Y268000D02*X75500D01*
Y238000D01*
X63745D01*
X63750Y238059D01*
Y238941D01*
X63671Y239818D01*
X63512Y240685D01*
X63276Y241534D01*
X62965Y242358D01*
X62581Y243151D01*
X62126Y243906D01*
X61606Y244616D01*
X61551Y244675D01*
X61488Y244724D01*
X61417Y244762D01*
X61342Y244789D01*
X61263Y244804D01*
X61183Y244807D01*
X61104Y244797D01*
X61027Y244774D01*
X60955Y244740D01*
X60888Y244695D01*
X60830Y244640D01*
X60781Y244576D01*
X60743Y244506D01*
X60716Y244431D01*
X60701Y244352D01*
X60698Y244272D01*
X60709Y244192D01*
X60731Y244115D01*
X60765Y244043D01*
X60812Y243978D01*
X61285Y243346D01*
X61693Y242669D01*
X62037Y241959D01*
X62317Y241220D01*
X62528Y240459D01*
X62670Y239682D01*
X62741Y238895D01*
Y238105D01*
X62732Y238000D01*
X53996D01*
Y247241D01*
X54395D01*
X55182Y247170D01*
X55959Y247028D01*
X56720Y246817D01*
X57459Y246537D01*
X58169Y246193D01*
X58846Y245785D01*
X59483Y245319D01*
X59548Y245273D01*
X59619Y245239D01*
X59694Y245217D01*
X59772Y245207D01*
X59851Y245210D01*
X59928Y245224D01*
X60002Y245251D01*
X60071Y245289D01*
X60134Y245337D01*
X60188Y245394D01*
X60232Y245459D01*
X60266Y245530D01*
X60288Y245606D01*
X60298Y245684D01*
X60295Y245762D01*
X60281Y245840D01*
X60254Y245914D01*
X60217Y245983D01*
X60168Y246045D01*
X60110Y246098D01*
X59406Y246626D01*
X58651Y247081D01*
X57858Y247465D01*
X57034Y247776D01*
X56185Y248012D01*
X55318Y248171D01*
X54441Y248250D01*
X53996D01*
Y268000D01*
G37*
G36*
X43000D02*X53996D01*
Y248250D01*
X53559D01*
X52682Y248171D01*
X51815Y248012D01*
X50966Y247776D01*
X50142Y247465D01*
X49349Y247081D01*
X48594Y246626D01*
X47884Y246106D01*
X47825Y246051D01*
X47776Y245988D01*
X47738Y245917D01*
X47711Y245842D01*
X47696Y245763D01*
X47693Y245683D01*
X47703Y245604D01*
X47726Y245527D01*
X47760Y245455D01*
X47805Y245388D01*
X47860Y245330D01*
X47924Y245281D01*
X47994Y245243D01*
X48069Y245216D01*
X48148Y245201D01*
X48228Y245198D01*
X48308Y245209D01*
X48385Y245231D01*
X48457Y245265D01*
X48522Y245312D01*
X49154Y245785D01*
X49831Y246193D01*
X50541Y246537D01*
X51280Y246817D01*
X52041Y247028D01*
X52818Y247170D01*
X53605Y247241D01*
X53996D01*
Y238000D01*
X45268D01*
X45259Y238105D01*
Y238895D01*
X45330Y239682D01*
X45472Y240459D01*
X45683Y241220D01*
X45963Y241959D01*
X46307Y242669D01*
X46715Y243346D01*
X47181Y243983D01*
X47227Y244048D01*
X47261Y244119D01*
X47283Y244194D01*
X47293Y244272D01*
X47290Y244351D01*
X47276Y244428D01*
X47249Y244502D01*
X47211Y244571D01*
X47163Y244634D01*
X47106Y244688D01*
X47041Y244732D01*
X46970Y244766D01*
X46894Y244788D01*
X46816Y244798D01*
X46738Y244795D01*
X46660Y244781D01*
X46586Y244754D01*
X46517Y244717D01*
X46455Y244668D01*
X46402Y244610D01*
X45874Y243906D01*
X45419Y243151D01*
X45035Y242358D01*
X44724Y241534D01*
X44488Y240685D01*
X44329Y239818D01*
X44250Y238941D01*
Y238059D01*
X44255Y238000D01*
X43000D01*
Y268000D01*
G37*
G36*
X54004Y241500D02*X62211D01*
X62317Y241220D01*
X62528Y240459D01*
X62670Y239682D01*
X62741Y238895D01*
Y238105D01*
X62670Y237318D01*
X62528Y236541D01*
X62317Y235780D01*
X62037Y235041D01*
X61693Y234331D01*
X61285Y233654D01*
X60819Y233017D01*
X60773Y232952D01*
X60739Y232881D01*
X60717Y232806D01*
X60707Y232728D01*
X60710Y232649D01*
X60724Y232572D01*
X60751Y232498D01*
X60789Y232429D01*
X60837Y232366D01*
X60894Y232312D01*
X60959Y232268D01*
X61030Y232234D01*
X61106Y232212D01*
X61184Y232202D01*
X61262Y232205D01*
X61340Y232219D01*
X61414Y232246D01*
X61483Y232283D01*
X61545Y232332D01*
X61598Y232390D01*
X62126Y233094D01*
X62581Y233849D01*
X62965Y234642D01*
X63276Y235466D01*
X63512Y236315D01*
X63671Y237182D01*
X63750Y238059D01*
Y238941D01*
X63671Y239818D01*
X63512Y240685D01*
X63286Y241500D01*
X75500D01*
Y213000D01*
X54004D01*
Y228750D01*
X54441D01*
X55318Y228829D01*
X56185Y228988D01*
X57034Y229224D01*
X57858Y229535D01*
X58651Y229919D01*
X59406Y230374D01*
X60116Y230894D01*
X60175Y230949D01*
X60224Y231012D01*
X60262Y231083D01*
X60289Y231158D01*
X60304Y231237D01*
X60307Y231317D01*
X60297Y231396D01*
X60274Y231473D01*
X60240Y231545D01*
X60195Y231612D01*
X60140Y231670D01*
X60076Y231719D01*
X60006Y231757D01*
X59931Y231784D01*
X59852Y231799D01*
X59772Y231802D01*
X59692Y231791D01*
X59615Y231769D01*
X59543Y231735D01*
X59478Y231688D01*
X58846Y231215D01*
X58169Y230807D01*
X57459Y230463D01*
X56720Y230183D01*
X55959Y229972D01*
X55182Y229830D01*
X54395Y229759D01*
X54004D01*
Y241500D01*
G37*
G36*
X43000D02*X44714D01*
X44488Y240685D01*
X44329Y239818D01*
X44250Y238941D01*
Y238059D01*
X44329Y237182D01*
X44488Y236315D01*
X44724Y235466D01*
X45035Y234642D01*
X45419Y233849D01*
X45874Y233094D01*
X46394Y232384D01*
X46449Y232325D01*
X46512Y232276D01*
X46583Y232238D01*
X46658Y232211D01*
X46737Y232196D01*
X46817Y232193D01*
X46896Y232203D01*
X46973Y232226D01*
X47045Y232260D01*
X47112Y232305D01*
X47170Y232360D01*
X47219Y232424D01*
X47257Y232494D01*
X47284Y232569D01*
X47299Y232648D01*
X47302Y232728D01*
X47291Y232808D01*
X47269Y232885D01*
X47235Y232957D01*
X47188Y233022D01*
X46715Y233654D01*
X46307Y234331D01*
X45963Y235041D01*
X45683Y235780D01*
X45472Y236541D01*
X45330Y237318D01*
X45259Y238105D01*
Y238895D01*
X45330Y239682D01*
X45472Y240459D01*
X45683Y241220D01*
X45789Y241500D01*
X54004D01*
Y229759D01*
X53605D01*
X52818Y229830D01*
X52041Y229972D01*
X51280Y230183D01*
X50541Y230463D01*
X49831Y230807D01*
X49154Y231215D01*
X48517Y231681D01*
X48452Y231727D01*
X48381Y231761D01*
X48306Y231783D01*
X48228Y231793D01*
X48149Y231790D01*
X48072Y231776D01*
X47998Y231749D01*
X47929Y231711D01*
X47866Y231663D01*
X47812Y231606D01*
X47768Y231541D01*
X47734Y231470D01*
X47712Y231394D01*
X47702Y231316D01*
X47705Y231238D01*
X47719Y231160D01*
X47746Y231086D01*
X47783Y231017D01*
X47832Y230955D01*
X47890Y230902D01*
X48594Y230374D01*
X49349Y229919D01*
X50142Y229535D01*
X50966Y229224D01*
X51815Y228988D01*
X52682Y228829D01*
X53559Y228750D01*
X54004D01*
Y213000D01*
X53000D01*
Y222000D01*
X43000Y232000D01*
Y241500D01*
G37*
G36*
X54004D02*X62211D01*
X62317Y241220D01*
X62528Y240459D01*
X62670Y239682D01*
X62741Y238895D01*
Y238105D01*
X62670Y237318D01*
X62528Y236541D01*
X62317Y235780D01*
X62037Y235041D01*
X61693Y234331D01*
X61285Y233654D01*
X60819Y233017D01*
X60773Y232952D01*
X60739Y232881D01*
X60717Y232806D01*
X60707Y232728D01*
X60710Y232649D01*
X60724Y232572D01*
X60751Y232498D01*
X60789Y232429D01*
X60837Y232366D01*
X60894Y232312D01*
X60959Y232268D01*
X61030Y232234D01*
X61106Y232212D01*
X61184Y232202D01*
X61262Y232205D01*
X61340Y232219D01*
X61414Y232246D01*
X61483Y232283D01*
X61545Y232332D01*
X61598Y232390D01*
X62126Y233094D01*
X62581Y233849D01*
X62965Y234642D01*
X63276Y235466D01*
X63512Y236315D01*
X63671Y237182D01*
X63750Y238059D01*
Y238941D01*
X63671Y239818D01*
X63512Y240685D01*
X63286Y241500D01*
X75500D01*
Y213000D01*
X54004D01*
Y228750D01*
X54441D01*
X55318Y228829D01*
X56185Y228988D01*
X57034Y229224D01*
X57858Y229535D01*
X58651Y229919D01*
X59406Y230374D01*
X60116Y230894D01*
X60175Y230949D01*
X60224Y231012D01*
X60262Y231083D01*
X60289Y231158D01*
X60304Y231237D01*
X60307Y231317D01*
X60297Y231396D01*
X60274Y231473D01*
X60240Y231545D01*
X60195Y231612D01*
X60140Y231670D01*
X60076Y231719D01*
X60006Y231757D01*
X59931Y231784D01*
X59852Y231799D01*
X59772Y231802D01*
X59692Y231791D01*
X59615Y231769D01*
X59543Y231735D01*
X59478Y231688D01*
X58846Y231215D01*
X58169Y230807D01*
X57459Y230463D01*
X56720Y230183D01*
X55959Y229972D01*
X55182Y229830D01*
X54395Y229759D01*
X54004D01*
Y241500D01*
G37*
G36*
X43000D02*X44714D01*
X44488Y240685D01*
X44329Y239818D01*
X44250Y238941D01*
Y238059D01*
X44329Y237182D01*
X44488Y236315D01*
X44724Y235466D01*
X45035Y234642D01*
X45419Y233849D01*
X45874Y233094D01*
X46394Y232384D01*
X46449Y232325D01*
X46512Y232276D01*
X46583Y232238D01*
X46658Y232211D01*
X46737Y232196D01*
X46817Y232193D01*
X46896Y232203D01*
X46973Y232226D01*
X47045Y232260D01*
X47112Y232305D01*
X47170Y232360D01*
X47219Y232424D01*
X47257Y232494D01*
X47284Y232569D01*
X47299Y232648D01*
X47302Y232728D01*
X47291Y232808D01*
X47269Y232885D01*
X47235Y232957D01*
X47188Y233022D01*
X46715Y233654D01*
X46307Y234331D01*
X45963Y235041D01*
X45683Y235780D01*
X45472Y236541D01*
X45330Y237318D01*
X45259Y238105D01*
Y238895D01*
X45330Y239682D01*
X45472Y240459D01*
X45683Y241220D01*
X45789Y241500D01*
X54004D01*
Y229759D01*
X53605D01*
X52818Y229830D01*
X52041Y229972D01*
X51280Y230183D01*
X50541Y230463D01*
X49831Y230807D01*
X49154Y231215D01*
X48517Y231681D01*
X48452Y231727D01*
X48381Y231761D01*
X48306Y231783D01*
X48228Y231793D01*
X48149Y231790D01*
X48072Y231776D01*
X47998Y231749D01*
X47929Y231711D01*
X47866Y231663D01*
X47812Y231606D01*
X47768Y231541D01*
X47734Y231470D01*
X47712Y231394D01*
X47702Y231316D01*
X47705Y231238D01*
X47719Y231160D01*
X47746Y231086D01*
X47783Y231017D01*
X47832Y230955D01*
X47890Y230902D01*
X48594Y230374D01*
X49349Y229919D01*
X50142Y229535D01*
X50966Y229224D01*
X51815Y228988D01*
X52682Y228829D01*
X53559Y228750D01*
X54004D01*
Y213000D01*
X53000D01*
Y222000D01*
X43000Y232000D01*
Y241500D01*
G37*
G36*
X53000Y217000D02*X75500D01*
Y206500D01*
X53000D01*
Y217000D01*
G37*
G36*
X316472Y54400D02*X324000D01*
Y2000D01*
X316472D01*
Y7717D01*
X316531Y7762D01*
X316586Y7818D01*
X316630Y7884D01*
X316819Y8230D01*
X316972Y8594D01*
X317093Y8970D01*
X317180Y9356D01*
X317232Y9747D01*
X317250Y10142D01*
X317232Y10536D01*
X317180Y10928D01*
X317093Y11313D01*
X316972Y11689D01*
X316819Y12053D01*
X316634Y12402D01*
X316589Y12467D01*
X316534Y12524D01*
X316472Y12571D01*
Y25342D01*
X316772Y25832D01*
X317041Y26479D01*
X317204Y27160D01*
X317245Y27858D01*
X317204Y28557D01*
X317041Y29238D01*
X316772Y29885D01*
X316472Y30375D01*
Y47000D01*
X316756D01*
X316869Y46869D01*
X317144Y46634D01*
X317453Y46444D01*
X317787Y46306D01*
X318139Y46221D01*
X318500Y46193D01*
X318861Y46221D01*
X319213Y46306D01*
X319547Y46444D01*
X319856Y46634D01*
X320131Y46869D01*
X320366Y47144D01*
X320556Y47453D01*
X320694Y47787D01*
X320779Y48139D01*
X320800Y48500D01*
X320779Y48861D01*
X320694Y49213D01*
X320556Y49547D01*
X320366Y49856D01*
X320131Y50131D01*
X319856Y50366D01*
X319547Y50556D01*
X319213Y50694D01*
X318861Y50779D01*
X318500Y50807D01*
X318139Y50779D01*
X317787Y50694D01*
X317453Y50556D01*
X317144Y50366D01*
X316869Y50131D01*
X316756Y50000D01*
X316472D01*
Y54400D01*
G37*
G36*
Y30375D02*X316407Y30482D01*
X315952Y31015D01*
X315419Y31469D01*
X314822Y31835D01*
X314175Y32104D01*
X313494Y32267D01*
X312797Y32322D01*
Y47000D01*
X316472D01*
Y30375D01*
G37*
G36*
Y2000D02*X312797D01*
Y5687D01*
X313190Y5705D01*
X313581Y5757D01*
X313967Y5844D01*
X314343Y5965D01*
X314707Y6118D01*
X315056Y6304D01*
X315121Y6348D01*
X315178Y6403D01*
X315226Y6467D01*
X315263Y6537D01*
X315289Y6612D01*
X315302Y6690D01*
X315304Y6769D01*
X315293Y6847D01*
X315270Y6923D01*
X315235Y6994D01*
X315189Y7059D01*
X315134Y7116D01*
X315071Y7164D01*
X315001Y7201D01*
X314926Y7227D01*
X314848Y7241D01*
X314769Y7242D01*
X314690Y7231D01*
X314615Y7208D01*
X314544Y7172D01*
X314276Y7026D01*
X313994Y6907D01*
X313703Y6813D01*
X313404Y6746D01*
X313101Y6705D01*
X312797Y6692D01*
Y13592D01*
X313101Y13578D01*
X313404Y13538D01*
X313703Y13470D01*
X313994Y13377D01*
X314276Y13258D01*
X314546Y13115D01*
X314616Y13079D01*
X314691Y13056D01*
X314769Y13045D01*
X314848Y13046D01*
X314925Y13060D01*
X315000Y13085D01*
X315069Y13122D01*
X315132Y13170D01*
X315187Y13226D01*
X315232Y13291D01*
X315266Y13362D01*
X315289Y13437D01*
X315300Y13515D01*
X315299Y13593D01*
X315285Y13671D01*
X315260Y13745D01*
X315223Y13815D01*
X315175Y13878D01*
X315119Y13932D01*
X315053Y13976D01*
X314707Y14165D01*
X314343Y14319D01*
X313967Y14439D01*
X313581Y14526D01*
X313190Y14579D01*
X312797Y14596D01*
Y23395D01*
X313494Y23450D01*
X314175Y23613D01*
X314822Y23881D01*
X315419Y24247D01*
X315952Y24702D01*
X316407Y25235D01*
X316472Y25342D01*
Y12571D01*
X316470Y12572D01*
X316400Y12609D01*
X316325Y12635D01*
X316247Y12649D01*
X316168Y12650D01*
X316090Y12639D01*
X316014Y12616D01*
X315943Y12581D01*
X315878Y12536D01*
X315821Y12481D01*
X315773Y12418D01*
X315736Y12348D01*
X315710Y12273D01*
X315696Y12195D01*
X315695Y12115D01*
X315706Y12037D01*
X315729Y11961D01*
X315765Y11891D01*
X315911Y11622D01*
X316030Y11340D01*
X316124Y11049D01*
X316191Y10751D01*
X316232Y10447D01*
X316245Y10142D01*
X316232Y9836D01*
X316191Y9533D01*
X316124Y9234D01*
X316030Y8943D01*
X315911Y8661D01*
X315768Y8391D01*
X315732Y8321D01*
X315709Y8246D01*
X315698Y8168D01*
X315700Y8089D01*
X315713Y8012D01*
X315739Y7937D01*
X315776Y7868D01*
X315823Y7805D01*
X315880Y7750D01*
X315944Y7705D01*
X316015Y7671D01*
X316090Y7648D01*
X316168Y7637D01*
X316247Y7638D01*
X316325Y7652D01*
X316399Y7677D01*
X316468Y7714D01*
X316472Y7717D01*
Y2000D01*
G37*
G36*
X312797Y54400D02*X316472D01*
Y50000D01*
X312797D01*
Y54400D01*
G37*
G36*
X309118Y47000D02*X312797D01*
Y32322D01*
X312795Y32322D01*
X312097Y32267D01*
X311416Y32104D01*
X310769Y31835D01*
X310172Y31469D01*
X309639Y31015D01*
X309184Y30482D01*
X309118Y30375D01*
Y47000D01*
G37*
G36*
X312797Y2000D02*X309118D01*
Y7713D01*
X309120Y7711D01*
X309190Y7674D01*
X309265Y7648D01*
X309343Y7635D01*
X309422Y7633D01*
X309501Y7644D01*
X309577Y7667D01*
X309648Y7702D01*
X309713Y7748D01*
X309770Y7803D01*
X309817Y7866D01*
X309855Y7936D01*
X309881Y8011D01*
X309894Y8089D01*
X309896Y8168D01*
X309885Y8247D01*
X309861Y8322D01*
X309825Y8393D01*
X309679Y8661D01*
X309560Y8943D01*
X309467Y9234D01*
X309399Y9533D01*
X309359Y9836D01*
X309345Y10142D01*
X309359Y10447D01*
X309399Y10751D01*
X309467Y11049D01*
X309560Y11340D01*
X309679Y11622D01*
X309822Y11892D01*
X309858Y11962D01*
X309881Y12038D01*
X309892Y12116D01*
X309891Y12194D01*
X309877Y12272D01*
X309852Y12346D01*
X309815Y12416D01*
X309767Y12479D01*
X309711Y12533D01*
X309646Y12578D01*
X309575Y12613D01*
X309500Y12636D01*
X309422Y12647D01*
X309344Y12645D01*
X309266Y12632D01*
X309192Y12606D01*
X309122Y12569D01*
X309118Y12566D01*
Y25342D01*
X309184Y25235D01*
X309639Y24702D01*
X310172Y24247D01*
X310769Y23881D01*
X311416Y23613D01*
X312097Y23450D01*
X312795Y23395D01*
X312797Y23395D01*
Y14596D01*
X312795Y14596D01*
X312401Y14579D01*
X312009Y14526D01*
X311624Y14439D01*
X311248Y14319D01*
X310884Y14165D01*
X310535Y13980D01*
X310470Y13935D01*
X310413Y13880D01*
X310365Y13817D01*
X310328Y13747D01*
X310302Y13672D01*
X310288Y13594D01*
X310287Y13515D01*
X310298Y13436D01*
X310321Y13360D01*
X310356Y13289D01*
X310401Y13224D01*
X310456Y13167D01*
X310519Y13120D01*
X310589Y13082D01*
X310664Y13057D01*
X310742Y13043D01*
X310822Y13041D01*
X310900Y13052D01*
X310976Y13076D01*
X311046Y13112D01*
X311315Y13258D01*
X311597Y13377D01*
X311888Y13470D01*
X312186Y13538D01*
X312490Y13578D01*
X312795Y13592D01*
X312797Y13592D01*
Y6692D01*
X312795Y6692D01*
X312490Y6705D01*
X312186Y6746D01*
X311888Y6813D01*
X311597Y6907D01*
X311315Y7026D01*
X311045Y7169D01*
X310975Y7205D01*
X310899Y7228D01*
X310821Y7239D01*
X310743Y7237D01*
X310665Y7224D01*
X310591Y7198D01*
X310521Y7161D01*
X310458Y7114D01*
X310404Y7057D01*
X310359Y6993D01*
X310324Y6922D01*
X310301Y6847D01*
X310290Y6769D01*
X310292Y6690D01*
X310305Y6612D01*
X310331Y6538D01*
X310368Y6469D01*
X310415Y6406D01*
X310472Y6351D01*
X310537Y6307D01*
X310884Y6118D01*
X311248Y5965D01*
X311624Y5844D01*
X312009Y5757D01*
X312401Y5705D01*
X312795Y5687D01*
X312797Y5687D01*
Y2000D01*
G37*
G36*
X309118D02*X301246D01*
Y47000D01*
X309118D01*
Y30375D01*
X308818Y29885D01*
X308550Y29238D01*
X308387Y28557D01*
X308332Y27858D01*
X308387Y27160D01*
X308550Y26479D01*
X308818Y25832D01*
X309118Y25342D01*
Y12566D01*
X309059Y12522D01*
X309005Y12465D01*
X308961Y12400D01*
X308772Y12053D01*
X308618Y11689D01*
X308498Y11313D01*
X308411Y10928D01*
X308358Y10536D01*
X308341Y10142D01*
X308358Y9747D01*
X308411Y9356D01*
X308498Y8970D01*
X308618Y8594D01*
X308772Y8230D01*
X308957Y7881D01*
X309002Y7816D01*
X309057Y7759D01*
X309118Y7713D01*
Y2000D01*
G37*
G36*
X301246Y54400D02*X312797D01*
Y50000D01*
X301246D01*
Y54400D01*
G37*
G36*
X290882Y47000D02*X301246D01*
Y2000D01*
X290882D01*
Y7717D01*
X290941Y7762D01*
X290995Y7818D01*
X291039Y7884D01*
X291228Y8230D01*
X291382Y8594D01*
X291502Y8970D01*
X291589Y9356D01*
X291642Y9747D01*
X291659Y10142D01*
X291642Y10536D01*
X291589Y10928D01*
X291502Y11313D01*
X291382Y11689D01*
X291228Y12053D01*
X291043Y12402D01*
X290998Y12467D01*
X290943Y12524D01*
X290882Y12571D01*
Y25342D01*
X291182Y25832D01*
X291450Y26479D01*
X291613Y27160D01*
X291655Y27858D01*
X291613Y28557D01*
X291450Y29238D01*
X291182Y29885D01*
X290882Y30375D01*
Y47000D01*
G37*
G36*
Y2000D02*X287206D01*
Y5687D01*
X287599Y5705D01*
X287991Y5757D01*
X288376Y5844D01*
X288752Y5965D01*
X289116Y6118D01*
X289465Y6304D01*
X289530Y6348D01*
X289587Y6403D01*
X289635Y6467D01*
X289672Y6537D01*
X289698Y6612D01*
X289712Y6690D01*
X289713Y6769D01*
X289702Y6847D01*
X289679Y6923D01*
X289644Y6994D01*
X289599Y7059D01*
X289544Y7116D01*
X289481Y7164D01*
X289411Y7201D01*
X289336Y7227D01*
X289258Y7241D01*
X289178Y7242D01*
X289100Y7231D01*
X289024Y7208D01*
X288954Y7172D01*
X288685Y7026D01*
X288403Y6907D01*
X288112Y6813D01*
X287814Y6746D01*
X287510Y6705D01*
X287206Y6692D01*
Y13592D01*
X287510Y13578D01*
X287814Y13538D01*
X288112Y13470D01*
X288403Y13377D01*
X288685Y13258D01*
X288955Y13115D01*
X289025Y13079D01*
X289101Y13056D01*
X289179Y13045D01*
X289257Y13046D01*
X289335Y13060D01*
X289409Y13085D01*
X289479Y13122D01*
X289542Y13170D01*
X289596Y13226D01*
X289641Y13291D01*
X289676Y13362D01*
X289699Y13437D01*
X289710Y13515D01*
X289708Y13593D01*
X289695Y13671D01*
X289669Y13745D01*
X289632Y13815D01*
X289585Y13878D01*
X289528Y13932D01*
X289463Y13976D01*
X289116Y14165D01*
X288752Y14319D01*
X288376Y14439D01*
X287991Y14526D01*
X287599Y14579D01*
X287206Y14596D01*
Y23395D01*
X287903Y23450D01*
X288584Y23613D01*
X289231Y23881D01*
X289828Y24247D01*
X290361Y24702D01*
X290816Y25235D01*
X290882Y25342D01*
Y12571D01*
X290880Y12572D01*
X290810Y12609D01*
X290735Y12635D01*
X290657Y12649D01*
X290578Y12650D01*
X290499Y12639D01*
X290423Y12616D01*
X290352Y12581D01*
X290287Y12536D01*
X290230Y12481D01*
X290182Y12418D01*
X290145Y12348D01*
X290119Y12273D01*
X290106Y12195D01*
X290104Y12115D01*
X290115Y12037D01*
X290139Y11961D01*
X290175Y11891D01*
X290321Y11622D01*
X290440Y11340D01*
X290533Y11049D01*
X290601Y10751D01*
X290641Y10447D01*
X290655Y10142D01*
X290641Y9836D01*
X290601Y9533D01*
X290533Y9234D01*
X290440Y8943D01*
X290321Y8661D01*
X290178Y8391D01*
X290142Y8321D01*
X290119Y8246D01*
X290108Y8168D01*
X290109Y8089D01*
X290123Y8012D01*
X290148Y7937D01*
X290185Y7868D01*
X290233Y7805D01*
X290289Y7750D01*
X290354Y7705D01*
X290425Y7671D01*
X290500Y7648D01*
X290578Y7637D01*
X290656Y7638D01*
X290734Y7652D01*
X290808Y7677D01*
X290878Y7714D01*
X290882Y7717D01*
Y2000D01*
G37*
G36*
X287206Y47000D02*X290882D01*
Y30375D01*
X290816Y30482D01*
X290361Y31015D01*
X289828Y31469D01*
X289231Y31835D01*
X288584Y32104D01*
X287903Y32267D01*
X287206Y32322D01*
Y47000D01*
G37*
G36*
Y54400D02*X301246D01*
Y50000D01*
X287206D01*
Y54400D01*
G37*
G36*
X283528Y25342D02*X283593Y25235D01*
X284048Y24702D01*
X284581Y24247D01*
X285178Y23881D01*
X285825Y23613D01*
X286506Y23450D01*
X287205Y23395D01*
X287206Y23395D01*
Y14596D01*
X287205Y14596D01*
X286810Y14579D01*
X286419Y14526D01*
X286033Y14439D01*
X285657Y14319D01*
X285293Y14165D01*
X284944Y13980D01*
X284879Y13935D01*
X284822Y13880D01*
X284774Y13817D01*
X284737Y13747D01*
X284711Y13672D01*
X284698Y13594D01*
X284696Y13515D01*
X284707Y13436D01*
X284730Y13360D01*
X284765Y13289D01*
X284811Y13224D01*
X284866Y13167D01*
X284929Y13120D01*
X284999Y13082D01*
X285074Y13057D01*
X285152Y13043D01*
X285231Y13041D01*
X285310Y13052D01*
X285385Y13076D01*
X285456Y13112D01*
X285724Y13258D01*
X286006Y13377D01*
X286297Y13470D01*
X286596Y13538D01*
X286899Y13578D01*
X287205Y13592D01*
X287206Y13592D01*
Y6692D01*
X287205Y6692D01*
X286899Y6705D01*
X286596Y6746D01*
X286297Y6813D01*
X286006Y6907D01*
X285724Y7026D01*
X285454Y7169D01*
X285384Y7205D01*
X285309Y7228D01*
X285231Y7239D01*
X285152Y7237D01*
X285075Y7224D01*
X285000Y7198D01*
X284931Y7161D01*
X284868Y7114D01*
X284813Y7057D01*
X284768Y6993D01*
X284734Y6922D01*
X284711Y6847D01*
X284700Y6769D01*
X284701Y6690D01*
X284715Y6612D01*
X284740Y6538D01*
X284777Y6469D01*
X284825Y6406D01*
X284881Y6351D01*
X284947Y6307D01*
X285293Y6118D01*
X285657Y5965D01*
X286033Y5844D01*
X286419Y5757D01*
X286810Y5705D01*
X287205Y5687D01*
X287206Y5687D01*
Y2000D01*
X283528D01*
Y7713D01*
X283530Y7711D01*
X283600Y7674D01*
X283675Y7648D01*
X283753Y7635D01*
X283832Y7633D01*
X283910Y7644D01*
X283986Y7667D01*
X284057Y7702D01*
X284122Y7748D01*
X284179Y7803D01*
X284227Y7866D01*
X284264Y7936D01*
X284290Y8011D01*
X284304Y8089D01*
X284305Y8168D01*
X284294Y8247D01*
X284271Y8322D01*
X284235Y8393D01*
X284089Y8661D01*
X283970Y8943D01*
X283876Y9234D01*
X283809Y9533D01*
X283768Y9836D01*
X283755Y10142D01*
X283768Y10447D01*
X283809Y10751D01*
X283876Y11049D01*
X283970Y11340D01*
X284089Y11622D01*
X284232Y11892D01*
X284268Y11962D01*
X284291Y12038D01*
X284302Y12116D01*
X284300Y12194D01*
X284287Y12272D01*
X284261Y12346D01*
X284224Y12416D01*
X284177Y12479D01*
X284120Y12533D01*
X284056Y12578D01*
X283985Y12613D01*
X283910Y12636D01*
X283832Y12647D01*
X283753Y12645D01*
X283675Y12632D01*
X283601Y12606D01*
X283532Y12569D01*
X283528Y12566D01*
Y25342D01*
G37*
G36*
Y46248D02*X283639Y46221D01*
X284000Y46193D01*
X284361Y46221D01*
X284713Y46306D01*
X285047Y46444D01*
X285356Y46634D01*
X285631Y46869D01*
X285744Y47000D01*
X287206D01*
Y32322D01*
X287205Y32322D01*
X286506Y32267D01*
X285825Y32104D01*
X285178Y31835D01*
X284581Y31469D01*
X284048Y31015D01*
X283593Y30482D01*
X283528Y30375D01*
Y46248D01*
G37*
G36*
Y54400D02*X287206D01*
Y50000D01*
X285744D01*
X285631Y50131D01*
X285356Y50366D01*
X285047Y50556D01*
X284713Y50694D01*
X284361Y50779D01*
X284000Y50807D01*
X283639Y50779D01*
X283528Y50752D01*
Y54400D01*
G37*
G36*
X249772D02*X283528D01*
Y50752D01*
X283287Y50694D01*
X282953Y50556D01*
X282644Y50366D01*
X282369Y50131D01*
X282134Y49856D01*
X281944Y49547D01*
X281806Y49213D01*
X281721Y48861D01*
X281693Y48500D01*
X281721Y48139D01*
X281806Y47787D01*
X281944Y47453D01*
X282134Y47144D01*
X282369Y46869D01*
X282644Y46634D01*
X282953Y46444D01*
X283287Y46306D01*
X283528Y46248D01*
Y30375D01*
X283228Y29885D01*
X282959Y29238D01*
X282796Y28557D01*
X282741Y27858D01*
X282796Y27160D01*
X282959Y26479D01*
X283228Y25832D01*
X283528Y25342D01*
Y12566D01*
X283469Y12522D01*
X283414Y12465D01*
X283370Y12400D01*
X283181Y12053D01*
X283028Y11689D01*
X282907Y11313D01*
X282820Y10928D01*
X282768Y10536D01*
X282750Y10142D01*
X282768Y9747D01*
X282820Y9356D01*
X282907Y8970D01*
X283028Y8594D01*
X283181Y8230D01*
X283366Y7881D01*
X283411Y7816D01*
X283466Y7759D01*
X283528Y7713D01*
Y2000D01*
X249772D01*
Y7717D01*
X249831Y7762D01*
X249886Y7818D01*
X249930Y7884D01*
X250119Y8230D01*
X250272Y8594D01*
X250393Y8970D01*
X250480Y9356D01*
X250532Y9747D01*
X250550Y10142D01*
X250532Y10536D01*
X250480Y10928D01*
X250393Y11313D01*
X250272Y11689D01*
X250119Y12053D01*
X249934Y12402D01*
X249889Y12467D01*
X249834Y12524D01*
X249772Y12571D01*
Y25342D01*
X250072Y25832D01*
X250341Y26479D01*
X250504Y27160D01*
X250545Y27858D01*
X250504Y28557D01*
X250341Y29238D01*
X250072Y29885D01*
X249772Y30375D01*
Y54400D01*
G37*
G36*
Y2000D02*X246097D01*
Y5687D01*
X246490Y5705D01*
X246881Y5757D01*
X247267Y5844D01*
X247643Y5965D01*
X248007Y6118D01*
X248356Y6304D01*
X248421Y6348D01*
X248478Y6403D01*
X248526Y6467D01*
X248563Y6537D01*
X248589Y6612D01*
X248602Y6690D01*
X248604Y6769D01*
X248593Y6847D01*
X248570Y6923D01*
X248535Y6994D01*
X248489Y7059D01*
X248434Y7116D01*
X248371Y7164D01*
X248301Y7201D01*
X248226Y7227D01*
X248148Y7241D01*
X248069Y7242D01*
X247990Y7231D01*
X247915Y7208D01*
X247844Y7172D01*
X247576Y7026D01*
X247294Y6907D01*
X247003Y6813D01*
X246704Y6746D01*
X246401Y6705D01*
X246097Y6692D01*
Y13592D01*
X246401Y13578D01*
X246704Y13538D01*
X247003Y13470D01*
X247294Y13377D01*
X247576Y13258D01*
X247846Y13115D01*
X247916Y13079D01*
X247991Y13056D01*
X248069Y13045D01*
X248148Y13046D01*
X248225Y13060D01*
X248300Y13085D01*
X248369Y13122D01*
X248432Y13170D01*
X248487Y13226D01*
X248532Y13291D01*
X248566Y13362D01*
X248589Y13437D01*
X248600Y13515D01*
X248599Y13593D01*
X248585Y13671D01*
X248560Y13745D01*
X248523Y13815D01*
X248475Y13878D01*
X248419Y13932D01*
X248353Y13976D01*
X248007Y14165D01*
X247643Y14319D01*
X247267Y14439D01*
X246881Y14526D01*
X246490Y14579D01*
X246097Y14596D01*
Y23395D01*
X246794Y23450D01*
X247475Y23613D01*
X248122Y23881D01*
X248719Y24247D01*
X249252Y24702D01*
X249707Y25235D01*
X249772Y25342D01*
Y12571D01*
X249770Y12572D01*
X249700Y12609D01*
X249625Y12635D01*
X249547Y12649D01*
X249468Y12650D01*
X249390Y12639D01*
X249314Y12616D01*
X249243Y12581D01*
X249178Y12536D01*
X249121Y12481D01*
X249073Y12418D01*
X249036Y12348D01*
X249010Y12273D01*
X248996Y12195D01*
X248995Y12115D01*
X249006Y12037D01*
X249029Y11961D01*
X249065Y11891D01*
X249211Y11622D01*
X249330Y11340D01*
X249424Y11049D01*
X249491Y10751D01*
X249532Y10447D01*
X249545Y10142D01*
X249532Y9836D01*
X249491Y9533D01*
X249424Y9234D01*
X249330Y8943D01*
X249211Y8661D01*
X249068Y8391D01*
X249032Y8321D01*
X249009Y8246D01*
X248998Y8168D01*
X249000Y8089D01*
X249013Y8012D01*
X249039Y7937D01*
X249076Y7868D01*
X249123Y7805D01*
X249180Y7750D01*
X249244Y7705D01*
X249315Y7671D01*
X249390Y7648D01*
X249468Y7637D01*
X249547Y7638D01*
X249625Y7652D01*
X249699Y7677D01*
X249768Y7714D01*
X249772Y7717D01*
Y2000D01*
G37*
G36*
X246097Y54400D02*X249772D01*
Y30375D01*
X249707Y30482D01*
X249252Y31015D01*
X248719Y31469D01*
X248122Y31835D01*
X247475Y32104D01*
X246794Y32267D01*
X246097Y32322D01*
Y54400D01*
G37*
G36*
X242418Y25342D02*X242484Y25235D01*
X242939Y24702D01*
X243472Y24247D01*
X244069Y23881D01*
X244716Y23613D01*
X245397Y23450D01*
X246095Y23395D01*
X246097Y23395D01*
Y14596D01*
X246095Y14596D01*
X245701Y14579D01*
X245309Y14526D01*
X244924Y14439D01*
X244548Y14319D01*
X244184Y14165D01*
X243835Y13980D01*
X243770Y13935D01*
X243713Y13880D01*
X243665Y13817D01*
X243628Y13747D01*
X243602Y13672D01*
X243588Y13594D01*
X243587Y13515D01*
X243598Y13436D01*
X243621Y13360D01*
X243656Y13289D01*
X243701Y13224D01*
X243756Y13167D01*
X243819Y13120D01*
X243889Y13082D01*
X243964Y13057D01*
X244042Y13043D01*
X244122Y13041D01*
X244200Y13052D01*
X244276Y13076D01*
X244346Y13112D01*
X244615Y13258D01*
X244897Y13377D01*
X245188Y13470D01*
X245486Y13538D01*
X245790Y13578D01*
X246095Y13592D01*
X246097Y13592D01*
Y6692D01*
X246095Y6692D01*
X245790Y6705D01*
X245486Y6746D01*
X245188Y6813D01*
X244897Y6907D01*
X244615Y7026D01*
X244345Y7169D01*
X244275Y7205D01*
X244199Y7228D01*
X244121Y7239D01*
X244043Y7237D01*
X243965Y7224D01*
X243891Y7198D01*
X243821Y7161D01*
X243758Y7114D01*
X243704Y7057D01*
X243659Y6993D01*
X243624Y6922D01*
X243601Y6847D01*
X243590Y6769D01*
X243592Y6690D01*
X243605Y6612D01*
X243631Y6538D01*
X243668Y6469D01*
X243715Y6406D01*
X243772Y6351D01*
X243837Y6307D01*
X244184Y6118D01*
X244548Y5965D01*
X244924Y5844D01*
X245309Y5757D01*
X245701Y5705D01*
X246095Y5687D01*
X246097Y5687D01*
Y2000D01*
X242418D01*
Y7713D01*
X242420Y7711D01*
X242490Y7674D01*
X242565Y7648D01*
X242643Y7635D01*
X242722Y7633D01*
X242801Y7644D01*
X242877Y7667D01*
X242948Y7702D01*
X243013Y7748D01*
X243070Y7803D01*
X243117Y7866D01*
X243155Y7936D01*
X243181Y8011D01*
X243194Y8089D01*
X243196Y8168D01*
X243185Y8247D01*
X243161Y8322D01*
X243125Y8393D01*
X242979Y8661D01*
X242860Y8943D01*
X242767Y9234D01*
X242699Y9533D01*
X242659Y9836D01*
X242645Y10142D01*
X242659Y10447D01*
X242699Y10751D01*
X242767Y11049D01*
X242860Y11340D01*
X242979Y11622D01*
X243122Y11892D01*
X243158Y11962D01*
X243181Y12038D01*
X243192Y12116D01*
X243191Y12194D01*
X243177Y12272D01*
X243152Y12346D01*
X243115Y12416D01*
X243067Y12479D01*
X243011Y12533D01*
X242946Y12578D01*
X242875Y12613D01*
X242800Y12636D01*
X242722Y12647D01*
X242644Y12645D01*
X242566Y12632D01*
X242492Y12606D01*
X242422Y12569D01*
X242418Y12566D01*
Y25342D01*
G37*
G36*
Y54400D02*X246097D01*
Y32322D01*
X246095Y32322D01*
X245397Y32267D01*
X244716Y32104D01*
X244069Y31835D01*
X243472Y31469D01*
X242939Y31015D01*
X242484Y30482D01*
X242418Y30375D01*
Y54400D01*
G37*
G36*
X224182D02*X242418D01*
Y30375D01*
X242118Y29885D01*
X241850Y29238D01*
X241687Y28557D01*
X241632Y27858D01*
X241687Y27160D01*
X241850Y26479D01*
X242118Y25832D01*
X242418Y25342D01*
Y12566D01*
X242359Y12522D01*
X242305Y12465D01*
X242261Y12400D01*
X242072Y12053D01*
X241918Y11689D01*
X241798Y11313D01*
X241711Y10928D01*
X241658Y10536D01*
X241641Y10142D01*
X241658Y9747D01*
X241711Y9356D01*
X241798Y8970D01*
X241918Y8594D01*
X242072Y8230D01*
X242257Y7881D01*
X242302Y7816D01*
X242357Y7759D01*
X242418Y7713D01*
Y2000D01*
X224182D01*
Y7717D01*
X224241Y7762D01*
X224295Y7818D01*
X224339Y7884D01*
X224528Y8230D01*
X224682Y8594D01*
X224802Y8970D01*
X224889Y9356D01*
X224942Y9747D01*
X224959Y10142D01*
X224942Y10536D01*
X224889Y10928D01*
X224802Y11313D01*
X224682Y11689D01*
X224528Y12053D01*
X224343Y12402D01*
X224298Y12467D01*
X224243Y12524D01*
X224182Y12571D01*
Y25342D01*
X224482Y25832D01*
X224750Y26479D01*
X224913Y27160D01*
X224955Y27858D01*
X224913Y28557D01*
X224750Y29238D01*
X224482Y29885D01*
X224182Y30375D01*
Y54400D01*
G37*
G36*
Y2000D02*X220506D01*
Y5687D01*
X220899Y5705D01*
X221291Y5757D01*
X221676Y5844D01*
X222052Y5965D01*
X222416Y6118D01*
X222765Y6304D01*
X222830Y6348D01*
X222887Y6403D01*
X222935Y6467D01*
X222972Y6537D01*
X222998Y6612D01*
X223012Y6690D01*
X223013Y6769D01*
X223002Y6847D01*
X222979Y6923D01*
X222944Y6994D01*
X222899Y7059D01*
X222844Y7116D01*
X222781Y7164D01*
X222711Y7201D01*
X222636Y7227D01*
X222558Y7241D01*
X222478Y7242D01*
X222400Y7231D01*
X222324Y7208D01*
X222254Y7172D01*
X221985Y7026D01*
X221703Y6907D01*
X221412Y6813D01*
X221114Y6746D01*
X220810Y6705D01*
X220506Y6692D01*
Y13592D01*
X220810Y13578D01*
X221114Y13538D01*
X221412Y13470D01*
X221703Y13377D01*
X221985Y13258D01*
X222255Y13115D01*
X222325Y13079D01*
X222401Y13056D01*
X222479Y13045D01*
X222557Y13046D01*
X222635Y13060D01*
X222709Y13085D01*
X222779Y13122D01*
X222842Y13170D01*
X222896Y13226D01*
X222941Y13291D01*
X222976Y13362D01*
X222999Y13437D01*
X223010Y13515D01*
X223008Y13593D01*
X222995Y13671D01*
X222969Y13745D01*
X222932Y13815D01*
X222885Y13878D01*
X222828Y13932D01*
X222763Y13976D01*
X222416Y14165D01*
X222052Y14319D01*
X221676Y14439D01*
X221291Y14526D01*
X220899Y14579D01*
X220506Y14596D01*
Y23395D01*
X221203Y23450D01*
X221884Y23613D01*
X222531Y23881D01*
X223128Y24247D01*
X223661Y24702D01*
X224116Y25235D01*
X224182Y25342D01*
Y12571D01*
X224180Y12572D01*
X224110Y12609D01*
X224035Y12635D01*
X223957Y12649D01*
X223878Y12650D01*
X223799Y12639D01*
X223723Y12616D01*
X223652Y12581D01*
X223587Y12536D01*
X223530Y12481D01*
X223482Y12418D01*
X223445Y12348D01*
X223419Y12273D01*
X223406Y12195D01*
X223404Y12115D01*
X223415Y12037D01*
X223439Y11961D01*
X223475Y11891D01*
X223621Y11622D01*
X223740Y11340D01*
X223833Y11049D01*
X223901Y10751D01*
X223941Y10447D01*
X223955Y10142D01*
X223941Y9836D01*
X223901Y9533D01*
X223833Y9234D01*
X223740Y8943D01*
X223621Y8661D01*
X223478Y8391D01*
X223442Y8321D01*
X223419Y8246D01*
X223408Y8168D01*
X223409Y8089D01*
X223423Y8012D01*
X223448Y7937D01*
X223485Y7868D01*
X223533Y7805D01*
X223589Y7750D01*
X223654Y7705D01*
X223725Y7671D01*
X223800Y7648D01*
X223878Y7637D01*
X223956Y7638D01*
X224034Y7652D01*
X224108Y7677D01*
X224178Y7714D01*
X224182Y7717D01*
Y2000D01*
G37*
G36*
X220506Y54400D02*X224182D01*
Y30375D01*
X224116Y30482D01*
X223661Y31015D01*
X223128Y31469D01*
X222531Y31835D01*
X221884Y32104D01*
X221203Y32267D01*
X220506Y32322D01*
Y54400D01*
G37*
G36*
X216828Y25342D02*X216893Y25235D01*
X217348Y24702D01*
X217881Y24247D01*
X218478Y23881D01*
X219125Y23613D01*
X219806Y23450D01*
X220505Y23395D01*
X220506Y23395D01*
Y14596D01*
X220505Y14596D01*
X220110Y14579D01*
X219719Y14526D01*
X219333Y14439D01*
X218957Y14319D01*
X218593Y14165D01*
X218244Y13980D01*
X218179Y13935D01*
X218122Y13880D01*
X218074Y13817D01*
X218037Y13747D01*
X218011Y13672D01*
X217998Y13594D01*
X217996Y13515D01*
X218007Y13436D01*
X218030Y13360D01*
X218065Y13289D01*
X218111Y13224D01*
X218166Y13167D01*
X218229Y13120D01*
X218299Y13082D01*
X218374Y13057D01*
X218452Y13043D01*
X218531Y13041D01*
X218609Y13052D01*
X218685Y13076D01*
X218756Y13112D01*
X219024Y13258D01*
X219306Y13377D01*
X219597Y13470D01*
X219896Y13538D01*
X220199Y13578D01*
X220505Y13592D01*
X220506Y13592D01*
Y6692D01*
X220505Y6692D01*
X220199Y6705D01*
X219896Y6746D01*
X219597Y6813D01*
X219306Y6907D01*
X219024Y7026D01*
X218754Y7169D01*
X218684Y7205D01*
X218609Y7228D01*
X218531Y7239D01*
X218452Y7237D01*
X218375Y7224D01*
X218300Y7198D01*
X218231Y7161D01*
X218168Y7114D01*
X218113Y7057D01*
X218068Y6993D01*
X218034Y6922D01*
X218011Y6847D01*
X218000Y6769D01*
X218001Y6690D01*
X218015Y6612D01*
X218040Y6538D01*
X218077Y6469D01*
X218125Y6406D01*
X218181Y6351D01*
X218247Y6307D01*
X218593Y6118D01*
X218957Y5965D01*
X219333Y5844D01*
X219719Y5757D01*
X220110Y5705D01*
X220505Y5687D01*
X220506Y5687D01*
Y2000D01*
X216828D01*
Y7713D01*
X216830Y7711D01*
X216900Y7674D01*
X216975Y7648D01*
X217053Y7635D01*
X217132Y7633D01*
X217210Y7644D01*
X217286Y7667D01*
X217357Y7702D01*
X217422Y7748D01*
X217479Y7803D01*
X217527Y7866D01*
X217564Y7936D01*
X217590Y8011D01*
X217604Y8089D01*
X217605Y8168D01*
X217594Y8247D01*
X217571Y8322D01*
X217535Y8393D01*
X217389Y8661D01*
X217270Y8943D01*
X217176Y9234D01*
X217109Y9533D01*
X217068Y9836D01*
X217055Y10142D01*
X217068Y10447D01*
X217109Y10751D01*
X217176Y11049D01*
X217270Y11340D01*
X217389Y11622D01*
X217532Y11892D01*
X217568Y11962D01*
X217591Y12038D01*
X217602Y12116D01*
X217600Y12194D01*
X217587Y12272D01*
X217561Y12346D01*
X217524Y12416D01*
X217477Y12479D01*
X217420Y12533D01*
X217356Y12578D01*
X217285Y12613D01*
X217210Y12636D01*
X217132Y12647D01*
X217053Y12645D01*
X216975Y12632D01*
X216901Y12606D01*
X216832Y12569D01*
X216828Y12566D01*
Y25342D01*
G37*
G36*
Y54400D02*X220506D01*
Y32322D01*
X220505Y32322D01*
X219806Y32267D01*
X219125Y32104D01*
X218478Y31835D01*
X217881Y31469D01*
X217348Y31015D01*
X216893Y30482D01*
X216828Y30375D01*
Y54400D01*
G37*
G36*
X183172D02*X216828D01*
Y30375D01*
X216528Y29885D01*
X216259Y29238D01*
X216096Y28557D01*
X216041Y27858D01*
X216096Y27160D01*
X216259Y26479D01*
X216528Y25832D01*
X216828Y25342D01*
Y12566D01*
X216769Y12522D01*
X216714Y12465D01*
X216670Y12400D01*
X216481Y12053D01*
X216328Y11689D01*
X216207Y11313D01*
X216120Y10928D01*
X216068Y10536D01*
X216050Y10142D01*
X216068Y9747D01*
X216120Y9356D01*
X216207Y8970D01*
X216328Y8594D01*
X216481Y8230D01*
X216666Y7881D01*
X216711Y7816D01*
X216766Y7759D01*
X216828Y7713D01*
Y2000D01*
X183172D01*
Y7717D01*
X183231Y7762D01*
X183286Y7818D01*
X183330Y7884D01*
X183519Y8230D01*
X183672Y8594D01*
X183793Y8970D01*
X183880Y9356D01*
X183932Y9747D01*
X183950Y10142D01*
X183932Y10536D01*
X183880Y10928D01*
X183793Y11313D01*
X183672Y11689D01*
X183519Y12053D01*
X183334Y12402D01*
X183289Y12467D01*
X183234Y12524D01*
X183172Y12571D01*
Y25342D01*
X183472Y25832D01*
X183741Y26479D01*
X183904Y27160D01*
X183945Y27858D01*
X183904Y28557D01*
X183741Y29238D01*
X183472Y29885D01*
X183172Y30375D01*
Y54400D01*
G37*
G36*
Y2000D02*X179497D01*
Y5687D01*
X179890Y5705D01*
X180281Y5757D01*
X180667Y5844D01*
X181043Y5965D01*
X181407Y6118D01*
X181756Y6304D01*
X181821Y6348D01*
X181878Y6403D01*
X181926Y6467D01*
X181963Y6537D01*
X181989Y6612D01*
X182002Y6690D01*
X182004Y6769D01*
X181993Y6847D01*
X181970Y6923D01*
X181935Y6994D01*
X181889Y7059D01*
X181834Y7116D01*
X181771Y7164D01*
X181701Y7201D01*
X181626Y7227D01*
X181548Y7241D01*
X181469Y7242D01*
X181390Y7231D01*
X181315Y7208D01*
X181244Y7172D01*
X180976Y7026D01*
X180694Y6907D01*
X180403Y6813D01*
X180104Y6746D01*
X179801Y6705D01*
X179497Y6692D01*
Y13592D01*
X179801Y13578D01*
X180104Y13538D01*
X180403Y13470D01*
X180694Y13377D01*
X180976Y13258D01*
X181246Y13115D01*
X181316Y13079D01*
X181391Y13056D01*
X181469Y13045D01*
X181548Y13046D01*
X181625Y13060D01*
X181700Y13085D01*
X181769Y13122D01*
X181832Y13170D01*
X181887Y13226D01*
X181932Y13291D01*
X181966Y13362D01*
X181989Y13437D01*
X182000Y13515D01*
X181999Y13593D01*
X181985Y13671D01*
X181960Y13745D01*
X181923Y13815D01*
X181875Y13878D01*
X181819Y13932D01*
X181753Y13976D01*
X181407Y14165D01*
X181043Y14319D01*
X180667Y14439D01*
X180281Y14526D01*
X179890Y14579D01*
X179497Y14596D01*
Y23395D01*
X180194Y23450D01*
X180875Y23613D01*
X181522Y23881D01*
X182119Y24247D01*
X182652Y24702D01*
X183107Y25235D01*
X183172Y25342D01*
Y12571D01*
X183170Y12572D01*
X183100Y12609D01*
X183025Y12635D01*
X182947Y12649D01*
X182868Y12650D01*
X182790Y12639D01*
X182714Y12616D01*
X182643Y12581D01*
X182578Y12536D01*
X182521Y12481D01*
X182473Y12418D01*
X182436Y12348D01*
X182410Y12273D01*
X182396Y12195D01*
X182395Y12115D01*
X182406Y12037D01*
X182429Y11961D01*
X182465Y11891D01*
X182611Y11622D01*
X182730Y11340D01*
X182824Y11049D01*
X182891Y10751D01*
X182932Y10447D01*
X182945Y10142D01*
X182932Y9836D01*
X182891Y9533D01*
X182824Y9234D01*
X182730Y8943D01*
X182611Y8661D01*
X182468Y8391D01*
X182432Y8321D01*
X182409Y8246D01*
X182398Y8168D01*
X182400Y8089D01*
X182413Y8012D01*
X182439Y7937D01*
X182476Y7868D01*
X182523Y7805D01*
X182580Y7750D01*
X182644Y7705D01*
X182715Y7671D01*
X182790Y7648D01*
X182868Y7637D01*
X182947Y7638D01*
X183025Y7652D01*
X183099Y7677D01*
X183168Y7714D01*
X183172Y7717D01*
Y2000D01*
G37*
G36*
X179497Y54400D02*X183172D01*
Y30375D01*
X183107Y30482D01*
X182652Y31015D01*
X182119Y31469D01*
X181522Y31835D01*
X180875Y32104D01*
X180194Y32267D01*
X179497Y32322D01*
Y54400D01*
G37*
G36*
X175818Y25342D02*X175884Y25235D01*
X176339Y24702D01*
X176872Y24247D01*
X177469Y23881D01*
X178116Y23613D01*
X178797Y23450D01*
X179495Y23395D01*
X179497Y23395D01*
Y14596D01*
X179495Y14596D01*
X179101Y14579D01*
X178709Y14526D01*
X178324Y14439D01*
X177948Y14319D01*
X177584Y14165D01*
X177235Y13980D01*
X177170Y13935D01*
X177113Y13880D01*
X177065Y13817D01*
X177028Y13747D01*
X177002Y13672D01*
X176988Y13594D01*
X176987Y13515D01*
X176998Y13436D01*
X177021Y13360D01*
X177056Y13289D01*
X177101Y13224D01*
X177156Y13167D01*
X177219Y13120D01*
X177289Y13082D01*
X177364Y13057D01*
X177442Y13043D01*
X177522Y13041D01*
X177600Y13052D01*
X177676Y13076D01*
X177746Y13112D01*
X178015Y13258D01*
X178297Y13377D01*
X178588Y13470D01*
X178886Y13538D01*
X179190Y13578D01*
X179495Y13592D01*
X179497Y13592D01*
Y6692D01*
X179495Y6692D01*
X179190Y6705D01*
X178886Y6746D01*
X178588Y6813D01*
X178297Y6907D01*
X178015Y7026D01*
X177745Y7169D01*
X177675Y7205D01*
X177599Y7228D01*
X177521Y7239D01*
X177443Y7237D01*
X177365Y7224D01*
X177291Y7198D01*
X177221Y7161D01*
X177158Y7114D01*
X177104Y7057D01*
X177059Y6993D01*
X177024Y6922D01*
X177001Y6847D01*
X176990Y6769D01*
X176992Y6690D01*
X177005Y6612D01*
X177031Y6538D01*
X177068Y6469D01*
X177115Y6406D01*
X177172Y6351D01*
X177237Y6307D01*
X177584Y6118D01*
X177948Y5965D01*
X178324Y5844D01*
X178709Y5757D01*
X179101Y5705D01*
X179495Y5687D01*
X179497Y5687D01*
Y2000D01*
X175818D01*
Y7713D01*
X175820Y7711D01*
X175890Y7674D01*
X175965Y7648D01*
X176043Y7635D01*
X176122Y7633D01*
X176201Y7644D01*
X176277Y7667D01*
X176348Y7702D01*
X176413Y7748D01*
X176470Y7803D01*
X176517Y7866D01*
X176555Y7936D01*
X176581Y8011D01*
X176594Y8089D01*
X176596Y8168D01*
X176585Y8247D01*
X176561Y8322D01*
X176525Y8393D01*
X176379Y8661D01*
X176260Y8943D01*
X176167Y9234D01*
X176099Y9533D01*
X176059Y9836D01*
X176045Y10142D01*
X176059Y10447D01*
X176099Y10751D01*
X176167Y11049D01*
X176260Y11340D01*
X176379Y11622D01*
X176522Y11892D01*
X176558Y11962D01*
X176581Y12038D01*
X176592Y12116D01*
X176591Y12194D01*
X176577Y12272D01*
X176552Y12346D01*
X176515Y12416D01*
X176467Y12479D01*
X176411Y12533D01*
X176346Y12578D01*
X176275Y12613D01*
X176200Y12636D01*
X176122Y12647D01*
X176044Y12645D01*
X175966Y12632D01*
X175892Y12606D01*
X175822Y12569D01*
X175818Y12566D01*
Y25342D01*
G37*
G36*
Y54400D02*X179497D01*
Y32322D01*
X179495Y32322D01*
X178797Y32267D01*
X178116Y32104D01*
X177469Y31835D01*
X176872Y31469D01*
X176339Y31015D01*
X175884Y30482D01*
X175818Y30375D01*
Y54400D01*
G37*
G36*
X157582D02*X175818D01*
Y30375D01*
X175518Y29885D01*
X175250Y29238D01*
X175087Y28557D01*
X175032Y27858D01*
X175087Y27160D01*
X175250Y26479D01*
X175518Y25832D01*
X175818Y25342D01*
Y12566D01*
X175759Y12522D01*
X175705Y12465D01*
X175661Y12400D01*
X175472Y12053D01*
X175318Y11689D01*
X175198Y11313D01*
X175111Y10928D01*
X175058Y10536D01*
X175041Y10142D01*
X175058Y9747D01*
X175111Y9356D01*
X175198Y8970D01*
X175318Y8594D01*
X175472Y8230D01*
X175657Y7881D01*
X175702Y7816D01*
X175757Y7759D01*
X175818Y7713D01*
Y2000D01*
X157582D01*
Y7717D01*
X157641Y7762D01*
X157695Y7818D01*
X157739Y7884D01*
X157928Y8230D01*
X158082Y8594D01*
X158202Y8970D01*
X158289Y9356D01*
X158342Y9747D01*
X158359Y10142D01*
X158342Y10536D01*
X158289Y10928D01*
X158202Y11313D01*
X158082Y11689D01*
X157928Y12053D01*
X157743Y12402D01*
X157698Y12467D01*
X157643Y12524D01*
X157582Y12571D01*
Y25342D01*
X157882Y25832D01*
X158150Y26479D01*
X158313Y27160D01*
X158355Y27858D01*
X158313Y28557D01*
X158150Y29238D01*
X157882Y29885D01*
X157582Y30375D01*
Y54400D01*
G37*
G36*
Y2000D02*X153906D01*
Y5687D01*
X154299Y5705D01*
X154691Y5757D01*
X155076Y5844D01*
X155452Y5965D01*
X155816Y6118D01*
X156165Y6304D01*
X156230Y6348D01*
X156287Y6403D01*
X156335Y6467D01*
X156372Y6537D01*
X156398Y6612D01*
X156412Y6690D01*
X156413Y6769D01*
X156402Y6847D01*
X156379Y6923D01*
X156344Y6994D01*
X156299Y7059D01*
X156244Y7116D01*
X156181Y7164D01*
X156111Y7201D01*
X156036Y7227D01*
X155958Y7241D01*
X155878Y7242D01*
X155800Y7231D01*
X155724Y7208D01*
X155654Y7172D01*
X155385Y7026D01*
X155103Y6907D01*
X154812Y6813D01*
X154514Y6746D01*
X154210Y6705D01*
X153906Y6692D01*
Y13592D01*
X154210Y13578D01*
X154514Y13538D01*
X154812Y13470D01*
X155103Y13377D01*
X155385Y13258D01*
X155655Y13115D01*
X155725Y13079D01*
X155801Y13056D01*
X155879Y13045D01*
X155957Y13046D01*
X156035Y13060D01*
X156109Y13085D01*
X156179Y13122D01*
X156242Y13170D01*
X156296Y13226D01*
X156341Y13291D01*
X156376Y13362D01*
X156399Y13437D01*
X156410Y13515D01*
X156408Y13593D01*
X156395Y13671D01*
X156369Y13745D01*
X156332Y13815D01*
X156285Y13878D01*
X156228Y13932D01*
X156163Y13976D01*
X155816Y14165D01*
X155452Y14319D01*
X155076Y14439D01*
X154691Y14526D01*
X154299Y14579D01*
X153906Y14596D01*
Y23395D01*
X154603Y23450D01*
X155284Y23613D01*
X155931Y23881D01*
X156528Y24247D01*
X157061Y24702D01*
X157516Y25235D01*
X157582Y25342D01*
Y12571D01*
X157580Y12572D01*
X157510Y12609D01*
X157435Y12635D01*
X157357Y12649D01*
X157278Y12650D01*
X157199Y12639D01*
X157123Y12616D01*
X157052Y12581D01*
X156987Y12536D01*
X156930Y12481D01*
X156882Y12418D01*
X156845Y12348D01*
X156819Y12273D01*
X156806Y12195D01*
X156804Y12115D01*
X156815Y12037D01*
X156839Y11961D01*
X156875Y11891D01*
X157021Y11622D01*
X157140Y11340D01*
X157233Y11049D01*
X157301Y10751D01*
X157341Y10447D01*
X157355Y10142D01*
X157341Y9836D01*
X157301Y9533D01*
X157233Y9234D01*
X157140Y8943D01*
X157021Y8661D01*
X156878Y8391D01*
X156842Y8321D01*
X156819Y8246D01*
X156808Y8168D01*
X156809Y8089D01*
X156823Y8012D01*
X156848Y7937D01*
X156885Y7868D01*
X156933Y7805D01*
X156989Y7750D01*
X157054Y7705D01*
X157125Y7671D01*
X157200Y7648D01*
X157278Y7637D01*
X157356Y7638D01*
X157434Y7652D01*
X157508Y7677D01*
X157578Y7714D01*
X157582Y7717D01*
Y2000D01*
G37*
G36*
X153906Y54400D02*X157582D01*
Y30375D01*
X157516Y30482D01*
X157061Y31015D01*
X156528Y31469D01*
X155931Y31835D01*
X155284Y32104D01*
X154603Y32267D01*
X153906Y32322D01*
Y54400D01*
G37*
G36*
X150228Y25342D02*X150293Y25235D01*
X150748Y24702D01*
X151281Y24247D01*
X151878Y23881D01*
X152525Y23613D01*
X153206Y23450D01*
X153905Y23395D01*
X153906Y23395D01*
Y14596D01*
X153905Y14596D01*
X153510Y14579D01*
X153119Y14526D01*
X152733Y14439D01*
X152357Y14319D01*
X151993Y14165D01*
X151644Y13980D01*
X151579Y13935D01*
X151522Y13880D01*
X151474Y13817D01*
X151437Y13747D01*
X151411Y13672D01*
X151398Y13594D01*
X151396Y13515D01*
X151407Y13436D01*
X151430Y13360D01*
X151465Y13289D01*
X151511Y13224D01*
X151566Y13167D01*
X151629Y13120D01*
X151699Y13082D01*
X151774Y13057D01*
X151852Y13043D01*
X151931Y13041D01*
X152010Y13052D01*
X152085Y13076D01*
X152156Y13112D01*
X152424Y13258D01*
X152706Y13377D01*
X152997Y13470D01*
X153296Y13538D01*
X153599Y13578D01*
X153905Y13592D01*
X153906Y13592D01*
Y6692D01*
X153905Y6692D01*
X153599Y6705D01*
X153296Y6746D01*
X152997Y6813D01*
X152706Y6907D01*
X152424Y7026D01*
X152154Y7169D01*
X152084Y7205D01*
X152009Y7228D01*
X151931Y7239D01*
X151852Y7237D01*
X151775Y7224D01*
X151700Y7198D01*
X151631Y7161D01*
X151568Y7114D01*
X151513Y7057D01*
X151468Y6993D01*
X151434Y6922D01*
X151411Y6847D01*
X151400Y6769D01*
X151401Y6690D01*
X151415Y6612D01*
X151440Y6538D01*
X151477Y6469D01*
X151525Y6406D01*
X151581Y6351D01*
X151647Y6307D01*
X151993Y6118D01*
X152357Y5965D01*
X152733Y5844D01*
X153119Y5757D01*
X153510Y5705D01*
X153905Y5687D01*
X153906Y5687D01*
Y2000D01*
X150228D01*
Y7713D01*
X150230Y7711D01*
X150300Y7674D01*
X150375Y7648D01*
X150453Y7635D01*
X150532Y7633D01*
X150610Y7644D01*
X150686Y7667D01*
X150757Y7702D01*
X150822Y7748D01*
X150879Y7803D01*
X150927Y7866D01*
X150964Y7936D01*
X150990Y8011D01*
X151004Y8089D01*
X151005Y8168D01*
X150994Y8247D01*
X150971Y8322D01*
X150935Y8393D01*
X150789Y8661D01*
X150670Y8943D01*
X150576Y9234D01*
X150509Y9533D01*
X150468Y9836D01*
X150455Y10142D01*
X150468Y10447D01*
X150509Y10751D01*
X150576Y11049D01*
X150670Y11340D01*
X150789Y11622D01*
X150932Y11892D01*
X150968Y11962D01*
X150991Y12038D01*
X151002Y12116D01*
X151000Y12194D01*
X150987Y12272D01*
X150961Y12346D01*
X150924Y12416D01*
X150877Y12479D01*
X150820Y12533D01*
X150756Y12578D01*
X150685Y12613D01*
X150610Y12636D01*
X150532Y12647D01*
X150453Y12645D01*
X150375Y12632D01*
X150301Y12606D01*
X150232Y12569D01*
X150228Y12566D01*
Y25342D01*
G37*
G36*
Y54400D02*X153906D01*
Y32322D01*
X153905Y32322D01*
X153206Y32267D01*
X152525Y32104D01*
X151878Y31835D01*
X151281Y31469D01*
X150748Y31015D01*
X150293Y30482D01*
X150228Y30375D01*
Y54400D01*
G37*
G36*
X116472D02*X150228D01*
Y30375D01*
X149928Y29885D01*
X149659Y29238D01*
X149496Y28557D01*
X149441Y27858D01*
X149496Y27160D01*
X149659Y26479D01*
X149928Y25832D01*
X150228Y25342D01*
Y12566D01*
X150169Y12522D01*
X150114Y12465D01*
X150070Y12400D01*
X149881Y12053D01*
X149728Y11689D01*
X149607Y11313D01*
X149520Y10928D01*
X149468Y10536D01*
X149450Y10142D01*
X149468Y9747D01*
X149520Y9356D01*
X149607Y8970D01*
X149728Y8594D01*
X149881Y8230D01*
X150066Y7881D01*
X150111Y7816D01*
X150166Y7759D01*
X150228Y7713D01*
Y2000D01*
X116472D01*
Y7717D01*
X116531Y7762D01*
X116586Y7818D01*
X116630Y7884D01*
X116819Y8230D01*
X116972Y8594D01*
X117093Y8970D01*
X117180Y9356D01*
X117232Y9747D01*
X117250Y10142D01*
X117232Y10536D01*
X117180Y10928D01*
X117093Y11313D01*
X116972Y11689D01*
X116819Y12053D01*
X116634Y12402D01*
X116589Y12467D01*
X116534Y12524D01*
X116472Y12571D01*
Y25342D01*
X116772Y25832D01*
X117041Y26479D01*
X117204Y27160D01*
X117245Y27858D01*
X117204Y28557D01*
X117041Y29238D01*
X116772Y29885D01*
X116472Y30375D01*
Y54400D01*
G37*
G36*
Y2000D02*X112797D01*
Y5687D01*
X113190Y5705D01*
X113581Y5757D01*
X113967Y5844D01*
X114343Y5965D01*
X114707Y6118D01*
X115056Y6304D01*
X115121Y6348D01*
X115178Y6403D01*
X115226Y6467D01*
X115263Y6537D01*
X115289Y6612D01*
X115302Y6690D01*
X115304Y6769D01*
X115293Y6847D01*
X115270Y6923D01*
X115235Y6994D01*
X115189Y7059D01*
X115134Y7116D01*
X115071Y7164D01*
X115001Y7201D01*
X114926Y7227D01*
X114848Y7241D01*
X114769Y7242D01*
X114690Y7231D01*
X114615Y7208D01*
X114544Y7172D01*
X114276Y7026D01*
X113994Y6907D01*
X113703Y6813D01*
X113404Y6746D01*
X113101Y6705D01*
X112797Y6692D01*
Y13592D01*
X113101Y13578D01*
X113404Y13538D01*
X113703Y13470D01*
X113994Y13377D01*
X114276Y13258D01*
X114546Y13115D01*
X114616Y13079D01*
X114691Y13056D01*
X114769Y13045D01*
X114848Y13046D01*
X114925Y13060D01*
X115000Y13085D01*
X115069Y13122D01*
X115132Y13170D01*
X115187Y13226D01*
X115232Y13291D01*
X115266Y13362D01*
X115289Y13437D01*
X115300Y13515D01*
X115299Y13593D01*
X115285Y13671D01*
X115260Y13745D01*
X115223Y13815D01*
X115175Y13878D01*
X115119Y13932D01*
X115053Y13976D01*
X114707Y14165D01*
X114343Y14319D01*
X113967Y14439D01*
X113581Y14526D01*
X113190Y14579D01*
X112797Y14596D01*
Y23395D01*
X113494Y23450D01*
X114175Y23613D01*
X114822Y23881D01*
X115419Y24247D01*
X115952Y24702D01*
X116407Y25235D01*
X116472Y25342D01*
Y12571D01*
X116470Y12572D01*
X116400Y12609D01*
X116325Y12635D01*
X116247Y12649D01*
X116168Y12650D01*
X116090Y12639D01*
X116014Y12616D01*
X115943Y12581D01*
X115878Y12536D01*
X115821Y12481D01*
X115773Y12418D01*
X115736Y12348D01*
X115710Y12273D01*
X115696Y12195D01*
X115695Y12115D01*
X115706Y12037D01*
X115729Y11961D01*
X115765Y11891D01*
X115911Y11622D01*
X116030Y11340D01*
X116124Y11049D01*
X116191Y10751D01*
X116232Y10447D01*
X116245Y10142D01*
X116232Y9836D01*
X116191Y9533D01*
X116124Y9234D01*
X116030Y8943D01*
X115911Y8661D01*
X115768Y8391D01*
X115732Y8321D01*
X115709Y8246D01*
X115698Y8168D01*
X115700Y8089D01*
X115713Y8012D01*
X115739Y7937D01*
X115776Y7868D01*
X115823Y7805D01*
X115880Y7750D01*
X115944Y7705D01*
X116015Y7671D01*
X116090Y7648D01*
X116168Y7637D01*
X116247Y7638D01*
X116325Y7652D01*
X116399Y7677D01*
X116468Y7714D01*
X116472Y7717D01*
Y2000D01*
G37*
G36*
X112797Y54400D02*X116472D01*
Y30375D01*
X116407Y30482D01*
X115952Y31015D01*
X115419Y31469D01*
X114822Y31835D01*
X114175Y32104D01*
X113494Y32267D01*
X112797Y32322D01*
Y54400D01*
G37*
G36*
X109118Y25342D02*X109184Y25235D01*
X109639Y24702D01*
X110172Y24247D01*
X110769Y23881D01*
X111416Y23613D01*
X112097Y23450D01*
X112795Y23395D01*
X112797Y23395D01*
Y14596D01*
X112795Y14596D01*
X112401Y14579D01*
X112009Y14526D01*
X111624Y14439D01*
X111248Y14319D01*
X110884Y14165D01*
X110535Y13980D01*
X110470Y13935D01*
X110413Y13880D01*
X110365Y13817D01*
X110328Y13747D01*
X110302Y13672D01*
X110288Y13594D01*
X110287Y13515D01*
X110298Y13436D01*
X110321Y13360D01*
X110356Y13289D01*
X110401Y13224D01*
X110456Y13167D01*
X110519Y13120D01*
X110589Y13082D01*
X110664Y13057D01*
X110742Y13043D01*
X110822Y13041D01*
X110900Y13052D01*
X110976Y13076D01*
X111046Y13112D01*
X111315Y13258D01*
X111597Y13377D01*
X111888Y13470D01*
X112186Y13538D01*
X112490Y13578D01*
X112795Y13592D01*
X112797Y13592D01*
Y6692D01*
X112795Y6692D01*
X112490Y6705D01*
X112186Y6746D01*
X111888Y6813D01*
X111597Y6907D01*
X111315Y7026D01*
X111045Y7169D01*
X110975Y7205D01*
X110899Y7228D01*
X110821Y7239D01*
X110743Y7237D01*
X110665Y7224D01*
X110591Y7198D01*
X110521Y7161D01*
X110458Y7114D01*
X110404Y7057D01*
X110359Y6993D01*
X110324Y6922D01*
X110301Y6847D01*
X110290Y6769D01*
X110292Y6690D01*
X110305Y6612D01*
X110331Y6538D01*
X110368Y6469D01*
X110415Y6406D01*
X110472Y6351D01*
X110537Y6307D01*
X110884Y6118D01*
X111248Y5965D01*
X111624Y5844D01*
X112009Y5757D01*
X112401Y5705D01*
X112795Y5687D01*
X112797Y5687D01*
Y2000D01*
X109118D01*
Y7713D01*
X109120Y7711D01*
X109190Y7674D01*
X109265Y7648D01*
X109343Y7635D01*
X109422Y7633D01*
X109501Y7644D01*
X109577Y7667D01*
X109648Y7702D01*
X109713Y7748D01*
X109770Y7803D01*
X109817Y7866D01*
X109855Y7936D01*
X109881Y8011D01*
X109894Y8089D01*
X109896Y8168D01*
X109885Y8247D01*
X109861Y8322D01*
X109825Y8393D01*
X109679Y8661D01*
X109560Y8943D01*
X109467Y9234D01*
X109399Y9533D01*
X109359Y9836D01*
X109345Y10142D01*
X109359Y10447D01*
X109399Y10751D01*
X109467Y11049D01*
X109560Y11340D01*
X109679Y11622D01*
X109822Y11892D01*
X109858Y11962D01*
X109881Y12038D01*
X109892Y12116D01*
X109891Y12194D01*
X109877Y12272D01*
X109852Y12346D01*
X109815Y12416D01*
X109767Y12479D01*
X109711Y12533D01*
X109646Y12578D01*
X109575Y12613D01*
X109500Y12636D01*
X109422Y12647D01*
X109344Y12645D01*
X109266Y12632D01*
X109192Y12606D01*
X109122Y12569D01*
X109118Y12566D01*
Y25342D01*
G37*
G36*
Y54400D02*X112797D01*
Y32322D01*
X112795Y32322D01*
X112097Y32267D01*
X111416Y32104D01*
X110769Y31835D01*
X110172Y31469D01*
X109639Y31015D01*
X109184Y30482D01*
X109118Y30375D01*
Y54400D01*
G37*
G36*
X90882D02*X109118D01*
Y30375D01*
X108818Y29885D01*
X108550Y29238D01*
X108387Y28557D01*
X108332Y27858D01*
X108387Y27160D01*
X108550Y26479D01*
X108818Y25832D01*
X109118Y25342D01*
Y12566D01*
X109059Y12522D01*
X109005Y12465D01*
X108961Y12400D01*
X108772Y12053D01*
X108618Y11689D01*
X108498Y11313D01*
X108411Y10928D01*
X108358Y10536D01*
X108341Y10142D01*
X108358Y9747D01*
X108411Y9356D01*
X108498Y8970D01*
X108618Y8594D01*
X108772Y8230D01*
X108957Y7881D01*
X109002Y7816D01*
X109057Y7759D01*
X109118Y7713D01*
Y2000D01*
X90882D01*
Y7717D01*
X90941Y7762D01*
X90995Y7818D01*
X91039Y7884D01*
X91228Y8230D01*
X91382Y8594D01*
X91502Y8970D01*
X91589Y9356D01*
X91642Y9747D01*
X91659Y10142D01*
X91642Y10536D01*
X91589Y10928D01*
X91502Y11313D01*
X91382Y11689D01*
X91228Y12053D01*
X91043Y12402D01*
X90998Y12467D01*
X90943Y12524D01*
X90882Y12571D01*
Y25342D01*
X91182Y25832D01*
X91450Y26479D01*
X91613Y27160D01*
X91655Y27858D01*
X91613Y28557D01*
X91450Y29238D01*
X91182Y29885D01*
X90882Y30375D01*
Y54400D01*
G37*
G36*
Y2000D02*X87206D01*
Y5687D01*
X87599Y5705D01*
X87991Y5757D01*
X88376Y5844D01*
X88752Y5965D01*
X89116Y6118D01*
X89465Y6304D01*
X89530Y6348D01*
X89587Y6403D01*
X89635Y6467D01*
X89672Y6537D01*
X89698Y6612D01*
X89712Y6690D01*
X89713Y6769D01*
X89702Y6847D01*
X89679Y6923D01*
X89644Y6994D01*
X89599Y7059D01*
X89544Y7116D01*
X89481Y7164D01*
X89411Y7201D01*
X89336Y7227D01*
X89258Y7241D01*
X89178Y7242D01*
X89100Y7231D01*
X89024Y7208D01*
X88954Y7172D01*
X88685Y7026D01*
X88403Y6907D01*
X88112Y6813D01*
X87814Y6746D01*
X87510Y6705D01*
X87206Y6692D01*
Y13592D01*
X87510Y13578D01*
X87814Y13538D01*
X88112Y13470D01*
X88403Y13377D01*
X88685Y13258D01*
X88955Y13115D01*
X89025Y13079D01*
X89101Y13056D01*
X89179Y13045D01*
X89257Y13046D01*
X89335Y13060D01*
X89409Y13085D01*
X89479Y13122D01*
X89542Y13170D01*
X89596Y13226D01*
X89641Y13291D01*
X89676Y13362D01*
X89699Y13437D01*
X89710Y13515D01*
X89708Y13593D01*
X89695Y13671D01*
X89669Y13745D01*
X89632Y13815D01*
X89585Y13878D01*
X89528Y13932D01*
X89463Y13976D01*
X89116Y14165D01*
X88752Y14319D01*
X88376Y14439D01*
X87991Y14526D01*
X87599Y14579D01*
X87206Y14596D01*
Y23395D01*
X87903Y23450D01*
X88584Y23613D01*
X89231Y23881D01*
X89828Y24247D01*
X90361Y24702D01*
X90816Y25235D01*
X90882Y25342D01*
Y12571D01*
X90880Y12572D01*
X90810Y12609D01*
X90735Y12635D01*
X90657Y12649D01*
X90578Y12650D01*
X90499Y12639D01*
X90423Y12616D01*
X90352Y12581D01*
X90287Y12536D01*
X90230Y12481D01*
X90182Y12418D01*
X90145Y12348D01*
X90119Y12273D01*
X90106Y12195D01*
X90104Y12115D01*
X90115Y12037D01*
X90139Y11961D01*
X90175Y11891D01*
X90321Y11622D01*
X90440Y11340D01*
X90533Y11049D01*
X90601Y10751D01*
X90641Y10447D01*
X90655Y10142D01*
X90641Y9836D01*
X90601Y9533D01*
X90533Y9234D01*
X90440Y8943D01*
X90321Y8661D01*
X90178Y8391D01*
X90142Y8321D01*
X90119Y8246D01*
X90108Y8168D01*
X90109Y8089D01*
X90123Y8012D01*
X90148Y7937D01*
X90185Y7868D01*
X90233Y7805D01*
X90289Y7750D01*
X90354Y7705D01*
X90425Y7671D01*
X90500Y7648D01*
X90578Y7637D01*
X90656Y7638D01*
X90734Y7652D01*
X90808Y7677D01*
X90878Y7714D01*
X90882Y7717D01*
Y2000D01*
G37*
G36*
X87206Y54400D02*X90882D01*
Y30375D01*
X90816Y30482D01*
X90361Y31015D01*
X89828Y31469D01*
X89231Y31835D01*
X88584Y32104D01*
X87903Y32267D01*
X87206Y32322D01*
Y54400D01*
G37*
G36*
X83528Y25342D02*X83593Y25235D01*
X84048Y24702D01*
X84581Y24247D01*
X85178Y23881D01*
X85825Y23613D01*
X86506Y23450D01*
X87205Y23395D01*
X87206Y23395D01*
Y14596D01*
X87205Y14596D01*
X86810Y14579D01*
X86419Y14526D01*
X86033Y14439D01*
X85657Y14319D01*
X85293Y14165D01*
X84944Y13980D01*
X84879Y13935D01*
X84822Y13880D01*
X84774Y13817D01*
X84737Y13747D01*
X84711Y13672D01*
X84698Y13594D01*
X84696Y13515D01*
X84707Y13436D01*
X84730Y13360D01*
X84765Y13289D01*
X84811Y13224D01*
X84866Y13167D01*
X84929Y13120D01*
X84999Y13082D01*
X85074Y13057D01*
X85152Y13043D01*
X85231Y13041D01*
X85310Y13052D01*
X85385Y13076D01*
X85456Y13112D01*
X85724Y13258D01*
X86006Y13377D01*
X86297Y13470D01*
X86596Y13538D01*
X86899Y13578D01*
X87205Y13592D01*
X87206Y13592D01*
Y6692D01*
X87205Y6692D01*
X86899Y6705D01*
X86596Y6746D01*
X86297Y6813D01*
X86006Y6907D01*
X85724Y7026D01*
X85454Y7169D01*
X85384Y7205D01*
X85309Y7228D01*
X85231Y7239D01*
X85152Y7237D01*
X85075Y7224D01*
X85000Y7198D01*
X84931Y7161D01*
X84868Y7114D01*
X84813Y7057D01*
X84768Y6993D01*
X84734Y6922D01*
X84711Y6847D01*
X84700Y6769D01*
X84701Y6690D01*
X84715Y6612D01*
X84740Y6538D01*
X84777Y6469D01*
X84825Y6406D01*
X84881Y6351D01*
X84947Y6307D01*
X85293Y6118D01*
X85657Y5965D01*
X86033Y5844D01*
X86419Y5757D01*
X86810Y5705D01*
X87205Y5687D01*
X87206Y5687D01*
Y2000D01*
X83528D01*
Y7713D01*
X83530Y7711D01*
X83600Y7674D01*
X83675Y7648D01*
X83753Y7635D01*
X83832Y7633D01*
X83910Y7644D01*
X83986Y7667D01*
X84057Y7702D01*
X84122Y7748D01*
X84179Y7803D01*
X84227Y7866D01*
X84264Y7936D01*
X84290Y8011D01*
X84304Y8089D01*
X84305Y8168D01*
X84294Y8247D01*
X84271Y8322D01*
X84235Y8393D01*
X84089Y8661D01*
X83970Y8943D01*
X83876Y9234D01*
X83809Y9533D01*
X83768Y9836D01*
X83755Y10142D01*
X83768Y10447D01*
X83809Y10751D01*
X83876Y11049D01*
X83970Y11340D01*
X84089Y11622D01*
X84232Y11892D01*
X84268Y11962D01*
X84291Y12038D01*
X84302Y12116D01*
X84300Y12194D01*
X84287Y12272D01*
X84261Y12346D01*
X84224Y12416D01*
X84177Y12479D01*
X84120Y12533D01*
X84056Y12578D01*
X83985Y12613D01*
X83910Y12636D01*
X83832Y12647D01*
X83753Y12645D01*
X83675Y12632D01*
X83601Y12606D01*
X83532Y12569D01*
X83528Y12566D01*
Y25342D01*
G37*
G36*
Y54400D02*X87206D01*
Y32322D01*
X87205Y32322D01*
X86506Y32267D01*
X85825Y32104D01*
X85178Y31835D01*
X84581Y31469D01*
X84048Y31015D01*
X83593Y30482D01*
X83528Y30375D01*
Y54400D01*
G37*
G36*
X76000D02*X83528D01*
Y30375D01*
X83228Y29885D01*
X82959Y29238D01*
X82796Y28557D01*
X82741Y27858D01*
X82796Y27160D01*
X82959Y26479D01*
X83228Y25832D01*
X83528Y25342D01*
Y12566D01*
X83469Y12522D01*
X83414Y12465D01*
X83370Y12400D01*
X83181Y12053D01*
X83028Y11689D01*
X82907Y11313D01*
X82820Y10928D01*
X82768Y10536D01*
X82750Y10142D01*
X82768Y9747D01*
X82820Y9356D01*
X82907Y8970D01*
X83028Y8594D01*
X83181Y8230D01*
X83366Y7881D01*
X83411Y7816D01*
X83466Y7759D01*
X83528Y7713D01*
Y2000D01*
X76000D01*
Y54400D01*
G37*
G36*
X357250Y288000D02*X376139D01*
X375493Y287733D01*
X373281Y286377D01*
X371308Y284692D01*
X369623Y282719D01*
X368267Y280507D01*
X367274Y278110D01*
X366669Y275587D01*
X366465Y273000D01*
X366669Y270413D01*
X367274Y267890D01*
X368267Y265493D01*
X369623Y263281D01*
X371308Y261308D01*
X373281Y259623D01*
X375493Y258267D01*
X377890Y257274D01*
X380413Y256669D01*
X381500Y256583D01*
Y187500D01*
X374500D01*
Y198256D01*
X374631Y198369D01*
X374866Y198644D01*
X375056Y198953D01*
X375194Y199287D01*
X375279Y199639D01*
X375300Y200000D01*
X375279Y200361D01*
X375194Y200713D01*
X375056Y201047D01*
X374866Y201356D01*
X374631Y201631D01*
X374356Y201866D01*
X374047Y202056D01*
X373713Y202194D01*
X373361Y202279D01*
X373000Y202307D01*
X372639Y202279D01*
X372287Y202194D01*
X371953Y202056D01*
X371644Y201866D01*
X371369Y201631D01*
X371134Y201356D01*
X370944Y201047D01*
X370806Y200713D01*
X370721Y200361D01*
X370693Y200000D01*
X370721Y199639D01*
X370806Y199287D01*
X370944Y198953D01*
X371134Y198644D01*
X371369Y198369D01*
X371500Y198256D01*
Y187500D01*
X357300D01*
X357279Y187861D01*
X357250Y187980D01*
Y207020D01*
X357279Y207139D01*
X357300Y207500D01*
X357279Y207861D01*
X357250Y207980D01*
Y211020D01*
X357279Y211139D01*
X357300Y211500D01*
X357279Y211861D01*
X357250Y211980D01*
Y270748D01*
X357368Y270757D01*
X357482Y270785D01*
X357592Y270830D01*
X357692Y270891D01*
X357782Y270968D01*
X357859Y271058D01*
X357920Y271158D01*
X357965Y271268D01*
X357993Y271382D01*
X358000Y271500D01*
Y274500D01*
X357993Y274618D01*
X357965Y274732D01*
X357920Y274842D01*
X357859Y274942D01*
X357782Y275032D01*
X357692Y275109D01*
X357592Y275170D01*
X357482Y275215D01*
X357368Y275243D01*
X357250Y275252D01*
Y288000D01*
G37*
G36*
Y207980D02*X357194Y208213D01*
X357056Y208547D01*
X356866Y208856D01*
X356631Y209131D01*
X356356Y209366D01*
X356138Y209500D01*
X356356Y209634D01*
X356631Y209869D01*
X356866Y210144D01*
X357056Y210453D01*
X357194Y210787D01*
X357250Y211020D01*
Y207980D01*
G37*
G36*
Y187980D02*X357194Y188213D01*
X357056Y188547D01*
X356866Y188856D01*
X356631Y189131D01*
X356356Y189366D01*
X356047Y189556D01*
X355713Y189694D01*
X355361Y189779D01*
X355000Y189807D01*
X354639Y189779D01*
X354287Y189694D01*
X353953Y189556D01*
X353644Y189366D01*
X353500Y189244D01*
Y205756D01*
X353644Y205634D01*
X353953Y205444D01*
X354287Y205306D01*
X354639Y205221D01*
X355000Y205193D01*
X355361Y205221D01*
X355713Y205306D01*
X356047Y205444D01*
X356356Y205634D01*
X356631Y205869D01*
X356866Y206144D01*
X357056Y206453D01*
X357194Y206787D01*
X357250Y207020D01*
Y187980D01*
G37*
G36*
X353500Y288000D02*X357250D01*
Y275252D01*
X357132Y275243D01*
X357018Y275215D01*
X356908Y275170D01*
X356808Y275109D01*
X356718Y275032D01*
X356641Y274942D01*
X356580Y274842D01*
X356535Y274732D01*
X356507Y274618D01*
X356500Y274500D01*
Y271500D01*
X356507Y271382D01*
X356535Y271268D01*
X356580Y271158D01*
X356641Y271058D01*
X356718Y270968D01*
X356808Y270891D01*
X356908Y270830D01*
X357018Y270785D01*
X357132Y270757D01*
X357250Y270748D01*
Y211980D01*
X357194Y212213D01*
X357056Y212547D01*
X356866Y212856D01*
X356631Y213131D01*
X356356Y213366D01*
X356047Y213556D01*
X355713Y213694D01*
X355361Y213779D01*
X355000Y213807D01*
X354639Y213779D01*
X354287Y213694D01*
X353953Y213556D01*
X353644Y213366D01*
X353500Y213244D01*
Y268500D01*
X355000D01*
X355118Y268507D01*
X355232Y268535D01*
X355342Y268580D01*
X355442Y268641D01*
X355532Y268718D01*
X355609Y268808D01*
X355670Y268908D01*
X355715Y269018D01*
X355743Y269132D01*
X355752Y269250D01*
X355743Y269368D01*
X355715Y269482D01*
X355670Y269592D01*
X355609Y269692D01*
X355532Y269782D01*
X355442Y269859D01*
X355342Y269920D01*
X355232Y269965D01*
X355118Y269993D01*
X355000Y270000D01*
X353500D01*
Y276000D01*
X355000D01*
X355118Y276007D01*
X355232Y276035D01*
X355342Y276080D01*
X355442Y276141D01*
X355532Y276218D01*
X355609Y276308D01*
X355670Y276408D01*
X355715Y276518D01*
X355743Y276632D01*
X355752Y276750D01*
X355743Y276868D01*
X355715Y276982D01*
X355670Y277092D01*
X355609Y277192D01*
X355532Y277282D01*
X355442Y277359D01*
X355342Y277420D01*
X355232Y277465D01*
X355118Y277493D01*
X355000Y277500D01*
X353500D01*
Y288000D01*
G37*
G36*
Y189244D02*X353369Y189131D01*
X353256Y189000D01*
X349244D01*
X349131Y189131D01*
X348856Y189366D01*
X348547Y189556D01*
X348213Y189694D01*
X347861Y189779D01*
X347500Y189807D01*
X347139Y189779D01*
X346787Y189694D01*
X346453Y189556D01*
X346144Y189366D01*
X345869Y189131D01*
X345634Y188856D01*
X345444Y188547D01*
X345306Y188213D01*
X345221Y187861D01*
X345193Y187500D01*
X342246D01*
Y206000D01*
X353256D01*
X353369Y205869D01*
X353500Y205756D01*
Y189244D01*
G37*
G36*
X349750Y288000D02*X353500D01*
Y277500D01*
X352000D01*
X351882Y277493D01*
X351768Y277465D01*
X351658Y277420D01*
X351558Y277359D01*
X351468Y277282D01*
X351391Y277192D01*
X351330Y277092D01*
X351285Y276982D01*
X351257Y276868D01*
X351248Y276750D01*
X351257Y276632D01*
X351285Y276518D01*
X351330Y276408D01*
X351391Y276308D01*
X351468Y276218D01*
X351558Y276141D01*
X351658Y276080D01*
X351768Y276035D01*
X351882Y276007D01*
X352000Y276000D01*
X353500D01*
Y270000D01*
X352000D01*
X351882Y269993D01*
X351768Y269965D01*
X351658Y269920D01*
X351558Y269859D01*
X351468Y269782D01*
X351391Y269692D01*
X351330Y269592D01*
X351285Y269482D01*
X351257Y269368D01*
X351248Y269250D01*
X351257Y269132D01*
X351285Y269018D01*
X351330Y268908D01*
X351391Y268808D01*
X351468Y268718D01*
X351558Y268641D01*
X351658Y268580D01*
X351768Y268535D01*
X351882Y268507D01*
X352000Y268500D01*
X353500D01*
Y213244D01*
X353369Y213131D01*
X353256Y213000D01*
X349750D01*
Y270748D01*
X349868Y270757D01*
X349982Y270785D01*
X350092Y270830D01*
X350192Y270891D01*
X350282Y270968D01*
X350359Y271058D01*
X350420Y271158D01*
X350465Y271268D01*
X350493Y271382D01*
X350500Y271500D01*
Y274500D01*
X350493Y274618D01*
X350465Y274732D01*
X350420Y274842D01*
X350359Y274942D01*
X350282Y275032D01*
X350192Y275109D01*
X350092Y275170D01*
X349982Y275215D01*
X349868Y275243D01*
X349750Y275252D01*
Y288000D01*
G37*
G36*
X342246D02*X349750D01*
Y275252D01*
X349632Y275243D01*
X349518Y275215D01*
X349408Y275170D01*
X349308Y275109D01*
X349218Y275032D01*
X349141Y274942D01*
X349080Y274842D01*
X349035Y274732D01*
X349007Y274618D01*
X349000Y274500D01*
Y271500D01*
X349007Y271382D01*
X349035Y271268D01*
X349080Y271158D01*
X349141Y271058D01*
X349218Y270968D01*
X349308Y270891D01*
X349408Y270830D01*
X349518Y270785D01*
X349632Y270757D01*
X349750Y270748D01*
Y213000D01*
X342246D01*
Y268673D01*
X342794Y268542D01*
X343500Y268486D01*
X344206Y268542D01*
X344895Y268707D01*
X345549Y268978D01*
X346153Y269348D01*
X346692Y269808D01*
X347152Y270347D01*
X347522Y270951D01*
X347793Y271605D01*
X347958Y272294D01*
X348000Y273000D01*
X347958Y273706D01*
X347793Y274395D01*
X347522Y275049D01*
X347152Y275653D01*
X346692Y276192D01*
X346153Y276652D01*
X345549Y277022D01*
X344895Y277293D01*
X344206Y277458D01*
X343500Y277514D01*
X342794Y277458D01*
X342246Y277327D01*
Y288000D01*
G37*
G36*
X333493Y206000D02*X342246D01*
Y187500D01*
X333493D01*
Y206000D01*
G37*
G36*
Y288000D02*X342246D01*
Y277327D01*
X342105Y277293D01*
X341451Y277022D01*
X340847Y276652D01*
X340308Y276192D01*
X339848Y275653D01*
X339478Y275049D01*
X339207Y274395D01*
X339042Y273706D01*
X338986Y273000D01*
X339042Y272294D01*
X339207Y271605D01*
X339478Y270951D01*
X339848Y270347D01*
X340308Y269808D01*
X340847Y269348D01*
X341451Y268978D01*
X342105Y268707D01*
X342246Y268673D01*
Y213000D01*
X333493D01*
Y268487D01*
X333500Y268486D01*
X334206Y268542D01*
X334895Y268707D01*
X335549Y268978D01*
X336153Y269348D01*
X336692Y269808D01*
X337152Y270347D01*
X337522Y270951D01*
X337793Y271605D01*
X337958Y272294D01*
X338000Y273000D01*
X337958Y273706D01*
X337793Y274395D01*
X337522Y275049D01*
X337152Y275653D01*
X336692Y276192D01*
X336153Y276652D01*
X335549Y277022D01*
X334895Y277293D01*
X334206Y277458D01*
X333500Y277514D01*
X333493Y277513D01*
Y288000D01*
G37*
G36*
X323493D02*X333493D01*
Y277513D01*
X332794Y277458D01*
X332105Y277293D01*
X331451Y277022D01*
X330847Y276652D01*
X330308Y276192D01*
X329848Y275653D01*
X329478Y275049D01*
X329207Y274395D01*
X329042Y273706D01*
X328986Y273000D01*
X329042Y272294D01*
X329207Y271605D01*
X329478Y270951D01*
X329848Y270347D01*
X330308Y269808D01*
X330847Y269348D01*
X331451Y268978D01*
X332105Y268707D01*
X332794Y268542D01*
X333493Y268487D01*
Y213000D01*
X331244D01*
X331131Y213131D01*
X330856Y213366D01*
X330547Y213556D01*
X330213Y213694D01*
X329861Y213779D01*
X329500Y213807D01*
X329139Y213779D01*
X328787Y213694D01*
X328453Y213556D01*
X328144Y213366D01*
X327869Y213131D01*
X327634Y212856D01*
X327444Y212547D01*
X327306Y212213D01*
X327221Y211861D01*
X327193Y211500D01*
X327221Y211139D01*
X327306Y210787D01*
X327444Y210453D01*
X327634Y210144D01*
X327869Y209869D01*
X328144Y209634D01*
X328362Y209500D01*
X328144Y209366D01*
X327869Y209131D01*
X327634Y208856D01*
X327444Y208547D01*
X327306Y208213D01*
X327221Y207861D01*
X327193Y207500D01*
X327221Y207139D01*
X327306Y206787D01*
X327444Y206453D01*
X327634Y206144D01*
X327869Y205869D01*
X328144Y205634D01*
X328453Y205444D01*
X328787Y205306D01*
X329139Y205221D01*
X329500Y205193D01*
X329861Y205221D01*
X330213Y205306D01*
X330547Y205444D01*
X330856Y205634D01*
X331131Y205869D01*
X331244Y206000D01*
X333493D01*
Y187500D01*
X323493D01*
Y268487D01*
X323500Y268486D01*
X324206Y268542D01*
X324895Y268707D01*
X325549Y268978D01*
X326153Y269348D01*
X326692Y269808D01*
X327152Y270347D01*
X327522Y270951D01*
X327793Y271605D01*
X327958Y272294D01*
X328000Y273000D01*
X327958Y273706D01*
X327793Y274395D01*
X327522Y275049D01*
X327152Y275653D01*
X326692Y276192D01*
X326153Y276652D01*
X325549Y277022D01*
X324895Y277293D01*
X324206Y277458D01*
X323500Y277514D01*
X323493Y277513D01*
Y288000D01*
G37*
G36*
X313493D02*X323493D01*
Y277513D01*
X322794Y277458D01*
X322105Y277293D01*
X321451Y277022D01*
X320847Y276652D01*
X320308Y276192D01*
X319848Y275653D01*
X319478Y275049D01*
X319207Y274395D01*
X319042Y273706D01*
X318986Y273000D01*
X319042Y272294D01*
X319207Y271605D01*
X319478Y270951D01*
X319848Y270347D01*
X320308Y269808D01*
X320847Y269348D01*
X321451Y268978D01*
X322105Y268707D01*
X322794Y268542D01*
X323493Y268487D01*
Y187500D01*
X313493D01*
Y268487D01*
X313500Y268486D01*
X314206Y268542D01*
X314895Y268707D01*
X315549Y268978D01*
X316153Y269348D01*
X316692Y269808D01*
X317152Y270347D01*
X317522Y270951D01*
X317793Y271605D01*
X317958Y272294D01*
X318000Y273000D01*
X317958Y273706D01*
X317793Y274395D01*
X317522Y275049D01*
X317152Y275653D01*
X316692Y276192D01*
X316153Y276652D01*
X315549Y277022D01*
X314895Y277293D01*
X314206Y277458D01*
X313500Y277514D01*
X313493Y277513D01*
Y288000D01*
G37*
G36*
X303493D02*X313493D01*
Y277513D01*
X312794Y277458D01*
X312105Y277293D01*
X311451Y277022D01*
X310847Y276652D01*
X310308Y276192D01*
X309848Y275653D01*
X309478Y275049D01*
X309207Y274395D01*
X309042Y273706D01*
X308986Y273000D01*
X309042Y272294D01*
X309207Y271605D01*
X309478Y270951D01*
X309848Y270347D01*
X310308Y269808D01*
X310847Y269348D01*
X311451Y268978D01*
X312105Y268707D01*
X312794Y268542D01*
X313493Y268487D01*
Y187500D01*
X303493D01*
Y268487D01*
X303500Y268486D01*
X304206Y268542D01*
X304895Y268707D01*
X305549Y268978D01*
X306153Y269348D01*
X306692Y269808D01*
X307152Y270347D01*
X307522Y270951D01*
X307793Y271605D01*
X307958Y272294D01*
X308000Y273000D01*
X307958Y273706D01*
X307793Y274395D01*
X307522Y275049D01*
X307152Y275653D01*
X306692Y276192D01*
X306153Y276652D01*
X305549Y277022D01*
X304895Y277293D01*
X304206Y277458D01*
X303500Y277514D01*
X303493Y277513D01*
Y288000D01*
G37*
G36*
X293493D02*X303493D01*
Y277513D01*
X302794Y277458D01*
X302105Y277293D01*
X301451Y277022D01*
X300847Y276652D01*
X300308Y276192D01*
X299848Y275653D01*
X299478Y275049D01*
X299207Y274395D01*
X299042Y273706D01*
X298986Y273000D01*
X299042Y272294D01*
X299207Y271605D01*
X299478Y270951D01*
X299848Y270347D01*
X300308Y269808D01*
X300847Y269348D01*
X301451Y268978D01*
X302105Y268707D01*
X302794Y268542D01*
X303493Y268487D01*
Y187500D01*
X293493D01*
Y268487D01*
X293500Y268486D01*
X294206Y268542D01*
X294895Y268707D01*
X295549Y268978D01*
X296153Y269348D01*
X296692Y269808D01*
X297152Y270347D01*
X297522Y270951D01*
X297793Y271605D01*
X297958Y272294D01*
X298000Y273000D01*
X297958Y273706D01*
X297793Y274395D01*
X297522Y275049D01*
X297152Y275653D01*
X296692Y276192D01*
X296153Y276652D01*
X295549Y277022D01*
X294895Y277293D01*
X294206Y277458D01*
X293500Y277514D01*
X293493Y277513D01*
Y288000D01*
G37*
G36*
X283493D02*X293493D01*
Y277513D01*
X292794Y277458D01*
X292105Y277293D01*
X291451Y277022D01*
X290847Y276652D01*
X290308Y276192D01*
X289848Y275653D01*
X289478Y275049D01*
X289207Y274395D01*
X289042Y273706D01*
X288986Y273000D01*
X289042Y272294D01*
X289207Y271605D01*
X289478Y270951D01*
X289848Y270347D01*
X290308Y269808D01*
X290847Y269348D01*
X291451Y268978D01*
X292105Y268707D01*
X292794Y268542D01*
X293493Y268487D01*
Y187500D01*
X283493D01*
Y268487D01*
X283500Y268486D01*
X284206Y268542D01*
X284895Y268707D01*
X285549Y268978D01*
X286153Y269348D01*
X286692Y269808D01*
X287152Y270347D01*
X287522Y270951D01*
X287793Y271605D01*
X287958Y272294D01*
X288000Y273000D01*
X287958Y273706D01*
X287793Y274395D01*
X287522Y275049D01*
X287152Y275653D01*
X286692Y276192D01*
X286153Y276652D01*
X285549Y277022D01*
X284895Y277293D01*
X284206Y277458D01*
X283500Y277514D01*
X283493Y277513D01*
Y288000D01*
G37*
G36*
X273493D02*X283493D01*
Y277513D01*
X282794Y277458D01*
X282105Y277293D01*
X281451Y277022D01*
X280847Y276652D01*
X280308Y276192D01*
X279848Y275653D01*
X279478Y275049D01*
X279207Y274395D01*
X279042Y273706D01*
X278986Y273000D01*
X279042Y272294D01*
X279207Y271605D01*
X279478Y270951D01*
X279848Y270347D01*
X280308Y269808D01*
X280847Y269348D01*
X281451Y268978D01*
X282105Y268707D01*
X282794Y268542D01*
X283493Y268487D01*
Y187500D01*
X273493D01*
Y268487D01*
X273500Y268486D01*
X274206Y268542D01*
X274895Y268707D01*
X275549Y268978D01*
X276153Y269348D01*
X276692Y269808D01*
X277152Y270347D01*
X277522Y270951D01*
X277793Y271605D01*
X277958Y272294D01*
X278000Y273000D01*
X277958Y273706D01*
X277793Y274395D01*
X277522Y275049D01*
X277152Y275653D01*
X276692Y276192D01*
X276153Y276652D01*
X275549Y277022D01*
X274895Y277293D01*
X274206Y277458D01*
X273500Y277514D01*
X273493Y277513D01*
Y288000D01*
G37*
G36*
X263493D02*X273493D01*
Y277513D01*
X272794Y277458D01*
X272105Y277293D01*
X271451Y277022D01*
X270847Y276652D01*
X270308Y276192D01*
X269848Y275653D01*
X269478Y275049D01*
X269207Y274395D01*
X269042Y273706D01*
X268986Y273000D01*
X269042Y272294D01*
X269207Y271605D01*
X269478Y270951D01*
X269848Y270347D01*
X270308Y269808D01*
X270847Y269348D01*
X271451Y268978D01*
X272105Y268707D01*
X272794Y268542D01*
X273493Y268487D01*
Y187500D01*
X263493D01*
Y268487D01*
X263500Y268486D01*
X264206Y268542D01*
X264895Y268707D01*
X265549Y268978D01*
X266153Y269348D01*
X266692Y269808D01*
X267152Y270347D01*
X267522Y270951D01*
X267793Y271605D01*
X267958Y272294D01*
X268000Y273000D01*
X267958Y273706D01*
X267793Y274395D01*
X267522Y275049D01*
X267152Y275653D01*
X266692Y276192D01*
X266153Y276652D01*
X265549Y277022D01*
X264895Y277293D01*
X264206Y277458D01*
X263500Y277514D01*
X263493Y277513D01*
Y288000D01*
G37*
G36*
X253493D02*X263493D01*
Y277513D01*
X262794Y277458D01*
X262105Y277293D01*
X261451Y277022D01*
X260847Y276652D01*
X260308Y276192D01*
X259848Y275653D01*
X259478Y275049D01*
X259207Y274395D01*
X259042Y273706D01*
X258986Y273000D01*
X259042Y272294D01*
X259207Y271605D01*
X259478Y270951D01*
X259848Y270347D01*
X260308Y269808D01*
X260847Y269348D01*
X261451Y268978D01*
X262105Y268707D01*
X262794Y268542D01*
X263493Y268487D01*
Y187500D01*
X253493D01*
Y268487D01*
X253500Y268486D01*
X254206Y268542D01*
X254895Y268707D01*
X255549Y268978D01*
X256153Y269348D01*
X256692Y269808D01*
X257152Y270347D01*
X257522Y270951D01*
X257793Y271605D01*
X257958Y272294D01*
X258000Y273000D01*
X257958Y273706D01*
X257793Y274395D01*
X257522Y275049D01*
X257152Y275653D01*
X256692Y276192D01*
X256153Y276652D01*
X255549Y277022D01*
X254895Y277293D01*
X254206Y277458D01*
X253500Y277514D01*
X253493Y277513D01*
Y288000D01*
G37*
G36*
X245500D02*X253493D01*
Y277513D01*
X252794Y277458D01*
X252105Y277293D01*
X251451Y277022D01*
X250847Y276652D01*
X250308Y276192D01*
X249848Y275653D01*
X249478Y275049D01*
X249207Y274395D01*
X249042Y273706D01*
X248986Y273000D01*
X249042Y272294D01*
X249207Y271605D01*
X249478Y270951D01*
X249848Y270347D01*
X250308Y269808D01*
X250847Y269348D01*
X251451Y268978D01*
X252105Y268707D01*
X252794Y268542D01*
X253493Y268487D01*
Y187500D01*
X245500D01*
Y268958D01*
X245549Y268978D01*
X246153Y269348D01*
X246692Y269808D01*
X247152Y270347D01*
X247522Y270951D01*
X247793Y271605D01*
X247958Y272294D01*
X248000Y273000D01*
X247958Y273706D01*
X247793Y274395D01*
X247522Y275049D01*
X247152Y275653D01*
X246692Y276192D01*
X246153Y276652D01*
X245549Y277022D01*
X245500Y277042D01*
Y288000D01*
G37*
G36*
X377502Y124007D02*X381500Y124014D01*
Y112368D01*
X381393Y112324D01*
X381292Y112262D01*
X381202Y112186D01*
X381124Y112095D01*
X381062Y111994D01*
X381016Y111885D01*
X380989Y111769D01*
X380979Y111651D01*
X380988Y111532D01*
X381016Y111417D01*
X381063Y111308D01*
X381221Y110968D01*
X381342Y110612D01*
X381430Y110247D01*
X381482Y109875D01*
X381500Y109500D01*
X381482Y109125D01*
X381430Y108753D01*
X381342Y108388D01*
X381221Y108032D01*
X381067Y107690D01*
X381020Y107582D01*
X380993Y107467D01*
X380983Y107349D01*
X380993Y107232D01*
X381021Y107117D01*
X381066Y107008D01*
X381128Y106907D01*
X381205Y106818D01*
X381295Y106741D01*
X381395Y106680D01*
X381500Y106636D01*
Y95000D01*
X377502Y94993D01*
Y103994D01*
X378016Y104018D01*
X378528Y104091D01*
X379031Y104211D01*
X379520Y104378D01*
X379992Y104590D01*
X380093Y104651D01*
X380184Y104728D01*
X380261Y104818D01*
X380323Y104920D01*
X380369Y105029D01*
X380397Y105145D01*
X380406Y105263D01*
X380397Y105381D01*
X380370Y105497D01*
X380324Y105607D01*
X380262Y105708D01*
X380186Y105798D01*
X380095Y105876D01*
X379994Y105938D01*
X379885Y105984D01*
X379769Y106011D01*
X379651Y106021D01*
X379532Y106012D01*
X379417Y105984D01*
X379308Y105937D01*
X378968Y105779D01*
X378612Y105658D01*
X378247Y105570D01*
X377875Y105518D01*
X377502Y105500D01*
Y113500D01*
X377875Y113482D01*
X378247Y113430D01*
X378612Y113342D01*
X378968Y113221D01*
X379310Y113067D01*
X379418Y113020D01*
X379533Y112993D01*
X379651Y112983D01*
X379768Y112993D01*
X379883Y113021D01*
X379992Y113066D01*
X380093Y113128D01*
X380182Y113205D01*
X380259Y113295D01*
X380320Y113395D01*
X380365Y113504D01*
X380393Y113619D01*
X380402Y113737D01*
X380392Y113855D01*
X380365Y113969D01*
X380319Y114078D01*
X380257Y114179D01*
X380181Y114269D01*
X380091Y114345D01*
X379989Y114405D01*
X379520Y114622D01*
X379031Y114789D01*
X378528Y114909D01*
X378016Y114982D01*
X377502Y115006D01*
Y124007D01*
G37*
G36*
Y143983D02*X378363Y144051D01*
X379205Y144253D01*
X380005Y144584D01*
X380743Y145037D01*
X381401Y145599D01*
X381500Y145715D01*
Y135000D01*
X377502Y134993D01*
Y143983D01*
G37*
G36*
Y174584D02*X377683Y174659D01*
X377884Y174783D01*
X378064Y174936D01*
X378102Y174981D01*
X380019Y176898D01*
X380064Y176936D01*
X380217Y177115D01*
X380217Y177116D01*
X380341Y177317D01*
X380431Y177535D01*
X380486Y177765D01*
X380505Y178000D01*
X380500Y178059D01*
Y179256D01*
X380631Y179369D01*
X380866Y179644D01*
X381056Y179953D01*
X381194Y180287D01*
X381279Y180639D01*
X381300Y181000D01*
X381279Y181361D01*
X381194Y181713D01*
X381056Y182047D01*
X380866Y182356D01*
X380631Y182631D01*
X380356Y182866D01*
X380047Y183056D01*
X379713Y183194D01*
X379361Y183279D01*
X379000Y183307D01*
X378639Y183279D01*
X378287Y183194D01*
X377953Y183056D01*
X377644Y182866D01*
X377502Y182745D01*
Y189500D01*
X381500D01*
Y153285D01*
X381401Y153401D01*
X380743Y153963D01*
X380005Y154416D01*
X379205Y154747D01*
X378363Y154949D01*
X377502Y155017D01*
Y174584D01*
G37*
G36*
Y182745D02*X377369Y182631D01*
X377134Y182356D01*
X376944Y182047D01*
X376806Y181713D01*
X376721Y181361D01*
X376693Y181000D01*
X376721Y180639D01*
X376806Y180287D01*
X376944Y179953D01*
X377134Y179644D01*
X377369Y179369D01*
X377500Y179256D01*
Y178621D01*
X376379Y177500D01*
X367621D01*
X368828Y178706D01*
X369000Y178693D01*
X369361Y178721D01*
X369713Y178806D01*
X370047Y178944D01*
X370356Y179134D01*
X370631Y179369D01*
X370866Y179644D01*
X371000Y179862D01*
X371134Y179644D01*
X371369Y179369D01*
X371644Y179134D01*
X371953Y178944D01*
X372287Y178806D01*
X372639Y178721D01*
X373000Y178693D01*
X373361Y178721D01*
X373713Y178806D01*
X374047Y178944D01*
X374356Y179134D01*
X374631Y179369D01*
X374866Y179644D01*
X375056Y179953D01*
X375194Y180287D01*
X375279Y180639D01*
X375300Y181000D01*
X375279Y181361D01*
X375194Y181713D01*
X375056Y182047D01*
X374866Y182356D01*
X374631Y182631D01*
X374500Y182744D01*
Y189500D01*
X377502D01*
Y182745D01*
G37*
G36*
X373007Y124080D02*X373035Y124069D01*
X373265Y124014D01*
X373500Y124000D01*
X377502Y124007D01*
Y115006D01*
X377500Y115006D01*
X376984Y114982D01*
X376472Y114909D01*
X375969Y114789D01*
X375480Y114622D01*
X375008Y114410D01*
X374907Y114349D01*
X374816Y114272D01*
X374739Y114182D01*
X374677Y114080D01*
X374631Y113971D01*
X374603Y113855D01*
X374594Y113737D01*
X374603Y113619D01*
X374630Y113503D01*
X374676Y113393D01*
X374738Y113292D01*
X374814Y113202D01*
X374905Y113124D01*
X375006Y113062D01*
X375115Y113016D01*
X375231Y112989D01*
X375349Y112979D01*
X375468Y112988D01*
X375583Y113016D01*
X375692Y113063D01*
X376032Y113221D01*
X376388Y113342D01*
X376753Y113430D01*
X377125Y113482D01*
X377500Y113500D01*
X377502Y113500D01*
Y105500D01*
X377500Y105500D01*
X377125Y105518D01*
X376753Y105570D01*
X376388Y105658D01*
X376032Y105779D01*
X375690Y105933D01*
X375582Y105980D01*
X375467Y106007D01*
X375349Y106017D01*
X375232Y106007D01*
X375117Y105979D01*
X375008Y105934D01*
X374907Y105872D01*
X374818Y105795D01*
X374741Y105705D01*
X374680Y105605D01*
X374635Y105496D01*
X374607Y105381D01*
X374598Y105263D01*
X374608Y105145D01*
X374635Y105031D01*
X374681Y104922D01*
X374743Y104821D01*
X374819Y104731D01*
X374909Y104655D01*
X375011Y104595D01*
X375480Y104378D01*
X375969Y104211D01*
X376472Y104091D01*
X376984Y104018D01*
X377500Y103994D01*
X377502Y103994D01*
Y94993D01*
X373265Y94986D01*
X373035Y94931D01*
X373007Y94920D01*
Y106640D01*
X373029Y106631D01*
X373145Y106603D01*
X373263Y106594D01*
X373381Y106603D01*
X373497Y106630D01*
X373607Y106676D01*
X373708Y106738D01*
X373798Y106814D01*
X373876Y106905D01*
X373938Y107006D01*
X373984Y107115D01*
X374011Y107231D01*
X374021Y107349D01*
X374012Y107468D01*
X373984Y107583D01*
X373937Y107692D01*
X373779Y108032D01*
X373658Y108388D01*
X373570Y108753D01*
X373518Y109125D01*
X373500Y109500D01*
X373518Y109875D01*
X373570Y110247D01*
X373658Y110612D01*
X373779Y110968D01*
X373933Y111310D01*
X373980Y111418D01*
X374007Y111533D01*
X374017Y111651D01*
X374007Y111768D01*
X373979Y111883D01*
X373934Y111992D01*
X373872Y112093D01*
X373795Y112182D01*
X373705Y112259D01*
X373605Y112320D01*
X373496Y112365D01*
X373381Y112393D01*
X373263Y112402D01*
X373145Y112392D01*
X373031Y112365D01*
X373007Y112355D01*
Y124080D01*
G37*
G36*
Y146305D02*X373037Y146257D01*
X373599Y145599D01*
X374257Y145037D01*
X374995Y144584D01*
X375795Y144253D01*
X376637Y144051D01*
X377500Y143983D01*
X377502Y143983D01*
Y134993D01*
X373265Y134986D01*
X373035Y134931D01*
X373007Y134920D01*
Y146305D01*
G37*
G36*
Y174500D02*X376941D01*
X377000Y174495D01*
X377235Y174514D01*
X377235Y174514D01*
X377465Y174569D01*
X377502Y174584D01*
Y155017D01*
X377500Y155017D01*
X376637Y154949D01*
X375795Y154747D01*
X374995Y154416D01*
X374257Y153963D01*
X373599Y153401D01*
X373037Y152743D01*
X373007Y152695D01*
Y174500D01*
G37*
G36*
X349244Y186000D02*X353256D01*
X353369Y185869D01*
X353644Y185634D01*
X353953Y185444D01*
X354287Y185306D01*
X354639Y185221D01*
X355000Y185193D01*
X355361Y185221D01*
X355713Y185306D01*
X356047Y185444D01*
X356356Y185634D01*
X356631Y185869D01*
X356866Y186144D01*
X357056Y186453D01*
X357194Y186787D01*
X357279Y187139D01*
X357300Y187500D01*
X357279Y187861D01*
X357194Y188213D01*
X357056Y188547D01*
X356866Y188856D01*
X356631Y189131D01*
X356356Y189366D01*
X356138Y189500D01*
X371500D01*
Y182744D01*
X371369Y182631D01*
X371134Y182356D01*
X371000Y182138D01*
X370866Y182356D01*
X370631Y182631D01*
X370356Y182866D01*
X370047Y183056D01*
X369713Y183194D01*
X369361Y183279D01*
X369000Y183307D01*
X368639Y183279D01*
X368287Y183194D01*
X367953Y183056D01*
X367644Y182866D01*
X367369Y182631D01*
X367134Y182356D01*
X366944Y182047D01*
X366806Y181713D01*
X366721Y181361D01*
X366693Y181000D01*
X366706Y180828D01*
X365879Y180000D01*
X349244D01*
X349131Y180131D01*
X348856Y180366D01*
X348547Y180556D01*
X348213Y180694D01*
X347861Y180779D01*
X347500Y180807D01*
X347139Y180779D01*
X346787Y180694D01*
X346453Y180556D01*
X346144Y180366D01*
X345869Y180131D01*
X345634Y179856D01*
X345444Y179547D01*
X345306Y179213D01*
X345221Y178861D01*
X345193Y178500D01*
X345221Y178139D01*
X345275Y177916D01*
X345047Y178056D01*
X344713Y178194D01*
X344361Y178279D01*
X344000Y178307D01*
X343639Y178279D01*
X343287Y178194D01*
X342953Y178056D01*
X342644Y177866D01*
X342369Y177631D01*
X342134Y177356D01*
X341944Y177047D01*
X341806Y176713D01*
X341721Y176361D01*
X341693Y176000D01*
X341721Y175639D01*
X341806Y175287D01*
X341944Y174953D01*
X342134Y174644D01*
X342369Y174369D01*
X342644Y174134D01*
X342953Y173944D01*
X343287Y173806D01*
X343639Y173721D01*
X344000Y173693D01*
X344361Y173721D01*
X344713Y173806D01*
X345047Y173944D01*
X345356Y174134D01*
X345631Y174369D01*
X345744Y174500D01*
X373007D01*
Y152695D01*
X372584Y152005D01*
X372253Y151205D01*
X372051Y150363D01*
X371983Y149500D01*
X372051Y148637D01*
X372253Y147795D01*
X372584Y146995D01*
X373007Y146305D01*
Y134920D01*
X372817Y134841D01*
X372616Y134717D01*
X372436Y134564D01*
X372283Y134384D01*
X372159Y134183D01*
X372069Y133965D01*
X372014Y133735D01*
X372000Y133500D01*
X372014Y125265D01*
X372069Y125035D01*
X372159Y124817D01*
X372283Y124616D01*
X372436Y124436D01*
X372616Y124283D01*
X372817Y124159D01*
X373007Y124080D01*
Y112355D01*
X372922Y112319D01*
X372821Y112257D01*
X372731Y112181D01*
X372655Y112091D01*
X372595Y111989D01*
X372378Y111520D01*
X372211Y111031D01*
X372091Y110528D01*
X372018Y110016D01*
X371994Y109500D01*
X372018Y108984D01*
X372091Y108472D01*
X372211Y107969D01*
X372378Y107480D01*
X372590Y107008D01*
X372651Y106907D01*
X372728Y106816D01*
X372818Y106739D01*
X372920Y106677D01*
X373007Y106640D01*
Y94920D01*
X372817Y94841D01*
X372616Y94717D01*
X372436Y94564D01*
X372283Y94384D01*
X372159Y94183D01*
X372069Y93965D01*
X372014Y93735D01*
X372000Y93500D01*
X372008Y89000D01*
X319996D01*
Y130500D01*
X322256D01*
X322369Y130369D01*
X322644Y130134D01*
X322953Y129944D01*
X323287Y129806D01*
X323639Y129721D01*
X324000Y129693D01*
X324361Y129721D01*
X324713Y129806D01*
X325047Y129944D01*
X325356Y130134D01*
X325631Y130369D01*
X325866Y130644D01*
X326056Y130953D01*
X326194Y131287D01*
X326279Y131639D01*
X326300Y132000D01*
X326279Y132361D01*
X326194Y132713D01*
X326056Y133047D01*
X325866Y133356D01*
X325631Y133631D01*
X325356Y133866D01*
X325047Y134056D01*
X324713Y134194D01*
X324361Y134279D01*
X324000Y134307D01*
X323639Y134279D01*
X323287Y134194D01*
X322953Y134056D01*
X322644Y133866D01*
X322369Y133631D01*
X322256Y133500D01*
X319996D01*
Y156500D01*
X328756D01*
X328869Y156369D01*
X329144Y156134D01*
X329453Y155944D01*
X329787Y155806D01*
X330139Y155721D01*
X330500Y155693D01*
X330861Y155721D01*
X331213Y155806D01*
X331547Y155944D01*
X331856Y156134D01*
X332131Y156369D01*
X332366Y156644D01*
X332556Y156953D01*
X332694Y157287D01*
X332779Y157639D01*
X332800Y158000D01*
X332779Y158361D01*
X332694Y158713D01*
X332556Y159047D01*
X332366Y159356D01*
X332131Y159631D01*
X331856Y159866D01*
X331547Y160056D01*
X331213Y160194D01*
X330861Y160279D01*
X330500Y160307D01*
X330139Y160279D01*
X329787Y160194D01*
X329453Y160056D01*
X329144Y159866D01*
X328869Y159631D01*
X328756Y159500D01*
X328575D01*
X328694Y159787D01*
X328779Y160139D01*
X328800Y160500D01*
X328779Y160861D01*
X328694Y161213D01*
X328556Y161547D01*
X328366Y161856D01*
X328131Y162131D01*
X327856Y162366D01*
X327547Y162556D01*
X327213Y162694D01*
X326861Y162779D01*
X326500Y162807D01*
X326422Y162801D01*
X327400Y163779D01*
X327639Y163721D01*
X328000Y163693D01*
X328361Y163721D01*
X328713Y163806D01*
X329047Y163944D01*
X329356Y164134D01*
X329631Y164369D01*
X329866Y164644D01*
X330056Y164953D01*
X330194Y165287D01*
X330279Y165639D01*
X330300Y166000D01*
X330279Y166361D01*
X330194Y166713D01*
X330056Y167047D01*
X329866Y167356D01*
X329631Y167631D01*
X329356Y167866D01*
X329047Y168056D01*
X328713Y168194D01*
X328361Y168279D01*
X328287Y168284D01*
X328300Y168500D01*
X328279Y168861D01*
X328194Y169213D01*
X328056Y169547D01*
X327866Y169856D01*
X327631Y170131D01*
X327356Y170366D01*
X327047Y170556D01*
X326713Y170694D01*
X326361Y170779D01*
X326000Y170807D01*
X325639Y170779D01*
X325287Y170694D01*
X324953Y170556D01*
X324644Y170366D01*
X324369Y170131D01*
X324134Y169856D01*
X323944Y169547D01*
X323806Y169213D01*
X323721Y168861D01*
X323693Y168500D01*
X323706Y168328D01*
X322879Y167500D01*
X319996D01*
Y189500D01*
X346362D01*
X346144Y189366D01*
X345869Y189131D01*
X345634Y188856D01*
X345444Y188547D01*
X345306Y188213D01*
X345221Y187861D01*
X345193Y187500D01*
X345221Y187139D01*
X345306Y186787D01*
X345444Y186453D01*
X345634Y186144D01*
X345869Y185869D01*
X346144Y185634D01*
X346453Y185444D01*
X346787Y185306D01*
X347139Y185221D01*
X347500Y185193D01*
X347861Y185221D01*
X348213Y185306D01*
X348547Y185444D01*
X348856Y185634D01*
X349131Y185869D01*
X349244Y186000D01*
G37*
G36*
X319996Y167500D02*X307544D01*
X307431Y167631D01*
X307156Y167866D01*
X306847Y168056D01*
X306513Y168194D01*
X306161Y168279D01*
X305800Y168307D01*
X305439Y168279D01*
X305087Y168194D01*
X304753Y168056D01*
X304444Y167866D01*
X304169Y167631D01*
X303934Y167356D01*
X303744Y167047D01*
X303606Y166713D01*
X303521Y166361D01*
X303493Y166000D01*
X303521Y165639D01*
X303606Y165287D01*
X303744Y164953D01*
X303934Y164644D01*
X304169Y164369D01*
X304444Y164134D01*
X304753Y163944D01*
X305087Y163806D01*
X305439Y163721D01*
X305800Y163693D01*
X306161Y163721D01*
X306513Y163806D01*
X306672Y163872D01*
X306621Y163661D01*
X306593Y163300D01*
X306621Y162939D01*
X306706Y162587D01*
X306844Y162253D01*
X306999Y162000D01*
X296496D01*
Y189500D01*
X319996D01*
Y167500D01*
G37*
G36*
X316996Y156500D02*X319996D01*
Y133500D01*
X317744D01*
X317631Y133631D01*
X317356Y133866D01*
X317047Y134056D01*
X316996Y134077D01*
Y156500D01*
G37*
G36*
X319996Y89000D02*X317269D01*
X317279Y89039D01*
X317300Y89400D01*
X317279Y89761D01*
X317194Y90113D01*
X317056Y90447D01*
X316996Y90544D01*
Y117193D01*
X317000Y117193D01*
X317361Y117221D01*
X317713Y117306D01*
X318047Y117444D01*
X318356Y117634D01*
X318631Y117869D01*
X318866Y118144D01*
X319056Y118453D01*
X319194Y118787D01*
X319279Y119139D01*
X319300Y119500D01*
X319279Y119861D01*
X319194Y120213D01*
X319056Y120547D01*
X318866Y120856D01*
X318631Y121131D01*
X318500Y121244D01*
Y125756D01*
X318631Y125869D01*
X318866Y126144D01*
X319056Y126453D01*
X319194Y126787D01*
X319279Y127139D01*
X319300Y127500D01*
X319279Y127861D01*
X319194Y128213D01*
X319056Y128547D01*
X318866Y128856D01*
X318631Y129131D01*
X318356Y129366D01*
X318047Y129556D01*
X317713Y129694D01*
X317361Y129779D01*
X317000Y129807D01*
X316996Y129807D01*
Y129923D01*
X317047Y129944D01*
X317356Y130134D01*
X317631Y130369D01*
X317744Y130500D01*
X319996D01*
Y89000D01*
G37*
G36*
X316996Y90544D02*X316866Y90756D01*
X316631Y91031D01*
X316500Y91144D01*
Y96441D01*
X316505Y96500D01*
X316486Y96735D01*
X316431Y96965D01*
X316341Y97183D01*
X316217Y97384D01*
X316064Y97564D01*
X316019Y97602D01*
X313790Y99831D01*
X313800Y100000D01*
X313779Y100361D01*
X313694Y100713D01*
X313556Y101047D01*
X313366Y101356D01*
X313131Y101631D01*
X312856Y101866D01*
X312547Y102056D01*
X312213Y102194D01*
X311861Y102279D01*
X311500Y102307D01*
X311139Y102279D01*
X310787Y102194D01*
X310453Y102056D01*
X310144Y101866D01*
X309869Y101631D01*
X309634Y101356D01*
X309444Y101047D01*
X309306Y100713D01*
X309221Y100361D01*
X309193Y100000D01*
X309221Y99639D01*
X309306Y99287D01*
X309444Y98953D01*
X309634Y98644D01*
X309869Y98369D01*
X310144Y98134D01*
X310453Y97944D01*
X310787Y97806D01*
X311139Y97721D01*
X311500Y97693D01*
X311672Y97706D01*
X313500Y95879D01*
Y91144D01*
X313369Y91031D01*
X313134Y90756D01*
X312944Y90447D01*
X312806Y90113D01*
X312721Y89761D01*
X312693Y89400D01*
X312721Y89039D01*
X312731Y89000D01*
X296496D01*
Y153856D01*
X296556Y153953D01*
X296694Y154287D01*
X296779Y154639D01*
X296800Y155000D01*
X296779Y155361D01*
X296694Y155713D01*
X296556Y156047D01*
X296496Y156144D01*
Y156500D01*
X316996D01*
Y134077D01*
X316713Y134194D01*
X316361Y134279D01*
X316000Y134307D01*
X315639Y134279D01*
X315287Y134194D01*
X314953Y134056D01*
X314644Y133866D01*
X314369Y133631D01*
X314134Y133356D01*
X313944Y133047D01*
X313806Y132713D01*
X313721Y132361D01*
X313693Y132000D01*
X313721Y131639D01*
X313806Y131287D01*
X313944Y130953D01*
X314134Y130644D01*
X314369Y130369D01*
X314644Y130134D01*
X314953Y129944D01*
X315287Y129806D01*
X315639Y129721D01*
X316000Y129693D01*
X316361Y129721D01*
X316713Y129806D01*
X316996Y129923D01*
Y129807D01*
X316639Y129779D01*
X316287Y129694D01*
X315953Y129556D01*
X315644Y129366D01*
X315369Y129131D01*
X315134Y128856D01*
X314944Y128547D01*
X314806Y128213D01*
X314721Y127861D01*
X314693Y127500D01*
X314721Y127139D01*
X314806Y126787D01*
X314944Y126453D01*
X315134Y126144D01*
X315369Y125869D01*
X315500Y125756D01*
Y121244D01*
X315369Y121131D01*
X315134Y120856D01*
X314944Y120547D01*
X314806Y120213D01*
X314721Y119861D01*
X314693Y119500D01*
X314721Y119139D01*
X314806Y118787D01*
X314944Y118453D01*
X315134Y118144D01*
X315369Y117869D01*
X315644Y117634D01*
X315953Y117444D01*
X316287Y117306D01*
X316639Y117221D01*
X316996Y117193D01*
Y90544D01*
G37*
G36*
X296496Y156144D02*X296366Y156356D01*
X296244Y156500D01*
X296496D01*
Y156144D01*
G37*
G36*
Y89000D02*X245500D01*
Y189500D01*
X296496D01*
Y162000D01*
X294744D01*
X294631Y162131D01*
X294356Y162366D01*
X294047Y162556D01*
X293713Y162694D01*
X293361Y162779D01*
X293000Y162807D01*
X292639Y162779D01*
X292287Y162694D01*
X291953Y162556D01*
X291644Y162366D01*
X291369Y162131D01*
X291256Y162000D01*
X278559D01*
X278500Y162005D01*
X278265Y161986D01*
X278035Y161931D01*
X277817Y161841D01*
X277616Y161717D01*
X277615Y161717D01*
X277436Y161564D01*
X277398Y161519D01*
X276879Y161000D01*
X276244D01*
X276131Y161131D01*
X275856Y161366D01*
X275547Y161556D01*
X275213Y161694D01*
X274861Y161779D01*
X274500Y161807D01*
X274139Y161779D01*
X273787Y161694D01*
X273453Y161556D01*
X273144Y161366D01*
X272869Y161131D01*
X272634Y160856D01*
X272444Y160547D01*
X272306Y160213D01*
X272221Y159861D01*
X272193Y159500D01*
X272221Y159139D01*
X272306Y158787D01*
X272444Y158453D01*
X272634Y158144D01*
X272869Y157869D01*
X273144Y157634D01*
X273453Y157444D01*
X273787Y157306D01*
X274139Y157221D01*
X274500Y157193D01*
X274861Y157221D01*
X275213Y157306D01*
X275547Y157444D01*
X275856Y157634D01*
X276071Y157817D01*
X275934Y157656D01*
X275744Y157347D01*
X275606Y157013D01*
X275521Y156661D01*
X275493Y156300D01*
X275521Y155939D01*
X275606Y155587D01*
X275744Y155253D01*
X275934Y154944D01*
X276169Y154669D01*
X276444Y154434D01*
X276753Y154244D01*
X277087Y154106D01*
X277439Y154021D01*
X277800Y153993D01*
X277878Y153999D01*
X277379Y153500D01*
X264244D01*
X264131Y153631D01*
X263856Y153866D01*
X263547Y154056D01*
X263213Y154194D01*
X262861Y154279D01*
X262500Y154307D01*
X262139Y154279D01*
X261787Y154194D01*
X261453Y154056D01*
X261144Y153866D01*
X260869Y153631D01*
X260634Y153356D01*
X260444Y153047D01*
X260306Y152713D01*
X260221Y152361D01*
X260193Y152000D01*
X260221Y151639D01*
X260306Y151287D01*
X260444Y150953D01*
X260634Y150644D01*
X260869Y150369D01*
X261144Y150134D01*
X261453Y149944D01*
X261787Y149806D01*
X262139Y149721D01*
X262500Y149693D01*
X262861Y149721D01*
X263213Y149806D01*
X263547Y149944D01*
X263856Y150134D01*
X264131Y150369D01*
X264244Y150500D01*
X277941D01*
X278000Y150495D01*
X278235Y150514D01*
X278235Y150514D01*
X278465Y150569D01*
X278683Y150659D01*
X278884Y150783D01*
X279064Y150936D01*
X279102Y150981D01*
X281621Y153500D01*
X292756D01*
X292869Y153369D01*
X293144Y153134D01*
X293453Y152944D01*
X293787Y152806D01*
X294139Y152721D01*
X294500Y152693D01*
X294861Y152721D01*
X295213Y152806D01*
X295547Y152944D01*
X295856Y153134D01*
X296131Y153369D01*
X296366Y153644D01*
X296496Y153856D01*
Y89000D01*
G37*
G36*
X77500Y288000D02*X124000D01*
Y150000D01*
X77500D01*
Y288000D01*
G37*
G36*
X296496Y59000D02*X349882D01*
X350000Y58991D01*
X350471Y59028D01*
X350471Y59028D01*
X350930Y59138D01*
X351366Y59319D01*
X351769Y59565D01*
X352128Y59872D01*
X352204Y59962D01*
X376247Y84005D01*
X381500Y84014D01*
Y72917D01*
X380413Y72831D01*
X377890Y72226D01*
X375493Y71233D01*
X373281Y69877D01*
X371308Y68192D01*
X369623Y66219D01*
X368267Y64007D01*
X367274Y61610D01*
X366669Y59087D01*
X366465Y56500D01*
X366669Y53913D01*
X367274Y51390D01*
X368267Y48993D01*
X369623Y46781D01*
X371308Y44808D01*
X373281Y43123D01*
X375114Y42000D01*
X296496D01*
Y47000D01*
X316756D01*
X316869Y46869D01*
X317144Y46634D01*
X317453Y46444D01*
X317787Y46306D01*
X318139Y46221D01*
X318500Y46193D01*
X318861Y46221D01*
X319213Y46306D01*
X319547Y46444D01*
X319856Y46634D01*
X320131Y46869D01*
X320366Y47144D01*
X320556Y47453D01*
X320694Y47787D01*
X320779Y48139D01*
X320800Y48500D01*
X320779Y48861D01*
X320694Y49213D01*
X320556Y49547D01*
X320366Y49856D01*
X320131Y50131D01*
X319856Y50366D01*
X319547Y50556D01*
X319213Y50694D01*
X318861Y50779D01*
X318500Y50807D01*
X318139Y50779D01*
X317787Y50694D01*
X317453Y50556D01*
X317144Y50366D01*
X316869Y50131D01*
X316756Y50000D01*
X296496D01*
Y59000D01*
G37*
G36*
X377502Y124007D02*X381500Y124014D01*
Y112368D01*
X381393Y112324D01*
X381292Y112262D01*
X381202Y112186D01*
X381124Y112095D01*
X381062Y111994D01*
X381016Y111885D01*
X380989Y111769D01*
X380979Y111651D01*
X380988Y111532D01*
X381016Y111417D01*
X381063Y111308D01*
X381221Y110968D01*
X381342Y110612D01*
X381430Y110247D01*
X381482Y109875D01*
X381500Y109500D01*
X381482Y109125D01*
X381430Y108753D01*
X381342Y108388D01*
X381221Y108032D01*
X381067Y107690D01*
X381020Y107582D01*
X380993Y107467D01*
X380983Y107349D01*
X380993Y107232D01*
X381021Y107117D01*
X381066Y107008D01*
X381128Y106907D01*
X381205Y106818D01*
X381295Y106741D01*
X381395Y106680D01*
X381500Y106636D01*
Y95000D01*
X377502Y94993D01*
Y103994D01*
X378016Y104018D01*
X378528Y104091D01*
X379031Y104211D01*
X379520Y104378D01*
X379992Y104590D01*
X380093Y104651D01*
X380184Y104728D01*
X380261Y104818D01*
X380323Y104920D01*
X380369Y105029D01*
X380397Y105145D01*
X380406Y105263D01*
X380397Y105381D01*
X380370Y105497D01*
X380324Y105607D01*
X380262Y105708D01*
X380186Y105798D01*
X380095Y105876D01*
X379994Y105938D01*
X379885Y105984D01*
X379769Y106011D01*
X379651Y106021D01*
X379532Y106012D01*
X379417Y105984D01*
X379308Y105937D01*
X378968Y105779D01*
X378612Y105658D01*
X378247Y105570D01*
X377875Y105518D01*
X377502Y105500D01*
Y113500D01*
X377875Y113482D01*
X378247Y113430D01*
X378612Y113342D01*
X378968Y113221D01*
X379310Y113067D01*
X379418Y113020D01*
X379533Y112993D01*
X379651Y112983D01*
X379768Y112993D01*
X379883Y113021D01*
X379992Y113066D01*
X380093Y113128D01*
X380182Y113205D01*
X380259Y113295D01*
X380320Y113395D01*
X380365Y113504D01*
X380393Y113619D01*
X380402Y113737D01*
X380392Y113855D01*
X380365Y113969D01*
X380319Y114078D01*
X380257Y114179D01*
X380181Y114269D01*
X380091Y114345D01*
X379989Y114405D01*
X379520Y114622D01*
X379031Y114789D01*
X378528Y114909D01*
X378016Y114982D01*
X377502Y115006D01*
Y124007D01*
G37*
G36*
Y143983D02*X378363Y144051D01*
X379205Y144253D01*
X380005Y144584D01*
X380743Y145037D01*
X381401Y145599D01*
X381500Y145715D01*
Y135000D01*
X377502Y134993D01*
Y143983D01*
G37*
G36*
Y174584D02*X377683Y174659D01*
X377884Y174783D01*
X378064Y174936D01*
X378102Y174981D01*
X380019Y176898D01*
X380064Y176936D01*
X380217Y177115D01*
X380217Y177116D01*
X380341Y177317D01*
X380431Y177535D01*
X380486Y177765D01*
X380505Y178000D01*
X380500Y178059D01*
Y179256D01*
X380631Y179369D01*
X380866Y179644D01*
X381056Y179953D01*
X381075Y180000D01*
X381500D01*
Y153285D01*
X381401Y153401D01*
X380743Y153963D01*
X380005Y154416D01*
X379205Y154747D01*
X378363Y154949D01*
X377502Y155017D01*
Y174584D01*
G37*
G36*
X373007Y124080D02*X373035Y124069D01*
X373265Y124014D01*
X373500Y124000D01*
X377502Y124007D01*
Y115006D01*
X377500Y115006D01*
X376984Y114982D01*
X376472Y114909D01*
X375969Y114789D01*
X375480Y114622D01*
X375008Y114410D01*
X374907Y114349D01*
X374816Y114272D01*
X374739Y114182D01*
X374677Y114080D01*
X374631Y113971D01*
X374603Y113855D01*
X374594Y113737D01*
X374603Y113619D01*
X374630Y113503D01*
X374676Y113393D01*
X374738Y113292D01*
X374814Y113202D01*
X374905Y113124D01*
X375006Y113062D01*
X375115Y113016D01*
X375231Y112989D01*
X375349Y112979D01*
X375468Y112988D01*
X375583Y113016D01*
X375692Y113063D01*
X376032Y113221D01*
X376388Y113342D01*
X376753Y113430D01*
X377125Y113482D01*
X377500Y113500D01*
X377502Y113500D01*
Y105500D01*
X377500Y105500D01*
X377125Y105518D01*
X376753Y105570D01*
X376388Y105658D01*
X376032Y105779D01*
X375690Y105933D01*
X375582Y105980D01*
X375467Y106007D01*
X375349Y106017D01*
X375232Y106007D01*
X375117Y105979D01*
X375008Y105934D01*
X374907Y105872D01*
X374818Y105795D01*
X374741Y105705D01*
X374680Y105605D01*
X374635Y105496D01*
X374607Y105381D01*
X374598Y105263D01*
X374608Y105145D01*
X374635Y105031D01*
X374681Y104922D01*
X374743Y104821D01*
X374819Y104731D01*
X374909Y104655D01*
X375011Y104595D01*
X375480Y104378D01*
X375969Y104211D01*
X376472Y104091D01*
X376984Y104018D01*
X377500Y103994D01*
X377502Y103994D01*
Y94993D01*
X373265Y94986D01*
X373035Y94931D01*
X373007Y94920D01*
Y106640D01*
X373029Y106631D01*
X373145Y106603D01*
X373263Y106594D01*
X373381Y106603D01*
X373497Y106630D01*
X373607Y106676D01*
X373708Y106738D01*
X373798Y106814D01*
X373876Y106905D01*
X373938Y107006D01*
X373984Y107115D01*
X374011Y107231D01*
X374021Y107349D01*
X374012Y107468D01*
X373984Y107583D01*
X373937Y107692D01*
X373779Y108032D01*
X373658Y108388D01*
X373570Y108753D01*
X373518Y109125D01*
X373500Y109500D01*
X373518Y109875D01*
X373570Y110247D01*
X373658Y110612D01*
X373779Y110968D01*
X373933Y111310D01*
X373980Y111418D01*
X374007Y111533D01*
X374017Y111651D01*
X374007Y111768D01*
X373979Y111883D01*
X373934Y111992D01*
X373872Y112093D01*
X373795Y112182D01*
X373705Y112259D01*
X373605Y112320D01*
X373496Y112365D01*
X373381Y112393D01*
X373263Y112402D01*
X373145Y112392D01*
X373031Y112365D01*
X373007Y112355D01*
Y124080D01*
G37*
G36*
Y146305D02*X373037Y146257D01*
X373599Y145599D01*
X374257Y145037D01*
X374995Y144584D01*
X375795Y144253D01*
X376637Y144051D01*
X377500Y143983D01*
X377502Y143983D01*
Y134993D01*
X373265Y134986D01*
X373035Y134931D01*
X373007Y134920D01*
Y146305D01*
G37*
G36*
Y174500D02*X376941D01*
X377000Y174495D01*
X377235Y174514D01*
X377235Y174514D01*
X377465Y174569D01*
X377502Y174584D01*
Y155017D01*
X377500Y155017D01*
X376637Y154949D01*
X375795Y154747D01*
X374995Y154416D01*
X374257Y153963D01*
X373599Y153401D01*
X373037Y152743D01*
X373007Y152695D01*
Y174500D01*
G37*
G36*
X327256Y71500D02*X319996D01*
Y74440D01*
X320000Y74500D01*
X319996Y74560D01*
Y130500D01*
X322256D01*
X322369Y130369D01*
X322644Y130134D01*
X322953Y129944D01*
X323287Y129806D01*
X323639Y129721D01*
X324000Y129693D01*
X324361Y129721D01*
X324713Y129806D01*
X325047Y129944D01*
X325356Y130134D01*
X325631Y130369D01*
X325866Y130644D01*
X326056Y130953D01*
X326194Y131287D01*
X326279Y131639D01*
X326300Y132000D01*
X326279Y132361D01*
X326194Y132713D01*
X326056Y133047D01*
X325866Y133356D01*
X325631Y133631D01*
X325356Y133866D01*
X325047Y134056D01*
X324713Y134194D01*
X324361Y134279D01*
X324000Y134307D01*
X323639Y134279D01*
X323287Y134194D01*
X322953Y134056D01*
X322644Y133866D01*
X322369Y133631D01*
X322256Y133500D01*
X319996D01*
Y156500D01*
X328756D01*
X328869Y156369D01*
X329144Y156134D01*
X329453Y155944D01*
X329787Y155806D01*
X330139Y155721D01*
X330500Y155693D01*
X330861Y155721D01*
X331213Y155806D01*
X331547Y155944D01*
X331856Y156134D01*
X332131Y156369D01*
X332366Y156644D01*
X332556Y156953D01*
X332694Y157287D01*
X332779Y157639D01*
X332800Y158000D01*
X332779Y158361D01*
X332694Y158713D01*
X332556Y159047D01*
X332366Y159356D01*
X332131Y159631D01*
X331856Y159866D01*
X331547Y160056D01*
X331213Y160194D01*
X330861Y160279D01*
X330500Y160307D01*
X330139Y160279D01*
X329787Y160194D01*
X329453Y160056D01*
X329144Y159866D01*
X328869Y159631D01*
X328756Y159500D01*
X328575D01*
X328694Y159787D01*
X328779Y160139D01*
X328800Y160500D01*
X328779Y160861D01*
X328694Y161213D01*
X328556Y161547D01*
X328366Y161856D01*
X328131Y162131D01*
X327856Y162366D01*
X327547Y162556D01*
X327213Y162694D01*
X326861Y162779D01*
X326500Y162807D01*
X326422Y162801D01*
X327400Y163779D01*
X327639Y163721D01*
X328000Y163693D01*
X328361Y163721D01*
X328713Y163806D01*
X329047Y163944D01*
X329356Y164134D01*
X329631Y164369D01*
X329866Y164644D01*
X330056Y164953D01*
X330194Y165287D01*
X330279Y165639D01*
X330300Y166000D01*
X330279Y166361D01*
X330194Y166713D01*
X330056Y167047D01*
X329866Y167356D01*
X329631Y167631D01*
X329356Y167866D01*
X329047Y168056D01*
X328713Y168194D01*
X328361Y168279D01*
X328287Y168284D01*
X328300Y168500D01*
X328279Y168861D01*
X328194Y169213D01*
X328056Y169547D01*
X327866Y169856D01*
X327631Y170131D01*
X327356Y170366D01*
X327047Y170556D01*
X326713Y170694D01*
X326361Y170779D01*
X326000Y170807D01*
X325639Y170779D01*
X325287Y170694D01*
X324953Y170556D01*
X324644Y170366D01*
X324369Y170131D01*
X324134Y169856D01*
X323944Y169547D01*
X323806Y169213D01*
X323721Y168861D01*
X323693Y168500D01*
X323706Y168328D01*
X322879Y167500D01*
X319996D01*
Y180000D01*
X345756D01*
X345634Y179856D01*
X345444Y179547D01*
X345306Y179213D01*
X345221Y178861D01*
X345193Y178500D01*
X345221Y178139D01*
X345275Y177916D01*
X345047Y178056D01*
X344713Y178194D01*
X344361Y178279D01*
X344000Y178307D01*
X343639Y178279D01*
X343287Y178194D01*
X342953Y178056D01*
X342644Y177866D01*
X342369Y177631D01*
X342134Y177356D01*
X341944Y177047D01*
X341806Y176713D01*
X341721Y176361D01*
X341693Y176000D01*
X341721Y175639D01*
X341806Y175287D01*
X341944Y174953D01*
X342134Y174644D01*
X342369Y174369D01*
X342644Y174134D01*
X342953Y173944D01*
X343287Y173806D01*
X343639Y173721D01*
X344000Y173693D01*
X344361Y173721D01*
X344713Y173806D01*
X345047Y173944D01*
X345356Y174134D01*
X345631Y174369D01*
X345744Y174500D01*
X373007D01*
Y152695D01*
X372584Y152005D01*
X372253Y151205D01*
X372051Y150363D01*
X371983Y149500D01*
X372051Y148637D01*
X372253Y147795D01*
X372584Y146995D01*
X373007Y146305D01*
Y134920D01*
X372817Y134841D01*
X372616Y134717D01*
X372436Y134564D01*
X372283Y134384D01*
X372159Y134183D01*
X372069Y133965D01*
X372014Y133735D01*
X372000Y133500D01*
X372014Y125265D01*
X372069Y125035D01*
X372159Y124817D01*
X372283Y124616D01*
X372436Y124436D01*
X372616Y124283D01*
X372817Y124159D01*
X373007Y124080D01*
Y112355D01*
X372922Y112319D01*
X372821Y112257D01*
X372731Y112181D01*
X372655Y112091D01*
X372595Y111989D01*
X372378Y111520D01*
X372211Y111031D01*
X372091Y110528D01*
X372018Y110016D01*
X371994Y109500D01*
X372018Y108984D01*
X372091Y108472D01*
X372211Y107969D01*
X372378Y107480D01*
X372590Y107008D01*
X372651Y106907D01*
X372728Y106816D01*
X372818Y106739D01*
X372920Y106677D01*
X373007Y106640D01*
Y94920D01*
X372817Y94841D01*
X372616Y94717D01*
X372436Y94564D01*
X372283Y94384D01*
X372159Y94183D01*
X372069Y93965D01*
X372014Y93735D01*
X372000Y93500D01*
X372009Y88252D01*
X348757Y65000D01*
X327034D01*
X327231Y65169D01*
X327466Y65444D01*
X327656Y65753D01*
X327794Y66087D01*
X327879Y66439D01*
X327900Y66800D01*
X327879Y67161D01*
X327794Y67513D01*
X327656Y67847D01*
X327466Y68156D01*
X327231Y68431D01*
X327151Y68500D01*
X327256D01*
X327369Y68369D01*
X327644Y68134D01*
X327953Y67944D01*
X328287Y67806D01*
X328639Y67721D01*
X329000Y67693D01*
X329361Y67721D01*
X329713Y67806D01*
X330047Y67944D01*
X330356Y68134D01*
X330631Y68369D01*
X330866Y68644D01*
X331056Y68953D01*
X331194Y69287D01*
X331279Y69639D01*
X331300Y70000D01*
X331279Y70361D01*
X331194Y70713D01*
X331056Y71047D01*
X330866Y71356D01*
X330631Y71631D01*
X330356Y71866D01*
X330047Y72056D01*
X329713Y72194D01*
X329361Y72279D01*
X329000Y72307D01*
X328639Y72279D01*
X328287Y72194D01*
X327953Y72056D01*
X327644Y71866D01*
X327369Y71631D01*
X327256Y71500D01*
G37*
G36*
X319996Y167500D02*X307544D01*
X307431Y167631D01*
X307156Y167866D01*
X306847Y168056D01*
X306513Y168194D01*
X306161Y168279D01*
X305800Y168307D01*
X305439Y168279D01*
X305087Y168194D01*
X304753Y168056D01*
X304444Y167866D01*
X304169Y167631D01*
X303934Y167356D01*
X303744Y167047D01*
X303606Y166713D01*
X303521Y166361D01*
X303493Y166000D01*
X303521Y165639D01*
X303606Y165287D01*
X303744Y164953D01*
X303934Y164644D01*
X304169Y164369D01*
X304444Y164134D01*
X304753Y163944D01*
X305087Y163806D01*
X305439Y163721D01*
X305800Y163693D01*
X306161Y163721D01*
X306513Y163806D01*
X306672Y163872D01*
X306621Y163661D01*
X306593Y163300D01*
X306621Y162939D01*
X306706Y162587D01*
X306844Y162253D01*
X306999Y162000D01*
X296496D01*
Y180000D01*
X319996D01*
Y167500D01*
G37*
G36*
X313246Y96132D02*X313500Y95879D01*
Y91144D01*
X313369Y91031D01*
X313246Y90888D01*
Y96132D01*
G37*
G36*
X316996Y129923D02*X317047Y129944D01*
X317356Y130134D01*
X317631Y130369D01*
X317744Y130500D01*
X319996D01*
Y74560D01*
X319977Y74892D01*
X319885Y75275D01*
X319734Y75638D01*
X319529Y75974D01*
X319273Y76273D01*
X318974Y76529D01*
X318638Y76734D01*
X318275Y76885D01*
X317892Y76977D01*
X317500Y77008D01*
X317108Y76977D01*
X316996Y76950D01*
Y88256D01*
X317056Y88353D01*
X317194Y88687D01*
X317279Y89039D01*
X317300Y89400D01*
X317279Y89761D01*
X317194Y90113D01*
X317056Y90447D01*
X316996Y90544D01*
Y117193D01*
X317000Y117193D01*
X317361Y117221D01*
X317713Y117306D01*
X318047Y117444D01*
X318356Y117634D01*
X318631Y117869D01*
X318866Y118144D01*
X319056Y118453D01*
X319194Y118787D01*
X319279Y119139D01*
X319300Y119500D01*
X319279Y119861D01*
X319194Y120213D01*
X319056Y120547D01*
X318866Y120856D01*
X318631Y121131D01*
X318500Y121244D01*
Y125756D01*
X318631Y125869D01*
X318866Y126144D01*
X319056Y126453D01*
X319194Y126787D01*
X319279Y127139D01*
X319300Y127500D01*
X319279Y127861D01*
X319194Y128213D01*
X319056Y128547D01*
X318866Y128856D01*
X318631Y129131D01*
X318356Y129366D01*
X318047Y129556D01*
X317713Y129694D01*
X317361Y129779D01*
X317000Y129807D01*
X316996Y129807D01*
Y129923D01*
G37*
G36*
Y156500D02*X319996D01*
Y133500D01*
X317744D01*
X317631Y133631D01*
X317356Y133866D01*
X317047Y134056D01*
X316996Y134077D01*
Y156500D01*
G37*
G36*
Y76950D02*X316725Y76885D01*
X316362Y76734D01*
X316026Y76529D01*
X315727Y76273D01*
X315493Y76000D01*
X313246D01*
Y87912D01*
X313369Y87769D01*
X313644Y87534D01*
X313953Y87344D01*
X314287Y87206D01*
X314639Y87121D01*
X315000Y87093D01*
X315361Y87121D01*
X315713Y87206D01*
X316047Y87344D01*
X316356Y87534D01*
X316631Y87769D01*
X316866Y88044D01*
X316996Y88256D01*
Y76950D01*
G37*
G36*
X313246Y156500D02*X316996D01*
Y134077D01*
X316713Y134194D01*
X316361Y134279D01*
X316000Y134307D01*
X315639Y134279D01*
X315287Y134194D01*
X314953Y134056D01*
X314644Y133866D01*
X314369Y133631D01*
X314134Y133356D01*
X313944Y133047D01*
X313806Y132713D01*
X313721Y132361D01*
X313693Y132000D01*
X313721Y131639D01*
X313806Y131287D01*
X313944Y130953D01*
X314134Y130644D01*
X314369Y130369D01*
X314644Y130134D01*
X314953Y129944D01*
X315287Y129806D01*
X315639Y129721D01*
X316000Y129693D01*
X316361Y129721D01*
X316713Y129806D01*
X316996Y129923D01*
Y129807D01*
X316639Y129779D01*
X316287Y129694D01*
X315953Y129556D01*
X315644Y129366D01*
X315369Y129131D01*
X315134Y128856D01*
X314944Y128547D01*
X314806Y128213D01*
X314721Y127861D01*
X314693Y127500D01*
X314721Y127139D01*
X314806Y126787D01*
X314944Y126453D01*
X315134Y126144D01*
X315369Y125869D01*
X315500Y125756D01*
Y121244D01*
X315369Y121131D01*
X315134Y120856D01*
X314944Y120547D01*
X314806Y120213D01*
X314721Y119861D01*
X314693Y119500D01*
X314721Y119139D01*
X314806Y118787D01*
X314944Y118453D01*
X315134Y118144D01*
X315369Y117869D01*
X315644Y117634D01*
X315953Y117444D01*
X316287Y117306D01*
X316639Y117221D01*
X316996Y117193D01*
Y90544D01*
X316866Y90756D01*
X316631Y91031D01*
X316500Y91144D01*
Y96441D01*
X316505Y96500D01*
X316486Y96735D01*
X316431Y96965D01*
X316341Y97183D01*
X316217Y97384D01*
X316064Y97564D01*
X316019Y97602D01*
X313790Y99831D01*
X313800Y100000D01*
X313779Y100361D01*
X313694Y100713D01*
X313556Y101047D01*
X313366Y101356D01*
X313246Y101497D01*
Y156500D01*
G37*
G36*
X319996Y71500D02*X313246D01*
Y73000D01*
X315493D01*
X315727Y72727D01*
X316026Y72471D01*
X316362Y72266D01*
X316725Y72115D01*
X317108Y72023D01*
X317500Y71992D01*
X317892Y72023D01*
X318275Y72115D01*
X318638Y72266D01*
X318974Y72471D01*
X319273Y72727D01*
X319529Y73026D01*
X319734Y73362D01*
X319885Y73725D01*
X319977Y74108D01*
X319996Y74440D01*
Y71500D01*
G37*
G36*
X313246D02*X296496D01*
Y73000D01*
X298656D01*
X298769Y72869D01*
X299044Y72634D01*
X299353Y72444D01*
X299687Y72306D01*
X300039Y72221D01*
X300400Y72193D01*
X300761Y72221D01*
X301113Y72306D01*
X301447Y72444D01*
X301756Y72634D01*
X302031Y72869D01*
X302266Y73144D01*
X302456Y73453D01*
X302594Y73787D01*
X302679Y74139D01*
X302700Y74500D01*
X302679Y74861D01*
X302594Y75213D01*
X302456Y75547D01*
X302266Y75856D01*
X302031Y76131D01*
X301756Y76366D01*
X301447Y76556D01*
X301113Y76694D01*
X300761Y76779D01*
X300400Y76807D01*
X300039Y76779D01*
X299687Y76694D01*
X299353Y76556D01*
X299044Y76366D01*
X298769Y76131D01*
X298656Y76000D01*
X296496D01*
Y153856D01*
X296556Y153953D01*
X296694Y154287D01*
X296779Y154639D01*
X296800Y155000D01*
X296779Y155361D01*
X296694Y155713D01*
X296556Y156047D01*
X296496Y156144D01*
Y156500D01*
X313246D01*
Y101497D01*
X313131Y101631D01*
X312856Y101866D01*
X312547Y102056D01*
X312213Y102194D01*
X311861Y102279D01*
X311500Y102307D01*
X311139Y102279D01*
X310787Y102194D01*
X310453Y102056D01*
X310144Y101866D01*
X309869Y101631D01*
X309634Y101356D01*
X309444Y101047D01*
X309306Y100713D01*
X309221Y100361D01*
X309193Y100000D01*
X309221Y99639D01*
X309306Y99287D01*
X309444Y98953D01*
X309634Y98644D01*
X309869Y98369D01*
X310144Y98134D01*
X310453Y97944D01*
X310787Y97806D01*
X311139Y97721D01*
X311500Y97693D01*
X311672Y97706D01*
X313246Y96132D01*
Y90888D01*
X313134Y90756D01*
X312944Y90447D01*
X312806Y90113D01*
X312721Y89761D01*
X312693Y89400D01*
X312721Y89039D01*
X312806Y88687D01*
X312944Y88353D01*
X313134Y88044D01*
X313246Y87912D01*
Y76000D01*
X310344D01*
X310231Y76131D01*
X309956Y76366D01*
X309647Y76556D01*
X309313Y76694D01*
X308961Y76779D01*
X308600Y76807D01*
X308239Y76779D01*
X307887Y76694D01*
X307553Y76556D01*
X307244Y76366D01*
X306969Y76131D01*
X306734Y75856D01*
X306544Y75547D01*
X306406Y75213D01*
X306321Y74861D01*
X306293Y74500D01*
X306321Y74139D01*
X306406Y73787D01*
X306544Y73453D01*
X306734Y73144D01*
X306969Y72869D01*
X307244Y72634D01*
X307553Y72444D01*
X307887Y72306D01*
X308239Y72221D01*
X308600Y72193D01*
X308961Y72221D01*
X309313Y72306D01*
X309647Y72444D01*
X309956Y72634D01*
X310231Y72869D01*
X310344Y73000D01*
X313246D01*
Y71500D01*
G37*
G36*
X296244Y156500D02*X296496D01*
Y156144D01*
X296366Y156356D01*
X296244Y156500D01*
G37*
G36*
X296496Y71500D02*X280744D01*
X280631Y71631D01*
X280356Y71866D01*
X280047Y72056D01*
X279713Y72194D01*
X279361Y72279D01*
X279000Y72307D01*
X278639Y72279D01*
X278287Y72194D01*
X277953Y72056D01*
X277644Y71866D01*
X277369Y71631D01*
X277134Y71356D01*
X276944Y71047D01*
X276806Y70713D01*
X276721Y70361D01*
X276693Y70000D01*
X276721Y69639D01*
X276806Y69287D01*
X276944Y68953D01*
X277134Y68644D01*
X277271Y68483D01*
X277056Y68666D01*
X276747Y68856D01*
X276413Y68994D01*
X276061Y69079D01*
X275700Y69107D01*
X275339Y69079D01*
X274987Y68994D01*
X274653Y68856D01*
X274344Y68666D01*
X274069Y68431D01*
X273834Y68156D01*
X273644Y67847D01*
X273506Y67513D01*
X273421Y67161D01*
X273393Y66800D01*
X273421Y66439D01*
X273506Y66087D01*
X273644Y65753D01*
X273834Y65444D01*
X274069Y65169D01*
X274344Y64934D01*
X274505Y64835D01*
X274134Y64681D01*
X273731Y64435D01*
X273372Y64128D01*
X273065Y63769D01*
X272819Y63366D01*
X272638Y62930D01*
X272528Y62471D01*
X272491Y62000D01*
X272528Y61529D01*
X272638Y61070D01*
X272819Y60634D01*
X273065Y60231D01*
X273372Y59872D01*
X273731Y59565D01*
X274134Y59319D01*
X274570Y59138D01*
X275029Y59028D01*
X275500Y59000D01*
X296496D01*
Y50000D01*
X285744D01*
X285631Y50131D01*
X285356Y50366D01*
X285047Y50556D01*
X284713Y50694D01*
X284361Y50779D01*
X284000Y50807D01*
X283639Y50779D01*
X283287Y50694D01*
X282953Y50556D01*
X282644Y50366D01*
X282369Y50131D01*
X282134Y49856D01*
X281944Y49547D01*
X281806Y49213D01*
X281721Y48861D01*
X281693Y48500D01*
X281721Y48139D01*
X281806Y47787D01*
X281944Y47453D01*
X282134Y47144D01*
X282369Y46869D01*
X282644Y46634D01*
X282953Y46444D01*
X283287Y46306D01*
X283639Y46221D01*
X284000Y46193D01*
X284361Y46221D01*
X284713Y46306D01*
X285047Y46444D01*
X285356Y46634D01*
X285631Y46869D01*
X285744Y47000D01*
X296496D01*
Y42000D01*
X106000D01*
Y180000D01*
X296496D01*
Y162000D01*
X294744D01*
X294631Y162131D01*
X294356Y162366D01*
X294047Y162556D01*
X293713Y162694D01*
X293361Y162779D01*
X293000Y162807D01*
X292639Y162779D01*
X292287Y162694D01*
X291953Y162556D01*
X291644Y162366D01*
X291369Y162131D01*
X291256Y162000D01*
X278559D01*
X278500Y162005D01*
X278265Y161986D01*
X278035Y161931D01*
X277817Y161841D01*
X277616Y161717D01*
X277615Y161717D01*
X277436Y161564D01*
X277398Y161519D01*
X276879Y161000D01*
X276244D01*
X276131Y161131D01*
X275856Y161366D01*
X275547Y161556D01*
X275213Y161694D01*
X274861Y161779D01*
X274500Y161807D01*
X274139Y161779D01*
X273787Y161694D01*
X273453Y161556D01*
X273144Y161366D01*
X272869Y161131D01*
X272634Y160856D01*
X272444Y160547D01*
X272306Y160213D01*
X272221Y159861D01*
X272193Y159500D01*
X272221Y159139D01*
X272306Y158787D01*
X272444Y158453D01*
X272634Y158144D01*
X272869Y157869D01*
X273144Y157634D01*
X273453Y157444D01*
X273787Y157306D01*
X274139Y157221D01*
X274500Y157193D01*
X274861Y157221D01*
X275213Y157306D01*
X275547Y157444D01*
X275856Y157634D01*
X276071Y157817D01*
X275934Y157656D01*
X275744Y157347D01*
X275606Y157013D01*
X275521Y156661D01*
X275493Y156300D01*
X275521Y155939D01*
X275606Y155587D01*
X275744Y155253D01*
X275934Y154944D01*
X276169Y154669D01*
X276444Y154434D01*
X276753Y154244D01*
X277087Y154106D01*
X277439Y154021D01*
X277800Y153993D01*
X277878Y153999D01*
X277379Y153500D01*
X264244D01*
X264131Y153631D01*
X263856Y153866D01*
X263547Y154056D01*
X263213Y154194D01*
X262861Y154279D01*
X262500Y154307D01*
X262139Y154279D01*
X261787Y154194D01*
X261453Y154056D01*
X261144Y153866D01*
X260869Y153631D01*
X260634Y153356D01*
X260444Y153047D01*
X260306Y152713D01*
X260221Y152361D01*
X260193Y152000D01*
X260221Y151639D01*
X260306Y151287D01*
X260444Y150953D01*
X260634Y150644D01*
X260869Y150369D01*
X261144Y150134D01*
X261453Y149944D01*
X261787Y149806D01*
X262139Y149721D01*
X262500Y149693D01*
X262861Y149721D01*
X263213Y149806D01*
X263547Y149944D01*
X263856Y150134D01*
X264131Y150369D01*
X264244Y150500D01*
X277941D01*
X278000Y150495D01*
X278235Y150514D01*
X278235Y150514D01*
X278465Y150569D01*
X278683Y150659D01*
X278884Y150783D01*
X279064Y150936D01*
X279102Y150981D01*
X281621Y153500D01*
X292756D01*
X292869Y153369D01*
X293144Y153134D01*
X293453Y152944D01*
X293787Y152806D01*
X294139Y152721D01*
X294500Y152693D01*
X294861Y152721D01*
X295213Y152806D01*
X295547Y152944D01*
X295856Y153134D01*
X296131Y153369D01*
X296366Y153644D01*
X296496Y153856D01*
Y76000D01*
X293444D01*
X293331Y76131D01*
X293056Y76366D01*
X292747Y76556D01*
X292413Y76694D01*
X292061Y76779D01*
X291700Y76807D01*
X291339Y76779D01*
X290987Y76694D01*
X290653Y76556D01*
X290344Y76366D01*
X290069Y76131D01*
X289834Y75856D01*
X289644Y75547D01*
X289506Y75213D01*
X289421Y74861D01*
X289393Y74500D01*
X289421Y74139D01*
X289506Y73787D01*
X289644Y73453D01*
X289834Y73144D01*
X290069Y72869D01*
X290344Y72634D01*
X290653Y72444D01*
X290987Y72306D01*
X291339Y72221D01*
X291700Y72193D01*
X292061Y72221D01*
X292413Y72306D01*
X292747Y72444D01*
X293056Y72634D01*
X293331Y72869D01*
X293444Y73000D01*
X296496D01*
Y71500D01*
G37*
G36*
X381993Y256544D02*X383000Y256465D01*
X385587Y256669D01*
X388110Y257274D01*
X390507Y258267D01*
X392719Y259623D01*
X394692Y261308D01*
X396377Y263281D01*
X397733Y265493D01*
X398000Y266139D01*
Y63361D01*
X397733Y64007D01*
X396377Y66219D01*
X394692Y68192D01*
X392719Y69877D01*
X390507Y71233D01*
X388110Y72226D01*
X385587Y72831D01*
X383000Y73035D01*
X381993Y72956D01*
Y84080D01*
X382183Y84159D01*
X382384Y84283D01*
X382564Y84436D01*
X382717Y84616D01*
X382841Y84817D01*
X382931Y85035D01*
X382986Y85265D01*
X383000Y85500D01*
X382986Y93735D01*
X382931Y93965D01*
X382841Y94183D01*
X382717Y94384D01*
X382564Y94564D01*
X382384Y94717D01*
X382183Y94841D01*
X381993Y94920D01*
Y106645D01*
X382078Y106681D01*
X382179Y106743D01*
X382269Y106819D01*
X382345Y106909D01*
X382405Y107011D01*
X382622Y107480D01*
X382789Y107969D01*
X382909Y108472D01*
X382982Y108984D01*
X383006Y109500D01*
X382982Y110016D01*
X382909Y110528D01*
X382789Y111031D01*
X382622Y111520D01*
X382410Y111992D01*
X382349Y112093D01*
X382272Y112184D01*
X382182Y112261D01*
X382080Y112323D01*
X381993Y112360D01*
Y124080D01*
X382183Y124159D01*
X382384Y124283D01*
X382564Y124436D01*
X382717Y124616D01*
X382841Y124817D01*
X382931Y125035D01*
X382986Y125265D01*
X383000Y125500D01*
X382986Y133735D01*
X382931Y133965D01*
X382841Y134183D01*
X382717Y134384D01*
X382564Y134564D01*
X382384Y134717D01*
X382183Y134841D01*
X381993Y134920D01*
Y146305D01*
X382416Y146995D01*
X382747Y147795D01*
X382949Y148637D01*
X383000Y149500D01*
X382949Y150363D01*
X382747Y151205D01*
X382416Y152005D01*
X381993Y152695D01*
Y256544D01*
G37*
G36*
Y134920D02*X381965Y134931D01*
X381735Y134986D01*
X381500Y135000D01*
X377500Y134993D01*
Y143983D01*
X378363Y144051D01*
X379205Y144253D01*
X380005Y144584D01*
X380743Y145037D01*
X381401Y145599D01*
X381963Y146257D01*
X381993Y146305D01*
Y134920D01*
G37*
G36*
Y94920D02*X381965Y94931D01*
X381735Y94986D01*
X381500Y95000D01*
X377500Y94993D01*
Y103994D01*
X378016Y104018D01*
X378528Y104091D01*
X379031Y104211D01*
X379520Y104378D01*
X379992Y104590D01*
X380093Y104651D01*
X380184Y104728D01*
X380261Y104818D01*
X380323Y104920D01*
X380369Y105029D01*
X380397Y105145D01*
X380406Y105263D01*
X380397Y105381D01*
X380370Y105497D01*
X380324Y105607D01*
X380262Y105708D01*
X380186Y105798D01*
X380095Y105876D01*
X379994Y105938D01*
X379885Y105984D01*
X379769Y106011D01*
X379651Y106021D01*
X379532Y106012D01*
X379417Y105984D01*
X379308Y105937D01*
X378968Y105779D01*
X378612Y105658D01*
X378247Y105570D01*
X377875Y105518D01*
X377500Y105500D01*
Y113500D01*
X377875Y113482D01*
X378247Y113430D01*
X378612Y113342D01*
X378968Y113221D01*
X379310Y113067D01*
X379418Y113020D01*
X379533Y112993D01*
X379651Y112983D01*
X379768Y112993D01*
X379883Y113021D01*
X379992Y113066D01*
X380093Y113128D01*
X380182Y113205D01*
X380259Y113295D01*
X380320Y113395D01*
X380365Y113504D01*
X380393Y113619D01*
X380402Y113737D01*
X380392Y113855D01*
X380365Y113969D01*
X380319Y114078D01*
X380257Y114179D01*
X380181Y114269D01*
X380091Y114345D01*
X379989Y114405D01*
X379520Y114622D01*
X379031Y114789D01*
X378528Y114909D01*
X378016Y114982D01*
X377500Y115006D01*
Y124007D01*
X381735Y124014D01*
X381965Y124069D01*
X381993Y124080D01*
Y112360D01*
X381971Y112369D01*
X381855Y112397D01*
X381737Y112406D01*
X381619Y112397D01*
X381503Y112370D01*
X381393Y112324D01*
X381292Y112262D01*
X381202Y112186D01*
X381124Y112095D01*
X381062Y111994D01*
X381016Y111885D01*
X380989Y111769D01*
X380979Y111651D01*
X380988Y111532D01*
X381016Y111417D01*
X381063Y111308D01*
X381221Y110968D01*
X381342Y110612D01*
X381430Y110247D01*
X381482Y109875D01*
X381500Y109500D01*
X381482Y109125D01*
X381430Y108753D01*
X381342Y108388D01*
X381221Y108032D01*
X381067Y107690D01*
X381020Y107582D01*
X380993Y107467D01*
X380983Y107349D01*
X380993Y107232D01*
X381021Y107117D01*
X381066Y107008D01*
X381128Y106907D01*
X381205Y106818D01*
X381295Y106741D01*
X381395Y106680D01*
X381504Y106635D01*
X381619Y106607D01*
X381737Y106598D01*
X381855Y106608D01*
X381969Y106635D01*
X381993Y106645D01*
Y94920D01*
G37*
G36*
Y72956D02*X380413Y72831D01*
X377890Y72226D01*
X377500Y72064D01*
Y84007D01*
X381735Y84014D01*
X381965Y84069D01*
X381993Y84080D01*
Y72956D01*
G37*
G36*
X377500Y257436D02*X377890Y257274D01*
X380413Y256669D01*
X381993Y256544D01*
Y152695D01*
X381963Y152743D01*
X381401Y153401D01*
X380743Y153963D01*
X380005Y154416D01*
X379205Y154747D01*
X378363Y154949D01*
X377500Y155017D01*
Y174584D01*
X377683Y174659D01*
X377884Y174783D01*
X378064Y174936D01*
X378102Y174981D01*
X380019Y176898D01*
X380064Y176936D01*
X380217Y177115D01*
X380217Y177116D01*
X380341Y177317D01*
X380431Y177535D01*
X380486Y177765D01*
X380505Y178000D01*
X380500Y178059D01*
Y179256D01*
X380631Y179369D01*
X380866Y179644D01*
X381056Y179953D01*
X381194Y180287D01*
X381279Y180639D01*
X381300Y181000D01*
X381279Y181361D01*
X381194Y181713D01*
X381056Y182047D01*
X380866Y182356D01*
X380631Y182631D01*
X380356Y182866D01*
X380047Y183056D01*
X379713Y183194D01*
X379361Y183279D01*
X379000Y183307D01*
X378639Y183279D01*
X378287Y183194D01*
X377953Y183056D01*
X377644Y182866D01*
X377500Y182744D01*
Y257436D01*
G37*
G36*
X373007Y146305D02*X373037Y146257D01*
X373599Y145599D01*
X374257Y145037D01*
X374995Y144584D01*
X375795Y144253D01*
X376637Y144051D01*
X377500Y143983D01*
Y134993D01*
X373265Y134986D01*
X373035Y134931D01*
X373007Y134920D01*
Y146305D01*
G37*
G36*
Y174500D02*X376941D01*
X377000Y174495D01*
X377235Y174514D01*
X377235Y174514D01*
X377465Y174569D01*
X377500Y174584D01*
Y155017D01*
X376637Y154949D01*
X375795Y154747D01*
X374995Y154416D01*
X374257Y153963D01*
X373599Y153401D01*
X373037Y152743D01*
X373007Y152695D01*
Y174500D01*
G37*
G36*
X377500Y94993D02*X373265Y94986D01*
X373035Y94931D01*
X373007Y94920D01*
Y106640D01*
X373029Y106631D01*
X373145Y106603D01*
X373263Y106594D01*
X373381Y106603D01*
X373497Y106630D01*
X373607Y106676D01*
X373708Y106738D01*
X373798Y106814D01*
X373876Y106905D01*
X373938Y107006D01*
X373984Y107115D01*
X374011Y107231D01*
X374021Y107349D01*
X374012Y107468D01*
X373984Y107583D01*
X373937Y107692D01*
X373779Y108032D01*
X373658Y108388D01*
X373570Y108753D01*
X373518Y109125D01*
X373500Y109500D01*
X373518Y109875D01*
X373570Y110247D01*
X373658Y110612D01*
X373779Y110968D01*
X373933Y111310D01*
X373980Y111418D01*
X374007Y111533D01*
X374017Y111651D01*
X374007Y111768D01*
X373979Y111883D01*
X373934Y111992D01*
X373872Y112093D01*
X373795Y112182D01*
X373705Y112259D01*
X373605Y112320D01*
X373496Y112365D01*
X373381Y112393D01*
X373263Y112402D01*
X373145Y112392D01*
X373031Y112365D01*
X373007Y112355D01*
Y124080D01*
X373035Y124069D01*
X373265Y124014D01*
X373500Y124000D01*
X377500Y124007D01*
Y115006D01*
X376984Y114982D01*
X376472Y114909D01*
X375969Y114789D01*
X375480Y114622D01*
X375008Y114410D01*
X374907Y114349D01*
X374816Y114272D01*
X374739Y114182D01*
X374677Y114080D01*
X374631Y113971D01*
X374603Y113855D01*
X374594Y113737D01*
X374603Y113619D01*
X374630Y113503D01*
X374676Y113393D01*
X374738Y113292D01*
X374814Y113202D01*
X374905Y113124D01*
X375006Y113062D01*
X375115Y113016D01*
X375231Y112989D01*
X375349Y112979D01*
X375468Y112988D01*
X375583Y113016D01*
X375692Y113063D01*
X376032Y113221D01*
X376388Y113342D01*
X376753Y113430D01*
X377125Y113482D01*
X377500Y113500D01*
Y105500D01*
X377125Y105518D01*
X376753Y105570D01*
X376388Y105658D01*
X376032Y105779D01*
X375690Y105933D01*
X375582Y105980D01*
X375467Y106007D01*
X375349Y106017D01*
X375232Y106007D01*
X375117Y105979D01*
X375008Y105934D01*
X374907Y105872D01*
X374818Y105795D01*
X374741Y105705D01*
X374680Y105605D01*
X374635Y105496D01*
X374607Y105381D01*
X374598Y105263D01*
X374608Y105145D01*
X374635Y105031D01*
X374681Y104922D01*
X374743Y104821D01*
X374819Y104731D01*
X374909Y104655D01*
X375011Y104595D01*
X375480Y104378D01*
X375969Y104211D01*
X376472Y104091D01*
X376984Y104018D01*
X377500Y103994D01*
Y94993D01*
G37*
G36*
X373007Y94920D02*X372817Y94841D01*
X372616Y94717D01*
X372436Y94564D01*
X372283Y94384D01*
X372159Y94183D01*
X372069Y93965D01*
X372014Y93735D01*
X372000Y93500D01*
X372009Y88252D01*
X367000Y83243D01*
Y174500D01*
X373007D01*
Y152695D01*
X372584Y152005D01*
X372253Y151205D01*
X372051Y150363D01*
X371983Y149500D01*
X372051Y148637D01*
X372253Y147795D01*
X372584Y146995D01*
X373007Y146305D01*
Y134920D01*
X372817Y134841D01*
X372616Y134717D01*
X372436Y134564D01*
X372283Y134384D01*
X372159Y134183D01*
X372069Y133965D01*
X372014Y133735D01*
X372000Y133500D01*
X372014Y125265D01*
X372069Y125035D01*
X372159Y124817D01*
X372283Y124616D01*
X372436Y124436D01*
X372616Y124283D01*
X372817Y124159D01*
X373007Y124080D01*
Y112355D01*
X372922Y112319D01*
X372821Y112257D01*
X372731Y112181D01*
X372655Y112091D01*
X372595Y111989D01*
X372378Y111520D01*
X372211Y111031D01*
X372091Y110528D01*
X372018Y110016D01*
X371994Y109500D01*
X372018Y108984D01*
X372091Y108472D01*
X372211Y107969D01*
X372378Y107480D01*
X372590Y107008D01*
X372651Y106907D01*
X372728Y106816D01*
X372818Y106739D01*
X372920Y106677D01*
X373007Y106640D01*
Y94920D01*
G37*
G36*
X377500Y72064D02*X375493Y71233D01*
X373281Y69877D01*
X371308Y68192D01*
X369623Y66219D01*
X368267Y64007D01*
X367274Y61610D01*
X367000Y60466D01*
Y74757D01*
X376247Y84005D01*
X377500Y84007D01*
Y72064D01*
G37*
G36*
X371500Y198256D02*Y182744D01*
X371369Y182631D01*
X371134Y182356D01*
X371000Y182138D01*
X370866Y182356D01*
X370631Y182631D01*
X370356Y182866D01*
X370047Y183056D01*
X369713Y183194D01*
X369361Y183279D01*
X369000Y183307D01*
X368639Y183279D01*
X368287Y183194D01*
X367953Y183056D01*
X367644Y182866D01*
X367369Y182631D01*
X367134Y182356D01*
X367000Y182138D01*
Y269034D01*
X367274Y267890D01*
X368267Y265493D01*
X369623Y263281D01*
X371308Y261308D01*
X373281Y259623D01*
X375493Y258267D01*
X377500Y257436D01*
Y182744D01*
X377369Y182631D01*
X377134Y182356D01*
X376944Y182047D01*
X376806Y181713D01*
X376721Y181361D01*
X376693Y181000D01*
X376721Y180639D01*
X376806Y180287D01*
X376944Y179953D01*
X377134Y179644D01*
X377369Y179369D01*
X377500Y179256D01*
Y178621D01*
X376379Y177500D01*
X367621D01*
X368828Y178706D01*
X369000Y178693D01*
X369361Y178721D01*
X369713Y178806D01*
X370047Y178944D01*
X370356Y179134D01*
X370631Y179369D01*
X370866Y179644D01*
X371000Y179862D01*
X371134Y179644D01*
X371369Y179369D01*
X371644Y179134D01*
X371953Y178944D01*
X372287Y178806D01*
X372639Y178721D01*
X373000Y178693D01*
X373361Y178721D01*
X373713Y178806D01*
X374047Y178944D01*
X374356Y179134D01*
X374631Y179369D01*
X374866Y179644D01*
X375056Y179953D01*
X375194Y180287D01*
X375279Y180639D01*
X375300Y181000D01*
X375279Y181361D01*
X375194Y181713D01*
X375056Y182047D01*
X374866Y182356D01*
X374631Y182631D01*
X374500Y182744D01*
Y198256D01*
X374631Y198369D01*
X374866Y198644D01*
X375056Y198953D01*
X375194Y199287D01*
X375279Y199639D01*
X375300Y200000D01*
X375279Y200361D01*
X375194Y200713D01*
X375056Y201047D01*
X374866Y201356D01*
X374631Y201631D01*
X374356Y201866D01*
X374047Y202056D01*
X373713Y202194D01*
X373361Y202279D01*
X373000Y202307D01*
X372639Y202279D01*
X372287Y202194D01*
X371953Y202056D01*
X371644Y201866D01*
X371369Y201631D01*
X371134Y201356D01*
X370944Y201047D01*
X370806Y200713D01*
X370721Y200361D01*
X370693Y200000D01*
X370721Y199639D01*
X370806Y199287D01*
X370944Y198953D01*
X371134Y198644D01*
X371369Y198369D01*
X371500Y198256D01*
G37*
G36*
X24123Y288000D02*X121250D01*
Y270450D01*
X33433D01*
X33584Y273000D01*
X33430Y275602D01*
X32821Y278141D01*
X31822Y280552D01*
X30458Y282778D01*
X28763Y284763D01*
X26778Y286458D01*
X24552Y287822D01*
X24123Y288000D01*
G37*
G36*
X30004Y115214D02*X41000Y104218D01*
Y42000D01*
X30004D01*
Y46036D01*
X30539Y46663D01*
X31911Y48902D01*
X32916Y51328D01*
X33529Y53882D01*
X33684Y56500D01*
X33529Y59118D01*
X32916Y61672D01*
X31911Y64098D01*
X30539Y66337D01*
X30004Y66964D01*
Y115214D01*
G37*
G36*
X37155Y240745D02*X37319Y240138D01*
X37435Y239488D01*
X37493Y238830D01*
Y238170D01*
X37435Y237512D01*
X37319Y236862D01*
X37155Y236255D01*
Y240745D01*
G37*
G36*
Y212520D02*X37392Y212348D01*
X38039Y211970D01*
X38716Y211651D01*
X39419Y211393D01*
X40142Y211197D01*
X40879Y211066D01*
X41000Y211055D01*
Y115682D01*
X37155Y119527D01*
Y212520D01*
G37*
G36*
Y225315D02*X37188Y225318D01*
X37265Y225339D01*
X37338Y225372D01*
X37404Y225417D01*
X37938Y225805D01*
X38508Y226138D01*
X39105Y226419D01*
X39725Y226647D01*
X40362Y226819D01*
X41000Y226932D01*
Y212068D01*
X40362Y212181D01*
X39725Y212353D01*
X39105Y212581D01*
X38508Y212862D01*
X37938Y213195D01*
X37399Y213577D01*
X37334Y213621D01*
X37263Y213654D01*
X37187Y213675D01*
X37155Y213678D01*
Y225315D01*
G37*
G36*
Y288000D02*X41000D01*
Y227945D01*
X40879Y227934D01*
X40142Y227803D01*
X39419Y227607D01*
X38716Y227349D01*
X38039Y227030D01*
X37392Y226652D01*
X37155Y226484D01*
Y233896D01*
X37530Y234539D01*
X37849Y235216D01*
X38107Y235919D01*
X38303Y236642D01*
X38434Y237380D01*
X38500Y238126D01*
Y238874D01*
X38434Y239621D01*
X38303Y240358D01*
X38107Y241081D01*
X37849Y241784D01*
X37530Y242461D01*
X37155Y243104D01*
Y288000D01*
G37*
G36*
X34845D02*X37155D01*
Y243104D01*
X37152Y243108D01*
X36719Y243719D01*
X36666Y243779D01*
X36604Y243828D01*
X36534Y243868D01*
X36460Y243896D01*
X36381Y243912D01*
X36302Y243916D01*
X36222Y243907D01*
X36145Y243886D01*
X36073Y243853D01*
X36006Y243809D01*
X35947Y243756D01*
X35897Y243693D01*
X35857Y243624D01*
X35829Y243549D01*
X35813Y243471D01*
X35809Y243391D01*
X35818Y243312D01*
X35839Y243235D01*
X35872Y243162D01*
X35917Y243096D01*
X36305Y242562D01*
X36638Y241992D01*
X36919Y241395D01*
X37147Y240775D01*
X37155Y240745D01*
Y236255D01*
X37147Y236225D01*
X36919Y235605D01*
X36638Y235008D01*
X36305Y234438D01*
X35923Y233899D01*
X35879Y233834D01*
X35846Y233763D01*
X35825Y233687D01*
X35817Y233609D01*
X35820Y233530D01*
X35836Y233453D01*
X35864Y233379D01*
X35903Y233311D01*
X35952Y233249D01*
X36010Y233196D01*
X36076Y233153D01*
X36148Y233121D01*
X36224Y233100D01*
X36302Y233091D01*
X36381Y233095D01*
X36458Y233111D01*
X36531Y233139D01*
X36600Y233178D01*
X36661Y233227D01*
X36713Y233286D01*
X37152Y233892D01*
X37155Y233896D01*
Y226484D01*
X36781Y226219D01*
X36721Y226166D01*
X36672Y226104D01*
X36632Y226034D01*
X36604Y225960D01*
X36588Y225881D01*
X36584Y225802D01*
X36593Y225722D01*
X36614Y225645D01*
X36647Y225573D01*
X36691Y225506D01*
X36744Y225447D01*
X36807Y225397D01*
X36876Y225357D01*
X36951Y225329D01*
X37029Y225313D01*
X37109Y225309D01*
X37155Y225315D01*
Y213678D01*
X37109Y213683D01*
X37030Y213680D01*
X36953Y213664D01*
X36879Y213636D01*
X36811Y213597D01*
X36749Y213548D01*
X36696Y213490D01*
X36653Y213424D01*
X36621Y213352D01*
X36600Y213276D01*
X36591Y213198D01*
X36595Y213119D01*
X36611Y213042D01*
X36639Y212969D01*
X36678Y212900D01*
X36727Y212839D01*
X36786Y212787D01*
X37155Y212520D01*
Y119527D01*
X35931Y120751D01*
X35866Y120856D01*
X35631Y121131D01*
X35356Y121366D01*
X35047Y121556D01*
X34845Y121639D01*
Y214896D01*
X34848Y214892D01*
X35281Y214281D01*
X35334Y214221D01*
X35396Y214172D01*
X35466Y214132D01*
X35540Y214104D01*
X35619Y214088D01*
X35698Y214084D01*
X35778Y214093D01*
X35855Y214114D01*
X35927Y214147D01*
X35994Y214191D01*
X36053Y214244D01*
X36103Y214307D01*
X36143Y214376D01*
X36171Y214451D01*
X36187Y214529D01*
X36191Y214609D01*
X36182Y214688D01*
X36161Y214765D01*
X36128Y214838D01*
X36083Y214904D01*
X35695Y215438D01*
X35362Y216008D01*
X35081Y216605D01*
X34853Y217225D01*
X34845Y217255D01*
Y221745D01*
X34853Y221775D01*
X35081Y222395D01*
X35362Y222992D01*
X35695Y223562D01*
X36077Y224101D01*
X36121Y224166D01*
X36154Y224237D01*
X36175Y224313D01*
X36183Y224391D01*
X36180Y224470D01*
X36164Y224547D01*
X36136Y224621D01*
X36097Y224689D01*
X36048Y224751D01*
X35990Y224804D01*
X35924Y224847D01*
X35852Y224879D01*
X35776Y224900D01*
X35698Y224909D01*
X35619Y224905D01*
X35542Y224889D01*
X35469Y224861D01*
X35400Y224822D01*
X35339Y224773D01*
X35287Y224714D01*
X34848Y224108D01*
X34845Y224104D01*
Y231516D01*
X35219Y231781D01*
X35279Y231834D01*
X35328Y231896D01*
X35368Y231966D01*
X35396Y232040D01*
X35412Y232119D01*
X35416Y232198D01*
X35407Y232278D01*
X35386Y232355D01*
X35353Y232427D01*
X35309Y232494D01*
X35256Y232553D01*
X35193Y232603D01*
X35124Y232643D01*
X35049Y232671D01*
X34971Y232687D01*
X34891Y232691D01*
X34845Y232686D01*
Y244322D01*
X34891Y244317D01*
X34970Y244320D01*
X35047Y244336D01*
X35121Y244364D01*
X35189Y244403D01*
X35251Y244452D01*
X35304Y244510D01*
X35347Y244576D01*
X35379Y244648D01*
X35400Y244724D01*
X35409Y244802D01*
X35405Y244881D01*
X35389Y244958D01*
X35361Y245031D01*
X35322Y245100D01*
X35273Y245161D01*
X35214Y245213D01*
X34845Y245480D01*
Y288000D01*
G37*
G36*
Y217255D02*X34681Y217862D01*
X34565Y218512D01*
X34507Y219170D01*
Y219830D01*
X34565Y220488D01*
X34681Y221138D01*
X34845Y221745D01*
Y217255D01*
G37*
G36*
Y232686D02*X34812Y232682D01*
X34735Y232661D01*
X34662Y232628D01*
X34596Y232583D01*
X34062Y232195D01*
X33492Y231862D01*
X32895Y231581D01*
X32275Y231353D01*
X31638Y231181D01*
X30988Y231065D01*
X30330Y231007D01*
X30004D01*
Y245993D01*
X30330D01*
X30988Y245935D01*
X31638Y245819D01*
X32275Y245647D01*
X32895Y245419D01*
X33492Y245138D01*
X34062Y244805D01*
X34601Y244423D01*
X34666Y244379D01*
X34737Y244346D01*
X34813Y244325D01*
X34845Y244322D01*
Y232686D01*
G37*
G36*
Y121639D02*X34713Y121694D01*
X34361Y121779D01*
X34000Y121807D01*
X33639Y121779D01*
X33287Y121694D01*
X32953Y121556D01*
X32644Y121366D01*
X32369Y121131D01*
X32134Y120856D01*
X31944Y120547D01*
X31806Y120213D01*
X31740Y119938D01*
X31547Y120056D01*
X31213Y120194D01*
X30861Y120279D01*
X30500Y120307D01*
X30139Y120279D01*
X30004Y120246D01*
Y230000D01*
X30374D01*
X31120Y230066D01*
X31858Y230197D01*
X32581Y230393D01*
X33284Y230651D01*
X33961Y230970D01*
X34608Y231348D01*
X34845Y231516D01*
Y224104D01*
X34470Y223461D01*
X34151Y222784D01*
X33893Y222081D01*
X33697Y221358D01*
X33566Y220621D01*
X33500Y219874D01*
Y219126D01*
X33566Y218380D01*
X33697Y217642D01*
X33893Y216919D01*
X34151Y216216D01*
X34470Y215539D01*
X34845Y214896D01*
Y121639D01*
G37*
G36*
X30004Y288000D02*X34845D01*
Y245480D01*
X34608Y245652D01*
X33961Y246030D01*
X33284Y246349D01*
X32581Y246607D01*
X31858Y246803D01*
X31120Y246934D01*
X30374Y247000D01*
X30004D01*
Y262690D01*
X30458Y263222D01*
X31822Y265448D01*
X32821Y267859D01*
X33430Y270398D01*
X33584Y273000D01*
X33430Y275602D01*
X32821Y278141D01*
X31822Y280552D01*
X30458Y282778D01*
X30004Y283310D01*
Y288000D01*
G37*
G36*
Y42000D02*X25269D01*
X26837Y42961D01*
X28834Y44666D01*
X30004Y46036D01*
Y42000D01*
G37*
G36*
Y120246D02*X29787Y120194D01*
X29453Y120056D01*
X29144Y119866D01*
X28869Y119631D01*
X28634Y119356D01*
X28444Y119047D01*
X28306Y118713D01*
X28221Y118361D01*
X28193Y118000D01*
X28221Y117639D01*
X28306Y117287D01*
X28444Y116953D01*
X28484Y116889D01*
X28489Y116875D01*
X28559Y116761D01*
X28674Y116573D01*
X28674Y116573D01*
X28904Y116304D01*
X28971Y116247D01*
X30004Y115214D01*
Y66964D01*
X28834Y68334D01*
X26837Y70039D01*
X24598Y71411D01*
X22500Y72280D01*
Y84483D01*
X23363Y84551D01*
X24205Y84753D01*
X25005Y85084D01*
X25743Y85537D01*
X26401Y86099D01*
X26963Y86757D01*
X27416Y87495D01*
X27747Y88295D01*
X27949Y89137D01*
X28000Y90000D01*
X27949Y90863D01*
X27747Y91705D01*
X27416Y92505D01*
X26963Y93243D01*
X26401Y93901D01*
X25743Y94463D01*
X25005Y94916D01*
X24205Y95247D01*
X23363Y95449D01*
X22500Y95517D01*
Y104507D01*
X26735Y104514D01*
X26965Y104569D01*
X27183Y104659D01*
X27384Y104783D01*
X27564Y104936D01*
X27717Y105116D01*
X27841Y105317D01*
X27931Y105535D01*
X27986Y105765D01*
X28000Y106000D01*
X27986Y114235D01*
X27931Y114465D01*
X27841Y114683D01*
X27717Y114884D01*
X27564Y115064D01*
X27384Y115217D01*
X27183Y115341D01*
X26965Y115431D01*
X26735Y115486D01*
X26500Y115500D01*
X22500Y115493D01*
Y234488D01*
X22848Y233892D01*
X23281Y233281D01*
X23334Y233221D01*
X23396Y233172D01*
X23466Y233132D01*
X23540Y233104D01*
X23619Y233088D01*
X23698Y233084D01*
X23778Y233093D01*
X23855Y233114D01*
X23927Y233147D01*
X23994Y233191D01*
X24053Y233244D01*
X24103Y233307D01*
X24143Y233376D01*
X24171Y233451D01*
X24187Y233529D01*
X24191Y233609D01*
X24182Y233688D01*
X24161Y233765D01*
X24128Y233838D01*
X24083Y233904D01*
X23695Y234438D01*
X23362Y235008D01*
X23081Y235605D01*
X22853Y236225D01*
X22681Y236862D01*
X22565Y237512D01*
X22507Y238170D01*
Y238830D01*
X22565Y239488D01*
X22681Y240138D01*
X22853Y240775D01*
X23081Y241395D01*
X23362Y241992D01*
X23695Y242562D01*
X24077Y243101D01*
X24121Y243166D01*
X24154Y243237D01*
X24175Y243313D01*
X24183Y243391D01*
X24180Y243470D01*
X24164Y243547D01*
X24136Y243621D01*
X24097Y243689D01*
X24048Y243751D01*
X23990Y243804D01*
X23924Y243847D01*
X23852Y243879D01*
X23776Y243900D01*
X23698Y243909D01*
X23619Y243905D01*
X23542Y243889D01*
X23469Y243861D01*
X23400Y243822D01*
X23339Y243773D01*
X23287Y243714D01*
X22848Y243108D01*
X22500Y242512D01*
Y257328D01*
X24552Y258178D01*
X26778Y259542D01*
X28763Y261237D01*
X30004Y262690D01*
Y247000D01*
X29626D01*
X28879Y246934D01*
X28142Y246803D01*
X27419Y246607D01*
X26716Y246349D01*
X26039Y246030D01*
X25392Y245652D01*
X24781Y245219D01*
X24721Y245166D01*
X24672Y245104D01*
X24632Y245034D01*
X24604Y244960D01*
X24588Y244881D01*
X24584Y244802D01*
X24593Y244722D01*
X24614Y244645D01*
X24647Y244573D01*
X24691Y244506D01*
X24744Y244447D01*
X24807Y244397D01*
X24876Y244357D01*
X24951Y244329D01*
X25029Y244313D01*
X25109Y244309D01*
X25188Y244318D01*
X25265Y244339D01*
X25338Y244372D01*
X25404Y244417D01*
X25938Y244805D01*
X26508Y245138D01*
X27105Y245419D01*
X27725Y245647D01*
X28362Y245819D01*
X29012Y245935D01*
X29670Y245993D01*
X30004D01*
Y231007D01*
X29670D01*
X29012Y231065D01*
X28362Y231181D01*
X27725Y231353D01*
X27105Y231581D01*
X26508Y231862D01*
X25938Y232195D01*
X25399Y232577D01*
X25334Y232621D01*
X25263Y232654D01*
X25187Y232675D01*
X25109Y232683D01*
X25030Y232680D01*
X24953Y232664D01*
X24879Y232636D01*
X24811Y232597D01*
X24749Y232548D01*
X24696Y232490D01*
X24653Y232424D01*
X24621Y232352D01*
X24600Y232276D01*
X24591Y232198D01*
X24595Y232119D01*
X24611Y232042D01*
X24639Y231969D01*
X24678Y231900D01*
X24727Y231839D01*
X24786Y231787D01*
X25392Y231348D01*
X26039Y230970D01*
X26716Y230651D01*
X27419Y230393D01*
X28142Y230197D01*
X28879Y230066D01*
X29626Y230000D01*
X30004D01*
Y120246D01*
G37*
G36*
X24123Y288000D02*X30004D01*
Y283310D01*
X28763Y284763D01*
X26778Y286458D01*
X24552Y287822D01*
X24123Y288000D01*
G37*
G36*
X22500Y72280D02*X22172Y72416D01*
X19618Y73029D01*
X17000Y73235D01*
X14382Y73029D01*
X11828Y72416D01*
X9402Y71411D01*
X7163Y70039D01*
X5166Y68334D01*
X3461Y66337D01*
X2089Y64098D01*
X2000Y63884D01*
Y265877D01*
X2178Y265448D01*
X3542Y263222D01*
X5237Y261237D01*
X7222Y259542D01*
X9448Y258178D01*
X11859Y257179D01*
X14398Y256570D01*
X17000Y256365D01*
X19602Y256570D01*
X22141Y257179D01*
X22500Y257328D01*
Y242512D01*
X22470Y242461D01*
X22151Y241784D01*
X21893Y241081D01*
X21697Y240358D01*
X21566Y239621D01*
X21500Y238874D01*
Y238126D01*
X21566Y237380D01*
X21697Y236642D01*
X21893Y235919D01*
X22151Y235216D01*
X22470Y234539D01*
X22500Y234488D01*
Y115493D01*
X18265Y115486D01*
X18035Y115431D01*
X17817Y115341D01*
X17616Y115217D01*
X17436Y115064D01*
X17283Y114884D01*
X17159Y114683D01*
X17069Y114465D01*
X17014Y114235D01*
X17000Y114000D01*
X17014Y105765D01*
X17069Y105535D01*
X17159Y105317D01*
X17283Y105116D01*
X17436Y104936D01*
X17616Y104783D01*
X17817Y104659D01*
X18035Y104569D01*
X18265Y104514D01*
X18500Y104500D01*
X22500Y104507D01*
Y95517D01*
X21637Y95449D01*
X20795Y95247D01*
X19995Y94916D01*
X19257Y94463D01*
X18599Y93901D01*
X18037Y93243D01*
X17584Y92505D01*
X17253Y91705D01*
X17051Y90863D01*
X16983Y90000D01*
X17051Y89137D01*
X17253Y88295D01*
X17584Y87495D01*
X18037Y86757D01*
X18599Y86099D01*
X19257Y85537D01*
X19995Y85084D01*
X20795Y84753D01*
X21637Y84551D01*
X22500Y84483D01*
Y72280D01*
G37*
G36*
X42004Y219500D02*X49493D01*
Y219170D01*
X49435Y218512D01*
X49319Y217862D01*
X49147Y217225D01*
X48919Y216605D01*
X48638Y216008D01*
X48305Y215438D01*
X47923Y214899D01*
X47879Y214834D01*
X47846Y214763D01*
X47825Y214687D01*
X47817Y214609D01*
X47820Y214530D01*
X47836Y214453D01*
X47864Y214379D01*
X47903Y214311D01*
X47952Y214249D01*
X48010Y214196D01*
X48076Y214153D01*
X48148Y214121D01*
X48224Y214100D01*
X48302Y214091D01*
X48381Y214095D01*
X48458Y214111D01*
X48531Y214139D01*
X48600Y214178D01*
X48661Y214227D01*
X48713Y214286D01*
X49152Y214892D01*
X49530Y215539D01*
X49849Y216216D01*
X50107Y216919D01*
X50303Y217642D01*
X50434Y218380D01*
X50500Y219126D01*
Y219500D01*
X51000D01*
Y192000D01*
X42004D01*
Y211000D01*
X42374D01*
X43120Y211066D01*
X43858Y211197D01*
X44581Y211393D01*
X45284Y211651D01*
X45961Y211970D01*
X46608Y212348D01*
X47219Y212781D01*
X47279Y212834D01*
X47328Y212896D01*
X47368Y212966D01*
X47396Y213040D01*
X47412Y213119D01*
X47416Y213198D01*
X47407Y213278D01*
X47386Y213355D01*
X47353Y213427D01*
X47309Y213494D01*
X47256Y213553D01*
X47193Y213603D01*
X47124Y213643D01*
X47049Y213671D01*
X46971Y213687D01*
X46891Y213691D01*
X46812Y213682D01*
X46735Y213661D01*
X46662Y213628D01*
X46596Y213583D01*
X46062Y213195D01*
X45492Y212862D01*
X44895Y212581D01*
X44275Y212353D01*
X43638Y212181D01*
X42988Y212065D01*
X42330Y212007D01*
X42004D01*
Y219500D01*
G37*
G36*
X22000D02*X33500D01*
Y219126D01*
X33566Y218380D01*
X33697Y217642D01*
X33893Y216919D01*
X34151Y216216D01*
X34470Y215539D01*
X34848Y214892D01*
X35281Y214281D01*
X35334Y214221D01*
X35396Y214172D01*
X35466Y214132D01*
X35540Y214104D01*
X35619Y214088D01*
X35698Y214084D01*
X35778Y214093D01*
X35855Y214114D01*
X35927Y214147D01*
X35994Y214191D01*
X36053Y214244D01*
X36103Y214307D01*
X36143Y214376D01*
X36171Y214451D01*
X36187Y214529D01*
X36191Y214609D01*
X36182Y214688D01*
X36161Y214765D01*
X36128Y214838D01*
X36083Y214904D01*
X35695Y215438D01*
X35362Y216008D01*
X35081Y216605D01*
X34853Y217225D01*
X34681Y217862D01*
X34565Y218512D01*
X34507Y219170D01*
Y219500D01*
X42004D01*
Y212007D01*
X41670D01*
X41012Y212065D01*
X40362Y212181D01*
X39725Y212353D01*
X39105Y212581D01*
X38508Y212862D01*
X37938Y213195D01*
X37399Y213577D01*
X37334Y213621D01*
X37263Y213654D01*
X37187Y213675D01*
X37109Y213683D01*
X37030Y213680D01*
X36953Y213664D01*
X36879Y213636D01*
X36811Y213597D01*
X36749Y213548D01*
X36696Y213490D01*
X36653Y213424D01*
X36621Y213352D01*
X36600Y213276D01*
X36591Y213198D01*
X36595Y213119D01*
X36611Y213042D01*
X36639Y212969D01*
X36678Y212900D01*
X36727Y212839D01*
X36786Y212787D01*
X37392Y212348D01*
X38039Y211970D01*
X38716Y211651D01*
X39419Y211393D01*
X40142Y211197D01*
X40879Y211066D01*
X41626Y211000D01*
X42004D01*
Y192000D01*
X22000D01*
Y219500D01*
G37*
G36*
X75150Y204500D02*X113500D01*
Y42000D01*
X75150D01*
Y91083D01*
X75181Y91134D01*
X75362Y91570D01*
X75472Y92029D01*
X75500Y92500D01*
Y107379D01*
X76206Y106672D01*
X76193Y106500D01*
X76221Y106139D01*
X76306Y105787D01*
X76444Y105453D01*
X76634Y105144D01*
X76869Y104869D01*
X77144Y104634D01*
X77453Y104444D01*
X77787Y104306D01*
X78139Y104221D01*
X78500Y104193D01*
X78861Y104221D01*
X79213Y104306D01*
X79547Y104444D01*
X79856Y104634D01*
X80131Y104869D01*
X80366Y105144D01*
X80556Y105453D01*
X80694Y105787D01*
X80779Y106139D01*
X80800Y106500D01*
X80779Y106861D01*
X80694Y107213D01*
X80556Y107547D01*
X80366Y107856D01*
X80131Y108131D01*
X79856Y108366D01*
X79547Y108556D01*
X79213Y108694D01*
X78861Y108779D01*
X78500Y108807D01*
X78328Y108794D01*
X77500Y109621D01*
Y129879D01*
X77828Y130206D01*
X78000Y130193D01*
X78361Y130221D01*
X78713Y130306D01*
X79047Y130444D01*
X79356Y130634D01*
X79631Y130869D01*
X79866Y131144D01*
X80056Y131453D01*
X80194Y131787D01*
X80279Y132139D01*
X80300Y132500D01*
X80279Y132861D01*
X80194Y133213D01*
X80056Y133547D01*
X79866Y133856D01*
X79631Y134131D01*
X79356Y134366D01*
X79047Y134556D01*
X78713Y134694D01*
X78361Y134779D01*
X78000Y134807D01*
X77639Y134779D01*
X77287Y134694D01*
X76953Y134556D01*
X76644Y134366D01*
X76369Y134131D01*
X76134Y133856D01*
X75944Y133547D01*
X75806Y133213D01*
X75721Y132861D01*
X75693Y132500D01*
X75706Y132328D01*
X75500Y132121D01*
Y145000D01*
X75472Y145471D01*
X75362Y145930D01*
X75181Y146366D01*
X75150Y146417D01*
Y204500D01*
G37*
G36*
X63496D02*X75150D01*
Y146417D01*
X74935Y146769D01*
X74628Y147128D01*
X74269Y147435D01*
X73866Y147681D01*
X73430Y147862D01*
X72971Y147972D01*
X72500Y148009D01*
X72029Y147972D01*
X71570Y147862D01*
X71134Y147681D01*
X70731Y147435D01*
X70372Y147128D01*
X70065Y146769D01*
X69819Y146366D01*
X69638Y145930D01*
X69528Y145471D01*
X69500Y145000D01*
Y92500D01*
X69528Y92029D01*
X69638Y91570D01*
X69819Y91134D01*
X70065Y90731D01*
X70372Y90372D01*
X70731Y90065D01*
X71134Y89819D01*
X71570Y89638D01*
X72029Y89528D01*
X72500Y89491D01*
X72971Y89528D01*
X73430Y89638D01*
X73866Y89819D01*
X74269Y90065D01*
X74628Y90372D01*
X74935Y90731D01*
X75150Y91083D01*
Y42000D01*
X63496D01*
Y53193D01*
X63500Y53193D01*
X63861Y53221D01*
X64213Y53306D01*
X64547Y53444D01*
X64856Y53634D01*
X65131Y53869D01*
X65366Y54144D01*
X65556Y54453D01*
X65694Y54787D01*
X65779Y55139D01*
X65800Y55500D01*
X65779Y55861D01*
X65694Y56213D01*
X65556Y56547D01*
X65366Y56856D01*
X65131Y57131D01*
X65000Y57244D01*
Y62756D01*
X65131Y62869D01*
X65366Y63144D01*
X65556Y63453D01*
X65694Y63787D01*
X65779Y64139D01*
X65800Y64500D01*
X65779Y64861D01*
X65694Y65213D01*
X65556Y65547D01*
X65366Y65856D01*
X65131Y66131D01*
X64856Y66366D01*
X64547Y66556D01*
X64213Y66694D01*
X63861Y66779D01*
X63500Y66807D01*
X63496Y66807D01*
Y204500D01*
G37*
G36*
X41596D02*X63496D01*
Y66807D01*
X63139Y66779D01*
X62787Y66694D01*
X62453Y66556D01*
X62144Y66366D01*
X61869Y66131D01*
X61634Y65856D01*
X61444Y65547D01*
X61306Y65213D01*
X61221Y64861D01*
X61193Y64500D01*
X61221Y64139D01*
X61306Y63787D01*
X61444Y63453D01*
X61634Y63144D01*
X61869Y62869D01*
X62000Y62756D01*
Y57244D01*
X61869Y57131D01*
X61634Y56856D01*
X61444Y56547D01*
X61306Y56213D01*
X61221Y55861D01*
X61193Y55500D01*
X61221Y55139D01*
X61306Y54787D01*
X61444Y54453D01*
X61634Y54144D01*
X61869Y53869D01*
X62144Y53634D01*
X62453Y53444D01*
X62787Y53306D01*
X63139Y53221D01*
X63496Y53193D01*
Y42000D01*
X41596D01*
Y103622D01*
X48069Y97149D01*
X48134Y97044D01*
X48369Y96769D01*
X48644Y96534D01*
X48953Y96344D01*
X49287Y96206D01*
X49639Y96121D01*
X50000Y96093D01*
X50361Y96121D01*
X50713Y96206D01*
X51047Y96344D01*
X51356Y96534D01*
X51631Y96769D01*
X51866Y97044D01*
X52056Y97353D01*
X52194Y97687D01*
X52279Y98039D01*
X52300Y98400D01*
X52292Y98533D01*
X52339Y98521D01*
X52700Y98493D01*
X53061Y98521D01*
X53413Y98606D01*
X53747Y98744D01*
X54056Y98934D01*
X54331Y99169D01*
X54566Y99444D01*
X54756Y99753D01*
X54894Y100087D01*
X54979Y100439D01*
X55000Y100800D01*
X54979Y101161D01*
X54894Y101513D01*
X54756Y101847D01*
X54566Y102156D01*
X54331Y102431D01*
X54056Y102666D01*
X53951Y102731D01*
X41596Y115086D01*
Y204500D01*
G37*
G36*
X23500D02*X41596D01*
Y115086D01*
X35931Y120751D01*
X35866Y120856D01*
X35631Y121131D01*
X35356Y121366D01*
X35047Y121556D01*
X34713Y121694D01*
X34361Y121779D01*
X34000Y121807D01*
X33639Y121779D01*
X33287Y121694D01*
X32953Y121556D01*
X32644Y121366D01*
X32369Y121131D01*
X32134Y120856D01*
X31944Y120547D01*
X31806Y120213D01*
X31740Y119938D01*
X31547Y120056D01*
X31213Y120194D01*
X30861Y120279D01*
X30500Y120307D01*
X30139Y120279D01*
X29787Y120194D01*
X29453Y120056D01*
X29144Y119866D01*
X28869Y119631D01*
X28634Y119356D01*
X28444Y119047D01*
X28306Y118713D01*
X28221Y118361D01*
X28193Y118000D01*
X28221Y117639D01*
X28306Y117287D01*
X28444Y116953D01*
X28484Y116889D01*
X28489Y116875D01*
X28559Y116761D01*
X28674Y116573D01*
X28674Y116573D01*
X28904Y116304D01*
X28971Y116247D01*
X41596Y103622D01*
Y42000D01*
X25269D01*
X26837Y42961D01*
X28834Y44666D01*
X30539Y46663D01*
X31911Y48902D01*
X32916Y51328D01*
X33529Y53882D01*
X33684Y56500D01*
X33529Y59118D01*
X32916Y61672D01*
X31911Y64098D01*
X30539Y66337D01*
X28834Y68334D01*
X26837Y70039D01*
X24598Y71411D01*
X23500Y71866D01*
Y84584D01*
X24205Y84753D01*
X25005Y85084D01*
X25743Y85537D01*
X26401Y86099D01*
X26963Y86757D01*
X27416Y87495D01*
X27747Y88295D01*
X27949Y89137D01*
X28000Y90000D01*
X27949Y90863D01*
X27747Y91705D01*
X27416Y92505D01*
X26963Y93243D01*
X26401Y93901D01*
X25743Y94463D01*
X25005Y94916D01*
X24205Y95247D01*
X23500Y95416D01*
Y104508D01*
X26735Y104514D01*
X26965Y104569D01*
X27183Y104659D01*
X27384Y104783D01*
X27564Y104936D01*
X27717Y105116D01*
X27841Y105317D01*
X27931Y105535D01*
X27986Y105765D01*
X28000Y106000D01*
X27986Y114235D01*
X27931Y114465D01*
X27841Y114683D01*
X27717Y114884D01*
X27564Y115064D01*
X27384Y115217D01*
X27183Y115341D01*
X26965Y115431D01*
X26735Y115486D01*
X26500Y115500D01*
X23500Y115495D01*
Y204500D01*
G37*
G54D31*X179500Y27863D02*X179495Y27858D01*
X220500Y27863D02*X220505Y27858D01*
G54D32*X291700Y74500D02*X300400D01*
X318500Y48500D02*X284000D01*
G54D33*X275500Y62000D02*X315500D01*
G54D32*X275700Y66800D02*X283800D01*
G54D33*X72500Y92500D02*Y145000D01*
G54D32*X78500Y106500D02*X76000Y109000D01*
Y130500D01*
X78000Y132500D01*
G54D31*X30500Y118000D02*Y117900D01*
X50000Y98400D01*
X34000Y119500D02*X52700Y100800D01*
G54D32*X63500Y64500D02*Y55500D01*
X176500Y234500D02*Y244900D01*
X175000Y246400D01*
X154100D01*
X154000Y246500D01*
X317000Y127500D02*Y119500D01*
X315000Y89400D02*Y96500D01*
X311500Y100000D01*
X317500Y74500D02*X308600D01*
G54D33*X287000Y62000D02*X327000D01*
X377500Y89500D02*X350000Y62000D01*
X325500D01*
G54D32*X325600Y66800D02*X281700D01*
X329000Y70000D02*X279000D01*
X316000Y132000D02*X324000D01*
X274500Y159500D02*X277500D01*
X278500Y160500D01*
X277800Y156300D02*X279500Y158000D01*
X281000Y155000D02*X278000Y152000D01*
X262500D01*
X279500Y158000D02*X326500D01*
X294500Y155000D02*X281000D01*
X278500Y160500D02*X326500D01*
X330500Y158000D02*X322000D01*
X308900Y163300D02*X324800D01*
X327500Y166000D01*
X305800D02*X323500D01*
X326000Y168500D01*
X355000Y207500D02*X329500D01*
X355000Y211500D02*X329500D01*
X367500Y176000D02*X377000D01*
X379000Y178000D01*
Y181000D01*
X347500Y178500D02*X366500D01*
X369000Y181000D01*
X344000Y176000D02*X368000D01*
X373000Y200000D02*Y181000D01*
X347500Y187500D02*X355000D01*
G54D34*X383000Y273000D03*
G54D30*G36*
X350500Y276000D02*Y270000D01*
X356500D01*
Y276000D01*
X350500D01*
G37*
G54D35*X343500Y273000D03*
X333500D03*
X323500D03*
X313500D03*
X303500D03*
X293500D03*
X283500D03*
X273500D03*
X263500D03*
X253500D03*
X243500D03*
X233500D03*
X223500D03*
X213500D03*
X203500D03*
G54D34*X17000Y56500D03*
G54D30*G36*
X18500Y114000D02*Y106000D01*
X26500D01*
Y114000D01*
X18500D01*
G37*
G54D36*X22500Y90000D03*
G54D37*X153905Y10142D03*
Y27858D03*
G54D34*X17000Y273000D03*
G54D37*X112795Y10142D03*
X87205D03*
X112795Y27858D03*
X87205D03*
G54D38*X54000Y238500D03*
G54D39*X30000D03*
X42000Y219500D03*
G54D37*X179495Y10142D03*
X246095D03*
X220505D03*
X312795D03*
X287205D03*
X179495Y27858D03*
X246095D03*
X220505D03*
X312795D03*
X287205D03*
G54D34*X383000Y56500D03*
G54D30*G36*
X373500Y133500D02*Y125500D01*
X381500D01*
Y133500D01*
X373500D01*
G37*
G54D36*X377500Y109500D03*
Y149500D03*
G54D30*G36*
X373500Y93500D02*Y85500D01*
X381500D01*
Y93500D01*
X373500D01*
G37*
G54D40*X85100Y257400D03*
X92400D03*
X88600D03*
X85000Y247500D03*
X80500D03*
X60000Y264500D03*
X55500D03*
X64500D03*
Y260000D03*
X60000D03*
X55500D03*
X30000Y252000D03*
X34500D03*
X25500D03*
X84500Y213500D03*
X80000D03*
X89000Y227000D03*
Y213500D03*
X84500Y227000D03*
X80000D03*
X67500D03*
X72000D03*
X63000D03*
X25000Y224500D03*
X29500D03*
X20500D03*
X67500Y213500D03*
X72000D03*
X63000D03*
X39500Y184500D03*
X44000D03*
X35000D03*
X39500Y168000D03*
X44000D03*
X35000D03*
X39500Y197000D03*
X44000D03*
X35000D03*
X38000Y285500D03*
X33500D03*
X212600Y249800D03*
X216200D03*
X227500Y218500D03*
X231500D03*
X227500Y214500D03*
X231500D03*
X81000Y242500D03*
X85000D03*
X163000Y236000D03*
Y231000D03*
X176500Y234500D03*
X154000Y246500D03*
X299500Y227700D03*
X331500Y238000D03*
X299500Y217600D03*
X329500Y207500D03*
Y211500D03*
X367700Y232300D03*
X263000Y231500D03*
X274000D03*
X355000Y207500D03*
X369306Y212194D03*
X373100Y212200D03*
X355000Y211500D03*
X363000Y213500D03*
X384700Y196100D03*
X373000Y200000D03*
X384700Y189900D03*
X355000Y187500D03*
X347500D03*
X102500Y137500D03*
X109500D03*
X113500D03*
X72500Y138000D03*
X98500Y137500D03*
Y141500D03*
X102500D03*
X109500D03*
X113500D03*
X109500Y113500D03*
X113500D03*
X109500Y109500D03*
X113500D03*
X102500Y113500D03*
X98500D03*
X102500Y109500D03*
X98500D03*
X108000Y79500D03*
X104000D03*
X115000D03*
X119000D03*
X126000D03*
X130000D03*
X151500Y43500D03*
X155500D03*
X86500Y171500D03*
X93500D03*
X82500D03*
X97500D03*
X108000D03*
X115000D03*
X104000D03*
X119000D03*
X126000D03*
X130000D03*
X86500Y79500D03*
X93500D03*
X82500D03*
X57500Y74000D03*
Y79000D03*
X63500Y64500D03*
X97500Y79500D03*
X72500Y99500D03*
Y96000D03*
Y92500D03*
X50000Y98400D03*
X52700Y100800D03*
X78500Y106500D03*
X39000Y52000D03*
X63500Y55500D03*
X43000Y52000D03*
Y48000D03*
X39000D03*
X39500Y155500D03*
X35000D03*
X44000D03*
X72500Y141500D03*
Y145000D03*
X84500Y150500D03*
X80500D03*
X86500Y142500D03*
Y146500D03*
X30500Y118000D03*
X34000Y119500D03*
X78000Y132500D03*
X302700Y168300D03*
X280000Y198000D03*
X269500D03*
X302700Y178400D03*
X253000Y198000D03*
Y189000D03*
X274500Y159500D03*
X277800Y156300D03*
X304500Y82500D03*
X318500Y48500D03*
X304500Y74400D03*
Y52500D03*
Y57000D03*
Y78700D03*
X308600Y74500D03*
X300400D03*
X291700D03*
X317500D03*
X304500Y86500D03*
X315000Y89400D03*
X311500Y100000D03*
X284000Y48500D03*
X282500Y62000D03*
X279000D03*
X275500D03*
X325600Y66800D03*
X275700D03*
X279000Y70000D03*
X281500Y75000D03*
X305800Y166000D03*
X328000D03*
X308900Y163300D03*
X293000Y160500D03*
X326500D03*
X329400Y198000D03*
X319000D03*
X326000Y168500D03*
X346800Y139300D03*
Y148100D03*
Y131100D03*
X317000Y119500D03*
Y127500D03*
X316000Y132000D03*
X324000D03*
X294500Y155000D03*
X279500Y142000D03*
X283500D03*
Y138000D03*
X289500Y158000D03*
X329000Y70000D03*
X304500Y41500D03*
Y45000D03*
X356500Y171500D03*
X347500Y178500D03*
X369000Y181000D03*
X379000D03*
X344000Y176000D03*
X373000Y181000D03*
X330500Y158000D03*
X262500Y152000D03*
X279500Y138000D03*
X255500Y142000D03*
X259500D03*
Y138000D03*
X277000Y75000D03*
X255500Y138000D03*
X218000Y43500D03*
X222000D03*
G54D41*G54D42*G54D43*G54D42*G54D44*G54D45*G54D42*G54D45*G54D46*G54D47*G54D45*G54D42*G54D44*M02*
