G04 start of page 6 for group -4063 idx -4063 *
G04 Title: (unknown), componentmask *
G04 Creator: pcb 4.0.2 *
G04 CreationDate: Thu Jul  2 20:29:44 2020 UTC *
G04 For: ndholmes *
G04 Format: Gerber/RS-274X *
G04 PCB-Dimensions (mil): 4000.00 2900.00 *
G04 PCB-Coordinate-Origin: lower left *
%MOIN*%
%FSLAX25Y25*%
%LNTOPMASK*%
%ADD62C,0.1700*%
%ADD61C,0.1950*%
%ADD60C,0.0750*%
%ADD59C,0.0860*%
%ADD58C,0.0660*%
%ADD57C,0.0001*%
%ADD56C,0.2997*%
G54D56*X383000Y273000D03*
G54D57*G36*
X350200Y276300D02*Y269700D01*
X356800D01*
Y276300D01*
X350200D01*
G37*
G54D58*X343500Y273000D03*
X333500D03*
X323500D03*
X313500D03*
X303500D03*
X293500D03*
X283500D03*
X273500D03*
X263500D03*
X253500D03*
X243500D03*
X233500D03*
X223500D03*
X213500D03*
X203500D03*
G54D56*X17000Y56500D03*
G54D57*G36*
X18200Y114300D02*Y105700D01*
X26800D01*
Y114300D01*
X18200D01*
G37*
G54D59*X22500Y90000D03*
G54D60*X153905Y10142D03*
Y27858D03*
G54D56*X17000Y273000D03*
G54D60*X112795Y10142D03*
X87205D03*
X112795Y27858D03*
X87205D03*
G54D61*X54000Y238500D03*
G54D62*X30000D03*
X42000Y219500D03*
G54D60*X179495Y10142D03*
X246095D03*
X220505D03*
X312795D03*
X287205D03*
X179495Y27858D03*
X246095D03*
X220505D03*
X312795D03*
X287205D03*
G54D56*X383000Y56500D03*
G54D57*G36*
X373200Y133800D02*Y125200D01*
X381800D01*
Y133800D01*
X373200D01*
G37*
G54D59*X377500Y109500D03*
Y149500D03*
G54D57*G36*
X373200Y93800D02*Y85200D01*
X381800D01*
Y93800D01*
X373200D01*
G37*
G36*
X142076Y263900D02*Y258300D01*
X157164D01*
Y263900D01*
X142076D01*
G37*
G36*
Y253900D02*Y248300D01*
X157164D01*
Y253900D01*
X142076D01*
G37*
G36*
Y243900D02*Y238300D01*
X157164D01*
Y243900D01*
X142076D01*
G37*
G36*
X159556D02*Y238300D01*
X174644D01*
Y243900D01*
X159556D01*
G37*
G36*
Y253900D02*Y248300D01*
X174644D01*
Y253900D01*
X159556D01*
G37*
G36*
Y263900D02*Y258300D01*
X174644D01*
Y263900D01*
X159556D01*
G37*
G36*
X201700Y252100D02*X197700D01*
Y247500D01*
X201700D01*
Y252100D01*
G37*
G36*
X209500D02*X205500D01*
Y247500D01*
X209500D01*
Y252100D01*
G37*
G36*
X205600Y260300D02*X201600D01*
Y255700D01*
X205600D01*
Y260300D01*
G37*
G36*
X101902Y255352D02*X96184D01*
Y248848D01*
X101902D01*
Y255352D01*
G37*
G36*
Y245452D02*X96184D01*
Y238948D01*
X101902D01*
Y245452D01*
G37*
G36*
X98400Y261200D02*Y258300D01*
X106900D01*
Y261200D01*
X98400D01*
G37*
G36*
X94816Y255352D02*X89098D01*
Y248848D01*
X94816D01*
Y255352D01*
G37*
G36*
X86900Y263700D02*Y260700D01*
X91500D01*
Y263700D01*
X86900D01*
G37*
G36*
Y267600D02*Y264600D01*
X91500D01*
Y267600D01*
X86900D01*
G37*
G36*
Y271500D02*Y268500D01*
X91500D01*
Y271500D01*
X86900D01*
G37*
G36*
X94816Y245452D02*X89098D01*
Y238948D01*
X94816D01*
Y245452D01*
G37*
G36*
X75816Y257752D02*X70098D01*
Y251248D01*
X75816D01*
Y257752D01*
G37*
G36*
X82902D02*X77184D01*
Y251248D01*
X82902D01*
Y257752D01*
G37*
G36*
X78700Y271500D02*Y268500D01*
X83300D01*
Y271500D01*
X78700D01*
G37*
G36*
Y267600D02*Y264600D01*
X83300D01*
Y267600D01*
X78700D01*
G37*
G36*
Y263700D02*Y260700D01*
X83300D01*
Y263700D01*
X78700D01*
G37*
G36*
X106773Y220752D02*X101055D01*
Y214248D01*
X106773D01*
Y220752D01*
G37*
G36*
X113859D02*X108141D01*
Y214248D01*
X113859D01*
Y220752D01*
G37*
G36*
X124816D02*X119098D01*
Y214248D01*
X124816D01*
Y220752D01*
G37*
G36*
X131902D02*X126184D01*
Y214248D01*
X131902D01*
Y220752D01*
G37*
G36*
X101300Y282600D02*X98400D01*
Y258300D01*
X101300D01*
Y282600D01*
G37*
G36*
X101000Y266919D02*X98454Y264373D01*
X104473Y258354D01*
X107019Y260900D01*
X101000Y266919D01*
G37*
G36*
X99200Y262700D02*Y259100D01*
X102800D01*
Y262700D01*
X99200D01*
G37*
G36*
Y281800D02*Y278200D01*
X102800D01*
Y281800D01*
X99200D01*
G37*
G36*
X98400Y282600D02*Y279700D01*
X106900D01*
Y282600D01*
X98400D01*
G37*
G36*
X122700D02*X119800D01*
Y258300D01*
X122700D01*
Y282600D01*
G37*
G36*
X114200D02*Y279700D01*
X122700D01*
Y282600D01*
X114200D01*
G37*
G36*
X107019Y280000D02*X104473Y282546D01*
X98454Y276527D01*
X101000Y273981D01*
X107019Y280000D01*
G37*
G36*
X118300Y262700D02*Y259100D01*
X121900D01*
Y262700D01*
X118300D01*
G37*
G36*
Y281800D02*Y278200D01*
X121900D01*
Y281800D01*
X118300D01*
G37*
G36*
X114200Y261200D02*Y258300D01*
X122700D01*
Y261200D01*
X114200D01*
G37*
G36*
X122646Y264373D02*X120100Y266919D01*
X114081Y260900D01*
X116627Y258354D01*
X122646Y264373D01*
G37*
G36*
X116627Y282546D02*X114081Y280000D01*
X120100Y273981D01*
X122646Y276527D01*
X116627Y282546D01*
G37*
G36*
X87316Y283752D02*X81598D01*
Y277248D01*
X87316D01*
Y283752D01*
G37*
G36*
X94402D02*X88684D01*
Y277248D01*
X94402D01*
Y283752D01*
G37*
G36*
X305276Y150062D02*Y147788D01*
X309420D01*
Y150062D01*
X305276D01*
G37*
G36*
Y153212D02*Y150938D01*
X309420D01*
Y153212D01*
X305276D01*
G37*
G36*
X298580D02*Y150938D01*
X302724D01*
Y153212D01*
X298580D01*
G37*
G36*
Y150062D02*Y147788D01*
X302724D01*
Y150062D01*
X298580D01*
G37*
G36*
Y133360D02*Y131088D01*
X302724D01*
Y133360D01*
X298580D01*
G37*
G36*
Y130212D02*Y127938D01*
X302724D01*
Y130212D01*
X298580D01*
G37*
G36*
Y127062D02*Y124788D01*
X302724D01*
Y127062D01*
X298580D01*
G37*
G36*
Y123912D02*Y121640D01*
X302724D01*
Y123912D01*
X298580D01*
G37*
G36*
X305276D02*Y121640D01*
X309420D01*
Y123912D01*
X305276D01*
G37*
G36*
Y127062D02*Y124788D01*
X309420D01*
Y127062D01*
X305276D01*
G37*
G36*
Y130212D02*Y127938D01*
X309420D01*
Y130212D01*
X305276D01*
G37*
G36*
Y133360D02*Y131088D01*
X309420D01*
Y133360D01*
X305276D01*
G37*
G36*
X306300Y80100D02*Y77100D01*
X310900D01*
Y80100D01*
X306300D01*
G37*
G36*
Y84000D02*Y81000D01*
X310900D01*
Y84000D01*
X306300D01*
G37*
G36*
Y87900D02*Y84900D01*
X310900D01*
Y87900D01*
X306300D01*
G37*
G36*
X298100D02*Y84900D01*
X302700D01*
Y87900D01*
X298100D01*
G37*
G36*
Y84000D02*Y81000D01*
X302700D01*
Y84000D01*
X298100D01*
G37*
G36*
Y80100D02*Y77100D01*
X302700D01*
Y80100D01*
X298100D01*
G37*
G36*
X284839Y176615D02*X282665D01*
Y170015D01*
X284839D01*
Y176615D01*
G37*
G36*
X287988D02*X285814D01*
Y170015D01*
X287988D01*
Y176615D01*
G37*
G36*
X291138D02*X288964D01*
Y170015D01*
X291138D01*
Y176615D01*
G37*
G36*
X294287D02*X292113D01*
Y170015D01*
X294287D01*
Y176615D01*
G37*
G36*
X297437D02*X295263D01*
Y170015D01*
X297437D01*
Y176615D01*
G37*
G36*
X300587D02*X298413D01*
Y170015D01*
X300587D01*
Y176615D01*
G37*
G36*
X303736D02*X301562D01*
Y170015D01*
X303736D01*
Y176615D01*
G37*
G36*
X306886D02*X304712D01*
Y170015D01*
X306886D01*
Y176615D01*
G37*
G36*
X310035D02*X307861D01*
Y170015D01*
X310035D01*
Y176615D01*
G37*
G36*
X313185D02*X311011D01*
Y170015D01*
X313185D01*
Y176615D01*
G37*
G36*
X316335D02*X314161D01*
Y170015D01*
X316335D01*
Y176615D01*
G37*
G36*
X320885Y183339D02*Y181165D01*
X327485D01*
Y183339D01*
X320885D01*
G37*
G36*
Y186488D02*Y184314D01*
X327485D01*
Y186488D01*
X320885D01*
G37*
G36*
Y189638D02*Y187464D01*
X327485D01*
Y189638D01*
X320885D01*
G37*
G36*
Y192787D02*Y190613D01*
X327485D01*
Y192787D01*
X320885D01*
G37*
G36*
Y195937D02*Y193763D01*
X327485D01*
Y195937D01*
X320885D01*
G37*
G36*
X335748Y193816D02*Y188098D01*
X342252D01*
Y193816D01*
X335748D01*
G37*
G36*
Y200902D02*Y195184D01*
X342252D01*
Y200902D01*
X335748D01*
G37*
G36*
X344400Y137700D02*X341400D01*
Y133100D01*
X344400D01*
Y137700D01*
G37*
G36*
Y145900D02*X341400D01*
Y141300D01*
X344400D01*
Y145900D01*
G37*
G36*
X348300Y137700D02*X345300D01*
Y133100D01*
X348300D01*
Y137700D01*
G37*
G36*
X352200D02*X349200D01*
Y133100D01*
X352200D01*
Y137700D01*
G37*
G36*
Y145900D02*X349200D01*
Y141300D01*
X352200D01*
Y145900D01*
G37*
G36*
X348300D02*X345300D01*
Y141300D01*
X348300D01*
Y145900D01*
G37*
G36*
X363402Y168752D02*X357684D01*
Y162248D01*
X363402D01*
Y168752D01*
G37*
G36*
X356316D02*X350598D01*
Y162248D01*
X356316D01*
Y168752D01*
G37*
G36*
X53243Y164950D02*Y158050D01*
X66442D01*
Y164950D01*
X53243D01*
G37*
G36*
X33558D02*Y158050D01*
X46757D01*
Y164950D01*
X33558D01*
G37*
G36*
X46868Y145600D02*X39181D01*
Y132400D01*
X46868D01*
Y145600D01*
G37*
G36*
X24819D02*X17132D01*
Y132400D01*
X24819D01*
Y145600D01*
G37*
G36*
X53900Y120819D02*Y113132D01*
X67100D01*
Y120819D01*
X53900D01*
G37*
G36*
Y142868D02*Y135181D01*
X67100D01*
Y142868D01*
X53900D01*
G37*
G36*
X6748Y162316D02*Y156598D01*
X13252D01*
Y162316D01*
X6748D01*
G37*
G36*
Y169402D02*Y163684D01*
X13252D01*
Y169402D01*
X6748D01*
G37*
G36*
X60402Y71752D02*X54684D01*
Y65248D01*
X60402D01*
Y71752D01*
G37*
G36*
X53316D02*X47598D01*
Y65248D01*
X53316D01*
Y71752D01*
G37*
G36*
X51000Y88300D02*Y85300D01*
X55600D01*
Y88300D01*
X51000D01*
G37*
G36*
Y80500D02*Y77500D01*
X55600D01*
Y80500D01*
X51000D01*
G37*
G36*
X59200D02*Y77500D01*
X63800D01*
Y80500D01*
X59200D01*
G37*
G36*
Y84400D02*Y81400D01*
X63800D01*
Y84400D01*
X59200D01*
G37*
G36*
Y88300D02*Y85300D01*
X63800D01*
Y88300D01*
X59200D01*
G37*
G36*
X79700Y90430D02*Y81830D01*
X132300D01*
Y90430D01*
X79700D01*
G37*
G36*
X6248Y201273D02*Y195555D01*
X12752D01*
Y201273D01*
X6248D01*
G37*
G36*
X53243Y194450D02*Y187550D01*
X66442D01*
Y194450D01*
X53243D01*
G37*
G36*
X33558D02*Y187550D01*
X46757D01*
Y194450D01*
X33558D01*
G37*
G36*
X6248Y208359D02*Y202641D01*
X12752D01*
Y208359D01*
X6248D01*
G37*
G36*
X6748Y182816D02*Y177098D01*
X13252D01*
Y182816D01*
X6748D01*
G37*
G36*
Y189902D02*Y184184D01*
X13252D01*
Y189902D01*
X6748D01*
G37*
G36*
X111700Y119300D02*Y116700D01*
X120800D01*
Y119300D01*
X111700D01*
G37*
G36*
Y124300D02*Y121700D01*
X120800D01*
Y124300D01*
X111700D01*
G37*
G36*
Y129300D02*Y126700D01*
X120800D01*
Y129300D01*
X111700D01*
G37*
G36*
Y134300D02*Y131700D01*
X120800D01*
Y134300D01*
X111700D01*
G37*
G36*
X91200D02*Y131700D01*
X100300D01*
Y134300D01*
X91200D01*
G37*
G36*
Y129300D02*Y126700D01*
X100300D01*
Y129300D01*
X91200D01*
G37*
G36*
Y124300D02*Y121700D01*
X100300D01*
Y124300D01*
X91200D01*
G37*
G36*
Y119300D02*Y116700D01*
X100300D01*
Y119300D01*
X91200D01*
G37*
G36*
X111025Y131605D02*X100975D01*
Y119395D01*
X111025D01*
Y131605D01*
G37*
G36*
Y131905D02*X100975D01*
Y119095D01*
X111025D01*
Y131905D01*
G37*
G36*
X77748Y147902D02*Y142184D01*
X84252D01*
Y147902D01*
X77748D01*
G37*
G36*
Y140816D02*Y135098D01*
X84252D01*
Y140816D01*
X77748D01*
G37*
G36*
X79700Y169170D02*Y160570D01*
X132300D01*
Y169170D01*
X79700D01*
G37*
G36*
X62558Y223750D02*Y216850D01*
X75757D01*
Y223750D01*
X62558D01*
G37*
G36*
X82243D02*Y216850D01*
X95442D01*
Y223750D01*
X82243D01*
G37*
G36*
X158773Y226752D02*X153055D01*
Y220248D01*
X158773D01*
Y226752D01*
G37*
G36*
X165859D02*X160141D01*
Y220248D01*
X165859D01*
Y226752D01*
G37*
G36*
X376449Y213675D02*Y210713D01*
X383151D01*
Y213675D01*
X376449D01*
G37*
G36*
Y217612D02*Y214650D01*
X383151D01*
Y217612D01*
X376449D01*
G37*
G36*
Y221550D02*Y218588D01*
X383151D01*
Y221550D01*
X376449D01*
G37*
G36*
X391213Y209738D02*Y204414D01*
X398899D01*
Y209738D01*
X391213D01*
G37*
G36*
X359748Y204316D02*Y198598D01*
X366252D01*
Y204316D01*
X359748D01*
G37*
G36*
Y211402D02*Y205684D01*
X366252D01*
Y211402D01*
X359748D01*
G37*
G36*
X391213Y231786D02*Y226462D01*
X398899D01*
Y231786D01*
X391213D01*
G37*
G36*
X349273Y263252D02*X343555D01*
Y256748D01*
X349273D01*
Y263252D01*
G37*
G36*
X356359D02*X350641D01*
Y256748D01*
X356359D01*
Y263252D01*
G37*
G36*
X370200Y242250D02*X364900D01*
Y236949D01*
X370200D01*
Y242250D01*
G37*
G36*
Y250051D02*X364900D01*
Y244750D01*
X370200D01*
Y250051D01*
G37*
G36*
X358200Y246951D02*X351300D01*
Y240050D01*
X358200D01*
Y246951D01*
G37*
G36*
X335748Y216402D02*Y210684D01*
X342252D01*
Y216402D01*
X335748D01*
G37*
G36*
Y209316D02*Y203598D01*
X342252D01*
Y209316D01*
X335748D01*
G37*
G36*
X376449Y225487D02*Y222525D01*
X383151D01*
Y225487D01*
X376449D01*
G37*
G36*
X376976Y168212D02*Y165940D01*
X381120D01*
Y168212D01*
X376976D01*
G37*
G36*
Y171362D02*Y169088D01*
X381120D01*
Y171362D01*
X376976D01*
G37*
G36*
Y174512D02*Y172238D01*
X381120D01*
Y174512D01*
X376976D01*
G37*
G36*
Y177660D02*Y175388D01*
X381120D01*
Y177660D01*
X376976D01*
G37*
G36*
Y187812D02*Y185540D01*
X381120D01*
Y187812D01*
X376976D01*
G37*
G36*
Y190962D02*Y188688D01*
X381120D01*
Y190962D01*
X376976D01*
G37*
G36*
Y194112D02*Y191838D01*
X381120D01*
Y194112D01*
X376976D01*
G37*
G36*
Y197260D02*Y194988D01*
X381120D01*
Y197260D01*
X376976D01*
G37*
G36*
X370280Y177660D02*Y175388D01*
X374424D01*
Y177660D01*
X370280D01*
G37*
G36*
Y174512D02*Y172238D01*
X374424D01*
Y174512D01*
X370280D01*
G37*
G36*
Y171362D02*Y169088D01*
X374424D01*
Y171362D01*
X370280D01*
G37*
G36*
Y168212D02*Y165940D01*
X374424D01*
Y168212D01*
X370280D01*
G37*
G36*
Y197260D02*Y194988D01*
X374424D01*
Y197260D01*
X370280D01*
G37*
G36*
Y194112D02*Y191838D01*
X374424D01*
Y194112D01*
X370280D01*
G37*
G36*
Y190962D02*Y188688D01*
X374424D01*
Y190962D01*
X370280D01*
G37*
G36*
Y187812D02*Y185540D01*
X374424D01*
Y187812D01*
X370280D01*
G37*
G36*
X357248Y190402D02*Y184684D01*
X363752D01*
Y190402D01*
X357248D01*
G37*
G36*
Y183316D02*Y177598D01*
X363752D01*
Y183316D01*
X357248D01*
G37*
G36*
X248230Y183252D02*X242512D01*
Y176748D01*
X248230D01*
Y183252D01*
G37*
G36*
X255316D02*X249598D01*
Y176748D01*
X255316D01*
Y183252D01*
G37*
G36*
X241697Y191803D02*Y186085D01*
X250170D01*
Y191803D01*
X241697D01*
G37*
G36*
X256264D02*Y186085D01*
X264737D01*
Y191803D01*
X256264D01*
G37*
G36*
Y200859D02*Y195141D01*
X264737D01*
Y200859D01*
X256264D01*
G37*
G36*
X241697D02*Y195141D01*
X250170D01*
Y200859D01*
X241697D01*
G37*
G36*
X271515Y214835D02*Y212661D01*
X278115D01*
Y214835D01*
X271515D01*
G37*
G36*
Y211686D02*Y209512D01*
X278115D01*
Y211686D01*
X271515D01*
G37*
G36*
Y208536D02*Y206362D01*
X278115D01*
Y208536D01*
X271515D01*
G37*
G36*
Y205387D02*Y203213D01*
X278115D01*
Y205387D01*
X271515D01*
G37*
G36*
Y202237D02*Y200063D01*
X278115D01*
Y202237D01*
X271515D01*
G37*
G36*
Y199087D02*Y196913D01*
X278115D01*
Y199087D01*
X271515D01*
G37*
G36*
X320885D02*Y196913D01*
X327485D01*
Y199087D01*
X320885D01*
G37*
G36*
Y202236D02*Y200062D01*
X327485D01*
Y202236D01*
X320885D01*
G37*
G36*
Y205386D02*Y203212D01*
X327485D01*
Y205386D01*
X320885D01*
G37*
G36*
X255402Y209752D02*X249684D01*
Y203248D01*
X255402D01*
Y209752D01*
G37*
G36*
X248316D02*X242598D01*
Y203248D01*
X248316D01*
Y209752D01*
G37*
G36*
X320885Y208535D02*Y206361D01*
X327485D01*
Y208535D01*
X320885D01*
G37*
G36*
Y211685D02*Y209511D01*
X327485D01*
Y211685D01*
X320885D01*
G37*
G36*
Y214835D02*Y212661D01*
X327485D01*
Y214835D01*
X320885D01*
G37*
G36*
X316335Y225985D02*X314161D01*
Y219385D01*
X316335D01*
Y225985D01*
G37*
G36*
X313186D02*X311012D01*
Y219385D01*
X313186D01*
Y225985D01*
G37*
G36*
X310036D02*X307862D01*
Y219385D01*
X310036D01*
Y225985D01*
G37*
G36*
X320816Y241252D02*X315098D01*
Y234748D01*
X320816D01*
Y241252D01*
G37*
G36*
X327902D02*X322184D01*
Y234748D01*
X327902D01*
Y241252D01*
G37*
G36*
X306887Y225985D02*X304713D01*
Y219385D01*
X306887D01*
Y225985D01*
G37*
G36*
X303737D02*X301563D01*
Y219385D01*
X303737D01*
Y225985D01*
G37*
G36*
X300587D02*X298413D01*
Y219385D01*
X300587D01*
Y225985D01*
G37*
G36*
X297438D02*X295264D01*
Y219385D01*
X297438D01*
Y225985D01*
G37*
G36*
X294288D02*X292114D01*
Y219385D01*
X294288D01*
Y225985D01*
G37*
G36*
X291139D02*X288965D01*
Y219385D01*
X291139D01*
Y225985D01*
G37*
G36*
X287989D02*X285815D01*
Y219385D01*
X287989D01*
Y225985D01*
G37*
G36*
X284839D02*X282665D01*
Y219385D01*
X284839D01*
Y225985D01*
G37*
G36*
X265248Y227316D02*Y221598D01*
X271752D01*
Y227316D01*
X265248D01*
G37*
G36*
Y234402D02*Y228684D01*
X271752D01*
Y234402D01*
X265248D01*
G37*
G36*
X271515Y195938D02*Y193764D01*
X278115D01*
Y195938D01*
X271515D01*
G37*
G36*
Y192788D02*Y190614D01*
X278115D01*
Y192788D01*
X271515D01*
G37*
G36*
Y189639D02*Y187465D01*
X278115D01*
Y189639D01*
X271515D01*
G37*
G36*
Y186489D02*Y184315D01*
X278115D01*
Y186489D01*
X271515D01*
G37*
G36*
Y183339D02*Y181165D01*
X278115D01*
Y183339D01*
X271515D01*
G37*
G36*
X260580Y166860D02*Y164588D01*
X264724D01*
Y166860D01*
X260580D01*
G37*
G36*
Y163712D02*Y161438D01*
X264724D01*
Y163712D01*
X260580D01*
G37*
G36*
Y160562D02*Y158288D01*
X264724D01*
Y160562D01*
X260580D01*
G37*
G36*
Y157412D02*Y155140D01*
X264724D01*
Y157412D01*
X260580D01*
G37*
G36*
X267276D02*Y155140D01*
X271420D01*
Y157412D01*
X267276D01*
G37*
G36*
Y160562D02*Y158288D01*
X271420D01*
Y160562D01*
X267276D01*
G37*
G36*
Y163712D02*Y161438D01*
X271420D01*
Y163712D01*
X267276D01*
G37*
G36*
Y166860D02*Y164588D01*
X271420D01*
Y166860D01*
X267276D01*
G37*
M02*
