G04 start of page 7 for group -4062 idx -4062 *
G04 Title: (unknown), soldermask *
G04 Creator: pcb 4.0.2 *
G04 CreationDate: Thu Jul  2 20:29:44 2020 UTC *
G04 For: ndholmes *
G04 Format: Gerber/RS-274X *
G04 PCB-Dimensions (mil): 4000.00 2900.00 *
G04 PCB-Coordinate-Origin: lower left *
%MOIN*%
%FSLAX25Y25*%
%LNBOTTOMMASK*%
%ADD69C,0.1700*%
%ADD68C,0.1950*%
%ADD67C,0.0750*%
%ADD66C,0.0860*%
%ADD65C,0.0660*%
%ADD64C,0.0001*%
%ADD63C,0.2997*%
G54D63*X383000Y273000D03*
G54D64*G36*
X350200Y276300D02*Y269700D01*
X356800D01*
Y276300D01*
X350200D01*
G37*
G54D65*X343500Y273000D03*
X333500D03*
X323500D03*
X313500D03*
X303500D03*
X293500D03*
X283500D03*
X273500D03*
X263500D03*
X253500D03*
X243500D03*
X233500D03*
X223500D03*
X213500D03*
X203500D03*
G54D63*X17000Y56500D03*
G54D64*G36*
X18200Y114300D02*Y105700D01*
X26800D01*
Y114300D01*
X18200D01*
G37*
G54D66*X22500Y90000D03*
G54D67*X153905Y10142D03*
Y27858D03*
G54D63*X17000Y273000D03*
G54D67*X112795Y10142D03*
X87205D03*
X112795Y27858D03*
X87205D03*
G54D68*X54000Y238500D03*
G54D69*X30000D03*
X42000Y219500D03*
G54D67*X179495Y10142D03*
X246095D03*
X220505D03*
X312795D03*
X287205D03*
X179495Y27858D03*
X246095D03*
X220505D03*
X312795D03*
X287205D03*
G54D63*X383000Y56500D03*
G54D64*G36*
X373200Y133800D02*Y125200D01*
X381800D01*
Y133800D01*
X373200D01*
G37*
G54D66*X377500Y109500D03*
Y149500D03*
G54D64*G36*
X373200Y93800D02*Y85200D01*
X381800D01*
Y93800D01*
X373200D01*
G37*
M02*
