G04 start of page 8 for group -4079 idx -4079 *
G04 Title: (unknown), topsilk *
G04 Creator: pcb 4.0.2 *
G04 CreationDate: Thu Jul  2 20:29:44 2020 UTC *
G04 For: ndholmes *
G04 Format: Gerber/RS-274X *
G04 PCB-Dimensions (mil): 4000.00 2900.00 *
G04 PCB-Coordinate-Origin: lower left *
%MOIN*%
%FSLAX25Y25*%
%LNTOPSILK*%
%ADD73C,0.0093*%
%ADD72C,0.0080*%
%ADD71C,0.0100*%
%ADD70C,0.0001*%
G54D70*G36*
X178043Y109209D02*X177647Y109480D01*
X177511Y109925D01*
X177565Y110240D01*
X177761Y110490D01*
X177891Y110604D01*
Y112486D01*
X177218D01*
X176741Y112481D01*
X176545Y112464D01*
X176453Y112340D01*
X176100Y112117D01*
X175672D01*
X175373Y112307D01*
X175189Y112600D01*
X175162Y112931D01*
X175270Y113224D01*
X175487Y113446D01*
X175802Y113566D01*
X176182Y113512D01*
X176491Y113273D01*
X176556Y113175D01*
X177224D01*
X177891Y113170D01*
Y114667D01*
X175558D01*
Y115400D01*
X175553Y116127D01*
X175455Y116197D01*
X175287Y116376D01*
X175178Y116593D01*
X175189Y117027D01*
X175373Y117315D01*
X175661Y117494D01*
X175997Y117526D01*
X176290Y117423D01*
X176513Y117201D01*
X176632Y116881D01*
X176578Y116506D01*
X176339Y116197D01*
X176242Y116127D01*
Y115351D01*
X177891D01*
Y117656D01*
X178357Y118248D01*
X178829Y118839D01*
Y120906D01*
X177918D01*
Y121693D01*
X182302D01*
Y123066D01*
X179486D01*
Y121693D01*
X178829D01*
Y123066D01*
X177918D01*
Y123825D01*
X178819D01*
Y125192D01*
X179502Y125219D01*
X179497Y124557D01*
X179491Y124086D01*
X179502Y123868D01*
X179567Y123858D01*
X179790Y123847D01*
X180224Y123841D01*
X180907Y123836D01*
X182302D01*
Y125219D01*
X179502D01*
X178819Y125192D01*
X177918D01*
Y125952D01*
X178829D01*
X179486Y125979D01*
X182302D01*
Y127352D01*
X179486D01*
Y125979D01*
X178829Y125952D01*
Y127324D01*
X177918D01*
Y128084D01*
X178819D01*
X178829Y129462D01*
X179486Y129505D01*
Y128827D01*
X179491Y128344D01*
X179508Y128127D01*
X179920Y128117D01*
X180907Y128111D01*
X182291D01*
X182296Y128800D01*
Y128816D01*
X182307Y129505D01*
X179486D01*
X178829Y129462D01*
X177918D01*
Y130222D01*
X178819D01*
Y131594D01*
X179502Y131648D01*
X179497Y130992D01*
X179491Y130515D01*
X179502Y130297D01*
X179567Y130287D01*
X179790Y130276D01*
X180224Y130270D01*
X180907Y130265D01*
X182307D01*
X182296Y130959D01*
X182291Y131648D01*
X179502D01*
X178819Y131594D01*
X177918D01*
Y132354D01*
X178829D01*
Y133596D01*
X179486D01*
Y132354D01*
X182302D01*
Y133596D01*
X182991D01*
Y132354D01*
X183902D01*
Y131594D01*
X182991D01*
Y130194D01*
X183902D01*
Y129435D01*
X182991D01*
Y128041D01*
X183902D01*
Y127281D01*
X182991D01*
Y125908D01*
X183902D01*
Y125149D01*
X182991D01*
Y123755D01*
X183902D01*
Y122995D01*
X182991D01*
Y121622D01*
X183902D01*
Y120836D01*
X182991D01*
X182985Y120250D01*
Y119658D01*
X181569Y117868D01*
X180148Y116083D01*
Y112074D01*
X181124Y111097D01*
X183544D01*
Y113219D01*
X183539Y114043D01*
Y114716D01*
X183533Y115172D01*
X183528Y115334D01*
X183403Y115427D01*
X183159Y115893D01*
X183294Y116409D01*
X183870Y116718D01*
X184472Y116447D01*
X184629Y115882D01*
X184331Y115372D01*
X184233Y115302D01*
Y110414D01*
X180842D01*
X179486Y111770D01*
Y116344D01*
X180896Y118123D01*
X182302Y119903D01*
Y120841D01*
X179486D01*
Y118503D01*
X178574Y117353D01*
Y110522D01*
X178640Y110490D01*
X178819Y110321D01*
X178949Y110088D01*
X178916Y109573D01*
X178569Y109193D01*
X178303Y109133D01*
X178043Y109144D01*
Y109209D01*
G37*
G36*
X193885Y110229D02*X192067Y110571D01*
X190483Y111293D01*
X189376Y112171D01*
X188432Y113278D01*
X187570Y114841D01*
X186924Y116696D01*
X186826Y117065D01*
X189246Y117581D01*
X190179Y117781D01*
X190955Y117944D01*
X191481Y118047D01*
X191682Y118080D01*
X191736Y117868D01*
X191785Y117618D01*
X191867Y117282D01*
X192230Y116257D01*
X192745Y115432D01*
X193391Y114824D01*
X194162Y114461D01*
X194400Y114418D01*
X194796Y114401D01*
X195187Y114418D01*
X195442Y114461D01*
X196462Y115047D01*
X197021Y116083D01*
X197075Y116712D01*
X197021Y117309D01*
X197623Y117483D01*
X197661Y116067D01*
X197303Y115117D01*
X196673Y114385D01*
X195816Y113924D01*
X194780Y113756D01*
X193451Y114059D01*
X192382Y114884D01*
X191590Y116127D01*
X191389Y116653D01*
X191243Y117157D01*
X191194Y117326D01*
X191145Y117342D01*
X190993Y117315D01*
X190635Y117239D01*
X190109Y117125D01*
X189479Y116989D01*
X188329Y116745D01*
X187792Y116626D01*
X187629Y116577D01*
Y116544D01*
X187678Y116360D01*
X187803Y115991D01*
X187949Y115584D01*
X188074Y115258D01*
X189072Y113479D01*
X190358Y112150D01*
X191932Y111282D01*
X193803Y110864D01*
X194199Y110853D01*
X194747D01*
X195295Y110869D01*
X195718Y110902D01*
X197048Y111157D01*
X198209Y111591D01*
X199109Y112123D01*
X199863Y112779D01*
X200466Y113560D01*
X200932Y114466D01*
X201160Y115161D01*
X201317Y115947D01*
X201366Y116902D01*
X201317Y117836D01*
X201090Y118823D01*
X200732Y119713D01*
X200211Y120532D01*
X199527Y121313D01*
X198827Y121959D01*
X198019Y122556D01*
X196945Y123217D01*
X195453Y124047D01*
X194308Y124682D01*
X193516Y125160D01*
X192963Y125561D01*
X192534Y125963D01*
X191986Y126749D01*
X191818Y127617D01*
X191964Y128659D01*
X192398Y129473D01*
X193103Y130037D01*
X194058Y130319D01*
X194639Y130336D01*
X195214Y130270D01*
X195984Y129977D01*
X196652Y129451D01*
X197227Y128686D01*
X197721Y127666D01*
X197807Y127466D01*
X197867Y127422D01*
X198030Y127471D01*
X198409Y127574D01*
X198919Y127726D01*
X199505Y127894D01*
X200081Y128062D01*
X200580Y128214D01*
X200938Y128317D01*
X201079Y128361D01*
X201052Y128485D01*
X200965Y128762D01*
X200840Y129104D01*
X200721Y129419D01*
X200043Y130634D01*
X199153Y131638D01*
X198079Y132413D01*
X196825Y132940D01*
X195068Y133243D01*
X193147Y133157D01*
X191400Y132696D01*
X190000Y131860D01*
X189300Y131133D01*
X188758Y130249D01*
X188389Y129223D01*
X188188Y128073D01*
X188161Y127297D01*
X188199Y126587D01*
X188438Y125605D01*
X188877Y124699D01*
X189517Y123858D01*
X190380Y123066D01*
X190922Y122659D01*
X191552Y122246D01*
X192355Y121769D01*
X193440Y121161D01*
X194167Y120760D01*
X194709Y120451D01*
X195133Y120196D01*
X195507Y119957D01*
X196939Y118747D01*
X197623Y117483D01*
X197021Y117309D01*
X196424Y118378D01*
X195165Y119425D01*
X194802Y119658D01*
X194395Y119903D01*
X193879Y120196D01*
X193185Y120575D01*
X191807Y121351D01*
X190792Y121980D01*
X190017Y122545D01*
X189360Y123125D01*
X188611Y123966D01*
X188074Y124850D01*
X187656Y126033D01*
X187526Y127346D01*
X187618Y128632D01*
X187911Y129831D01*
X188671Y131355D01*
X189832Y132538D01*
X191362Y133363D01*
X193234Y133802D01*
X194693Y133884D01*
X196077Y133759D01*
X197352Y133433D01*
X198491Y132907D01*
X199630Y132061D01*
X200569Y130976D01*
X201296Y129674D01*
X201789Y128171D01*
X201849Y127916D01*
X199647Y127276D01*
X198784Y127032D01*
X198079Y126831D01*
X197601Y126701D01*
X197422Y126657D01*
X197346Y126858D01*
X197118Y127460D01*
X196858Y128035D01*
X196098Y129104D01*
X195149Y129636D01*
X194514Y129701D01*
X193863Y129652D01*
X193006Y129180D01*
X192669Y128719D01*
X192485Y128122D01*
X192447Y127639D01*
X192485Y127227D01*
X192832Y126576D01*
X193559Y125908D01*
X193912Y125664D01*
X194351Y125388D01*
X194926Y125062D01*
X195697Y124639D01*
X196565Y124167D01*
X197248Y123782D01*
X197807Y123451D01*
X198285Y123142D01*
X199511Y122214D01*
X200477Y121226D01*
X201204Y120174D01*
X201692Y119034D01*
X201968Y117662D01*
X201974Y116230D01*
X201719Y114830D01*
X201209Y113566D01*
X200412Y112448D01*
X199370Y111537D01*
X198100Y110859D01*
X196635Y110414D01*
X195257Y110240D01*
X193885Y110235D01*
Y110229D01*
G37*
G36*
X204470Y122035D02*X205110Y122040D01*
X205104Y111141D01*
X216530D01*
Y114298D01*
X208756D01*
Y120819D01*
X214441D01*
Y123988D01*
X208756D01*
Y129771D01*
X216216D01*
Y132940D01*
X205121D01*
X205110Y122040D01*
X204470Y122035D01*
Y133564D01*
X216850D01*
Y129153D01*
X209390D01*
Y124633D01*
X215071D01*
Y120223D01*
X209407D01*
X209396Y117591D01*
X209390Y114960D01*
X217154D01*
Y110522D01*
X204470D01*
Y122035D01*
G37*
G36*
X180441Y136282D02*X179556Y136569D01*
X178791Y137128D01*
X178243Y137860D01*
X177956Y138723D01*
X177918Y139363D01*
X177999Y139982D01*
X178309Y140747D01*
X178829Y141398D01*
X179676Y141973D01*
X180647Y142216D01*
X181656Y142129D01*
X182600Y141702D01*
X183153Y141197D01*
X183577Y140579D01*
X183810Y139895D01*
X183880Y139168D01*
X183772Y138441D01*
X183506Y137768D01*
X183099Y137220D01*
X182584Y136775D01*
X181982Y136455D01*
X181331Y136282D01*
X180880Y136260D01*
X180441Y136282D01*
G37*
G54D71*X399500Y40500D02*Y289500D01*
X74500Y40500D02*Y500D01*
X325500D01*
Y40500D01*
X399500D01*
X176000Y97500D02*X251000D01*
X500Y289500D02*Y40500D01*
X399500Y289500D02*X500D01*
Y40500D02*X74500D01*
G54D72*X153000Y273000D02*X154000D01*
X153500D02*Y269000D01*
X153000D02*X154000D01*
X155700D02*X157200D01*
X155200Y269500D02*X155700Y269000D01*
X155200Y272500D02*Y269500D01*
Y272500D02*X155700Y273000D01*
X157200D01*
X160400D02*X160900Y272500D01*
X158900Y273000D02*X160400D01*
X158400Y272500D02*X158900Y273000D01*
X158400Y272500D02*Y271500D01*
X158900Y271000D01*
X160400D01*
X160900Y270500D01*
Y269500D01*
X160400Y269000D02*X160900Y269500D01*
X158900Y269000D02*X160400D01*
X158400Y269500D02*X158900Y269000D01*
X162600Y273000D02*Y269000D01*
X162100Y273000D02*X164100D01*
X164600Y272500D01*
Y271500D01*
X164100Y271000D02*X164600Y271500D01*
X162600Y271000D02*X164100D01*
X120000Y235000D02*X120500Y235500D01*
X121500D01*
X122000Y235000D01*
Y232000D01*
X121500Y231500D02*X122000Y232000D01*
X120500Y231500D02*X121500D01*
X120000Y232000D02*X120500Y231500D01*
Y233500D02*X122000D01*
X123200Y231500D02*X123700D01*
X124900Y235000D02*X125400Y235500D01*
X126400D01*
X126900Y235000D01*
Y232000D01*
X126400Y231500D02*X126900Y232000D01*
X125400Y231500D02*X126400D01*
X124900Y232000D02*X125400Y231500D01*
Y233500D02*X126900D01*
X128100Y235500D02*Y232500D01*
X129100Y231500D01*
X130100Y232500D01*
Y235500D02*Y232500D01*
X120500Y229000D02*Y225000D01*
X120000Y229000D02*X122000D01*
X122500Y228500D01*
Y227500D01*
X122000Y227000D02*X122500Y227500D01*
X120500Y227000D02*X122000D01*
X123700Y229000D02*Y225000D01*
X125200Y226500D01*
X126700Y225000D01*
Y229000D02*Y225000D01*
X127900Y229000D02*X129900D01*
X130400Y228500D01*
Y227500D01*
X129900Y227000D02*X130400Y227500D01*
X128400Y227000D02*X129900D01*
X128400Y229000D02*Y225000D01*
Y227000D02*X130400Y225000D01*
X134000Y217500D02*X136000D01*
X135000Y218500D02*Y216500D01*
X176500Y104000D02*X177500D01*
X177000D02*Y100000D01*
X176500D02*X177500D01*
X178700Y101500D02*Y100500D01*
Y101500D02*X179200Y102000D01*
X180200D01*
X180700Y101500D01*
Y100500D01*
X180200Y100000D02*X180700Y100500D01*
X179200Y100000D02*X180200D01*
X178700Y100500D02*X179200Y100000D01*
X181900Y102000D02*Y100500D01*
X182400Y100000D01*
X182900D01*
X183400Y100500D01*
Y102000D02*Y100500D01*
X183900Y100000D01*
X184400D01*
X184900Y100500D01*
Y102000D02*Y100500D01*
X187600Y102000D02*X188100Y101500D01*
X186600Y102000D02*X187600D01*
X186100Y101500D02*X186600Y102000D01*
X186100Y101500D02*Y100500D01*
X186600Y100000D01*
X188100Y102000D02*Y100500D01*
X188600Y100000D01*
X186600D02*X187600D01*
X188100Y100500D01*
X193600Y104000D02*X194100Y103500D01*
X192100Y104000D02*X193600D01*
X191600Y103500D02*X192100Y104000D01*
X191600Y103500D02*Y102500D01*
X192100Y102000D01*
X193600D01*
X194100Y101500D01*
Y100500D01*
X193600Y100000D02*X194100Y100500D01*
X192100Y100000D02*X193600D01*
X191600Y100500D02*X192100Y100000D01*
X195800Y102000D02*X197300D01*
X195300Y101500D02*X195800Y102000D01*
X195300Y101500D02*Y100500D01*
X195800Y100000D01*
X197300D01*
X200000Y102000D02*X200500Y101500D01*
X199000Y102000D02*X200000D01*
X198500Y101500D02*X199000Y102000D01*
X198500Y101500D02*Y100500D01*
X199000Y100000D01*
X200500Y102000D02*Y100500D01*
X201000Y100000D01*
X199000D02*X200000D01*
X200500Y100500D01*
X202200Y104000D02*Y100500D01*
X202700Y100000D01*
X204200D02*X205700D01*
X203700Y100500D02*X204200Y100000D01*
X203700Y101500D02*Y100500D01*
Y101500D02*X204200Y102000D01*
X205200D01*
X205700Y101500D01*
X203700Y101000D02*X205700D01*
Y101500D02*Y101000D01*
X208900Y104000D02*Y100000D01*
X208400D02*X208900Y100500D01*
X207400Y100000D02*X208400D01*
X206900Y100500D02*X207400Y100000D01*
X206900Y101500D02*Y100500D01*
Y101500D02*X207400Y102000D01*
X208400D01*
X208900Y101500D01*
X211900Y102000D02*X213400D01*
X211900Y100000D02*X213900D01*
X211900Y104000D02*Y100000D01*
Y104000D02*X213900D01*
X215600Y101500D02*Y100000D01*
Y101500D02*X216100Y102000D01*
X216600D01*
X217100Y101500D01*
Y100000D01*
X215100Y102000D02*X215600Y101500D01*
X219800Y102000D02*X220300Y101500D01*
X218800Y102000D02*X219800D01*
X218300Y101500D02*X218800Y102000D01*
X218300Y101500D02*Y100500D01*
X218800Y100000D01*
X219800D01*
X220300Y100500D01*
X218300Y99000D02*X218800Y98500D01*
X219800D01*
X220300Y99000D01*
Y102000D02*Y99000D01*
X221500Y103000D02*Y102500D01*
Y101500D02*Y100000D01*
X223000Y101500D02*Y100000D01*
Y101500D02*X223500Y102000D01*
X224000D01*
X224500Y101500D01*
Y100000D01*
X222500Y102000D02*X223000Y101500D01*
X226200Y100000D02*X227700D01*
X225700Y100500D02*X226200Y100000D01*
X225700Y101500D02*Y100500D01*
Y101500D02*X226200Y102000D01*
X227200D01*
X227700Y101500D01*
X225700Y101000D02*X227700D01*
Y101500D02*Y101000D01*
X229400Y100000D02*X230900D01*
X228900Y100500D02*X229400Y100000D01*
X228900Y101500D02*Y100500D01*
Y101500D02*X229400Y102000D01*
X230400D01*
X230900Y101500D01*
X228900Y101000D02*X230900D01*
Y101500D02*Y101000D01*
X232600Y101500D02*Y100000D01*
Y101500D02*X233100Y102000D01*
X234100D01*
X232100D02*X232600Y101500D01*
X235300Y103000D02*Y102500D01*
Y101500D02*Y100000D01*
X236800Y101500D02*Y100000D01*
Y101500D02*X237300Y102000D01*
X237800D01*
X238300Y101500D01*
Y100000D01*
X236300Y102000D02*X236800Y101500D01*
X241000Y102000D02*X241500Y101500D01*
X240000Y102000D02*X241000D01*
X239500Y101500D02*X240000Y102000D01*
X239500Y101500D02*Y100500D01*
X240000Y100000D01*
X241000D01*
X241500Y100500D01*
X239500Y99000D02*X240000Y98500D01*
X241000D01*
X241500Y99000D01*
Y102000D02*Y99000D01*
X177000Y83500D02*X178500D01*
X176500Y84000D02*X177000Y83500D01*
X176500Y87000D02*Y84000D01*
Y87000D02*X177000Y87500D01*
X178500D01*
X180200Y83500D02*X181700D01*
X179700Y84000D02*X180200Y83500D01*
X179700Y87000D02*Y84000D01*
Y87000D02*X180200Y87500D01*
X181700D01*
X184700Y83500D02*X186700D01*
X187200Y84000D01*
Y85000D02*Y84000D01*
X186700Y85500D02*X187200Y85000D01*
X185200Y85500D02*X186700D01*
X185200Y87500D02*Y83500D01*
X184700Y87500D02*X186700D01*
X187200Y87000D01*
Y86000D01*
X186700Y85500D02*X187200Y86000D01*
X188400Y87500D02*Y87000D01*
X189400Y86000D01*
X190400Y87000D01*
Y87500D02*Y87000D01*
X189400Y86000D02*Y83500D01*
X191600Y85500D02*X193600D01*
X196800Y87500D02*X197300Y87000D01*
X195300Y87500D02*X196800D01*
X194800Y87000D02*X195300Y87500D01*
X194800Y87000D02*Y86000D01*
X195300Y85500D01*
X196800D01*
X197300Y85000D01*
Y84000D01*
X196800Y83500D02*X197300Y84000D01*
X195300Y83500D02*X196800D01*
X194800Y84000D02*X195300Y83500D01*
X198500Y87000D02*Y83500D01*
Y87000D02*X199000Y87500D01*
X200500D01*
X201000Y87000D01*
Y83500D01*
X198500Y85500D02*X201000D01*
X204000Y84000D02*X204500Y83500D01*
X204000Y87000D02*X204500Y87500D01*
X204000Y87000D02*Y84000D01*
X206200Y83500D02*X207700D01*
X205700Y84000D02*X206200Y83500D01*
X205700Y87000D02*Y84000D01*
Y87000D02*X206200Y87500D01*
X207700D01*
X208900D02*X209400Y87000D01*
Y84000D01*
X208900Y83500D02*X209400Y84000D01*
X212400Y87000D02*X212900Y87500D01*
X214400D01*
X214900Y87000D01*
Y86000D01*
X212400Y83500D02*X214900Y86000D01*
X212400Y83500D02*X214900D01*
X216100Y84000D02*X216600Y83500D01*
X216100Y87000D02*Y84000D01*
Y87000D02*X216600Y87500D01*
X217600D01*
X218100Y87000D01*
Y84000D01*
X217600Y83500D02*X218100Y84000D01*
X216600Y83500D02*X217600D01*
X216100Y84500D02*X218100Y86500D01*
X219300Y87000D02*X219800Y87500D01*
X221300D01*
X221800Y87000D01*
Y86000D01*
X219300Y83500D02*X221800Y86000D01*
X219300Y83500D02*X221800D01*
X223000Y84000D02*X223500Y83500D01*
X223000Y87000D02*Y84000D01*
Y87000D02*X223500Y87500D01*
X224500D01*
X225000Y87000D01*
Y84000D01*
X224500Y83500D02*X225000Y84000D01*
X223500Y83500D02*X224500D01*
X223000Y84500D02*X225000Y86500D01*
G54D73*X146600Y60140D02*Y56660D01*
X145440Y55500D02*X146600Y56660D01*
X138480Y55500D02*X145440D01*
X138480D02*X137320Y56660D01*
Y60140D02*Y56660D01*
X138480Y62924D02*X146600D01*
X138480D02*X137320Y64084D01*
Y67564D02*Y64084D01*
Y67564D02*X138480Y68724D01*
X146600D01*
X141960D02*Y62924D01*
X137320Y71508D02*X145440D01*
X146600Y72668D01*
Y74988D02*Y72668D01*
Y74988D02*X145440Y76148D01*
X137320D02*X145440D01*
X137320Y83572D02*Y78932D01*
Y81252D02*X146600D01*
X137320Y88676D02*Y86356D01*
Y87516D02*X146600D01*
Y88676D02*Y86356D01*
X138480Y91460D02*X145440D01*
X138480D02*X137320Y92620D01*
Y94940D02*Y92620D01*
Y94940D02*X138480Y96100D01*
X145440D01*
X146600Y94940D02*X145440Y96100D01*
X146600Y94940D02*Y92620D01*
X145440Y91460D02*X146600Y92620D01*
X137320Y98884D02*X146600D01*
X137320D02*X138480D01*
X144280Y104684D01*
X137320D02*X146600D01*
X145440Y107468D02*X146600D01*
X137320D02*X143120D01*
G54D72*X177000Y90500D02*X178500D01*
X176500Y91000D02*X177000Y90500D01*
X176500Y94000D02*Y91000D01*
Y94000D02*X177000Y94500D01*
X178500D01*
X179700D02*Y90500D01*
Y92500D02*X181700Y94500D01*
X179700Y92500D02*X181700Y90500D01*
X182900Y94500D02*X184900D01*
X183900D02*Y90500D01*
X186100Y92500D02*X188100D01*
X189800Y94500D02*Y90500D01*
X189300Y94500D02*X191300D01*
X191800Y94000D01*
Y93000D01*
X191300Y92500D02*X191800Y93000D01*
X189800Y92500D02*X191300D01*
X193000Y94500D02*X194000D01*
X193500D02*Y90500D01*
X193000D02*X194000D01*
X195200Y94500D02*Y90500D01*
Y94500D02*Y94000D01*
X197700Y91500D01*
Y94500D02*Y90500D01*
X200900Y94500D02*X201400Y94000D01*
X199400Y94500D02*X200900D01*
X198900Y94000D02*X199400Y94500D01*
X198900Y94000D02*Y91000D01*
X199400Y90500D01*
X200900D01*
X201400Y91000D01*
Y92000D02*Y91000D01*
X200900Y92500D02*X201400Y92000D01*
X199900Y92500D02*X200900D01*
X203100Y94500D02*Y90500D01*
X202600Y94500D02*X204600D01*
X205100Y94000D01*
Y93000D01*
X204600Y92500D02*X205100Y93000D01*
X203100Y92500D02*X204600D01*
X206300Y94000D02*Y91000D01*
Y94000D02*X206800Y94500D01*
X207800D01*
X208300Y94000D01*
Y91000D01*
X207800Y90500D02*X208300Y91000D01*
X206800Y90500D02*X207800D01*
X206300Y91000D02*X206800Y90500D01*
X209500Y94500D02*Y90500D01*
Y94500D02*Y94000D01*
X212000Y91500D01*
Y94500D02*Y90500D01*
X215200Y94500D02*X215700Y94000D01*
X213700Y94500D02*X215200D01*
X213200Y94000D02*X213700Y94500D01*
X213200Y94000D02*Y91000D01*
X213700Y90500D01*
X215200D01*
X215700Y91000D01*
Y92000D02*Y91000D01*
X215200Y92500D02*X215700Y92000D01*
X214200Y92500D02*X215200D01*
X218700D02*Y91500D01*
X219700Y90500D01*
X220700Y91500D01*
Y92500D02*Y91500D01*
X222400Y90500D02*X223400D01*
X222900Y94500D02*Y90500D01*
X221900Y93500D02*X222900Y94500D01*
X224600Y90500D02*X225100D01*
X226300Y91000D02*X226800Y90500D01*
X226300Y94000D02*Y91000D01*
Y94000D02*X226800Y94500D01*
X227800D01*
X228300Y94000D01*
Y91000D01*
X227800Y90500D02*X228300Y91000D01*
X226800Y90500D02*X227800D01*
X226300Y91500D02*X228300Y93500D01*
X7500Y107000D02*Y105000D01*
X3500Y106000D02*X7500D01*
Y103800D02*Y101800D01*
X7000Y101300D01*
X6000D02*X7000D01*
X5500Y101800D02*X6000Y101300D01*
X5500Y103300D02*Y101800D01*
X3500Y103300D02*X7500D01*
X5500D02*X3500Y101300D01*
Y100100D02*X7000D01*
X7500Y99600D01*
Y98100D01*
X7000Y97600D01*
X3500D02*X7000D01*
X5500Y100100D02*Y97600D01*
X3500Y95900D02*Y94400D01*
X4000Y96400D02*X3500Y95900D01*
X4000Y96400D02*X7000D01*
X7500Y95900D01*
Y94400D01*
X3500Y93200D02*X7500D01*
X5500D02*X7500Y91200D01*
X5500Y93200D02*X3500Y91200D01*
X119000Y113000D02*X121000Y111000D01*
X119000D02*X121000Y113000D01*
X119000Y112000D02*X121000D01*
X120000Y113000D02*Y111000D01*
G54D73*X146600Y150640D02*Y147160D01*
X145440Y146000D02*X146600Y147160D01*
X138480Y146000D02*X145440D01*
X138480D02*X137320Y147160D01*
Y150640D02*Y147160D01*
X138480Y153424D02*X146600D01*
X138480D02*X137320Y154584D01*
Y158064D02*Y154584D01*
Y158064D02*X138480Y159224D01*
X146600D01*
X141960D02*Y153424D01*
X137320Y162008D02*X145440D01*
X146600Y163168D01*
Y165488D02*Y163168D01*
Y165488D02*X145440Y166648D01*
X137320D02*X145440D01*
X137320Y174072D02*Y169432D01*
Y171752D02*X146600D01*
X137320Y179176D02*Y176856D01*
Y178016D02*X146600D01*
Y179176D02*Y176856D01*
X138480Y181960D02*X145440D01*
X138480D02*X137320Y183120D01*
Y185440D02*Y183120D01*
Y185440D02*X138480Y186600D01*
X145440D01*
X146600Y185440D02*X145440Y186600D01*
X146600Y185440D02*Y183120D01*
X145440Y181960D02*X146600Y183120D01*
X137320Y189384D02*X146600D01*
X137320D02*X138480D01*
X144280Y195184D01*
X137320D02*X146600D01*
X145440Y197968D02*X146600D01*
X137320D02*X143120D01*
G54D72*X20500Y203500D02*Y201500D01*
X16500Y202500D02*X20500D01*
Y200300D02*Y198300D01*
X20000Y197800D01*
X19000D02*X20000D01*
X18500Y198300D02*X19000Y197800D01*
X18500Y199800D02*Y198300D01*
X16500Y199800D02*X20500D01*
X18500D02*X16500Y197800D01*
Y196600D02*X20500D01*
X18500D02*X20500Y194600D01*
X18500Y196600D02*X16500Y194600D01*
Y191100D02*X20500D01*
Y191600D02*Y189600D01*
X20000Y189100D01*
X19000D02*X20000D01*
X18500Y189600D02*X19000Y189100D01*
X18500Y191100D02*Y189600D01*
X16500Y187900D02*X20500D01*
X16500D02*X18000Y186400D01*
X16500Y184900D01*
X20500D01*
Y183700D02*Y181700D01*
X20000Y181200D01*
X19000D02*X20000D01*
X18500Y181700D02*X19000Y181200D01*
X18500Y183200D02*Y181700D01*
X16500Y183200D02*X20500D01*
X18500D02*X16500Y181200D01*
X3000Y187000D02*X5000D01*
X4000Y188000D02*Y186000D01*
X3000Y205500D02*X5000D01*
X4000Y206500D02*Y204500D01*
G54D73*X151820Y57000D02*X161100D01*
X151820Y62800D02*X161100D01*
X156460D02*Y57000D01*
Y69064D02*Y65584D01*
X161100Y70224D02*Y65584D01*
X151820D02*X161100D01*
X151820Y70224D02*Y65584D01*
X152980Y73008D02*X161100D01*
X152980D02*X151820Y74168D01*
Y77648D02*Y74168D01*
Y77648D02*X152980Y78808D01*
X161100D01*
X156460D02*Y73008D01*
X151820Y86232D02*Y81592D01*
Y83912D02*X161100D01*
X151820Y93656D02*X152980Y94816D01*
X151820Y93656D02*Y90176D01*
X152980Y89016D02*X151820Y90176D01*
X152980Y89016D02*X155300D01*
X156460Y90176D01*
Y93656D02*Y90176D01*
Y93656D02*X157620Y94816D01*
X159940D01*
X161100Y93656D02*X159940Y94816D01*
X161100Y93656D02*Y90176D01*
X159940Y89016D02*X161100Y90176D01*
X151820Y99920D02*Y97600D01*
Y98760D02*X161100D01*
Y99920D02*Y97600D01*
X151820Y102704D02*X161100D01*
X151820D02*X152980D01*
X158780Y108504D01*
X151820D02*X161100D01*
X151820Y111288D02*X161100D01*
X156460D02*X151820Y115928D01*
X156460Y111288D02*X161100Y115928D01*
X151820Y122888D02*X161100D01*
X151820D02*X155300Y126368D01*
X151820Y129848D01*
X161100D01*
X152980Y132632D02*X161100D01*
X152980D02*X151820Y133792D01*
Y137272D02*Y133792D01*
Y137272D02*X152980Y138432D01*
X161100D01*
X156460D02*Y132632D01*
X151820Y141216D02*X152980D01*
X155300Y143536D01*
X152980Y145856D01*
X151820D02*X152980D01*
X155300Y143536D02*X161100D01*
Y157456D02*Y152816D01*
Y157456D02*X159940Y158616D01*
X157620D02*X159940D01*
X156460Y157456D02*X157620Y158616D01*
X156460Y157456D02*Y153976D01*
X151820D02*X161100D01*
X151820Y157456D02*Y152816D01*
Y157456D02*X152980Y158616D01*
X155300D01*
X156460Y157456D02*X155300Y158616D01*
X156460Y164880D02*Y161400D01*
X161100Y166040D02*Y161400D01*
X151820D02*X161100D01*
X151820Y166040D02*Y161400D01*
Y173000D02*X161100D01*
X151820Y178800D02*X161100D01*
X156460D02*Y173000D01*
X152980Y181584D02*X159940D01*
X152980D02*X151820Y182744D01*
Y185064D02*Y182744D01*
Y185064D02*X152980Y186224D01*
X159940D01*
X161100Y185064D02*X159940Y186224D01*
X161100Y185064D02*Y182744D01*
X159940Y181584D02*X161100Y182744D01*
X151820Y193648D02*Y189008D01*
Y191328D02*X161100D01*
X159940Y196432D02*X161100D01*
X151820D02*X157620D01*
G54D72*X276000Y222000D02*X278000Y220000D01*
X276000D02*X278000Y222000D01*
X276000Y221000D02*X278000D01*
X277000Y222000D02*Y220000D01*
X395000Y85000D02*Y83000D01*
X394000Y84000D02*X396000D01*
X397000Y87700D02*Y86700D01*
X393000Y87200D02*X397000D01*
X394000Y86200D02*X393000Y87200D01*
X393500Y88900D02*X393000Y89400D01*
Y90900D02*Y89400D01*
Y90900D02*X393500Y91400D01*
X394500D01*
X397000Y88900D02*X394500Y91400D01*
X397000D02*Y88900D01*
X393000Y92600D02*X396000D01*
X397000Y93600D01*
X396000Y94600D01*
X393000D02*X396000D01*
X393000Y106500D02*X393500Y107000D01*
X393000Y106500D02*Y105000D01*
X393500Y104500D02*X393000Y105000D01*
X393500Y104500D02*X396500D01*
X397000Y105000D01*
Y106500D02*Y105000D01*
Y106500D02*X396500Y107000D01*
X395500D02*X396500D01*
X395000Y106500D02*X395500Y107000D01*
X395000Y106500D02*Y105500D01*
X393000Y108200D02*X397000D01*
X393000D02*X393500D01*
X396000Y110700D01*
X393000D02*X397000D01*
X393000Y112400D02*X397000D01*
X393000Y113900D02*X393500Y114400D01*
X396500D01*
X397000Y113900D02*X396500Y114400D01*
X397000Y113900D02*Y111900D01*
X393000Y113900D02*Y111900D01*
Y127000D02*Y126000D01*
Y126500D02*X397000D01*
Y127000D02*Y126000D01*
X393000Y128200D02*X397000D01*
X393000D02*X393500D01*
X396000Y130700D01*
X393000D02*X397000D01*
Y133400D02*Y132400D01*
X393000Y132900D02*X397000D01*
X394000Y131900D02*X393000Y132900D01*
Y147000D02*Y146000D01*
Y146500D02*X397000D01*
Y147000D02*Y146000D01*
X393000Y148200D02*X397000D01*
X393000D02*X393500D01*
X396000Y150700D01*
X393000D02*X397000D01*
X393500Y151900D02*X393000Y152400D01*
Y153900D02*Y152400D01*
Y153900D02*X393500Y154400D01*
X394500D01*
X397000Y151900D02*X394500Y154400D01*
X397000D02*Y151900D01*
X375100Y239300D02*Y236300D01*
Y239300D02*X375600Y239800D01*
X376600D01*
X377100Y239300D01*
Y236300D01*
X376600Y235800D02*X377100Y236300D01*
X375600Y235800D02*X376600D01*
X375100Y236300D02*X375600Y235800D01*
X376100Y236800D02*X377100Y235800D01*
X378300Y237800D02*Y236300D01*
X378800Y235800D01*
X379300D01*
X379800Y236300D01*
Y237800D02*Y236300D01*
X380300Y235800D01*
X380800D01*
X381300Y236300D01*
Y237800D02*Y236300D01*
X382500Y238800D02*Y238300D01*
Y237300D02*Y235800D01*
X383500Y238800D02*Y238300D01*
Y237300D02*Y235800D01*
X385000Y237800D02*X386500D01*
X384500Y237300D02*X385000Y237800D01*
X384500Y237300D02*Y236300D01*
X385000Y235800D01*
X386500D01*
X389500Y239800D02*X390500D01*
X390000D02*Y235800D01*
X389500D02*X390500D01*
X391700Y239300D02*X392200Y239800D01*
X393700D01*
X394200Y239300D01*
Y238300D01*
X391700Y235800D02*X394200Y238300D01*
X391700Y235800D02*X394200D01*
X395900D02*X397400D01*
X395400Y236300D02*X395900Y235800D01*
X395400Y239300D02*Y236300D01*
Y239300D02*X395900Y239800D01*
X397400D01*
X176500Y81500D02*Y77500D01*
Y79000D02*X177000Y79500D01*
X178000D01*
X178500Y79000D01*
Y77500D01*
X180200Y81500D02*Y78000D01*
X180700Y77500D01*
X179700Y80000D02*X180700D01*
X182200Y81500D02*Y78000D01*
X182700Y77500D01*
X181700Y80000D02*X182700D01*
X184200Y79000D02*Y76000D01*
X183700Y79500D02*X184200Y79000D01*
X184700Y79500D01*
X185700D01*
X186200Y79000D01*
Y78000D01*
X185700Y77500D02*X186200Y78000D01*
X184700Y77500D02*X185700D01*
X184200Y78000D02*X184700Y77500D01*
X187900D02*X189400D01*
X189900Y78000D01*
X189400Y78500D02*X189900Y78000D01*
X187900Y78500D02*X189400D01*
X187400Y79000D02*X187900Y78500D01*
X187400Y79000D02*X187900Y79500D01*
X189400D01*
X189900Y79000D01*
X187400Y78000D02*X187900Y77500D01*
X191100Y80000D02*X191600D01*
X191100Y79000D02*X191600D01*
X192800Y78000D02*X195800Y81000D01*
X197000Y78000D02*X200000Y81000D01*
X201200Y79500D02*Y78000D01*
X201700Y77500D01*
X202200D01*
X202700Y78000D01*
Y79500D02*Y78000D01*
X203200Y77500D01*
X203700D01*
X204200Y78000D01*
Y79500D02*Y78000D01*
X205400Y79500D02*Y78000D01*
X205900Y77500D01*
X206400D01*
X206900Y78000D01*
Y79500D02*Y78000D01*
X207400Y77500D01*
X207900D01*
X208400Y78000D01*
Y79500D02*Y78000D01*
X209600Y79500D02*Y78000D01*
X210100Y77500D01*
X210600D01*
X211100Y78000D01*
Y79500D02*Y78000D01*
X211600Y77500D01*
X212100D01*
X212600Y78000D01*
Y79500D02*Y78000D01*
X213800Y77500D02*X214300D01*
X215500Y80500D02*Y80000D01*
Y79000D02*Y77500D01*
X218000Y79500D02*X218500Y79000D01*
X217000Y79500D02*X218000D01*
X216500Y79000D02*X217000Y79500D01*
X216500Y79000D02*Y78000D01*
X217000Y77500D01*
X218500Y79500D02*Y78000D01*
X219000Y77500D01*
X217000D02*X218000D01*
X218500Y78000D01*
X220700Y77500D02*X222200D01*
X222700Y78000D01*
X222200Y78500D02*X222700Y78000D01*
X220700Y78500D02*X222200D01*
X220200Y79000D02*X220700Y78500D01*
X220200Y79000D02*X220700Y79500D01*
X222200D01*
X222700Y79000D01*
X220200Y78000D02*X220700Y77500D01*
X224400Y79500D02*X225900D01*
X223900Y79000D02*X224400Y79500D01*
X223900Y79000D02*Y78000D01*
X224400Y77500D01*
X225900D01*
X228600Y79500D02*X229100Y79000D01*
X227600Y79500D02*X228600D01*
X227100Y79000D02*X227600Y79500D01*
X227100Y79000D02*Y78000D01*
X227600Y77500D01*
X229100Y79500D02*Y78000D01*
X229600Y77500D01*
X227600D02*X228600D01*
X229100Y78000D01*
X230800Y81500D02*Y78000D01*
X231300Y77500D01*
X232800D02*X234300D01*
X232300Y78000D02*X232800Y77500D01*
X232300Y79000D02*Y78000D01*
Y79000D02*X232800Y79500D01*
X233800D01*
X234300Y79000D01*
X232300Y78500D02*X234300D01*
Y79000D02*Y78500D01*
X237500Y81500D02*Y77500D01*
X237000D02*X237500Y78000D01*
X236000Y77500D02*X237000D01*
X235500Y78000D02*X236000Y77500D01*
X235500Y79000D02*Y78000D01*
Y79000D02*X236000Y79500D01*
X237000D01*
X237500Y79000D01*
X238700Y77500D02*X239200D01*
X240900Y79500D02*X242400D01*
X240400Y79000D02*X240900Y79500D01*
X240400Y79000D02*Y78000D01*
X240900Y77500D01*
X242400D01*
X243600Y79000D02*Y78000D01*
Y79000D02*X244100Y79500D01*
X245100D01*
X245600Y79000D01*
Y78000D01*
X245100Y77500D02*X245600Y78000D01*
X244100Y77500D02*X245100D01*
X243600Y78000D02*X244100Y77500D01*
X247300Y79000D02*Y77500D01*
Y79000D02*X247800Y79500D01*
X248300D01*
X248800Y79000D01*
Y77500D01*
Y79000D02*X249300Y79500D01*
X249800D01*
X250300Y79000D01*
Y77500D01*
X246800Y79500D02*X247300Y79000D01*
G54D71*X349564Y262755D02*X350350D01*
X349564Y257245D02*X350350D01*
X371500Y251600D02*Y235400D01*
X349500Y251600D02*Y235400D01*
Y251600D02*X371500D01*
X349500Y235400D02*X371500D01*
X248521Y182755D02*X249307D01*
X248521Y177245D02*X249307D01*
X243374Y199771D02*Y187173D01*
Y199771D02*X263060D01*
Y187173D01*
X243374D02*X263060D01*
X241874Y185173D02*G75*G03X241874Y185173I0J500D01*G01*
X259701Y167890D02*X272299D01*
Y154110D01*
X259701D01*
Y167890D01*
X283115Y217285D02*X318785D01*
Y178715D01*
X280215D02*X318785D01*
X280215Y214385D02*Y178715D01*
Y214385D02*X283115Y217285D01*
X282115Y214385D02*G75*G03X282115Y214385I1000J0D01*G01*
X336245Y194893D02*Y194107D01*
X341755Y194893D02*Y194107D01*
X265745Y228393D02*Y227607D01*
X271255Y228393D02*Y227607D01*
X341755Y210393D02*Y209607D01*
X336245Y210393D02*Y209607D01*
X321107Y240755D02*X321893D01*
X321107Y235245D02*X321893D01*
X356607Y162745D02*X357393D01*
X356607Y168255D02*X357393D01*
X360245Y205393D02*Y204607D01*
X365755Y205393D02*Y204607D01*
X363255Y184393D02*Y183607D01*
X357745Y184393D02*Y183607D01*
X369401Y164910D02*X381999D01*
X369401Y178690D02*Y164910D01*
Y178690D02*X381999D01*
Y164910D01*
X369401Y184510D02*X381999D01*
X369401Y198290D02*Y184510D01*
Y198290D02*X381999D01*
Y184510D01*
X53607Y65745D02*X54393D01*
X53607Y71255D02*X54393D01*
X50400Y88800D02*X64300D01*
X50400D02*Y77000D01*
X64300D01*
Y88800D02*Y77000D01*
X92126Y7189D02*X107874D01*
X88189Y22937D02*Y15063D01*
X92126Y30811D02*X107874D01*
X111811Y22937D02*Y15063D01*
X121500Y135000D02*Y116000D01*
X90500Y135000D02*X121500D01*
X90500D02*Y116000D01*
X108500D02*X121500D01*
X90500D02*X103500D01*
X108500D02*G75*G03X103500Y116000I-2500J0D01*G01*
X83755Y141893D02*Y141107D01*
X78245Y141893D02*Y141107D01*
X9700Y120000D02*Y80000D01*
X39700Y120000D02*Y80000D01*
X35300Y120000D02*Y80000D01*
X9700Y120000D02*X39700D01*
X9700Y80000D02*X39700D01*
X37008Y174492D02*Y167996D01*
Y155004D02*Y148508D01*
X56496D01*
X37008Y174492D02*X56496D01*
Y148508D02*X62992Y155004D01*
X56496Y174492D02*X62992Y167996D01*
X56000Y171500D02*Y167500D01*
X54000Y169500D02*X58000D01*
X25500Y132900D02*X38500D01*
X25500Y145100D02*X38500D01*
X54400Y134500D02*Y121500D01*
X66600Y134500D02*Y121500D01*
X77500Y205500D02*Y45500D01*
X134500Y205500D02*Y45500D01*
X77500D02*X134500D01*
X77500Y205500D02*X134500D01*
X7245Y163393D02*Y162607D01*
X12755Y163393D02*Y162607D01*
X7245Y183893D02*Y183107D01*
X12755Y183893D02*Y183107D01*
X95107Y249345D02*X95893D01*
X95107Y254855D02*X95893D01*
X76107Y257255D02*X76893D01*
X76107Y251745D02*X76893D01*
X78100Y272000D02*X92000D01*
X78100D02*Y260200D01*
X92000D01*
Y272000D02*Y260200D01*
X87607Y283255D02*X88393D01*
X87607Y277745D02*X88393D01*
X95107Y239445D02*X95893D01*
X95107Y244955D02*X95893D01*
X97550Y283450D02*Y261450D01*
Y283450D02*X119550D01*
X123550Y279450D02*Y257450D01*
X101550D02*X123550D01*
X91992Y213804D02*Y207308D01*
Y233292D02*Y226796D01*
X72504Y233292D02*X91992D01*
X72504Y207308D02*X91992D01*
X72504Y233292D02*X66008Y226796D01*
X72504Y207308D02*X66008Y213804D01*
X73000Y214300D02*Y210300D01*
X71000Y212300D02*X75000D01*
X6745Y202350D02*Y201564D01*
X12255Y202350D02*Y201564D01*
X37008Y203992D02*Y197496D01*
Y184504D02*Y178008D01*
X56496D01*
X37008Y203992D02*X56496D01*
Y178008D02*X62992Y184504D01*
X56496Y203992D02*X62992Y197496D01*
X56000Y201000D02*Y197000D01*
X54000Y199000D02*X58000D01*
X30000Y221500D02*X500D01*
Y255500D01*
X56500D01*
Y250500D01*
X52500Y221500D02*X56500D01*
Y226500D01*
X500Y221500D02*Y255500D01*
X1000Y221500D02*Y255500D01*
X1500Y221500D02*Y255500D01*
X2000Y221500D02*Y255500D01*
X2500Y221500D02*Y255500D01*
X3000Y221500D02*Y255500D01*
X3500Y221500D02*Y255500D01*
X4000Y221500D02*Y255500D01*
X13500Y221500D02*Y255500D01*
X13000Y221500D02*Y255500D01*
X12500Y221500D02*Y255500D01*
X12000Y221500D02*Y255500D01*
X11500Y221500D02*Y255500D01*
X11000Y221500D02*Y255500D01*
X10500Y221500D02*Y255500D01*
X10000Y221500D02*Y255500D01*
X107064Y220255D02*X107850D01*
X107064Y214745D02*X107850D01*
X125107Y220255D02*X125893D01*
X125107Y214745D02*X125893D01*
X158826Y7189D02*X174574D01*
X154889Y22937D02*Y15063D01*
X158826Y30811D02*X174574D01*
X178511Y22937D02*Y15063D01*
X159064Y226255D02*X159850D01*
X159064Y220745D02*X159850D01*
X148360Y266100D02*X168360D01*
X148360Y236100D02*X168360D01*
Y266100D02*Y265100D01*
Y237100D02*Y236100D01*
X148360Y237100D02*Y236100D01*
Y266100D02*Y265100D01*
X146360Y267600D02*G75*G03X146360Y267600I500J0D01*G01*
X198500Y278000D02*X358500D01*
X198500D02*Y268000D01*
X358500D01*
Y278000D02*Y268000D01*
X348500Y278000D02*Y268000D01*
X358500D01*
X248607Y203745D02*X249393D01*
X248607Y209255D02*X249393D01*
X197200Y260800D02*Y246900D01*
X210000D01*
Y260800D01*
X197200D01*
X225426Y7189D02*X241174D01*
X221489Y22937D02*Y15063D01*
X225426Y30811D02*X241174D01*
X245111Y22937D02*Y15063D01*
X292126Y7189D02*X307874D01*
X288189Y22937D02*Y15063D01*
X292126Y30811D02*X307874D01*
X311811Y22937D02*Y15063D01*
X390300Y119500D02*Y79500D01*
X360300Y119500D02*Y79500D01*
X364700Y119500D02*Y79500D01*
X360300D02*X390300D01*
X360300Y119500D02*X390300D01*
X297600Y76600D02*X311500D01*
Y88400D02*Y76600D01*
X297600Y88400D02*X311500D01*
X297600D02*Y76600D01*
X297701Y146759D02*X310299D01*
X297701Y154241D02*Y146759D01*
Y154241D02*X310299D01*
Y146759D01*
X297701Y134390D02*X310299D01*
Y120610D01*
X297701D02*X310299D01*
X297701Y134390D02*Y120610D01*
X390300Y159500D02*Y119500D01*
X360300Y159500D02*Y119500D01*
X364700Y159500D02*Y119500D01*
X360300D02*X390300D01*
X360300Y159500D02*X390300D01*
X340900Y146400D02*Y132500D01*
X352700D01*
Y146400D01*
X340900D01*
G54D72*X392000Y246000D02*X393500D01*
Y242500D01*
X393000Y242000D02*X393500Y242500D01*
X392500Y242000D02*X393000D01*
X392000Y242500D02*X392500Y242000D01*
X394700Y246000D02*X396700D01*
X394700D02*Y244000D01*
X395200Y244500D01*
X396200D01*
X396700Y244000D01*
Y242500D01*
X396200Y242000D02*X396700Y242500D01*
X395200Y242000D02*X396200D01*
X394700Y242500D02*X395200Y242000D01*
X359406Y258418D02*X360906D01*
X358906Y258918D02*X359406Y258418D01*
X358906Y261918D02*Y258918D01*
Y261918D02*X359406Y262418D01*
X360906D01*
X362106Y258918D02*X362606Y258418D01*
X362106Y259918D02*Y258918D01*
Y259918D02*X362606Y260418D01*
X363606D01*
X364106Y259918D01*
Y258918D01*
X363606Y258418D02*X364106Y258918D01*
X362606Y258418D02*X363606D01*
X362106Y260918D02*X362606Y260418D01*
X362106Y261918D02*Y260918D01*
Y261918D02*X362606Y262418D01*
X363606D01*
X364106Y261918D01*
Y260918D01*
X363606Y260418D02*X364106Y260918D01*
X351000Y285000D02*Y281000D01*
X353000D01*
X354700D02*X356200D01*
X354200Y281500D02*X354700Y281000D01*
X354200Y284500D02*Y281500D01*
Y284500D02*X354700Y285000D01*
X356200D01*
X357900D02*Y281000D01*
X359400Y285000D02*X359900Y284500D01*
Y281500D01*
X359400Y281000D02*X359900Y281500D01*
X357400Y281000D02*X359400D01*
X357400Y285000D02*X359400D01*
X361600Y281000D02*X362600D01*
X362100Y285000D02*Y281000D01*
X361100Y284000D02*X362100Y285000D01*
X373500Y248000D02*X375500D01*
X376000Y247500D01*
Y246500D01*
X375500Y246000D02*X376000Y246500D01*
X374000Y246000D02*X375500D01*
X374000Y248000D02*Y244000D01*
Y246000D02*X376000Y244000D01*
X377200Y244500D02*X377700Y244000D01*
X377200Y245500D02*Y244500D01*
Y245500D02*X377700Y246000D01*
X378700D01*
X379200Y245500D01*
Y244500D01*
X378700Y244000D02*X379200Y244500D01*
X377700Y244000D02*X378700D01*
X377200Y246500D02*X377700Y246000D01*
X377200Y247500D02*Y246500D01*
Y247500D02*X377700Y248000D01*
X378700D01*
X379200Y247500D01*
Y246500D01*
X378700Y246000D02*X379200Y246500D01*
X353500Y158500D02*X355000D01*
Y155000D01*
X354500Y154500D02*X355000Y155000D01*
X354000Y154500D02*X354500D01*
X353500Y155000D02*X354000Y154500D01*
X357700Y158500D02*X358200Y158000D01*
X356700Y158500D02*X357700D01*
X356200Y158000D02*X356700Y158500D01*
X356200Y158000D02*Y155000D01*
X356700Y154500D01*
X357700Y156500D02*X358200Y156000D01*
X356200Y156500D02*X357700D01*
X356700Y154500D02*X357700D01*
X358200Y155000D01*
Y156000D02*Y155000D01*
X336486Y182800D02*X337986D01*
X335986Y183300D02*X336486Y182800D01*
X335986Y186300D02*Y183300D01*
Y186300D02*X336486Y186800D01*
X337986D01*
X340686D02*X341186Y186300D01*
X339686Y186800D02*X340686D01*
X339186Y186300D02*X339686Y186800D01*
X339186Y186300D02*Y183300D01*
X339686Y182800D01*
X340686Y184800D02*X341186Y184300D01*
X339186Y184800D02*X340686D01*
X339686Y182800D02*X340686D01*
X341186Y183300D01*
Y184300D02*Y183300D01*
X341721Y163650D02*X343221D01*
X341221Y164150D02*X341721Y163650D01*
X341221Y167150D02*Y164150D01*
Y167150D02*X341721Y167650D01*
X343221D01*
X344921Y163650D02*X345921D01*
X345421Y167650D02*Y163650D01*
X344421Y166650D02*X345421Y167650D01*
X348621D02*X349121Y167150D01*
X347621Y167650D02*X348621D01*
X347121Y167150D02*X347621Y167650D01*
X347121Y167150D02*Y164150D01*
X347621Y163650D01*
X348621Y165650D02*X349121Y165150D01*
X347121Y165650D02*X348621D01*
X347621Y163650D02*X348621D01*
X349121Y164150D01*
Y165150D02*Y164150D01*
X384300Y169500D02*X386300D01*
X386800Y169000D01*
Y168000D01*
X386300Y167500D02*X386800Y168000D01*
X384800Y167500D02*X386300D01*
X384800Y169500D02*Y165500D01*
Y167500D02*X386800Y165500D01*
X389500Y169500D02*X390000Y169000D01*
X388500Y169500D02*X389500D01*
X388000Y169000D02*X388500Y169500D01*
X388000Y169000D02*Y166000D01*
X388500Y165500D01*
X389500Y167500D02*X390000Y167000D01*
X388000Y167500D02*X389500D01*
X388500Y165500D02*X389500D01*
X390000Y166000D01*
Y167000D02*Y166000D01*
X348393Y180650D02*X349893D01*
X347893Y181150D02*X348393Y180650D01*
X347893Y184150D02*Y181150D01*
Y184150D02*X348393Y184650D01*
X349893D01*
X351593Y180650D02*X352593D01*
X352093Y184650D02*Y180650D01*
X351093Y183650D02*X352093Y184650D01*
X353793Y182650D02*X355793Y184650D01*
X353793Y182650D02*X356293D01*
X355793Y184650D02*Y180650D01*
X245500Y211700D02*X247000D01*
X245000Y212200D02*X245500Y211700D01*
X245000Y215200D02*Y212200D01*
Y215200D02*X245500Y215700D01*
X247000D01*
X248700Y211700D02*X249700D01*
X249200Y215700D02*Y211700D01*
X248200Y214700D02*X249200Y215700D01*
X250900Y212200D02*X251400Y211700D01*
X250900Y215200D02*Y212200D01*
Y215200D02*X251400Y215700D01*
X252400D01*
X252900Y215200D01*
Y212200D01*
X252400Y211700D02*X252900Y212200D01*
X251400Y211700D02*X252400D01*
X250900Y212700D02*X252900Y214700D01*
X246786Y170800D02*X248286D01*
X246286Y171300D02*X246786Y170800D01*
X246286Y174300D02*Y171300D01*
Y174300D02*X246786Y174800D01*
X248286D01*
X249486Y170800D02*X251486Y172800D01*
Y174300D02*Y172800D01*
X250986Y174800D02*X251486Y174300D01*
X249986Y174800D02*X250986D01*
X249486Y174300D02*X249986Y174800D01*
X249486Y174300D02*Y173300D01*
X249986Y172800D01*
X251486D01*
X258429Y207283D02*Y206783D01*
X259429Y205783D01*
X260429Y206783D01*
Y207283D02*Y206783D01*
X259429Y205783D02*Y203283D01*
X262129D02*X263129D01*
X262629Y207283D02*Y203283D01*
X261629Y206283D02*X262629Y207283D01*
X257714Y222500D02*X259214D01*
X257214Y223000D02*X257714Y222500D01*
X257214Y226000D02*Y223000D01*
Y226000D02*X257714Y226500D01*
X259214D01*
X260414Y222500D02*X262914Y225000D01*
Y226500D02*Y225000D01*
X260414Y226500D02*X262914D01*
X262700Y173800D02*X264700D01*
X265200Y173300D01*
Y172300D01*
X264700Y171800D02*X265200Y172300D01*
X263200Y171800D02*X264700D01*
X263200Y173800D02*Y169800D01*
Y171800D02*X265200Y169800D01*
X266400Y173300D02*X266900Y173800D01*
X267900D01*
X268400Y173300D01*
Y170300D01*
X267900Y169800D02*X268400Y170300D01*
X266900Y169800D02*X267900D01*
X266400Y170300D02*X266900Y169800D01*
Y171800D02*X268400D01*
X320500Y223000D02*Y219500D01*
X321000Y219000D01*
X322000D01*
X322500Y219500D01*
Y223000D02*Y219500D01*
X323700Y222500D02*X324200Y223000D01*
X325700D01*
X326200Y222500D01*
Y221500D01*
X323700Y219000D02*X326200Y221500D01*
X323700Y219000D02*X326200D01*
X335850Y219650D02*X337350D01*
X335350Y220150D02*X335850Y219650D01*
X335350Y223150D02*Y220150D01*
Y223150D02*X335850Y223650D01*
X337350D01*
X339050Y219650D02*X340050D01*
X339550Y223650D02*Y219650D01*
X338550Y222650D02*X339550Y223650D01*
X341750Y219650D02*X342750D01*
X342250Y223650D02*Y219650D01*
X341250Y222650D02*X342250Y223650D01*
X368893Y203150D02*X370393D01*
X368393Y203650D02*X368893Y203150D01*
X368393Y206650D02*Y203650D01*
Y206650D02*X368893Y207150D01*
X370393D01*
X372093Y203150D02*X373093D01*
X372593Y207150D02*Y203150D01*
X371593Y206150D02*X372593Y207150D01*
X374293D02*X376293D01*
X374293D02*Y205150D01*
X374793Y205650D01*
X375793D01*
X376293Y205150D01*
Y203650D01*
X375793Y203150D02*X376293Y203650D01*
X374793Y203150D02*X375793D01*
X374293Y203650D02*X374793Y203150D01*
X384500Y186700D02*X386500D01*
X387000Y186200D01*
Y185200D01*
X386500Y184700D02*X387000Y185200D01*
X385000Y184700D02*X386500D01*
X385000Y186700D02*Y182700D01*
Y184700D02*X387000Y182700D01*
X388200D02*X390700Y185200D01*
Y186700D02*Y185200D01*
X388200Y186700D02*X390700D01*
X303807Y236150D02*X305307D01*
X303307Y236650D02*X303807Y236150D01*
X303307Y239650D02*Y236650D01*
Y239650D02*X303807Y240150D01*
X305307D01*
X307007Y236150D02*X308007D01*
X307507Y240150D02*Y236150D01*
X306507Y239150D02*X307507Y240150D01*
X309207Y236150D02*X311707Y238650D01*
Y240150D02*Y238650D01*
X309207Y240150D02*X311707D01*
X40500Y66400D02*X42000D01*
X40000Y66900D02*X40500Y66400D01*
X40000Y69900D02*Y66900D01*
Y69900D02*X40500Y70400D01*
X42000D01*
X43200Y68400D02*X45200Y70400D01*
X43200Y68400D02*X45700D01*
X45200Y70400D02*Y66400D01*
X97000Y38500D02*X97500Y38000D01*
X95500Y38500D02*X97000D01*
X95000Y38000D02*X95500Y38500D01*
X95000Y38000D02*Y37000D01*
X95500Y36500D01*
X97000D01*
X97500Y36000D01*
Y35000D01*
X97000Y34500D02*X97500Y35000D01*
X95500Y34500D02*X97000D01*
X95000Y35000D02*X95500Y34500D01*
X98700Y38500D02*Y34500D01*
X100200Y36000D01*
X101700Y34500D01*
Y38500D02*Y34500D01*
X102900Y36500D02*X104900Y38500D01*
X102900Y36500D02*X105400D01*
X104900Y38500D02*Y34500D01*
X136500Y51000D02*Y47000D01*
X139000Y51000D02*Y47000D01*
X136500Y49000D02*X139000D01*
X142200Y51000D02*X142700Y50500D01*
X140700Y51000D02*X142200D01*
X140200Y50500D02*X140700Y51000D01*
X140200Y50500D02*Y49500D01*
X140700Y49000D01*
X142200D01*
X142700Y48500D01*
Y47500D01*
X142200Y47000D02*X142700Y47500D01*
X140700Y47000D02*X142200D01*
X140200Y47500D02*X140700Y47000D01*
X144400D02*X145400D01*
X144900Y51000D02*Y47000D01*
X143900Y50000D02*X144900Y51000D01*
X163500Y38500D02*X164000Y38000D01*
X162000Y38500D02*X163500D01*
X161500Y38000D02*X162000Y38500D01*
X161500Y38000D02*Y37000D01*
X162000Y36500D01*
X163500D01*
X164000Y36000D01*
Y35000D01*
X163500Y34500D02*X164000Y35000D01*
X162000Y34500D02*X163500D01*
X161500Y35000D02*X162000Y34500D01*
X165200Y38500D02*Y34500D01*
X166700Y36000D01*
X168200Y34500D01*
Y38500D02*Y34500D01*
X169400Y38000D02*X169900Y38500D01*
X170900D01*
X171400Y38000D01*
Y35000D01*
X170900Y34500D02*X171400Y35000D01*
X169900Y34500D02*X170900D01*
X169400Y35000D02*X169900Y34500D01*
Y36500D02*X171400D01*
X169657Y221700D02*X171157D01*
X169157Y222200D02*X169657Y221700D01*
X169157Y225200D02*Y222200D01*
Y225200D02*X169657Y225700D01*
X171157D01*
X172357D02*X174357D01*
X172357D02*Y223700D01*
X172857Y224200D01*
X173857D01*
X174357Y223700D01*
Y222200D01*
X173857Y221700D02*X174357Y222200D01*
X172857Y221700D02*X173857D01*
X172357Y222200D02*X172857Y221700D01*
X148900Y232860D02*X150400D01*
Y229360D01*
X149900Y228860D02*X150400Y229360D01*
X149400Y228860D02*X149900D01*
X148900Y229360D02*X149400Y228860D01*
X151600Y232360D02*X152100Y232860D01*
X153100D01*
X153600Y232360D01*
Y229360D01*
X153100Y228860D02*X153600Y229360D01*
X152100Y228860D02*X153100D01*
X151600Y229360D02*X152100Y228860D01*
Y230860D02*X153600D01*
X104914Y250400D02*X106414D01*
X104414Y250900D02*X104914Y250400D01*
X104414Y253900D02*Y250900D01*
Y253900D02*X104914Y254400D01*
X106414D01*
X107614Y253900D02*X108114Y254400D01*
X109614D01*
X110114Y253900D01*
Y252900D01*
X107614Y250400D02*X110114Y252900D01*
X107614Y250400D02*X110114D01*
X104793Y240450D02*X106293D01*
X104293Y240950D02*X104793Y240450D01*
X104293Y243950D02*Y240950D01*
Y243950D02*X104793Y244450D01*
X106293D01*
X107493Y243950D02*X107993Y244450D01*
X109493D01*
X109993Y243950D01*
Y242950D01*
X107493Y240450D02*X109993Y242950D01*
X107493Y240450D02*X109993D01*
X111193Y243950D02*Y240450D01*
Y243950D02*X111693Y244450D01*
X113193D01*
X113693Y243950D01*
Y240450D01*
X111193Y242450D02*X113693D01*
X119050Y255450D02*Y251450D01*
X121050D01*
X122750D02*X123750D01*
X123250Y255450D02*Y251450D01*
X122250Y254450D02*X123250Y255450D01*
X71500Y265000D02*Y261500D01*
X72000Y261000D01*
X73000D01*
X73500Y261500D01*
Y265000D02*Y261500D01*
X75200Y261000D02*X76200D01*
X75700Y265000D02*Y261000D01*
X74700Y264000D02*X75700Y265000D01*
X190500Y260000D02*Y257000D01*
Y260000D02*X191000Y260500D01*
X192000D01*
X192500Y260000D01*
Y257000D01*
X192000Y256500D02*X192500Y257000D01*
X191000Y256500D02*X192000D01*
X190500Y257000D02*X191000Y256500D01*
X191500Y257500D02*X192500Y256500D01*
X194200D02*X195200D01*
X194700Y260500D02*Y256500D01*
X193700Y259500D02*X194700Y260500D01*
X68500Y235500D02*X70000D01*
X68000Y236000D02*X68500Y235500D01*
X68000Y239000D02*Y236000D01*
Y239000D02*X68500Y239500D01*
X70000D01*
X71700Y235500D02*X72700D01*
X72200Y239500D02*Y235500D01*
X71200Y238500D02*X72200Y239500D01*
X66550Y245507D02*X68050D01*
X66050Y246007D02*X66550Y245507D01*
X66050Y249007D02*Y246007D01*
Y249007D02*X66550Y249507D01*
X68050D01*
X69750Y245507D02*X70750D01*
X70250Y249507D02*Y245507D01*
X69250Y248507D02*X70250Y249507D01*
X71950Y249007D02*X72450Y249507D01*
X73950D01*
X74450Y249007D01*
Y248007D01*
X71950Y245507D02*X74450Y248007D01*
X71950Y245507D02*X74450D01*
X51000Y262000D02*X52500D01*
Y258500D01*
X52000Y258000D02*X52500Y258500D01*
X51500Y258000D02*X52000D01*
X51000Y258500D02*X51500Y258000D01*
X54200D02*X55200D01*
X54700Y262000D02*Y258000D01*
X53700Y261000D02*X54700Y262000D01*
X72307Y278150D02*X73807D01*
X71807Y278650D02*X72307Y278150D01*
X71807Y281650D02*Y278650D01*
Y281650D02*X72307Y282150D01*
X73807D01*
X75507Y278150D02*X76507D01*
X76007Y282150D02*Y278150D01*
X75007Y281150D02*X76007Y282150D01*
X77707Y281650D02*X78207Y282150D01*
X79207D01*
X79707Y281650D01*
Y278650D01*
X79207Y278150D02*X79707Y278650D01*
X78207Y278150D02*X79207D01*
X77707Y278650D02*X78207Y278150D01*
Y280150D02*X79707D01*
X104807Y212150D02*X106807D01*
X107307Y211650D01*
Y210650D01*
X106807Y210150D02*X107307Y210650D01*
X105307Y210150D02*X106807D01*
X105307Y212150D02*Y208150D01*
Y210150D02*X107307Y208150D01*
X109007D02*X110007D01*
X109507Y212150D02*Y208150D01*
X108507Y211150D02*X109507Y212150D01*
X122936Y212650D02*Y208650D01*
X124436Y212650D02*X124936Y212150D01*
Y209150D01*
X124436Y208650D02*X124936Y209150D01*
X122436Y208650D02*X124436D01*
X122436Y212650D02*X124436D01*
X126636Y208650D02*X127636D01*
X127136Y212650D02*Y208650D01*
X126136Y211650D02*X127136Y212650D01*
X7000Y214957D02*Y210957D01*
X8500Y214957D02*X9000Y214457D01*
Y211457D01*
X8500Y210957D02*X9000Y211457D01*
X6500Y210957D02*X8500D01*
X6500Y214957D02*X8500D01*
X10200Y214457D02*X10700Y214957D01*
X11700D01*
X12200Y214457D01*
Y211457D01*
X11700Y210957D02*X12200Y211457D01*
X10700Y210957D02*X11700D01*
X10200Y211457D02*X10700Y210957D01*
Y212957D02*X12200D01*
X26500Y170000D02*X28000D01*
X26000Y170500D02*X26500Y170000D01*
X26000Y173500D02*Y170500D01*
Y173500D02*X26500Y174000D01*
X28000D01*
X29700Y170000D02*X30700D01*
X30200Y174000D02*Y170000D01*
X29200Y173000D02*X30200Y174000D01*
X31900Y170000D02*X33900D01*
X34400Y170500D01*
Y171500D02*Y170500D01*
X33900Y172000D02*X34400Y171500D01*
X32400Y172000D02*X33900D01*
X32400Y174000D02*Y170000D01*
X31900Y174000D02*X33900D01*
X34400Y173500D01*
Y172500D01*
X33900Y172000D02*X34400Y172500D01*
X26000Y200000D02*X27500D01*
X25500Y200500D02*X26000Y200000D01*
X25500Y203500D02*Y200500D01*
Y203500D02*X26000Y204000D01*
X27500D01*
X29200Y200000D02*X30200D01*
X29700Y204000D02*Y200000D01*
X28700Y203000D02*X29700Y204000D01*
X31400Y203500D02*Y200000D01*
Y203500D02*X31900Y204000D01*
X33400D01*
X33900Y203500D01*
Y200000D01*
X31400Y202000D02*X33900D01*
X7500Y175400D02*Y171400D01*
X9000Y175400D02*X9500Y174900D01*
Y171900D01*
X9000Y171400D02*X9500Y171900D01*
X7000Y171400D02*X9000D01*
X7000Y175400D02*X9000D01*
X10700Y174900D02*X11200Y175400D01*
X12700D01*
X13200Y174900D01*
Y173900D01*
X10700Y171400D02*X13200Y173900D01*
X10700Y171400D02*X13200D01*
X90100Y143000D02*X91600D01*
X89600Y143500D02*X90100Y143000D01*
X89600Y146500D02*Y143500D01*
Y146500D02*X90100Y147000D01*
X91600D01*
X92800Y146500D02*X93300Y147000D01*
X94300D01*
X94800Y146500D01*
Y143500D01*
X94300Y143000D02*X94800Y143500D01*
X93300Y143000D02*X94300D01*
X92800Y143500D02*X93300Y143000D01*
Y145000D02*X94800D01*
X33500Y77000D02*X35000D01*
Y73500D01*
X34500Y73000D02*X35000Y73500D01*
X34000Y73000D02*X34500D01*
X33500Y73500D02*X34000Y73000D01*
X36200Y76500D02*X36700Y77000D01*
X38200D01*
X38700Y76500D01*
Y75500D01*
X36200Y73000D02*X38700Y75500D01*
X36200Y73000D02*X38700D01*
X88000Y110000D02*Y106500D01*
X88500Y106000D01*
X89500D01*
X90000Y106500D01*
Y110000D02*Y106500D01*
X91200Y109500D02*X91700Y110000D01*
X92700D01*
X93200Y109500D01*
Y106500D01*
X92700Y106000D02*X93200Y106500D01*
X91700Y106000D02*X92700D01*
X91200Y106500D02*X91700Y106000D01*
Y108000D02*X93200D01*
X66800Y84900D02*Y81400D01*
X67300Y80900D01*
X68300D01*
X68800Y81400D01*
Y84900D02*Y81400D01*
X70000Y84900D02*X72000D01*
X70000D02*Y82900D01*
X70500Y83400D01*
X71500D01*
X72000Y82900D01*
Y81400D01*
X71500Y80900D02*X72000Y81400D01*
X70500Y80900D02*X71500D01*
X70000Y81400D02*X70500Y80900D01*
X45850Y128150D02*X47850D01*
X48350Y127650D01*
Y126650D01*
X47850Y126150D02*X48350Y126650D01*
X46350Y126150D02*X47850D01*
X46350Y128150D02*Y124150D01*
Y126150D02*X48350Y124150D01*
X49550Y126150D02*X51550Y128150D01*
X49550Y126150D02*X52050D01*
X51550Y128150D02*Y124150D01*
X28850Y130150D02*X30850D01*
X31350Y129650D01*
Y128650D01*
X30850Y128150D02*X31350Y128650D01*
X29350Y128150D02*X30850D01*
X29350Y130150D02*Y126150D01*
Y128150D02*X31350Y126150D01*
X32550D02*X34550Y128150D01*
Y129650D02*Y128150D01*
X34050Y130150D02*X34550Y129650D01*
X33050Y130150D02*X34050D01*
X32550Y129650D02*X33050Y130150D01*
X32550Y129650D02*Y128650D01*
X33050Y128150D01*
X34550D01*
X15264Y166193D02*X17264D01*
X17764Y165693D01*
Y164693D01*
X17264Y164193D02*X17764Y164693D01*
X15764Y164193D02*X17264D01*
X15764Y166193D02*Y162193D01*
Y164193D02*X17764Y162193D01*
X19464D02*X20464D01*
X19964Y166193D02*Y162193D01*
X18964Y165193D02*X19964Y166193D01*
X21664Y162693D02*X22164Y162193D01*
X21664Y165693D02*Y162693D01*
Y165693D02*X22164Y166193D01*
X23164D01*
X23664Y165693D01*
Y162693D01*
X23164Y162193D02*X23664Y162693D01*
X22164Y162193D02*X23164D01*
X21664Y163193D02*X23664Y165193D01*
X230500Y38500D02*X231000Y38000D01*
X229000Y38500D02*X230500D01*
X228500Y38000D02*X229000Y38500D01*
X228500Y38000D02*Y37000D01*
X229000Y36500D01*
X230500D01*
X231000Y36000D01*
Y35000D01*
X230500Y34500D02*X231000Y35000D01*
X229000Y34500D02*X230500D01*
X228500Y35000D02*X229000Y34500D01*
X232200Y38500D02*Y34500D01*
X233700Y36000D01*
X235200Y34500D01*
Y38500D02*Y34500D01*
X236400Y38000D02*X236900Y38500D01*
X238400D01*
X238900Y38000D01*
Y37000D01*
X236400Y34500D02*X238900Y37000D01*
X236400Y34500D02*X238900D01*
X297000Y38500D02*X297500Y38000D01*
X295500Y38500D02*X297000D01*
X295000Y38000D02*X295500Y38500D01*
X295000Y38000D02*Y37000D01*
X295500Y36500D01*
X297000D01*
X297500Y36000D01*
Y35000D01*
X297000Y34500D02*X297500Y35000D01*
X295500Y34500D02*X297000D01*
X295000Y35000D02*X295500Y34500D01*
X298700Y38500D02*Y34500D01*
X300200Y36000D01*
X301700Y34500D01*
Y38500D02*Y34500D01*
X303400D02*X304400D01*
X303900Y38500D02*Y34500D01*
X302900Y37500D02*X303900Y38500D01*
X289177Y152373D02*X291177D01*
X291677Y151873D01*
Y150873D01*
X291177Y150373D02*X291677Y150873D01*
X289677Y150373D02*X291177D01*
X289677Y152373D02*Y148373D01*
Y150373D02*X291677Y148373D01*
X292877Y152373D02*X294877D01*
X292877D02*Y150373D01*
X293377Y150873D01*
X294377D01*
X294877Y150373D01*
Y148873D01*
X294377Y148373D02*X294877Y148873D01*
X293377Y148373D02*X294377D01*
X292877Y148873D02*X293377Y148373D01*
X289200Y130600D02*X291200D01*
X291700Y130100D01*
Y129100D01*
X291200Y128600D02*X291700Y129100D01*
X289700Y128600D02*X291200D01*
X289700Y130600D02*Y126600D01*
Y128600D02*X291700Y126600D01*
X292900Y130100D02*X293400Y130600D01*
X294900D01*
X295400Y130100D01*
Y129100D01*
X292900Y126600D02*X295400Y129100D01*
X292900Y126600D02*X295400D01*
X353500Y118000D02*X355000D01*
Y114500D01*
X354500Y114000D02*X355000Y114500D01*
X354000Y114000D02*X354500D01*
X353500Y114500D02*X354000Y114000D01*
X356200Y116000D02*X358200Y118000D01*
X356200Y116000D02*X358700D01*
X358200Y118000D02*Y114000D01*
X302000Y94500D02*Y91000D01*
X302500Y90500D01*
X303500D01*
X304000Y91000D01*
Y94500D02*Y91000D01*
X305200Y92500D02*X307200Y94500D01*
X305200Y92500D02*X307700D01*
X307200Y94500D02*Y90500D01*
X337600Y129900D02*Y126400D01*
X338100Y125900D01*
X339100D01*
X339600Y126400D01*
Y129900D02*Y126400D01*
X342300Y129900D02*X342800Y129400D01*
X341300Y129900D02*X342300D01*
X340800Y129400D02*X341300Y129900D01*
X340800Y129400D02*Y126400D01*
X341300Y125900D01*
X342300Y127900D02*X342800Y127400D01*
X340800Y127900D02*X342300D01*
X341300Y125900D02*X342300D01*
X342800Y126400D01*
Y127400D02*Y126400D01*
M02*
