G04 start of page 10 for group -4015 idx -4015 *
G04 Title: (unknown), toppaste *
G04 Creator: pcb 4.0.2 *
G04 CreationDate: Thu Jul  2 20:29:44 2020 UTC *
G04 For: ndholmes *
G04 Format: Gerber/RS-274X *
G04 PCB-Dimensions (mil): 4000.00 2900.00 *
G04 PCB-Coordinate-Origin: lower left *
%MOIN*%
%FSLAX25Y25*%
%LNTOPPASTE*%
%ADD75C,0.0001*%
G54D75*G36*
X305576Y149762D02*Y148088D01*
X309120D01*
Y149762D01*
X305576D01*
G37*
G36*
Y152912D02*Y151238D01*
X309120D01*
Y152912D01*
X305576D01*
G37*
G36*
X298880D02*Y151238D01*
X302424D01*
Y152912D01*
X298880D01*
G37*
G36*
Y149762D02*Y148088D01*
X302424D01*
Y149762D01*
X298880D01*
G37*
G36*
X376749Y213375D02*Y211013D01*
X382851D01*
Y213375D01*
X376749D01*
G37*
G36*
Y217312D02*Y214950D01*
X382851D01*
Y217312D01*
X376749D01*
G37*
G36*
Y221250D02*Y218888D01*
X382851D01*
Y221250D01*
X376749D01*
G37*
G36*
Y225187D02*Y222825D01*
X382851D01*
Y225187D01*
X376749D01*
G37*
G36*
X391513Y209438D02*Y204714D01*
X398599D01*
Y209438D01*
X391513D01*
G37*
G36*
Y231486D02*Y226762D01*
X398599D01*
Y231486D01*
X391513D01*
G37*
G36*
X78048Y147602D02*Y142484D01*
X83952D01*
Y147602D01*
X78048D01*
G37*
G36*
Y140516D02*Y135398D01*
X83952D01*
Y140516D01*
X78048D01*
G37*
G36*
X298880Y133060D02*Y131388D01*
X302424D01*
Y133060D01*
X298880D01*
G37*
G36*
Y129912D02*Y128238D01*
X302424D01*
Y129912D01*
X298880D01*
G37*
G36*
Y126762D02*Y125088D01*
X302424D01*
Y126762D01*
X298880D01*
G37*
G36*
Y123612D02*Y121940D01*
X302424D01*
Y123612D01*
X298880D01*
G37*
G36*
X305576D02*Y121940D01*
X309120D01*
Y123612D01*
X305576D01*
G37*
G36*
Y126762D02*Y125088D01*
X309120D01*
Y126762D01*
X305576D01*
G37*
G36*
Y129912D02*Y128238D01*
X309120D01*
Y129912D01*
X305576D01*
G37*
G36*
Y133060D02*Y131388D01*
X309120D01*
Y133060D01*
X305576D01*
G37*
G36*
X348973Y262952D02*X343855D01*
Y257048D01*
X348973D01*
Y262952D01*
G37*
G36*
X356059D02*X350941D01*
Y257048D01*
X356059D01*
Y262952D01*
G37*
G36*
X62858Y223450D02*Y217150D01*
X75457D01*
Y223450D01*
X62858D01*
G37*
G36*
X82543D02*Y217150D01*
X95142D01*
Y223450D01*
X82543D01*
G37*
G36*
X158473Y226452D02*X153355D01*
Y220548D01*
X158473D01*
Y226452D01*
G37*
G36*
X165559D02*X160441D01*
Y220548D01*
X165559D01*
Y226452D01*
G37*
G36*
X60102Y71452D02*X54984D01*
Y65548D01*
X60102D01*
Y71452D01*
G37*
G36*
X53016D02*X47898D01*
Y65548D01*
X53016D01*
Y71452D01*
G37*
G36*
X369900Y241950D02*X365200D01*
Y237249D01*
X369900D01*
Y241950D01*
G37*
G36*
Y249751D02*X365200D01*
Y245050D01*
X369900D01*
Y249751D01*
G37*
G36*
X357900Y246651D02*X351600D01*
Y240350D01*
X357900D01*
Y246651D01*
G37*
G36*
X142376Y263600D02*Y258600D01*
X156864D01*
Y263600D01*
X142376D01*
G37*
G36*
Y253600D02*Y248600D01*
X156864D01*
Y253600D01*
X142376D01*
G37*
G36*
Y243600D02*Y238600D01*
X156864D01*
Y243600D01*
X142376D01*
G37*
G36*
X159856D02*Y238600D01*
X174344D01*
Y243600D01*
X159856D01*
G37*
G36*
Y253600D02*Y248600D01*
X174344D01*
Y253600D01*
X159856D01*
G37*
G36*
Y263600D02*Y258600D01*
X174344D01*
Y263600D01*
X159856D01*
G37*
G36*
X101602Y255052D02*X96484D01*
Y249148D01*
X101602D01*
Y255052D01*
G37*
G36*
X94516D02*X89398D01*
Y249148D01*
X94516D01*
Y255052D01*
G37*
G36*
X75516Y257452D02*X70398D01*
Y251548D01*
X75516D01*
Y257452D01*
G37*
G36*
X82602D02*X77484D01*
Y251548D01*
X82602D01*
Y257452D01*
G37*
G36*
X79000Y271200D02*Y268800D01*
X83000D01*
Y271200D01*
X79000D01*
G37*
G36*
Y267300D02*Y264900D01*
X83000D01*
Y267300D01*
X79000D01*
G37*
G36*
Y263400D02*Y261000D01*
X83000D01*
Y263400D01*
X79000D01*
G37*
G36*
X87200D02*Y261000D01*
X91200D01*
Y263400D01*
X87200D01*
G37*
G36*
Y267300D02*Y264900D01*
X91200D01*
Y267300D01*
X87200D01*
G37*
G36*
Y271200D02*Y268800D01*
X91200D01*
Y271200D01*
X87200D01*
G37*
G36*
X101602Y245152D02*X96484D01*
Y239248D01*
X101602D01*
Y245152D01*
G37*
G36*
X94516D02*X89398D01*
Y239248D01*
X94516D01*
Y245152D01*
G37*
G36*
X101000Y282300D02*X98700D01*
Y258600D01*
X101000D01*
Y282300D01*
G37*
G36*
X98700Y260900D02*Y258600D01*
X106600D01*
Y260900D01*
X98700D01*
G37*
G36*
Y282300D02*Y280000D01*
X106600D01*
Y282300D01*
X98700D01*
G37*
G36*
X122400D02*X120100D01*
Y258600D01*
X122400D01*
Y282300D01*
G37*
G36*
X114500Y260900D02*Y258600D01*
X122400D01*
Y260900D01*
X114500D01*
G37*
G36*
Y282300D02*Y280000D01*
X122400D01*
Y282300D01*
X114500D01*
G37*
G36*
X101000Y266494D02*X98879Y264373D01*
X104473Y258779D01*
X106594Y260900D01*
X101000Y266494D01*
G37*
G36*
X106594Y280000D02*X104473Y282121D01*
X98879Y276527D01*
X101000Y274406D01*
X106594Y280000D01*
G37*
G36*
X122221Y264373D02*X120100Y266494D01*
X114506Y260900D01*
X116627Y258779D01*
X122221Y264373D01*
G37*
G36*
X116627Y282121D02*X114506Y280000D01*
X120100Y274406D01*
X122221Y276527D01*
X116627Y282121D01*
G37*
G36*
X99200Y262700D02*Y259100D01*
X102800D01*
Y262700D01*
X99200D01*
G37*
G36*
Y281800D02*Y278200D01*
X102800D01*
Y281800D01*
X99200D01*
G37*
G36*
X118300Y262700D02*Y259100D01*
X121900D01*
Y262700D01*
X118300D01*
G37*
G36*
Y281800D02*Y278200D01*
X121900D01*
Y281800D01*
X118300D01*
G37*
G36*
X6548Y200973D02*Y195855D01*
X12452D01*
Y200973D01*
X6548D01*
G37*
G36*
Y208059D02*Y202941D01*
X12452D01*
Y208059D01*
X6548D01*
G37*
G36*
X87016Y283452D02*X81898D01*
Y277548D01*
X87016D01*
Y283452D01*
G37*
G36*
X94102D02*X88984D01*
Y277548D01*
X94102D01*
Y283452D01*
G37*
G36*
X53543Y164650D02*Y158350D01*
X66142D01*
Y164650D01*
X53543D01*
G37*
G36*
X33858D02*Y158350D01*
X46457D01*
Y164650D01*
X33858D01*
G37*
G36*
X53543Y194150D02*Y187850D01*
X66142D01*
Y194150D01*
X53543D01*
G37*
G36*
X33858D02*Y187850D01*
X46457D01*
Y194150D01*
X33858D01*
G37*
G36*
X112000Y119000D02*Y117000D01*
X120500D01*
Y119000D01*
X112000D01*
G37*
G36*
Y124000D02*Y122000D01*
X120500D01*
Y124000D01*
X112000D01*
G37*
G36*
Y129000D02*Y127000D01*
X120500D01*
Y129000D01*
X112000D01*
G37*
G36*
Y134000D02*Y132000D01*
X120500D01*
Y134000D01*
X112000D01*
G37*
G36*
X91500D02*Y132000D01*
X100000D01*
Y134000D01*
X91500D01*
G37*
G36*
Y129000D02*Y127000D01*
X100000D01*
Y129000D01*
X91500D01*
G37*
G36*
Y124000D02*Y122000D01*
X100000D01*
Y124000D01*
X91500D01*
G37*
G36*
Y119000D02*Y117000D01*
X100000D01*
Y119000D01*
X91500D01*
G37*
G36*
X109250Y129830D02*X102750D01*
Y121170D01*
X109250D01*
Y129830D01*
G37*
G36*
X110725Y131605D02*X101275D01*
Y119395D01*
X110725D01*
Y131605D01*
G37*
G36*
X106473Y220452D02*X101355D01*
Y214548D01*
X106473D01*
Y220452D01*
G37*
G36*
X113559D02*X108441D01*
Y214548D01*
X113559D01*
Y220452D01*
G37*
G36*
X51300Y88000D02*Y85600D01*
X55300D01*
Y88000D01*
X51300D01*
G37*
G36*
Y80200D02*Y77800D01*
X55300D01*
Y80200D01*
X51300D01*
G37*
G36*
X59500D02*Y77800D01*
X63500D01*
Y80200D01*
X59500D01*
G37*
G36*
Y84100D02*Y81700D01*
X63500D01*
Y84100D01*
X59500D01*
G37*
G36*
Y88000D02*Y85600D01*
X63500D01*
Y88000D01*
X59500D01*
G37*
G36*
X124516Y220452D02*X119398D01*
Y214548D01*
X124516D01*
Y220452D01*
G37*
G36*
X131602D02*X126484D01*
Y214548D01*
X131602D01*
Y220452D01*
G37*
G36*
X46568Y145300D02*X39481D01*
Y132700D01*
X46568D01*
Y145300D01*
G37*
G36*
X24519D02*X17432D01*
Y132700D01*
X24519D01*
Y145300D01*
G37*
G36*
X80000Y90130D02*Y82130D01*
X132000D01*
Y90130D01*
X80000D01*
G37*
G36*
Y168870D02*Y160870D01*
X132000D01*
Y168870D01*
X80000D01*
G37*
G36*
X54200Y120519D02*Y113432D01*
X66800D01*
Y120519D01*
X54200D01*
G37*
G36*
Y142568D02*Y135481D01*
X66800D01*
Y142568D01*
X54200D01*
G37*
G36*
X7048Y162016D02*Y156898D01*
X12952D01*
Y162016D01*
X7048D01*
G37*
G36*
Y169102D02*Y163984D01*
X12952D01*
Y169102D01*
X7048D01*
G37*
G36*
X255102Y209452D02*X249984D01*
Y203548D01*
X255102D01*
Y209452D01*
G37*
G36*
X248016D02*X242898D01*
Y203548D01*
X248016D01*
Y209452D01*
G37*
G36*
X247930Y182952D02*X242812D01*
Y177048D01*
X247930D01*
Y182952D01*
G37*
G36*
X255016D02*X249898D01*
Y177048D01*
X255016D01*
Y182952D01*
G37*
G36*
X271815Y214535D02*Y212961D01*
X277815D01*
Y214535D01*
X271815D01*
G37*
G36*
Y211386D02*Y209812D01*
X277815D01*
Y211386D01*
X271815D01*
G37*
G36*
Y208236D02*Y206662D01*
X277815D01*
Y208236D01*
X271815D01*
G37*
G36*
Y205087D02*Y203513D01*
X277815D01*
Y205087D01*
X271815D01*
G37*
G36*
Y201937D02*Y200363D01*
X277815D01*
Y201937D01*
X271815D01*
G37*
G36*
Y198787D02*Y197213D01*
X277815D01*
Y198787D01*
X271815D01*
G37*
G36*
Y195638D02*Y194064D01*
X277815D01*
Y195638D01*
X271815D01*
G37*
G36*
Y192488D02*Y190914D01*
X277815D01*
Y192488D01*
X271815D01*
G37*
G36*
Y189339D02*Y187765D01*
X277815D01*
Y189339D01*
X271815D01*
G37*
G36*
Y186189D02*Y184615D01*
X277815D01*
Y186189D01*
X271815D01*
G37*
G36*
Y183039D02*Y181465D01*
X277815D01*
Y183039D01*
X271815D01*
G37*
G36*
X284539Y176315D02*X282965D01*
Y170315D01*
X284539D01*
Y176315D01*
G37*
G36*
X287688D02*X286114D01*
Y170315D01*
X287688D01*
Y176315D01*
G37*
G36*
X290838D02*X289264D01*
Y170315D01*
X290838D01*
Y176315D01*
G37*
G36*
X293987D02*X292413D01*
Y170315D01*
X293987D01*
Y176315D01*
G37*
G36*
X297137D02*X295563D01*
Y170315D01*
X297137D01*
Y176315D01*
G37*
G36*
X300287D02*X298713D01*
Y170315D01*
X300287D01*
Y176315D01*
G37*
G36*
X303436D02*X301862D01*
Y170315D01*
X303436D01*
Y176315D01*
G37*
G36*
X306586D02*X305012D01*
Y170315D01*
X306586D01*
Y176315D01*
G37*
G36*
X309735D02*X308161D01*
Y170315D01*
X309735D01*
Y176315D01*
G37*
G36*
X312885D02*X311311D01*
Y170315D01*
X312885D01*
Y176315D01*
G37*
G36*
X316035D02*X314461D01*
Y170315D01*
X316035D01*
Y176315D01*
G37*
G36*
X321185Y183039D02*Y181465D01*
X327185D01*
Y183039D01*
X321185D01*
G37*
G36*
Y186188D02*Y184614D01*
X327185D01*
Y186188D01*
X321185D01*
G37*
G36*
Y189338D02*Y187764D01*
X327185D01*
Y189338D01*
X321185D01*
G37*
G36*
Y192487D02*Y190913D01*
X327185D01*
Y192487D01*
X321185D01*
G37*
G36*
Y195637D02*Y194063D01*
X327185D01*
Y195637D01*
X321185D01*
G37*
G36*
Y198787D02*Y197213D01*
X327185D01*
Y198787D01*
X321185D01*
G37*
G36*
Y201936D02*Y200362D01*
X327185D01*
Y201936D01*
X321185D01*
G37*
G36*
Y205086D02*Y203512D01*
X327185D01*
Y205086D01*
X321185D01*
G37*
G36*
Y208235D02*Y206661D01*
X327185D01*
Y208235D01*
X321185D01*
G37*
G36*
Y211385D02*Y209811D01*
X327185D01*
Y211385D01*
X321185D01*
G37*
G36*
Y214535D02*Y212961D01*
X327185D01*
Y214535D01*
X321185D01*
G37*
G36*
X316035Y225685D02*X314461D01*
Y219685D01*
X316035D01*
Y225685D01*
G37*
G36*
X312886D02*X311312D01*
Y219685D01*
X312886D01*
Y225685D01*
G37*
G36*
X309736D02*X308162D01*
Y219685D01*
X309736D01*
Y225685D01*
G37*
G36*
X306587D02*X305013D01*
Y219685D01*
X306587D01*
Y225685D01*
G37*
G36*
X303437D02*X301863D01*
Y219685D01*
X303437D01*
Y225685D01*
G37*
G36*
X300287D02*X298713D01*
Y219685D01*
X300287D01*
Y225685D01*
G37*
G36*
X297138D02*X295564D01*
Y219685D01*
X297138D01*
Y225685D01*
G37*
G36*
X293988D02*X292414D01*
Y219685D01*
X293988D01*
Y225685D01*
G37*
G36*
X290839D02*X289265D01*
Y219685D01*
X290839D01*
Y225685D01*
G37*
G36*
X287689D02*X286115D01*
Y219685D01*
X287689D01*
Y225685D01*
G37*
G36*
X284539D02*X282965D01*
Y219685D01*
X284539D01*
Y225685D01*
G37*
G36*
X241997Y191503D02*Y186385D01*
X249870D01*
Y191503D01*
X241997D01*
G37*
G36*
X256564D02*Y186385D01*
X264437D01*
Y191503D01*
X256564D01*
G37*
G36*
Y200559D02*Y195441D01*
X264437D01*
Y200559D01*
X256564D01*
G37*
G36*
X241997D02*Y195441D01*
X249870D01*
Y200559D01*
X241997D01*
G37*
G36*
X336048Y193516D02*Y188398D01*
X341952D01*
Y193516D01*
X336048D01*
G37*
G36*
Y200602D02*Y195484D01*
X341952D01*
Y200602D01*
X336048D01*
G37*
G36*
X265548Y227016D02*Y221898D01*
X271452D01*
Y227016D01*
X265548D01*
G37*
G36*
Y234102D02*Y228984D01*
X271452D01*
Y234102D01*
X265548D01*
G37*
G36*
X260880Y166560D02*Y164888D01*
X264424D01*
Y166560D01*
X260880D01*
G37*
G36*
Y163412D02*Y161738D01*
X264424D01*
Y163412D01*
X260880D01*
G37*
G36*
Y160262D02*Y158588D01*
X264424D01*
Y160262D01*
X260880D01*
G37*
G36*
Y157112D02*Y155440D01*
X264424D01*
Y157112D01*
X260880D01*
G37*
G36*
X267576D02*Y155440D01*
X271120D01*
Y157112D01*
X267576D01*
G37*
G36*
Y160262D02*Y158588D01*
X271120D01*
Y160262D01*
X267576D01*
G37*
G36*
Y163412D02*Y161738D01*
X271120D01*
Y163412D01*
X267576D01*
G37*
G36*
Y166560D02*Y164888D01*
X271120D01*
Y166560D01*
X267576D01*
G37*
G36*
X306600Y79800D02*Y77400D01*
X310600D01*
Y79800D01*
X306600D01*
G37*
G36*
Y83700D02*Y81300D01*
X310600D01*
Y83700D01*
X306600D01*
G37*
G36*
Y87600D02*Y85200D01*
X310600D01*
Y87600D01*
X306600D01*
G37*
G36*
X298400D02*Y85200D01*
X302400D01*
Y87600D01*
X298400D01*
G37*
G36*
Y83700D02*Y81300D01*
X302400D01*
Y83700D01*
X298400D01*
G37*
G36*
Y79800D02*Y77400D01*
X302400D01*
Y79800D01*
X298400D01*
G37*
G36*
X7048Y182516D02*Y177398D01*
X12952D01*
Y182516D01*
X7048D01*
G37*
G36*
Y189602D02*Y184484D01*
X12952D01*
Y189602D01*
X7048D01*
G37*
G36*
X201400Y251800D02*X198000D01*
Y247800D01*
X201400D01*
Y251800D01*
G37*
G36*
X209200D02*X205800D01*
Y247800D01*
X209200D01*
Y251800D01*
G37*
G36*
X205300Y260000D02*X201900D01*
Y256000D01*
X205300D01*
Y260000D01*
G37*
G36*
X336048Y216102D02*Y210984D01*
X341952D01*
Y216102D01*
X336048D01*
G37*
G36*
Y209016D02*Y203898D01*
X341952D01*
Y209016D01*
X336048D01*
G37*
G36*
X344100Y137400D02*X341700D01*
Y133400D01*
X344100D01*
Y137400D01*
G37*
G36*
X348000D02*X345600D01*
Y133400D01*
X348000D01*
Y137400D01*
G37*
G36*
X351900D02*X349500D01*
Y133400D01*
X351900D01*
Y137400D01*
G37*
G36*
Y145600D02*X349500D01*
Y141600D01*
X351900D01*
Y145600D01*
G37*
G36*
X348000D02*X345600D01*
Y141600D01*
X348000D01*
Y145600D01*
G37*
G36*
X344100D02*X341700D01*
Y141600D01*
X344100D01*
Y145600D01*
G37*
G36*
X363102Y168452D02*X357984D01*
Y162548D01*
X363102D01*
Y168452D01*
G37*
G36*
X356016D02*X350898D01*
Y162548D01*
X356016D01*
Y168452D01*
G37*
G36*
X360048Y204016D02*Y198898D01*
X365952D01*
Y204016D01*
X360048D01*
G37*
G36*
Y211102D02*Y205984D01*
X365952D01*
Y211102D01*
X360048D01*
G37*
G36*
X377276Y167912D02*Y166240D01*
X380820D01*
Y167912D01*
X377276D01*
G37*
G36*
Y171062D02*Y169388D01*
X380820D01*
Y171062D01*
X377276D01*
G37*
G36*
Y174212D02*Y172538D01*
X380820D01*
Y174212D01*
X377276D01*
G37*
G36*
Y177360D02*Y175688D01*
X380820D01*
Y177360D01*
X377276D01*
G37*
G36*
X370580D02*Y175688D01*
X374124D01*
Y177360D01*
X370580D01*
G37*
G36*
Y174212D02*Y172538D01*
X374124D01*
Y174212D01*
X370580D01*
G37*
G36*
Y171062D02*Y169388D01*
X374124D01*
Y171062D01*
X370580D01*
G37*
G36*
Y167912D02*Y166240D01*
X374124D01*
Y167912D01*
X370580D01*
G37*
G36*
X377276Y187512D02*Y185840D01*
X380820D01*
Y187512D01*
X377276D01*
G37*
G36*
Y190662D02*Y188988D01*
X380820D01*
Y190662D01*
X377276D01*
G37*
G36*
Y193812D02*Y192138D01*
X380820D01*
Y193812D01*
X377276D01*
G37*
G36*
Y196960D02*Y195288D01*
X380820D01*
Y196960D01*
X377276D01*
G37*
G36*
X370580D02*Y195288D01*
X374124D01*
Y196960D01*
X370580D01*
G37*
G36*
Y193812D02*Y192138D01*
X374124D01*
Y193812D01*
X370580D01*
G37*
G36*
Y190662D02*Y188988D01*
X374124D01*
Y190662D01*
X370580D01*
G37*
G36*
Y187512D02*Y185840D01*
X374124D01*
Y187512D01*
X370580D01*
G37*
G36*
X320516Y240952D02*X315398D01*
Y235048D01*
X320516D01*
Y240952D01*
G37*
G36*
X327602D02*X322484D01*
Y235048D01*
X327602D01*
Y240952D01*
G37*
G36*
X357548Y190102D02*Y184984D01*
X363452D01*
Y190102D01*
X357548D01*
G37*
G36*
Y183016D02*Y177898D01*
X363452D01*
Y183016D01*
X357548D01*
G37*
M02*
