M48
INCH
T55C0.012
T54C0.110
T53C0.125
T52C0.039
T51C0.048
T50C0.038
T49C0.129
%
T55
X002050Y022450
X002500Y022450
X002550Y025200
X002950Y022450
X003000Y025200
X003050Y011800
X003350Y028550
X003400Y011950
X003450Y025200
X003500Y019700
X003500Y018450
X003500Y016800
X003500Y015550
X003800Y028550
X003900Y005200
X003900Y004800
X003950Y019700
X003950Y018450
X003950Y016800
X003950Y015550
X004300Y005200
X004300Y004800
X004400Y019700
X004400Y018450
X004400Y016800
X004400Y015550
X005000Y009840
X005270Y010080
X005550Y026450
X005550Y026000
X005750Y007900
X005750Y007400
X006000Y026450
X006000Y026000
X006300Y022700
X006300Y021350
X006350Y006450
X006350Y005550
X006450Y026450
X006450Y026000
X006750Y022700
X006750Y021350
X007200Y022700
X007200Y021350
X007250Y014500
X007250Y014150
X007250Y013800
X007250Y009950
X007250Y009600
X007250Y009250
X007800Y013250
X007850Y010650
X008000Y022700
X008000Y021350
X008050Y024750
X008050Y015050
X008100Y024250
X008250Y017150
X008250Y007950
X008450Y022700
X008450Y021350
X008450Y015050
X008500Y024750
X008500Y024250
X008510Y025740
X008650Y017150
X008650Y014650
X008650Y014250
X008650Y007950
X008860Y025740
X008900Y022700
X008900Y021350
X009240Y025740
X009350Y017150
X009350Y007950
X009750Y017150
X009750Y007950
X009850Y014150
X009850Y013750
X009850Y011350
X009850Y010950
X010250Y014150
X010250Y013750
X010250Y011350
X010250Y010950
X010400Y017150
X010400Y007950
X010800Y017150
X010800Y007950
X010950Y014150
X010950Y013750
X010950Y011350
X010950Y010950
X011350Y014150
X011350Y013750
X011350Y011350
X011350Y010950
X011500Y017150
X011500Y007950
X011900Y017150
X011900Y007950
X012600Y017150
X012600Y007950
X013000Y017150
X013000Y007950
X015150Y004350
X015400Y024650
X015550Y004350
X016300Y023600
X016300Y023100
X017650Y023450
X021260Y024980
X021620Y024980
X021800Y004350
X022200Y004350
X022750Y021850
X022750Y021450
X023150Y021850
X023150Y021450
X025300Y019800
X025300Y018900
X025550Y014200
X025550Y013800
X025950Y014200
X025950Y013800
X026250Y015200
X026300Y023150
X026950Y019800
X027400Y023150
X027450Y015950
X027550Y006200
X027570Y006680
X027700Y007500
X027780Y015630
X027900Y007000
X027900Y006200
X027950Y014200
X027950Y013800
X028000Y019800
X028150Y007500
X028250Y006200
X028350Y014200
X028350Y013800
X028400Y004850
X028950Y015800
X029170Y007450
X029300Y016050
X029450Y015500
X029950Y022770
X029950Y021760
X030040Y007450
X030270Y017840
X030270Y016830
X030450Y008650
X030450Y008250
X030450Y007870
X030450Y007440
X030450Y005700
X030450Y005250
X030450Y004500
X030450Y004150
X030580Y016600
X030860Y007450
X030890Y016330
X031150Y010000
X031500Y008940
X031600Y013200
X031700Y012750
X031700Y011950
X031750Y007450
X031850Y004850
X031900Y019800
X032400Y013200
X032560Y006680
X032600Y016850
X032650Y016050
X032800Y016600
X032900Y007000
X032940Y019800
X032950Y021150
X032950Y020750
X033050Y015800
X033150Y023800
X034400Y017600
X034680Y014810
X034680Y013930
X034680Y013110
X034750Y018750
X034750Y017850
X035500Y021150
X035500Y020750
X035500Y018750
X035650Y017150
X036300Y021350
X036770Y023230
X036900Y018100
X036931Y021219
X037300Y020000
X037300Y018100
X037310Y021220
X037900Y018100
X038470Y019610
X038470Y018990
T50
X020350Y027300
X021350Y027300
X022350Y027300
X023350Y027300
X024350Y027300
X025350Y027300
X026350Y027300
X027350Y027300
X028350Y027300
X029350Y027300
X030350Y027300
X031350Y027300
X032350Y027300
X033350Y027300
X034350Y027300
X035350Y027300
T52
X008720Y002786
X008720Y001014
X011280Y002786
X011280Y001014
X015390Y002786
X015390Y001014
X017950Y002786
X017950Y001014
X022050Y002786
X022050Y001014
X024610Y002786
X024610Y001014
X028720Y002786
X028720Y001014
X031280Y002786
X031280Y001014
T51
X002250Y011000
X002250Y009000
X037750Y014950
X037750Y012950
X037750Y010950
X037750Y008950
T54
X003000Y023850
X004200Y021950
T53
X005400Y023850
T49
X001700Y027300
X001700Y005650
X038300Y027300
X038300Y005650
M30
