G04 start of page 10 for group -4015 idx -4015 *
G04 Title: (unknown), toppaste *
G04 Creator: pcb 20140316 *
G04 CreationDate: Thu 20 Aug 2020 03:11:42 AM GMT UTC *
G04 For: railfan *
G04 Format: Gerber/RS-274X *
G04 PCB-Dimensions (mil): 4000.00 2900.00 *
G04 PCB-Coordinate-Origin: lower left *
%MOIN*%
%FSLAX25Y25*%
%LNTOPPASTE*%
%ADD129R,0.0612X0.0612*%
%ADD128R,0.0709X0.0709*%
%ADD127R,0.0472X0.0472*%
%ADD126R,0.0236X0.0236*%
%ADD125R,0.0340X0.0340*%
%ADD124R,0.0157X0.0157*%
%ADD123R,0.0800X0.0800*%
%ADD122R,0.0945X0.0945*%
%ADD121R,0.0650X0.0650*%
%ADD120R,0.0200X0.0200*%
%ADD119C,0.0001*%
%ADD118R,0.0230X0.0230*%
%ADD117R,0.0240X0.0240*%
%ADD116R,0.0500X0.0500*%
%ADD115R,0.0630X0.0630*%
%ADD114R,0.0512X0.0512*%
%ADD113R,0.0167X0.0167*%
G54D113*X299717Y132224D02*X301587D01*
X299717Y129075D02*X301587D01*
X299717Y125925D02*X301587D01*
X299717Y122776D02*X301587D01*
X306413D02*X308283D01*
X306413Y125925D02*X308283D01*
X306413Y129075D02*X308283D01*
X306413Y132224D02*X308283D01*
G54D114*X346414Y260393D02*Y259607D01*
X353500Y260393D02*Y259607D01*
G54D115*X66008Y220300D02*X72307D01*
X85693D02*X91992D01*
G54D114*X155914Y223893D02*Y223107D01*
X163000Y223893D02*Y223107D01*
X57543Y68893D02*Y68107D01*
X50457Y68893D02*Y68107D01*
G54D116*X144876Y261100D02*X154364D01*
X144876Y251100D02*X154364D01*
X144876Y241100D02*X154364D01*
X162356D02*X171844D01*
X162356Y251100D02*X171844D01*
X162356Y261100D02*X171844D01*
G54D114*X99043Y252493D02*Y251707D01*
X91957Y252493D02*Y251707D01*
X72957Y254893D02*Y254107D01*
X80043Y254893D02*Y254107D01*
G54D117*X80200Y270000D02*X81800D01*
X80200Y266100D02*X81800D01*
X80200Y262200D02*X81800D01*
X88400D02*X90000D01*
X88400Y266100D02*X90000D01*
X88400Y270000D02*X90000D01*
G54D114*X99043Y242593D02*Y241807D01*
X91957Y242593D02*Y241807D01*
G54D118*X99850Y281150D02*Y259750D01*
X105450D01*
X99850Y281150D02*X105450D01*
X121250D02*Y259750D01*
X115650D02*X121250D01*
X115650Y281150D02*X121250D01*
G54D119*G36*
X101000Y266494D02*X106594Y260900D01*
X104473Y258779D01*
X98879Y264373D01*
X101000Y266494D01*
G37*
G36*
X98879Y276527D02*X104473Y282121D01*
X106594Y280000D01*
X101000Y274406D01*
X98879Y276527D01*
G37*
G36*
X114506Y260900D02*X120100Y266494D01*
X122221Y264373D01*
X116627Y258779D01*
X114506Y260900D01*
G37*
G36*
X116627Y282121D02*X122221Y276527D01*
X120100Y274406D01*
X114506Y280000D01*
X116627Y282121D01*
G37*
G36*
X99200Y262700D02*Y259100D01*
X102800D01*
Y262700D01*
X99200D01*
G37*
G36*
Y281800D02*Y278200D01*
X102800D01*
Y281800D01*
X99200D01*
G37*
G36*
X118300Y262700D02*Y259100D01*
X121900D01*
Y262700D01*
X118300D01*
G37*
G36*
Y281800D02*Y278200D01*
X121900D01*
Y281800D01*
X118300D01*
G37*
G54D114*X9107Y198414D02*X9893D01*
X9107Y205500D02*X9893D01*
X84457Y280893D02*Y280107D01*
X91543Y280893D02*Y280107D01*
G54D115*X56693Y161500D02*X62992D01*
X37008D02*X43307D01*
X56693Y191000D02*X62992D01*
X37008D02*X43307D01*
G54D120*X113000Y118000D02*X119500D01*
X113000Y123000D02*X119500D01*
X113000Y128000D02*X119500D01*
X113000Y133000D02*X119500D01*
X92500D02*X99000D01*
X92500Y128000D02*X99000D01*
X92500Y123000D02*X99000D01*
X92500Y118000D02*X99000D01*
G54D121*X106000Y126580D02*Y124420D01*
G54D122*Y126880D02*Y124120D01*
G54D114*X103914Y217893D02*Y217107D01*
X111000Y217893D02*Y217107D01*
G54D117*X52500Y86800D02*X54100D01*
X52500Y79000D02*X54100D01*
X60700D02*X62300D01*
X60700Y82900D02*X62300D01*
X60700Y86800D02*X62300D01*
G54D114*X121957Y217893D02*Y217107D01*
X129043Y217893D02*Y217107D01*
G54D123*X84000Y86130D02*X128000D01*
X84000Y164870D02*X128000D01*
G54D114*X9607Y159457D02*X10393D01*
X9607Y166543D02*X10393D01*
X252543Y206893D02*Y206107D01*
X245457Y206893D02*Y206107D01*
X245371Y180393D02*Y179607D01*
X252457Y180393D02*Y179607D01*
G54D124*X272602Y213748D02*X277028D01*
X272602Y210599D02*X277028D01*
X272602Y207449D02*X277028D01*
X272602Y204300D02*X277028D01*
X272602Y201150D02*X277028D01*
X272602Y198000D02*X277028D01*
X272602Y194851D02*X277028D01*
X272602Y191701D02*X277028D01*
X272602Y188552D02*X277028D01*
X272602Y185402D02*X277028D01*
X272602Y182252D02*X277028D01*
X283752Y175528D02*Y171102D01*
X286901Y175528D02*Y171102D01*
X290051Y175528D02*Y171102D01*
X293200Y175528D02*Y171102D01*
X296350Y175528D02*Y171102D01*
X299500Y175528D02*Y171102D01*
X302649Y175528D02*Y171102D01*
X305799Y175528D02*Y171102D01*
X308948Y175528D02*Y171102D01*
X312098Y175528D02*Y171102D01*
X315248Y175528D02*Y171102D01*
X321972Y182252D02*X326398D01*
X321972Y185401D02*X326398D01*
X321972Y188551D02*X326398D01*
X321972Y191700D02*X326398D01*
X321972Y194850D02*X326398D01*
X321972Y198000D02*X326398D01*
X321972Y201149D02*X326398D01*
X321972Y204299D02*X326398D01*
X321972Y207448D02*X326398D01*
X321972Y210598D02*X326398D01*
X321972Y213748D02*X326398D01*
X315248Y224898D02*Y220472D01*
X312099Y224898D02*Y220472D01*
X308949Y224898D02*Y220472D01*
X305800Y224898D02*Y220472D01*
X302650Y224898D02*Y220472D01*
X299500Y224898D02*Y220472D01*
X296351Y224898D02*Y220472D01*
X293201Y224898D02*Y220472D01*
X290052Y224898D02*Y220472D01*
X286902Y224898D02*Y220472D01*
X283752Y224898D02*Y220472D01*
G54D114*X244556Y188944D02*X247311D01*
X259123D02*X261878D01*
X259123Y198000D02*X261878D01*
X244556D02*X247311D01*
X338607Y190957D02*X339393D01*
X338607Y198043D02*X339393D01*
X268107Y224457D02*X268893D01*
X268107Y231543D02*X268893D01*
G54D113*X261717Y165724D02*X263587D01*
X261717Y162575D02*X263587D01*
X261717Y159425D02*X263587D01*
X261717Y156276D02*X263587D01*
X268413D02*X270283D01*
X268413Y159425D02*X270283D01*
X268413Y162575D02*X270283D01*
X268413Y165724D02*X270283D01*
G54D117*X307800Y78600D02*X309400D01*
X307800Y82500D02*X309400D01*
X307800Y86400D02*X309400D01*
X299600D02*X301200D01*
X299600Y82500D02*X301200D01*
X299600Y78600D02*X301200D01*
G54D114*X9607Y179957D02*X10393D01*
X9607Y187043D02*X10393D01*
G54D125*X199700Y250100D02*Y249500D01*
X207500Y250100D02*Y249500D01*
X203600Y258300D02*Y257700D01*
G54D114*X338607Y213543D02*X339393D01*
X338607Y206457D02*X339393D01*
G54D117*X342900Y136200D02*Y134600D01*
X346800Y136200D02*Y134600D01*
X350700Y136200D02*Y134600D01*
Y144400D02*Y142800D01*
X346800Y144400D02*Y142800D01*
X342900Y144400D02*Y142800D01*
G54D114*X317957Y238393D02*Y237607D01*
X325043Y238393D02*Y237607D01*
G54D126*X377130Y233594D02*X380870D01*
X377130Y237531D02*X380870D01*
X377130Y241469D02*X380870D01*
X377130Y245406D02*X380870D01*
G54D127*X393075Y228476D02*X395437D01*
X393075Y250524D02*X395437D01*
G54D113*X378113Y183176D02*X379983D01*
X378113Y186325D02*X379983D01*
X378113Y189475D02*X379983D01*
X378113Y192624D02*X379983D01*
X371417D02*X373287D01*
X371417Y189475D02*X373287D01*
X371417Y186325D02*X373287D01*
X371417Y183176D02*X373287D01*
X378113Y202776D02*X379983D01*
X378113Y205925D02*X379983D01*
X378113Y209075D02*X379983D01*
X378113Y212224D02*X379983D01*
X371417D02*X373287D01*
X371417Y209075D02*X373287D01*
X371417Y205925D02*X373287D01*
X371417Y202776D02*X373287D01*
G54D114*X360107Y203643D02*X360893D01*
X360107Y196557D02*X360893D01*
X359107Y218957D02*X359893D01*
X359107Y226043D02*X359893D01*
X360107Y176957D02*X360893D01*
X360107Y184043D02*X360893D01*
G54D128*X66024Y128256D02*Y122744D01*
X43976Y128256D02*Y122744D01*
G54D114*X86607Y150043D02*X87393D01*
G54D129*X86607Y142957D02*X87393D01*
G54D113*X299717Y152024D02*X301587D01*
X299717Y148875D02*X301587D01*
X299717Y145725D02*X301587D01*
X299717Y142576D02*X301587D01*
X306413D02*X308283D01*
X306413Y145725D02*X308283D01*
X306413Y148875D02*X308283D01*
X306413Y152024D02*X308283D01*
M02*
