G04 start of page 7 for group -4062 idx -4062 *
G04 Title: (unknown), soldermask *
G04 Creator: pcb 4.0.2 *
G04 CreationDate: Wed Jun 16 02:52:31 2021 UTC *
G04 For: railfan *
G04 Format: Gerber/RS-274X *
G04 PCB-Dimensions (mil): 4000.00 2900.00 *
G04 PCB-Coordinate-Origin: lower left *
%MOIN*%
%FSLAX25Y25*%
%LNBOTTOMMASK*%
%ADD75C,0.1700*%
%ADD74C,0.1950*%
%ADD73C,0.0750*%
%ADD72C,0.0860*%
%ADD71C,0.0660*%
%ADD70C,0.0001*%
%ADD69C,0.2997*%
G54D69*X383000Y273000D03*
G54D70*G36*
X350200Y276300D02*Y269700D01*
X356800D01*
Y276300D01*
X350200D01*
G37*
G54D71*X343500Y273000D03*
X333500D03*
X323500D03*
X313500D03*
X303500D03*
X293500D03*
X283500D03*
X273500D03*
X263500D03*
X253500D03*
X243500D03*
X233500D03*
X223500D03*
X213500D03*
X203500D03*
G54D69*X17000Y56500D03*
G54D70*G36*
X18200Y114300D02*Y105700D01*
X26800D01*
Y114300D01*
X18200D01*
G37*
G54D72*X22500Y90000D03*
G54D73*X153905Y10142D03*
Y27858D03*
G54D69*X17000Y273000D03*
G54D73*X112795Y10142D03*
X87205D03*
X112795Y27858D03*
X87205D03*
G54D74*X54000Y238500D03*
G54D75*X30000D03*
X42000Y219500D03*
G54D73*X179495Y10142D03*
X246095D03*
X220505D03*
X312795D03*
X287205D03*
X179495Y27858D03*
X246095D03*
X220505D03*
X312795D03*
X287205D03*
G54D69*X383000Y56500D03*
G54D70*G36*
X371700Y86520D02*Y77920D01*
X380300D01*
Y86520D01*
X371700D01*
G37*
G54D72*X376000Y96000D03*
Y109779D03*
G54D70*G36*
X371700Y135520D02*Y126920D01*
X380300D01*
Y135520D01*
X371700D01*
G37*
G54D72*X376000Y145000D03*
Y158779D03*
M02*
