M48
INCH
T61C0.012
T60C0.047
T59C0.110
T58C0.125
T57C0.039
T56C0.048
T55C0.038
T54C0.129
%
T61
X002050Y022450
X002500Y022450
X002550Y025200
X002950Y022450
X003000Y025200
X003350Y028550
X003450Y025200
X003500Y019700
X003500Y018450
X003500Y016800
X003500Y015550
X003800Y028550
X003900Y005200
X003900Y004800
X003950Y019700
X003950Y018450
X003950Y016800
X003950Y015550
X004300Y005200
X004300Y004800
X004400Y019700
X004400Y018450
X004400Y016800
X004400Y015550
X004850Y011650
X005350Y009200
X005550Y026450
X005550Y026000
X005700Y009200
X005750Y007900
X005750Y007400
X006000Y026450
X006000Y026000
X006100Y011650
X006300Y022700
X006300Y021350
X006350Y006450
X006350Y005550
X006450Y026450
X006450Y026000
X006750Y022700
X006750Y021350
X007200Y022700
X007200Y021350
X007250Y015550
X007250Y015200
X007250Y014850
X007250Y009950
X007250Y009600
X007250Y009250
X007850Y010650
X008000Y022700
X008000Y021350
X008050Y024750
X008050Y013500
X008100Y024250
X008250Y017150
X008250Y007950
X008450Y022700
X008450Y021350
X008500Y024750
X008500Y024250
X008500Y015500
X008510Y025740
X008650Y017150
X008650Y007950
X008860Y025740
X008900Y022700
X008900Y021350
X008900Y015500
X009240Y025740
X009250Y015150
X009350Y017150
X009350Y007950
X009750Y017150
X009750Y007950
X009850Y014150
X009850Y013750
X009850Y011350
X009850Y010950
X010250Y014150
X010250Y013750
X010250Y011350
X010250Y010950
X010400Y017150
X010400Y007950
X010800Y017150
X010800Y007950
X010950Y014150
X010950Y013750
X010950Y011350
X010950Y010950
X011350Y014150
X011350Y013750
X011350Y011350
X011350Y010950
X011500Y017150
X011500Y007950
X011900Y017150
X011900Y007950
X012600Y017150
X012600Y007950
X013000Y017150
X013000Y007950
X015150Y004350
X015400Y024650
X015550Y004350
X016300Y023600
X016300Y023100
X017650Y023450
X021260Y024980
X021620Y024980
X021800Y004350
X022200Y004350
X022750Y021850
X022750Y021450
X023150Y021850
X023150Y021450
X025300Y019800
X025300Y018900
X025350Y014050
X025350Y013650
X025750Y014050
X025750Y013650
X026300Y023150
X026950Y019800
X027400Y023150
X027550Y006200
X027570Y006680
X027900Y007000
X027900Y006200
X027950Y014200
X027950Y013800
X027950Y007600
X028000Y019800
X028250Y006200
X028350Y014200
X028350Y013800
X028400Y007600
X028950Y015800
X029100Y005100
X029300Y016050
X029850Y009400
X029950Y022770
X029950Y021760
X030040Y007450
X030270Y017840
X030270Y016830
X030450Y008650
X030450Y008250
X030450Y007870
X030450Y007440
X030450Y005550
X030450Y004700
X030450Y004150
X030580Y016600
X030860Y007450
X030890Y016330
X031350Y010000
X031350Y009100
X031600Y010350
X031850Y005100
X031900Y019800
X032350Y015500
X032560Y006680
X032850Y015500
X032900Y007000
X032940Y019800
X032950Y021150
X032950Y020750
X033150Y023800
X033150Y015800
X033200Y016350
X033400Y016050
X033500Y016600
X033650Y014500
X034350Y008900
X034450Y015800
X034500Y023100
X034700Y020750
X034700Y019850
X034900Y005250
X035500Y023100
X035500Y021150
X035500Y020750
X035500Y020300
X035500Y019850
X035950Y023100
X036100Y015400
X036100Y013650
X036100Y011950
X036100Y010150
X036851Y023359
X037230Y023360
X038200Y020100
X038200Y018300
T55
X020350Y027300
X021350Y027300
X022350Y027300
X023350Y027300
X024350Y027300
X025350Y027300
X026350Y027300
X027350Y027300
X028350Y027300
X029350Y027300
X030350Y027300
X031350Y027300
X032350Y027300
X033350Y027300
X034350Y027300
X035350Y027300
T57
X008720Y002786
X008720Y001014
X011280Y002786
X011280Y001014
X015390Y002786
X015390Y001014
X017950Y002786
X017950Y001014
X022050Y002786
X022050Y001014
X024610Y002786
X024610Y001014
X028720Y002786
X028720Y001014
X031280Y002786
X031280Y001014
T60
X037600Y015878
X037600Y014500
X037600Y013122
X037600Y010978
X037600Y009600
X037600Y008222
T56
X002250Y011000
X002250Y009000
T59
X003000Y023850
X004200Y021950
T58
X005400Y023850
T54
X001700Y027300
X001700Y005650
X038300Y027300
X038300Y005650
M30
