G04 start of page 8 for group -4079 idx -4079 *
G04 Title: (unknown), topsilk *
G04 Creator: pcb 4.0.2 *
G04 CreationDate: Fri Feb  3 04:42:44 2023 UTC *
G04 For: ndholmes *
G04 Format: Gerber/RS-274X *
G04 PCB-Dimensions (mil): 4000.00 2900.00 *
G04 PCB-Coordinate-Origin: lower left *
%MOIN*%
%FSLAX25Y25*%
%LNTOPSILK*%
%ADD80C,0.0093*%
%ADD79C,0.0080*%
%ADD78C,0.0200*%
%ADD77C,0.0100*%
%ADD76C,0.0001*%
G54D76*G36*
X178043Y109209D02*X177647Y109480D01*
X177511Y109925D01*
X177565Y110240D01*
X177761Y110490D01*
X177891Y110604D01*
Y112486D01*
X177218D01*
X176741Y112481D01*
X176545Y112464D01*
X176453Y112340D01*
X176100Y112117D01*
X175672D01*
X175373Y112307D01*
X175189Y112600D01*
X175162Y112931D01*
X175270Y113224D01*
X175487Y113446D01*
X175802Y113566D01*
X176182Y113512D01*
X176491Y113273D01*
X176556Y113175D01*
X177224D01*
X177891Y113170D01*
Y114667D01*
X175558D01*
Y115400D01*
X175553Y116127D01*
X175455Y116197D01*
X175287Y116376D01*
X175178Y116593D01*
X175189Y117027D01*
X175373Y117315D01*
X175661Y117494D01*
X175997Y117526D01*
X176290Y117423D01*
X176513Y117201D01*
X176632Y116881D01*
X176578Y116506D01*
X176339Y116197D01*
X176242Y116127D01*
Y115351D01*
X177891D01*
Y117656D01*
X178357Y118248D01*
X178829Y118839D01*
Y120906D01*
X177918D01*
Y121693D01*
X182302D01*
Y123066D01*
X179486D01*
Y121693D01*
X178829D01*
Y123066D01*
X177918D01*
Y123825D01*
X178819D01*
Y125192D01*
X179502Y125219D01*
X179497Y124557D01*
X179491Y124086D01*
X179502Y123868D01*
X179567Y123858D01*
X179790Y123847D01*
X180224Y123841D01*
X180907Y123836D01*
X182302D01*
Y125219D01*
X179502D01*
X178819Y125192D01*
X177918D01*
Y125952D01*
X178829D01*
X179486Y125979D01*
X182302D01*
Y127352D01*
X179486D01*
Y125979D01*
X178829Y125952D01*
Y127324D01*
X177918D01*
Y128084D01*
X178819D01*
X178829Y129462D01*
X179486Y129505D01*
Y128827D01*
X179491Y128344D01*
X179508Y128127D01*
X179920Y128117D01*
X180907Y128111D01*
X182291D01*
X182296Y128800D01*
Y128816D01*
X182307Y129505D01*
X179486D01*
X178829Y129462D01*
X177918D01*
Y130222D01*
X178819D01*
Y131594D01*
X179502Y131648D01*
X179497Y130992D01*
X179491Y130515D01*
X179502Y130297D01*
X179567Y130287D01*
X179790Y130276D01*
X180224Y130270D01*
X180907Y130265D01*
X182307D01*
X182296Y130959D01*
X182291Y131648D01*
X179502D01*
X178819Y131594D01*
X177918D01*
Y132354D01*
X178829D01*
Y133596D01*
X179486D01*
Y132354D01*
X182302D01*
Y133596D01*
X182991D01*
Y132354D01*
X183902D01*
Y131594D01*
X182991D01*
Y130194D01*
X183902D01*
Y129435D01*
X182991D01*
Y128041D01*
X183902D01*
Y127281D01*
X182991D01*
Y125908D01*
X183902D01*
Y125149D01*
X182991D01*
Y123755D01*
X183902D01*
Y122995D01*
X182991D01*
Y121622D01*
X183902D01*
Y120836D01*
X182991D01*
X182985Y120250D01*
Y119658D01*
X181569Y117868D01*
X180148Y116083D01*
Y112074D01*
X181124Y111097D01*
X183544D01*
Y113219D01*
X183539Y114043D01*
Y114716D01*
X183533Y115172D01*
X183528Y115334D01*
X183403Y115427D01*
X183159Y115893D01*
X183294Y116409D01*
X183870Y116718D01*
X184472Y116447D01*
X184629Y115882D01*
X184331Y115372D01*
X184233Y115302D01*
Y110414D01*
X180842D01*
X179486Y111770D01*
Y116344D01*
X180896Y118123D01*
X182302Y119903D01*
Y120841D01*
X179486D01*
Y118503D01*
X178574Y117353D01*
Y110522D01*
X178640Y110490D01*
X178819Y110321D01*
X178949Y110088D01*
X178916Y109573D01*
X178569Y109193D01*
X178303Y109133D01*
X178043Y109144D01*
Y109209D01*
G37*
G36*
X193885Y110229D02*X192067Y110571D01*
X190483Y111293D01*
X189376Y112171D01*
X188432Y113278D01*
X187570Y114841D01*
X186924Y116696D01*
X186826Y117065D01*
X189246Y117581D01*
X190179Y117781D01*
X190955Y117944D01*
X191481Y118047D01*
X191682Y118080D01*
X191736Y117868D01*
X191785Y117618D01*
X191867Y117282D01*
X192230Y116257D01*
X192745Y115432D01*
X193391Y114824D01*
X194162Y114461D01*
X194400Y114418D01*
X194796Y114401D01*
X195187Y114418D01*
X195442Y114461D01*
X196462Y115047D01*
X197021Y116083D01*
X197075Y116712D01*
X197021Y117309D01*
X197623Y117483D01*
X197661Y116067D01*
X197303Y115117D01*
X196673Y114385D01*
X195816Y113924D01*
X194780Y113756D01*
X193451Y114059D01*
X192382Y114884D01*
X191590Y116127D01*
X191389Y116653D01*
X191243Y117157D01*
X191194Y117326D01*
X191145Y117342D01*
X190993Y117315D01*
X190635Y117239D01*
X190109Y117125D01*
X189479Y116989D01*
X188329Y116745D01*
X187792Y116626D01*
X187629Y116577D01*
Y116544D01*
X187678Y116360D01*
X187803Y115991D01*
X187949Y115584D01*
X188074Y115258D01*
X189072Y113479D01*
X190358Y112150D01*
X191932Y111282D01*
X193803Y110864D01*
X194199Y110853D01*
X194747D01*
X195295Y110869D01*
X195718Y110902D01*
X197048Y111157D01*
X198209Y111591D01*
X199109Y112123D01*
X199863Y112779D01*
X200466Y113560D01*
X200932Y114466D01*
X201160Y115161D01*
X201317Y115947D01*
X201366Y116902D01*
X201317Y117836D01*
X201090Y118823D01*
X200732Y119713D01*
X200211Y120532D01*
X199527Y121313D01*
X198827Y121959D01*
X198019Y122556D01*
X196945Y123217D01*
X195453Y124047D01*
X194308Y124682D01*
X193516Y125160D01*
X192963Y125561D01*
X192534Y125963D01*
X191986Y126749D01*
X191818Y127617D01*
X191964Y128659D01*
X192398Y129473D01*
X193103Y130037D01*
X194058Y130319D01*
X194639Y130336D01*
X195214Y130270D01*
X195984Y129977D01*
X196652Y129451D01*
X197227Y128686D01*
X197721Y127666D01*
X197807Y127466D01*
X197867Y127422D01*
X198030Y127471D01*
X198409Y127574D01*
X198919Y127726D01*
X199505Y127894D01*
X200081Y128062D01*
X200580Y128214D01*
X200938Y128317D01*
X201079Y128361D01*
X201052Y128485D01*
X200965Y128762D01*
X200840Y129104D01*
X200721Y129419D01*
X200043Y130634D01*
X199153Y131638D01*
X198079Y132413D01*
X196825Y132940D01*
X195068Y133243D01*
X193147Y133157D01*
X191400Y132696D01*
X190000Y131860D01*
X189300Y131133D01*
X188758Y130249D01*
X188389Y129223D01*
X188188Y128073D01*
X188161Y127297D01*
X188199Y126587D01*
X188438Y125605D01*
X188877Y124699D01*
X189517Y123858D01*
X190380Y123066D01*
X190922Y122659D01*
X191552Y122246D01*
X192355Y121769D01*
X193440Y121161D01*
X194167Y120760D01*
X194709Y120451D01*
X195133Y120196D01*
X195507Y119957D01*
X196939Y118747D01*
X197623Y117483D01*
X197021Y117309D01*
X196424Y118378D01*
X195165Y119425D01*
X194802Y119658D01*
X194395Y119903D01*
X193879Y120196D01*
X193185Y120575D01*
X191807Y121351D01*
X190792Y121980D01*
X190017Y122545D01*
X189360Y123125D01*
X188611Y123966D01*
X188074Y124850D01*
X187656Y126033D01*
X187526Y127346D01*
X187618Y128632D01*
X187911Y129831D01*
X188671Y131355D01*
X189832Y132538D01*
X191362Y133363D01*
X193234Y133802D01*
X194693Y133884D01*
X196077Y133759D01*
X197352Y133433D01*
X198491Y132907D01*
X199630Y132061D01*
X200569Y130976D01*
X201296Y129674D01*
X201789Y128171D01*
X201849Y127916D01*
X199647Y127276D01*
X198784Y127032D01*
X198079Y126831D01*
X197601Y126701D01*
X197422Y126657D01*
X197346Y126858D01*
X197118Y127460D01*
X196858Y128035D01*
X196098Y129104D01*
X195149Y129636D01*
X194514Y129701D01*
X193863Y129652D01*
X193006Y129180D01*
X192669Y128719D01*
X192485Y128122D01*
X192447Y127639D01*
X192485Y127227D01*
X192832Y126576D01*
X193559Y125908D01*
X193912Y125664D01*
X194351Y125388D01*
X194926Y125062D01*
X195697Y124639D01*
X196565Y124167D01*
X197248Y123782D01*
X197807Y123451D01*
X198285Y123142D01*
X199511Y122214D01*
X200477Y121226D01*
X201204Y120174D01*
X201692Y119034D01*
X201968Y117662D01*
X201974Y116230D01*
X201719Y114830D01*
X201209Y113566D01*
X200412Y112448D01*
X199370Y111537D01*
X198100Y110859D01*
X196635Y110414D01*
X195257Y110240D01*
X193885Y110235D01*
Y110229D01*
G37*
G36*
X204470Y122035D02*X205110Y122040D01*
X205104Y111141D01*
X216530D01*
Y114298D01*
X208756D01*
Y120819D01*
X214441D01*
Y123988D01*
X208756D01*
Y129771D01*
X216216D01*
Y132940D01*
X205121D01*
X205110Y122040D01*
X204470Y122035D01*
Y133564D01*
X216850D01*
Y129153D01*
X209390D01*
Y124633D01*
X215071D01*
Y120223D01*
X209407D01*
X209396Y117591D01*
X209390Y114960D01*
X217154D01*
Y110522D01*
X204470D01*
Y122035D01*
G37*
G36*
X180441Y136282D02*X179556Y136569D01*
X178791Y137128D01*
X178243Y137860D01*
X177956Y138723D01*
X177918Y139363D01*
X177999Y139982D01*
X178309Y140747D01*
X178829Y141398D01*
X179676Y141973D01*
X180647Y142216D01*
X181656Y142129D01*
X182600Y141702D01*
X183153Y141197D01*
X183577Y140579D01*
X183810Y139895D01*
X183880Y139168D01*
X183772Y138441D01*
X183506Y137768D01*
X183099Y137220D01*
X182584Y136775D01*
X181982Y136455D01*
X181331Y136282D01*
X180880Y136260D01*
X180441Y136282D01*
G37*
G54D77*X399500Y40500D02*Y289500D01*
X325500Y500D02*Y40500D01*
X399500D01*
X500Y289500D02*Y40500D01*
X399500Y289500D02*X500D01*
Y40500D02*X74500D01*
G54D78*X139000Y270500D02*Y273500D01*
Y270500D02*X136500D01*
G54D77*X74500Y40500D02*Y500D01*
X325500D01*
X176000Y97500D02*X251000D01*
G54D78*X132500Y277000D02*X139000Y270500D01*
G54D79*X153000Y273000D02*X154000D01*
X153500D02*Y269000D01*
X153000D02*X154000D01*
X155700D02*X157200D01*
X155200Y269500D02*X155700Y269000D01*
X155200Y272500D02*Y269500D01*
Y272500D02*X155700Y273000D01*
X157200D01*
X160400D02*X160900Y272500D01*
X158900Y273000D02*X160400D01*
X158400Y272500D02*X158900Y273000D01*
X158400Y272500D02*Y271500D01*
X158900Y271000D01*
X160400D01*
X160900Y270500D01*
Y269500D01*
X160400Y269000D02*X160900Y269500D01*
X158900Y269000D02*X160400D01*
X158400Y269500D02*X158900Y269000D01*
X162600Y273000D02*Y269000D01*
X162100Y273000D02*X164100D01*
X164600Y272500D01*
Y271500D01*
X164100Y271000D02*X164600Y271500D01*
X162600Y271000D02*X164100D01*
X120000Y235000D02*X120500Y235500D01*
X121500D01*
X122000Y235000D01*
Y232000D01*
X121500Y231500D02*X122000Y232000D01*
X120500Y231500D02*X121500D01*
X120000Y232000D02*X120500Y231500D01*
Y233500D02*X122000D01*
X123200Y231500D02*X123700D01*
X124900Y235000D02*X125400Y235500D01*
X126400D01*
X126900Y235000D01*
Y232000D01*
X126400Y231500D02*X126900Y232000D01*
X125400Y231500D02*X126400D01*
X124900Y232000D02*X125400Y231500D01*
Y233500D02*X126900D01*
X128100Y235500D02*Y232500D01*
X129100Y231500D01*
X130100Y232500D01*
Y235500D02*Y232500D01*
X120500Y229000D02*Y225000D01*
X120000Y229000D02*X122000D01*
X122500Y228500D01*
Y227500D01*
X122000Y227000D02*X122500Y227500D01*
X120500Y227000D02*X122000D01*
X123700Y229000D02*Y225000D01*
X125200Y226500D01*
X126700Y225000D01*
Y229000D02*Y225000D01*
X127900Y229000D02*X129900D01*
X130400Y228500D01*
Y227500D01*
X129900Y227000D02*X130400Y227500D01*
X128400Y227000D02*X129900D01*
X128400Y229000D02*Y225000D01*
Y227000D02*X130400Y225000D01*
X134000Y217500D02*X136000D01*
X135000Y218500D02*Y216500D01*
X74000Y274500D02*X76000Y272500D01*
X74000D02*X76000Y274500D01*
X74000Y273500D02*X76000D01*
X75000Y274500D02*Y272500D01*
X176500Y104000D02*X177500D01*
X177000D02*Y100000D01*
X176500D02*X177500D01*
X178700Y101500D02*Y100500D01*
Y101500D02*X179200Y102000D01*
X180200D01*
X180700Y101500D01*
Y100500D01*
X180200Y100000D02*X180700Y100500D01*
X179200Y100000D02*X180200D01*
X178700Y100500D02*X179200Y100000D01*
X181900Y102000D02*Y100500D01*
X182400Y100000D01*
X182900D01*
X183400Y100500D01*
Y102000D02*Y100500D01*
X183900Y100000D01*
X184400D01*
X184900Y100500D01*
Y102000D02*Y100500D01*
X187600Y102000D02*X188100Y101500D01*
X186600Y102000D02*X187600D01*
X186100Y101500D02*X186600Y102000D01*
X186100Y101500D02*Y100500D01*
X186600Y100000D01*
X188100Y102000D02*Y100500D01*
X188600Y100000D01*
X186600D02*X187600D01*
X188100Y100500D01*
X193600Y104000D02*X194100Y103500D01*
X192100Y104000D02*X193600D01*
X191600Y103500D02*X192100Y104000D01*
X191600Y103500D02*Y102500D01*
X192100Y102000D01*
X193600D01*
X194100Y101500D01*
Y100500D01*
X193600Y100000D02*X194100Y100500D01*
X192100Y100000D02*X193600D01*
X191600Y100500D02*X192100Y100000D01*
X195800Y102000D02*X197300D01*
X195300Y101500D02*X195800Y102000D01*
X195300Y101500D02*Y100500D01*
X195800Y100000D01*
X197300D01*
X200000Y102000D02*X200500Y101500D01*
X199000Y102000D02*X200000D01*
X198500Y101500D02*X199000Y102000D01*
X198500Y101500D02*Y100500D01*
X199000Y100000D01*
X200500Y102000D02*Y100500D01*
X201000Y100000D01*
X199000D02*X200000D01*
X200500Y100500D01*
X202200Y104000D02*Y100500D01*
X202700Y100000D01*
X204200D02*X205700D01*
X203700Y100500D02*X204200Y100000D01*
X203700Y101500D02*Y100500D01*
Y101500D02*X204200Y102000D01*
X205200D01*
X205700Y101500D01*
X203700Y101000D02*X205700D01*
Y101500D02*Y101000D01*
X208900Y104000D02*Y100000D01*
X208400D02*X208900Y100500D01*
X207400Y100000D02*X208400D01*
X206900Y100500D02*X207400Y100000D01*
X206900Y101500D02*Y100500D01*
Y101500D02*X207400Y102000D01*
X208400D01*
X208900Y101500D01*
X211900Y102000D02*X213400D01*
X211900Y100000D02*X213900D01*
X211900Y104000D02*Y100000D01*
Y104000D02*X213900D01*
X215600Y101500D02*Y100000D01*
Y101500D02*X216100Y102000D01*
X216600D01*
X217100Y101500D01*
Y100000D01*
X215100Y102000D02*X215600Y101500D01*
X219800Y102000D02*X220300Y101500D01*
X218800Y102000D02*X219800D01*
X218300Y101500D02*X218800Y102000D01*
X218300Y101500D02*Y100500D01*
X218800Y100000D01*
X219800D01*
X220300Y100500D01*
X218300Y99000D02*X218800Y98500D01*
X219800D01*
X220300Y99000D01*
Y102000D02*Y99000D01*
X221500Y103000D02*Y102500D01*
Y101500D02*Y100000D01*
X223000Y101500D02*Y100000D01*
Y101500D02*X223500Y102000D01*
X224000D01*
X224500Y101500D01*
Y100000D01*
X222500Y102000D02*X223000Y101500D01*
X226200Y100000D02*X227700D01*
X225700Y100500D02*X226200Y100000D01*
X225700Y101500D02*Y100500D01*
Y101500D02*X226200Y102000D01*
X227200D01*
X227700Y101500D01*
X225700Y101000D02*X227700D01*
Y101500D02*Y101000D01*
X229400Y100000D02*X230900D01*
X228900Y100500D02*X229400Y100000D01*
X228900Y101500D02*Y100500D01*
Y101500D02*X229400Y102000D01*
X230400D01*
X230900Y101500D01*
X228900Y101000D02*X230900D01*
Y101500D02*Y101000D01*
X232600Y101500D02*Y100000D01*
Y101500D02*X233100Y102000D01*
X234100D01*
X232100D02*X232600Y101500D01*
X235300Y103000D02*Y102500D01*
Y101500D02*Y100000D01*
X236800Y101500D02*Y100000D01*
Y101500D02*X237300Y102000D01*
X237800D01*
X238300Y101500D01*
Y100000D01*
X236300Y102000D02*X236800Y101500D01*
X241000Y102000D02*X241500Y101500D01*
X240000Y102000D02*X241000D01*
X239500Y101500D02*X240000Y102000D01*
X239500Y101500D02*Y100500D01*
X240000Y100000D01*
X241000D01*
X241500Y100500D01*
X239500Y99000D02*X240000Y98500D01*
X241000D01*
X241500Y99000D01*
Y102000D02*Y99000D01*
X177000Y83500D02*X178500D01*
X176500Y84000D02*X177000Y83500D01*
X176500Y87000D02*Y84000D01*
Y87000D02*X177000Y87500D01*
X178500D01*
X180200Y83500D02*X181700D01*
X179700Y84000D02*X180200Y83500D01*
X179700Y87000D02*Y84000D01*
Y87000D02*X180200Y87500D01*
X181700D01*
X184700Y83500D02*X186700D01*
X187200Y84000D01*
Y85000D02*Y84000D01*
X186700Y85500D02*X187200Y85000D01*
X185200Y85500D02*X186700D01*
X185200Y87500D02*Y83500D01*
X184700Y87500D02*X186700D01*
X187200Y87000D01*
Y86000D01*
X186700Y85500D02*X187200Y86000D01*
X188400Y87500D02*Y87000D01*
X189400Y86000D01*
X190400Y87000D01*
Y87500D02*Y87000D01*
X189400Y86000D02*Y83500D01*
X191600Y85500D02*X193600D01*
X196800Y87500D02*X197300Y87000D01*
X195300Y87500D02*X196800D01*
X194800Y87000D02*X195300Y87500D01*
X194800Y87000D02*Y86000D01*
X195300Y85500D01*
X196800D01*
X197300Y85000D01*
Y84000D01*
X196800Y83500D02*X197300Y84000D01*
X195300Y83500D02*X196800D01*
X194800Y84000D02*X195300Y83500D01*
X198500Y87000D02*Y83500D01*
Y87000D02*X199000Y87500D01*
X200500D01*
X201000Y87000D01*
Y83500D01*
X198500Y85500D02*X201000D01*
X204000Y84000D02*X204500Y83500D01*
X204000Y87000D02*X204500Y87500D01*
X204000Y87000D02*Y84000D01*
X206200Y83500D02*X207700D01*
X205700Y84000D02*X206200Y83500D01*
X205700Y87000D02*Y84000D01*
Y87000D02*X206200Y87500D01*
X207700D01*
X208900D02*X209400Y87000D01*
Y84000D01*
X208900Y83500D02*X209400Y84000D01*
X212400Y87000D02*X212900Y87500D01*
X214400D01*
X214900Y87000D01*
Y86000D01*
X212400Y83500D02*X214900Y86000D01*
X212400Y83500D02*X214900D01*
X216100Y84000D02*X216600Y83500D01*
X216100Y87000D02*Y84000D01*
Y87000D02*X216600Y87500D01*
X217600D01*
X218100Y87000D01*
Y84000D01*
X217600Y83500D02*X218100Y84000D01*
X216600Y83500D02*X217600D01*
X216100Y84500D02*X218100Y86500D01*
X219300Y87000D02*X219800Y87500D01*
X221300D01*
X221800Y87000D01*
Y86000D01*
X219300Y83500D02*X221800Y86000D01*
X219300Y83500D02*X221800D01*
X223000Y87000D02*X223500Y87500D01*
X225000D01*
X225500Y87000D01*
Y86000D01*
X223000Y83500D02*X225500Y86000D01*
X223000Y83500D02*X225500D01*
G54D80*X146600Y60140D02*Y56660D01*
X145440Y55500D02*X146600Y56660D01*
X138480Y55500D02*X145440D01*
X138480D02*X137320Y56660D01*
Y60140D02*Y56660D01*
X138480Y62924D02*X146600D01*
X138480D02*X137320Y64084D01*
Y67564D02*Y64084D01*
Y67564D02*X138480Y68724D01*
X146600D01*
X141960D02*Y62924D01*
X137320Y71508D02*X145440D01*
X146600Y72668D01*
Y74988D02*Y72668D01*
Y74988D02*X145440Y76148D01*
X137320D02*X145440D01*
X137320Y83572D02*Y78932D01*
Y81252D02*X146600D01*
X137320Y88676D02*Y86356D01*
Y87516D02*X146600D01*
Y88676D02*Y86356D01*
X138480Y91460D02*X145440D01*
X138480D02*X137320Y92620D01*
Y94940D02*Y92620D01*
Y94940D02*X138480Y96100D01*
X145440D01*
X146600Y94940D02*X145440Y96100D01*
X146600Y94940D02*Y92620D01*
X145440Y91460D02*X146600Y92620D01*
X137320Y98884D02*X146600D01*
X137320D02*X138480D01*
X144280Y104684D01*
X137320D02*X146600D01*
X145440Y107468D02*X146600D01*
X137320D02*X143120D01*
G54D79*X177000Y90500D02*X178500D01*
X176500Y91000D02*X177000Y90500D01*
X176500Y94000D02*Y91000D01*
Y94000D02*X177000Y94500D01*
X178500D01*
X179700D02*Y90500D01*
Y92500D02*X181700Y94500D01*
X179700Y92500D02*X181700Y90500D01*
X182900Y94500D02*X184900D01*
X183900D02*Y90500D01*
X186100Y92500D02*X188100D01*
X189800Y94500D02*Y90500D01*
X189300Y94500D02*X191300D01*
X191800Y94000D01*
Y93000D01*
X191300Y92500D02*X191800Y93000D01*
X189800Y92500D02*X191300D01*
X193000Y94500D02*X194000D01*
X193500D02*Y90500D01*
X193000D02*X194000D01*
X195200Y94500D02*Y90500D01*
Y94500D02*Y94000D01*
X197700Y91500D01*
Y94500D02*Y90500D01*
X200900Y94500D02*X201400Y94000D01*
X199400Y94500D02*X200900D01*
X198900Y94000D02*X199400Y94500D01*
X198900Y94000D02*Y91000D01*
X199400Y90500D01*
X200900D01*
X201400Y91000D01*
Y92000D02*Y91000D01*
X200900Y92500D02*X201400Y92000D01*
X199900Y92500D02*X200900D01*
X203100Y94500D02*Y90500D01*
X202600Y94500D02*X204600D01*
X205100Y94000D01*
Y93000D01*
X204600Y92500D02*X205100Y93000D01*
X203100Y92500D02*X204600D01*
X206300Y94000D02*Y91000D01*
Y94000D02*X206800Y94500D01*
X207800D01*
X208300Y94000D01*
Y91000D01*
X207800Y90500D02*X208300Y91000D01*
X206800Y90500D02*X207800D01*
X206300Y91000D02*X206800Y90500D01*
X209500Y94500D02*Y90500D01*
Y94500D02*Y94000D01*
X212000Y91500D01*
Y94500D02*Y90500D01*
X215200Y94500D02*X215700Y94000D01*
X213700Y94500D02*X215200D01*
X213200Y94000D02*X213700Y94500D01*
X213200Y94000D02*Y91000D01*
X213700Y90500D01*
X215200D01*
X215700Y91000D01*
Y92000D02*Y91000D01*
X215200Y92500D02*X215700Y92000D01*
X214200Y92500D02*X215200D01*
X218700D02*Y91500D01*
X219700Y90500D01*
X220700Y91500D01*
Y92500D02*Y91500D01*
X222400Y90500D02*X223400D01*
X222900Y94500D02*Y90500D01*
X221900Y93500D02*X222900Y94500D01*
X224600Y90500D02*X225100D01*
X226300Y94000D02*X226800Y94500D01*
X227800D01*
X228300Y94000D01*
Y91000D01*
X227800Y90500D02*X228300Y91000D01*
X226800Y90500D02*X227800D01*
X226300Y91000D02*X226800Y90500D01*
Y92500D02*X228300D01*
X7500Y107000D02*Y105000D01*
X3500Y106000D02*X7500D01*
Y103800D02*Y101800D01*
X7000Y101300D01*
X6000D02*X7000D01*
X5500Y101800D02*X6000Y101300D01*
X5500Y103300D02*Y101800D01*
X3500Y103300D02*X7500D01*
X5500D02*X3500Y101300D01*
Y100100D02*X7000D01*
X7500Y99600D01*
Y98100D01*
X7000Y97600D01*
X3500D02*X7000D01*
X5500Y100100D02*Y97600D01*
X3500Y95900D02*Y94400D01*
X4000Y96400D02*X3500Y95900D01*
X4000Y96400D02*X7000D01*
X7500Y95900D01*
Y94400D01*
X3500Y93200D02*X7500D01*
X5500D02*X7500Y91200D01*
X5500Y93200D02*X3500Y91200D01*
X119000Y113000D02*X121000Y111000D01*
X119000D02*X121000Y113000D01*
X119000Y112000D02*X121000D01*
X120000Y113000D02*Y111000D01*
G54D80*X146600Y150640D02*Y147160D01*
X145440Y146000D02*X146600Y147160D01*
X138480Y146000D02*X145440D01*
X138480D02*X137320Y147160D01*
Y150640D02*Y147160D01*
X138480Y153424D02*X146600D01*
X138480D02*X137320Y154584D01*
Y158064D02*Y154584D01*
Y158064D02*X138480Y159224D01*
X146600D01*
X141960D02*Y153424D01*
X137320Y162008D02*X145440D01*
X146600Y163168D01*
Y165488D02*Y163168D01*
Y165488D02*X145440Y166648D01*
X137320D02*X145440D01*
X137320Y174072D02*Y169432D01*
Y171752D02*X146600D01*
X137320Y179176D02*Y176856D01*
Y178016D02*X146600D01*
Y179176D02*Y176856D01*
X138480Y181960D02*X145440D01*
X138480D02*X137320Y183120D01*
Y185440D02*Y183120D01*
Y185440D02*X138480Y186600D01*
X145440D01*
X146600Y185440D02*X145440Y186600D01*
X146600Y185440D02*Y183120D01*
X145440Y181960D02*X146600Y183120D01*
X137320Y189384D02*X146600D01*
X137320D02*X138480D01*
X144280Y195184D01*
X137320D02*X146600D01*
X145440Y197968D02*X146600D01*
X137320D02*X143120D01*
G54D79*X3000Y187000D02*X5000D01*
X4000Y188000D02*Y186000D01*
X66000Y75500D02*X68000Y73500D01*
X66000D02*X68000Y75500D01*
X66000Y74500D02*X68000D01*
X67000Y75500D02*Y73500D01*
G54D80*X151820Y57000D02*X161100D01*
X151820Y62800D02*X161100D01*
X156460D02*Y57000D01*
Y69064D02*Y65584D01*
X161100Y70224D02*Y65584D01*
X151820D02*X161100D01*
X151820Y70224D02*Y65584D01*
X152980Y73008D02*X161100D01*
X152980D02*X151820Y74168D01*
Y77648D02*Y74168D01*
Y77648D02*X152980Y78808D01*
X161100D01*
X156460D02*Y73008D01*
X151820Y86232D02*Y81592D01*
Y83912D02*X161100D01*
X151820Y93656D02*X152980Y94816D01*
X151820Y93656D02*Y90176D01*
X152980Y89016D02*X151820Y90176D01*
X152980Y89016D02*X155300D01*
X156460Y90176D01*
Y93656D02*Y90176D01*
Y93656D02*X157620Y94816D01*
X159940D01*
X161100Y93656D02*X159940Y94816D01*
X161100Y93656D02*Y90176D01*
X159940Y89016D02*X161100Y90176D01*
X151820Y99920D02*Y97600D01*
Y98760D02*X161100D01*
Y99920D02*Y97600D01*
X151820Y102704D02*X161100D01*
X151820D02*X152980D01*
X158780Y108504D01*
X151820D02*X161100D01*
X151820Y111288D02*X161100D01*
X156460D02*X151820Y115928D01*
X156460Y111288D02*X161100Y115928D01*
X151820Y122888D02*X161100D01*
X151820D02*X155300Y126368D01*
X151820Y129848D01*
X161100D01*
X152980Y132632D02*X161100D01*
X152980D02*X151820Y133792D01*
Y137272D02*Y133792D01*
Y137272D02*X152980Y138432D01*
X161100D01*
X156460D02*Y132632D01*
X151820Y141216D02*X152980D01*
X155300Y143536D01*
X152980Y145856D01*
X151820D02*X152980D01*
X155300Y143536D02*X161100D01*
Y157456D02*Y152816D01*
Y157456D02*X159940Y158616D01*
X157620D02*X159940D01*
X156460Y157456D02*X157620Y158616D01*
X156460Y157456D02*Y153976D01*
X151820D02*X161100D01*
X151820Y157456D02*Y152816D01*
Y157456D02*X152980Y158616D01*
X155300D01*
X156460Y157456D02*X155300Y158616D01*
X156460Y164880D02*Y161400D01*
X161100Y166040D02*Y161400D01*
X151820D02*X161100D01*
X151820Y166040D02*Y161400D01*
Y173000D02*X161100D01*
X151820Y178800D02*X161100D01*
X156460D02*Y173000D01*
X152980Y181584D02*X159940D01*
X152980D02*X151820Y182744D01*
Y185064D02*Y182744D01*
Y185064D02*X152980Y186224D01*
X159940D01*
X161100Y185064D02*X159940Y186224D01*
X161100Y185064D02*Y182744D01*
X159940Y181584D02*X161100Y182744D01*
X151820Y193648D02*Y189008D01*
Y191328D02*X161100D01*
X159940Y196432D02*X161100D01*
X151820D02*X157620D01*
G54D79*X20500Y203500D02*Y201500D01*
X16500Y202500D02*X20500D01*
Y200300D02*Y198300D01*
X20000Y197800D01*
X19000D02*X20000D01*
X18500Y198300D02*X19000Y197800D01*
X18500Y199800D02*Y198300D01*
X16500Y199800D02*X20500D01*
X18500D02*X16500Y197800D01*
Y196600D02*X20500D01*
X18500D02*X20500Y194600D01*
X18500Y196600D02*X16500Y194600D01*
Y191100D02*X20500D01*
Y191600D02*Y189600D01*
X20000Y189100D01*
X19000D02*X20000D01*
X18500Y189600D02*X19000Y189100D01*
X18500Y191100D02*Y189600D01*
X16500Y187900D02*X20500D01*
X16500D02*X18000Y186400D01*
X16500Y184900D01*
X20500D01*
Y183700D02*Y181700D01*
X20000Y181200D01*
X19000D02*X20000D01*
X18500Y181700D02*X19000Y181200D01*
X18500Y183200D02*Y181700D01*
X16500Y183200D02*X20500D01*
X18500D02*X16500Y181200D01*
X3000Y205500D02*X5000D01*
X4000Y206500D02*Y204500D01*
X276000Y222000D02*X278000Y220000D01*
X276000D02*X278000Y222000D01*
X276000Y221000D02*X278000D01*
X277000Y222000D02*Y220000D01*
X176500Y81500D02*Y77500D01*
Y79000D02*X177000Y79500D01*
X178000D01*
X178500Y79000D01*
Y77500D01*
X180200Y81500D02*Y78000D01*
X180700Y77500D01*
X179700Y80000D02*X180700D01*
X182200Y81500D02*Y78000D01*
X182700Y77500D01*
X181700Y80000D02*X182700D01*
X184200Y79000D02*Y76000D01*
X183700Y79500D02*X184200Y79000D01*
X184700Y79500D01*
X185700D01*
X186200Y79000D01*
Y78000D01*
X185700Y77500D02*X186200Y78000D01*
X184700Y77500D02*X185700D01*
X184200Y78000D02*X184700Y77500D01*
X187900D02*X189400D01*
X189900Y78000D01*
X189400Y78500D02*X189900Y78000D01*
X187900Y78500D02*X189400D01*
X187400Y79000D02*X187900Y78500D01*
X187400Y79000D02*X187900Y79500D01*
X189400D01*
X189900Y79000D01*
X187400Y78000D02*X187900Y77500D01*
X191100Y80000D02*X191600D01*
X191100Y79000D02*X191600D01*
X192800Y78000D02*X195800Y81000D01*
X197000Y78000D02*X200000Y81000D01*
X201200Y79500D02*Y78000D01*
X201700Y77500D01*
X202200D01*
X202700Y78000D01*
Y79500D02*Y78000D01*
X203200Y77500D01*
X203700D01*
X204200Y78000D01*
Y79500D02*Y78000D01*
X205400Y79500D02*Y78000D01*
X205900Y77500D01*
X206400D01*
X206900Y78000D01*
Y79500D02*Y78000D01*
X207400Y77500D01*
X207900D01*
X208400Y78000D01*
Y79500D02*Y78000D01*
X209600Y79500D02*Y78000D01*
X210100Y77500D01*
X210600D01*
X211100Y78000D01*
Y79500D02*Y78000D01*
X211600Y77500D01*
X212100D01*
X212600Y78000D01*
Y79500D02*Y78000D01*
X213800Y77500D02*X214300D01*
X215500Y80500D02*Y80000D01*
Y79000D02*Y77500D01*
X218000Y79500D02*X218500Y79000D01*
X217000Y79500D02*X218000D01*
X216500Y79000D02*X217000Y79500D01*
X216500Y79000D02*Y78000D01*
X217000Y77500D01*
X218500Y79500D02*Y78000D01*
X219000Y77500D01*
X217000D02*X218000D01*
X218500Y78000D01*
X220700Y77500D02*X222200D01*
X222700Y78000D01*
X222200Y78500D02*X222700Y78000D01*
X220700Y78500D02*X222200D01*
X220200Y79000D02*X220700Y78500D01*
X220200Y79000D02*X220700Y79500D01*
X222200D01*
X222700Y79000D01*
X220200Y78000D02*X220700Y77500D01*
X224400Y79500D02*X225900D01*
X223900Y79000D02*X224400Y79500D01*
X223900Y79000D02*Y78000D01*
X224400Y77500D01*
X225900D01*
X228600Y79500D02*X229100Y79000D01*
X227600Y79500D02*X228600D01*
X227100Y79000D02*X227600Y79500D01*
X227100Y79000D02*Y78000D01*
X227600Y77500D01*
X229100Y79500D02*Y78000D01*
X229600Y77500D01*
X227600D02*X228600D01*
X229100Y78000D01*
X230800Y81500D02*Y78000D01*
X231300Y77500D01*
X232800D02*X234300D01*
X232300Y78000D02*X232800Y77500D01*
X232300Y79000D02*Y78000D01*
Y79000D02*X232800Y79500D01*
X233800D01*
X234300Y79000D01*
X232300Y78500D02*X234300D01*
Y79000D02*Y78500D01*
X237500Y81500D02*Y77500D01*
X237000D02*X237500Y78000D01*
X236000Y77500D02*X237000D01*
X235500Y78000D02*X236000Y77500D01*
X235500Y79000D02*Y78000D01*
Y79000D02*X236000Y79500D01*
X237000D01*
X237500Y79000D01*
X238700Y77500D02*X239200D01*
X240900Y79500D02*X242400D01*
X240400Y79000D02*X240900Y79500D01*
X240400Y79000D02*Y78000D01*
X240900Y77500D01*
X242400D01*
X243600Y79000D02*Y78000D01*
Y79000D02*X244100Y79500D01*
X245100D01*
X245600Y79000D01*
Y78000D01*
X245100Y77500D02*X245600Y78000D01*
X244100Y77500D02*X245100D01*
X243600Y78000D02*X244100Y77500D01*
X247300Y79000D02*Y77500D01*
Y79000D02*X247800Y79500D01*
X248300D01*
X248800Y79000D01*
Y77500D01*
Y79000D02*X249300Y79500D01*
X249800D01*
X250300Y79000D01*
Y77500D01*
X246800Y79500D02*X247300Y79000D01*
X374600Y223800D02*Y220800D01*
Y223800D02*X375100Y224300D01*
X376100D01*
X376600Y223800D01*
Y220800D01*
X376100Y220300D02*X376600Y220800D01*
X375100Y220300D02*X376100D01*
X374600Y220800D02*X375100Y220300D01*
X375600Y221300D02*X376600Y220300D01*
X377800Y222300D02*Y220800D01*
X378300Y220300D01*
X378800D01*
X379300Y220800D01*
Y222300D02*Y220800D01*
X379800Y220300D01*
X380300D01*
X380800Y220800D01*
Y222300D02*Y220800D01*
X382000Y223300D02*Y222800D01*
Y221800D02*Y220300D01*
X383000Y223300D02*Y222800D01*
Y221800D02*Y220300D01*
X384500Y222300D02*X386000D01*
X384000Y221800D02*X384500Y222300D01*
X384000Y221800D02*Y220800D01*
X384500Y220300D01*
X386000D01*
X389000Y224300D02*X390000D01*
X389500D02*Y220300D01*
X389000D02*X390000D01*
X391200Y223800D02*X391700Y224300D01*
X393200D01*
X393700Y223800D01*
Y222800D01*
X391200Y220300D02*X393700Y222800D01*
X391200Y220300D02*X393700D01*
X395400D02*X396900D01*
X394900Y220800D02*X395400Y220300D01*
X394900Y223800D02*Y220800D01*
Y223800D02*X395400Y224300D01*
X396900D01*
X394500Y77000D02*Y75000D01*
X393500Y76000D02*X395500D01*
X396500Y79700D02*Y78700D01*
X392500Y79200D02*X396500D01*
X393500Y78200D02*X392500Y79200D01*
X393000Y80900D02*X392500Y81400D01*
Y82900D02*Y81400D01*
Y82900D02*X393000Y83400D01*
X394000D01*
X396500Y80900D02*X394000Y83400D01*
X396500D02*Y80900D01*
X392500Y84600D02*X395500D01*
X396500Y85600D01*
X395500Y86600D01*
X392500D02*X395500D01*
X392500Y93000D02*X393000Y93500D01*
X392500Y93000D02*Y91500D01*
X393000Y91000D02*X392500Y91500D01*
X393000Y91000D02*X396000D01*
X396500Y91500D01*
Y93000D02*Y91500D01*
Y93000D02*X396000Y93500D01*
X395000D02*X396000D01*
X394500Y93000D02*X395000Y93500D01*
X394500Y93000D02*Y92000D01*
X392500Y94700D02*X396500D01*
X392500D02*X393000D01*
X395500Y97200D01*
X392500D02*X396500D01*
X392500Y98900D02*X396500D01*
X392500Y100400D02*X393000Y100900D01*
X396000D01*
X396500Y100400D02*X396000Y100900D01*
X396500Y100400D02*Y98400D01*
X392500Y100400D02*Y98400D01*
Y104500D02*X396500D01*
Y106500D02*Y104500D01*
X394500Y109200D02*Y107700D01*
X396500Y109700D02*Y107700D01*
X392500D02*X396500D01*
X392500Y109700D02*Y107700D01*
Y110900D02*X396500D01*
X392500Y112900D02*Y110900D01*
X394500Y112400D02*Y110900D01*
X392500Y116100D02*Y114100D01*
Y115100D02*X396500D01*
X392500Y125000D02*Y123000D01*
Y125000D02*X393000Y125500D01*
X394000D01*
X394500Y125000D02*X394000Y125500D01*
X394500Y125000D02*Y123500D01*
X392500D02*X396500D01*
X394500D02*X396500Y125500D01*
X392500Y128700D02*X393000Y129200D01*
X392500Y128700D02*Y127200D01*
X393000Y126700D02*X392500Y127200D01*
X393000Y126700D02*X396000D01*
X396500Y127200D01*
Y128700D02*Y127200D01*
Y128700D02*X396000Y129200D01*
X395000D02*X396000D01*
X394500Y128700D02*X395000Y129200D01*
X394500Y128700D02*Y127700D01*
X392500Y130400D02*X396500D01*
X392500Y132900D02*X396500D01*
X394500D02*Y130400D01*
X392500Y136100D02*Y134100D01*
Y135100D02*X396500D01*
X392500Y143000D02*Y142000D01*
Y142500D02*X396500D01*
Y143000D02*Y142000D01*
X394500Y146200D02*Y144200D01*
X392500Y147400D02*X396500D01*
Y149400D02*Y147400D01*
X392500Y156500D02*Y155500D01*
Y156000D02*X396500D01*
Y156500D02*Y155500D01*
X394500Y159700D02*Y157700D01*
X392500Y162900D02*Y160900D01*
Y162900D02*X393000Y163400D01*
X394000D01*
X394500Y162900D02*X394000Y163400D01*
X394500Y162900D02*Y161400D01*
X392500D02*X396500D01*
X394500D02*X396500Y163400D01*
G54D77*X198500Y278000D02*X358500D01*
X198500D02*Y268000D01*
X358500D01*
Y278000D02*Y268000D01*
X348500Y278000D02*Y268000D01*
X358500D01*
X341107Y247755D02*X341893D01*
X341107Y242245D02*X341893D01*
X148360Y266100D02*X168360D01*
X148360Y236100D02*X168360D01*
Y266100D02*Y265100D01*
Y237100D02*Y236100D01*
X148360Y237100D02*Y236100D01*
Y266100D02*Y265100D01*
X146360Y267600D02*G75*G03X146360Y267600I500J0D01*G01*
X197200Y260800D02*Y246900D01*
X210000D01*
Y260800D01*
X197200D01*
X153755Y222393D02*Y221607D01*
X148245Y222393D02*Y221607D01*
X160245Y222350D02*Y221564D01*
X165755Y222350D02*Y221564D01*
X107064Y220255D02*X107850D01*
X107064Y214745D02*X107850D01*
X125107Y220255D02*X125893D01*
X125107Y214745D02*X125893D01*
X373607Y190255D02*X374393D01*
X373607Y184745D02*X374393D01*
X373607Y199255D02*X374393D01*
X373607Y193745D02*X374393D01*
X89755Y146893D02*Y146107D01*
X84245Y146893D02*Y146107D01*
X269107Y162745D02*X269893D01*
X269107Y168255D02*X269893D01*
X341064Y239255D02*X341850D01*
X341064Y233745D02*X341850D01*
X352107Y156755D02*X352893D01*
X352107Y151245D02*X352893D01*
X352107Y165255D02*X352893D01*
X352107Y159745D02*X352893D01*
X352107Y147755D02*X352893D01*
X352107Y142245D02*X352893D01*
X92126Y7189D02*X107874D01*
X88189Y22937D02*Y15063D01*
X92126Y30811D02*X107874D01*
X111811Y22937D02*Y15063D01*
X158826Y7189D02*X174574D01*
X154889Y22937D02*Y15063D01*
X158826Y30811D02*X174574D01*
X178511Y22937D02*Y15063D01*
X53607Y65745D02*X54393D01*
X53607Y71255D02*X54393D01*
X9700Y120000D02*Y80000D01*
X39700Y120000D02*Y80000D01*
X35300Y120000D02*Y80000D01*
X9700Y120000D02*X39700D01*
X9700Y80000D02*X39700D01*
X50400Y88800D02*X64300D01*
X50400D02*Y77000D01*
X64300D01*
Y88800D02*Y77000D01*
X121500Y135000D02*Y116000D01*
X90500Y135000D02*X121500D01*
X90500D02*Y116000D01*
X108500D02*X121500D01*
X90500D02*X103500D01*
X108500D02*G75*G03X103500Y116000I-2500J0D01*G01*
X77500Y205500D02*Y45500D01*
X134500Y205500D02*Y45500D01*
X77500D02*X134500D01*
X77500Y205500D02*X134500D01*
X48500Y119400D02*X61500D01*
X48500Y131600D02*X61500D01*
X349564Y262755D02*X350350D01*
X349564Y257245D02*X350350D01*
X248607Y203745D02*X249393D01*
X248607Y209255D02*X249393D01*
X248521Y182755D02*X249307D01*
X248521Y177245D02*X249307D01*
X283115Y217285D02*X318785D01*
Y178715D01*
X280215D02*X318785D01*
X280215Y214385D02*Y178715D01*
Y214385D02*X283115Y217285D01*
X282115Y214385D02*G75*G03X282115Y214385I1000J0D01*G01*
X243374Y199771D02*Y187173D01*
Y199771D02*X263060D01*
Y187173D01*
X243374D02*X263060D01*
X241874Y185173D02*G75*G03X241874Y185173I0J500D01*G01*
X336245Y194893D02*Y194107D01*
X341755Y194893D02*Y194107D01*
X390173Y167834D02*Y122165D01*
X362614Y167834D02*X390173D01*
X362614D02*Y122165D01*
X390173D01*
X352107Y130755D02*X352893D01*
X352107Y125245D02*X352893D01*
X265745Y228393D02*Y227607D01*
X271255Y228393D02*Y227607D01*
X321107Y240755D02*X321893D01*
X321107Y235245D02*X321893D01*
X341755Y210393D02*Y209607D01*
X336245Y210393D02*Y209607D01*
X373607Y207755D02*X374393D01*
X373607Y202245D02*X374393D01*
X356745Y222893D02*Y222107D01*
X362255Y222893D02*Y222107D01*
X373607Y181755D02*X374393D01*
X373607Y176245D02*X374393D01*
X91992Y213804D02*Y207308D01*
Y233292D02*Y226796D01*
X72504Y233292D02*X91992D01*
X72504Y207308D02*X91992D01*
X72504Y233292D02*X66008Y226796D01*
X72504Y207308D02*X66008Y213804D01*
X73000Y214300D02*Y210300D01*
X71000Y212300D02*X75000D01*
X95107Y249345D02*X95893D01*
X95107Y254855D02*X95893D01*
X76107Y257255D02*X76893D01*
X76107Y251745D02*X76893D01*
X95107Y239445D02*X95893D01*
X95107Y244955D02*X95893D01*
X30000Y221500D02*X500D01*
Y255500D01*
X56500D01*
Y250500D01*
X52500Y221500D02*X56500D01*
Y226500D01*
X500Y221500D02*Y255500D01*
X1000Y221500D02*Y255500D01*
X1500Y221500D02*Y255500D01*
X2000Y221500D02*Y255500D01*
X2500Y221500D02*Y255500D01*
X3000Y221500D02*Y255500D01*
X3500Y221500D02*Y255500D01*
X4000Y221500D02*Y255500D01*
X13500Y221500D02*Y255500D01*
X13000Y221500D02*Y255500D01*
X12500Y221500D02*Y255500D01*
X12000Y221500D02*Y255500D01*
X11500Y221500D02*Y255500D01*
X11000Y221500D02*Y255500D01*
X10500Y221500D02*Y255500D01*
X10000Y221500D02*Y255500D01*
X6745Y202350D02*Y201564D01*
X12255Y202350D02*Y201564D01*
X37008Y174492D02*Y167996D01*
Y155004D02*Y148508D01*
X56496D01*
X37008Y174492D02*X56496D01*
Y148508D02*X62992Y155004D01*
X56496Y174492D02*X62992Y167996D01*
X56000Y171500D02*Y167500D01*
X54000Y169500D02*X58000D01*
X37008Y203992D02*Y197496D01*
Y184504D02*Y178008D01*
X56496D01*
X37008Y203992D02*X56496D01*
Y178008D02*X62992Y184504D01*
X56496Y203992D02*X62992Y197496D01*
X56000Y201000D02*Y197000D01*
X54000Y199000D02*X58000D01*
X7245Y163393D02*Y162607D01*
X12755Y163393D02*Y162607D01*
X7245Y183893D02*Y183107D01*
X12755Y183893D02*Y183107D01*
X78100Y272000D02*X92000D01*
X78100D02*Y260200D01*
X92000D01*
Y272000D02*Y260200D01*
X97550Y283450D02*Y261450D01*
Y283450D02*X119550D01*
X123550Y279450D02*Y257450D01*
X101550D02*X123550D01*
X87607Y283255D02*X88393D01*
X87607Y277745D02*X88393D01*
X225426Y7189D02*X241174D01*
X221489Y22937D02*Y15063D01*
X225426Y30811D02*X241174D01*
X245111Y22937D02*Y15063D01*
X292126Y7189D02*X307874D01*
X288189Y22937D02*Y15063D01*
X292126Y30811D02*X307874D01*
X311811Y22937D02*Y15063D01*
X352107Y55745D02*X352893D01*
X352107Y61255D02*X352893D01*
X352107Y64245D02*X352893D01*
X352107Y69755D02*X352893D01*
X297600Y76600D02*X311500D01*
Y88400D02*Y76600D01*
X297600Y88400D02*X311500D01*
X297600D02*Y76600D01*
X390173Y118834D02*Y73165D01*
X362614Y118834D02*X390173D01*
X362614D02*Y73165D01*
X390173D01*
X352107Y90245D02*X352893D01*
X352107Y95755D02*X352893D01*
X352107Y81245D02*X352893D01*
X352107Y86755D02*X352893D01*
X352107Y72745D02*X352893D01*
X352107Y78255D02*X352893D01*
X352107Y139255D02*X352893D01*
X352107Y133745D02*X352893D01*
X352107Y122255D02*X352893D01*
X352107Y116745D02*X352893D01*
X352107Y104255D02*X352893D01*
X352107Y98745D02*X352893D01*
X352107Y112755D02*X352893D01*
X352107Y107245D02*X352893D01*
G54D79*X359406Y258418D02*X360906D01*
X358906Y258918D02*X359406Y258418D01*
X358906Y261918D02*Y258918D01*
Y261918D02*X359406Y262418D01*
X360906D01*
X362106Y258918D02*X362606Y258418D01*
X362106Y259918D02*Y258918D01*
Y259918D02*X362606Y260418D01*
X363606D01*
X364106Y259918D01*
Y258918D01*
X363606Y258418D02*X364106Y258918D01*
X362606Y258418D02*X363606D01*
X362106Y260918D02*X362606Y260418D01*
X362106Y261918D02*Y260918D01*
Y261918D02*X362606Y262418D01*
X363606D01*
X364106Y261918D01*
Y260918D01*
X363606Y260418D02*X364106Y260918D01*
X303807Y236150D02*X305307D01*
X303307Y236650D02*X303807Y236150D01*
X303307Y239650D02*Y236650D01*
Y239650D02*X303807Y240150D01*
X305307D01*
X307007Y236150D02*X308007D01*
X307507Y240150D02*Y236150D01*
X306507Y239150D02*X307507Y240150D01*
X309207Y236150D02*X311707Y238650D01*
Y240150D02*Y238650D01*
X309207Y240150D02*X311707D01*
X334000Y254000D02*X336000D01*
X336500Y253500D01*
Y252500D01*
X336000Y252000D02*X336500Y252500D01*
X334500Y252000D02*X336000D01*
X334500Y254000D02*Y250000D01*
Y252000D02*X336500Y250000D01*
X337700Y254000D02*X339700D01*
X337700D02*Y252000D01*
X338200Y252500D01*
X339200D01*
X339700Y252000D01*
Y250500D01*
X339200Y250000D02*X339700Y250500D01*
X338200Y250000D02*X339200D01*
X337700Y250500D02*X338200Y250000D01*
X351000Y285000D02*Y281000D01*
X353000D01*
X354700D02*X356200D01*
X354200Y281500D02*X354700Y281000D01*
X354200Y284500D02*Y281500D01*
Y284500D02*X354700Y285000D01*
X356200D01*
X357900D02*Y281000D01*
X359400Y285000D02*X359900Y284500D01*
Y281500D01*
X359400Y281000D02*X359900Y281500D01*
X357400Y281000D02*X359400D01*
X357400Y285000D02*X359400D01*
X361600Y281000D02*X362600D01*
X362100Y285000D02*Y281000D01*
X361100Y284000D02*X362100Y285000D01*
X245500Y211700D02*X247000D01*
X245000Y212200D02*X245500Y211700D01*
X245000Y215200D02*Y212200D01*
Y215200D02*X245500Y215700D01*
X247000D01*
X248700Y211700D02*X249700D01*
X249200Y215700D02*Y211700D01*
X248200Y214700D02*X249200Y215700D01*
X250900Y212200D02*X251400Y211700D01*
X250900Y215200D02*Y212200D01*
Y215200D02*X251400Y215700D01*
X252400D01*
X252900Y215200D01*
Y212200D01*
X252400Y211700D02*X252900Y212200D01*
X251400Y211700D02*X252400D01*
X250900Y212700D02*X252900Y214700D01*
X257714Y222500D02*X259214D01*
X257214Y223000D02*X257714Y222500D01*
X257214Y226000D02*Y223000D01*
Y226000D02*X257714Y226500D01*
X259214D01*
X260414Y222500D02*X262914Y225000D01*
Y226500D02*Y225000D01*
X260414Y226500D02*X262914D01*
X320500Y223000D02*Y219500D01*
X321000Y219000D01*
X322000D01*
X322500Y219500D01*
Y223000D02*Y219500D01*
X323700Y222500D02*X324200Y223000D01*
X325700D01*
X326200Y222500D01*
Y221500D01*
X323700Y219000D02*X326200Y221500D01*
X323700Y219000D02*X326200D01*
X335850Y219650D02*X337350D01*
X335350Y220150D02*X335850Y219650D01*
X335350Y223150D02*Y220150D01*
Y223150D02*X335850Y223650D01*
X337350D01*
X339050Y219650D02*X340050D01*
X339550Y223650D02*Y219650D01*
X338550Y222650D02*X339550Y223650D01*
X341750Y219650D02*X342750D01*
X342250Y223650D02*Y219650D01*
X341250Y222650D02*X342250Y223650D01*
X335457Y232000D02*X337457D01*
X337957Y231500D01*
Y230500D01*
X337457Y230000D02*X337957Y230500D01*
X335957Y230000D02*X337457D01*
X335957Y232000D02*Y228000D01*
Y230000D02*X337957Y228000D01*
X339157Y230000D02*X341157Y232000D01*
X339157Y230000D02*X341657D01*
X341157Y232000D02*Y228000D01*
X97000Y38500D02*X97500Y38000D01*
X95500Y38500D02*X97000D01*
X95000Y38000D02*X95500Y38500D01*
X95000Y38000D02*Y37000D01*
X95500Y36500D01*
X97000D01*
X97500Y36000D01*
Y35000D01*
X97000Y34500D02*X97500Y35000D01*
X95500Y34500D02*X97000D01*
X95000Y35000D02*X95500Y34500D01*
X98700Y38500D02*Y34500D01*
X100200Y36000D01*
X101700Y34500D01*
Y38500D02*Y34500D01*
X102900Y36500D02*X104900Y38500D01*
X102900Y36500D02*X105400D01*
X104900Y38500D02*Y34500D01*
X163500Y38500D02*X164000Y38000D01*
X162000Y38500D02*X163500D01*
X161500Y38000D02*X162000Y38500D01*
X161500Y38000D02*Y37000D01*
X162000Y36500D01*
X163500D01*
X164000Y36000D01*
Y35000D01*
X163500Y34500D02*X164000Y35000D01*
X162000Y34500D02*X163500D01*
X161500Y35000D02*X162000Y34500D01*
X165200Y38500D02*Y34500D01*
X166700Y36000D01*
X168200Y34500D01*
Y38500D02*Y34500D01*
X169400Y38000D02*X169900Y38500D01*
X170900D01*
X171400Y38000D01*
Y35000D01*
X170900Y34500D02*X171400Y35000D01*
X169900Y34500D02*X170900D01*
X169400Y35000D02*X169900Y34500D01*
Y36500D02*X171400D01*
X230500Y38500D02*X231000Y38000D01*
X229000Y38500D02*X230500D01*
X228500Y38000D02*X229000Y38500D01*
X228500Y38000D02*Y37000D01*
X229000Y36500D01*
X230500D01*
X231000Y36000D01*
Y35000D01*
X230500Y34500D02*X231000Y35000D01*
X229000Y34500D02*X230500D01*
X228500Y35000D02*X229000Y34500D01*
X232200Y38500D02*Y34500D01*
X233700Y36000D01*
X235200Y34500D01*
Y38500D02*Y34500D01*
X236400Y38000D02*X236900Y38500D01*
X238400D01*
X238900Y38000D01*
Y37000D01*
X236400Y34500D02*X238900Y37000D01*
X236400Y34500D02*X238900D01*
X40500Y66400D02*X42000D01*
X40000Y66900D02*X40500Y66400D01*
X40000Y69900D02*Y66900D01*
Y69900D02*X40500Y70400D01*
X42000D01*
X43200Y68400D02*X45200Y70400D01*
X43200Y68400D02*X45700D01*
X45200Y70400D02*Y66400D01*
X33500Y77000D02*X35000D01*
Y73500D01*
X34500Y73000D02*X35000Y73500D01*
X34000Y73000D02*X34500D01*
X33500Y73500D02*X34000Y73000D01*
X36200Y76500D02*X36700Y77000D01*
X38200D01*
X38700Y76500D01*
Y75500D01*
X36200Y73000D02*X38700Y75500D01*
X36200Y73000D02*X38700D01*
X88000Y110000D02*Y106500D01*
X88500Y106000D01*
X89500D01*
X90000Y106500D01*
Y110000D02*Y106500D01*
X91200Y109500D02*X91700Y110000D01*
X92700D01*
X93200Y109500D01*
Y106500D01*
X92700Y106000D02*X93200Y106500D01*
X91700Y106000D02*X92700D01*
X91200Y106500D02*X91700Y106000D01*
Y108000D02*X93200D01*
X66800Y84900D02*Y81400D01*
X67300Y80900D01*
X68300D01*
X68800Y81400D01*
Y84900D02*Y81400D01*
X70000Y84900D02*X72000D01*
X70000D02*Y82900D01*
X70500Y83400D01*
X71500D01*
X72000Y82900D01*
Y81400D01*
X71500Y80900D02*X72000Y81400D01*
X70500Y80900D02*X71500D01*
X70000Y81400D02*X70500Y80900D01*
X137000Y50500D02*Y46500D01*
X139500Y50500D02*Y46500D01*
X137000Y48500D02*X139500D01*
X142700Y50500D02*X143200Y50000D01*
X141200Y50500D02*X142700D01*
X140700Y50000D02*X141200Y50500D01*
X140700Y50000D02*Y49000D01*
X141200Y48500D01*
X142700D01*
X143200Y48000D01*
Y47000D01*
X142700Y46500D02*X143200Y47000D01*
X141200Y46500D02*X142700D01*
X140700Y47000D02*X141200Y46500D01*
X144900D02*X145900D01*
X145400Y50500D02*Y46500D01*
X144400Y49500D02*X145400Y50500D01*
X382993Y203050D02*X384493D01*
X382493Y203550D02*X382993Y203050D01*
X382493Y206550D02*Y203550D01*
Y206550D02*X382993Y207050D01*
X384493D01*
X386193Y203050D02*X387193D01*
X386693Y207050D02*Y203050D01*
X385693Y206050D02*X386693Y207050D01*
X388393Y205050D02*X390393Y207050D01*
X388393Y205050D02*X390893D01*
X390393Y207050D02*Y203050D01*
X383000Y177000D02*X384500D01*
X382500Y177500D02*X383000Y177000D01*
X382500Y180500D02*Y177500D01*
Y180500D02*X383000Y181000D01*
X384500D01*
X386200Y177000D02*X387200D01*
X386700Y181000D02*Y177000D01*
X385700Y180000D02*X386700Y181000D01*
X389900D02*X390400Y180500D01*
X388900Y181000D02*X389900D01*
X388400Y180500D02*X388900Y181000D01*
X388400Y180500D02*Y177500D01*
X388900Y177000D01*
X389900Y179000D02*X390400Y178500D01*
X388400Y179000D02*X389900D01*
X388900Y177000D02*X389900D01*
X390400Y177500D01*
Y178500D02*Y177500D01*
X336486Y182800D02*X337986D01*
X335986Y183300D02*X336486Y182800D01*
X335986Y186300D02*Y183300D01*
Y186300D02*X336486Y186800D01*
X337986D01*
X340686D02*X341186Y186300D01*
X339686Y186800D02*X340686D01*
X339186Y186300D02*X339686Y186800D01*
X339186Y186300D02*Y183300D01*
X339686Y182800D01*
X340686Y184800D02*X341186Y184300D01*
X339186Y184800D02*X340686D01*
X339686Y182800D02*X340686D01*
X341186Y183300D01*
Y184300D02*Y183300D01*
X360500Y173500D02*X362000D01*
Y170000D01*
X361500Y169500D02*X362000Y170000D01*
X361000Y169500D02*X361500D01*
X360500Y170000D02*X361000Y169500D01*
X364700Y173500D02*X365200Y173000D01*
X363700Y173500D02*X364700D01*
X363200Y173000D02*X363700Y173500D01*
X363200Y173000D02*Y170000D01*
X363700Y169500D01*
X364700Y171500D02*X365200Y171000D01*
X363200Y171500D02*X364700D01*
X363700Y169500D02*X364700D01*
X365200Y170000D01*
Y171000D02*Y170000D01*
X367200Y250900D02*X368700D01*
Y247400D01*
X368200Y246900D02*X368700Y247400D01*
X367700Y246900D02*X368200D01*
X367200Y247400D02*X367700Y246900D01*
X369900Y250900D02*X371900D01*
X369900D02*Y248900D01*
X370400Y249400D01*
X371400D01*
X371900Y248900D01*
Y247400D01*
X371400Y246900D02*X371900Y247400D01*
X370400Y246900D02*X371400D01*
X369900Y247400D02*X370400Y246900D01*
X364893Y215650D02*X366393D01*
X364393Y216150D02*X364893Y215650D01*
X364393Y219150D02*Y216150D01*
Y219150D02*X364893Y219650D01*
X366393D01*
X368093Y215650D02*X369093D01*
X368593Y219650D02*Y215650D01*
X367593Y218650D02*X368593Y219650D01*
X370293D02*X372293D01*
X370293D02*Y217650D01*
X370793Y218150D01*
X371793D01*
X372293Y217650D01*
Y216150D01*
X371793Y215650D02*X372293Y216150D01*
X370793Y215650D02*X371793D01*
X370293Y216150D02*X370793Y215650D01*
X337000Y152000D02*X338500D01*
X336500Y152500D02*X337000Y152000D01*
X336500Y155500D02*Y152500D01*
Y155500D02*X337000Y156000D01*
X338500D01*
X339700Y155500D02*X340200Y156000D01*
X341700D01*
X342200Y155500D01*
Y154500D01*
X339700Y152000D02*X342200Y154500D01*
X339700Y152000D02*X342200D01*
X343900D02*X344900D01*
X344400Y156000D02*Y152000D01*
X343400Y155000D02*X344400Y156000D01*
X336500Y164500D02*X338500D01*
X339000Y164000D01*
Y163000D01*
X338500Y162500D02*X339000Y163000D01*
X337000Y162500D02*X338500D01*
X337000Y164500D02*Y160500D01*
Y162500D02*X339000Y160500D01*
X340700D02*X341700D01*
X341200Y164500D02*Y160500D01*
X340200Y163500D02*X341200Y164500D01*
X342900Y164000D02*X343400Y164500D01*
X344900D01*
X345400Y164000D01*
Y163000D01*
X342900Y160500D02*X345400Y163000D01*
X342900Y160500D02*X345400D01*
X382000Y189500D02*X384000D01*
X384500Y189000D01*
Y188000D01*
X384000Y187500D02*X384500Y188000D01*
X382500Y187500D02*X384000D01*
X382500Y189500D02*Y185500D01*
Y187500D02*X384500Y185500D01*
X386200D02*X387200D01*
X386700Y189500D02*Y185500D01*
X385700Y188500D02*X386700Y189500D01*
X388400Y186000D02*X388900Y185500D01*
X388400Y187000D02*Y186000D01*
Y187000D02*X388900Y187500D01*
X389900D01*
X390400Y187000D01*
Y186000D01*
X389900Y185500D02*X390400Y186000D01*
X388900Y185500D02*X389900D01*
X388400Y188000D02*X388900Y187500D01*
X388400Y189000D02*Y188000D01*
Y189000D02*X388900Y189500D01*
X389900D01*
X390400Y189000D01*
Y188000D01*
X389900Y187500D02*X390400Y188000D01*
X382000Y198500D02*X384000D01*
X384500Y198000D01*
Y197000D01*
X384000Y196500D02*X384500Y197000D01*
X382500Y196500D02*X384000D01*
X382500Y198500D02*Y194500D01*
Y196500D02*X384500Y194500D01*
X386200D02*X387200D01*
X386700Y198500D02*Y194500D01*
X385700Y197500D02*X386700Y198500D01*
X388400D02*X390400D01*
X388400D02*Y196500D01*
X388900Y197000D01*
X389900D01*
X390400Y196500D01*
Y195000D01*
X389900Y194500D02*X390400Y195000D01*
X388900Y194500D02*X389900D01*
X388400Y195000D02*X388900Y194500D01*
X338500Y130000D02*X340500D01*
X341000Y129500D01*
Y128500D01*
X340500Y128000D02*X341000Y128500D01*
X339000Y128000D02*X340500D01*
X339000Y130000D02*Y126000D01*
Y128000D02*X341000Y126000D01*
X342200D02*X344700Y128500D01*
Y130000D02*Y128500D01*
X342200Y130000D02*X344700D01*
X338500Y112000D02*X340500D01*
X341000Y111500D01*
Y110500D01*
X340500Y110000D02*X341000Y110500D01*
X339000Y110000D02*X340500D01*
X339000Y112000D02*Y108000D01*
Y110000D02*X341000Y108000D01*
X343700Y112000D02*X344200Y111500D01*
X342700Y112000D02*X343700D01*
X342200Y111500D02*X342700Y112000D01*
X342200Y111500D02*Y108500D01*
X342700Y108000D01*
X343700Y110000D02*X344200Y109500D01*
X342200Y110000D02*X343700D01*
X342700Y108000D02*X343700D01*
X344200Y108500D01*
Y109500D02*Y108500D01*
X68500Y235500D02*X70000D01*
X68000Y236000D02*X68500Y235500D01*
X68000Y239000D02*Y236000D01*
Y239000D02*X68500Y239500D01*
X70000D01*
X71700Y235500D02*X72700D01*
X72200Y239500D02*Y235500D01*
X71200Y238500D02*X72200Y239500D01*
X66550Y245507D02*X68050D01*
X66050Y246007D02*X66550Y245507D01*
X66050Y249007D02*Y246007D01*
Y249007D02*X66550Y249507D01*
X68050D01*
X69750Y245507D02*X70750D01*
X70250Y249507D02*Y245507D01*
X69250Y248507D02*X70250Y249507D01*
X71950Y249007D02*X72450Y249507D01*
X73950D01*
X74450Y249007D01*
Y248007D01*
X71950Y245507D02*X74450Y248007D01*
X71950Y245507D02*X74450D01*
X71500Y265000D02*Y261500D01*
X72000Y261000D01*
X73000D01*
X73500Y261500D01*
Y265000D02*Y261500D01*
X75200Y261000D02*X76200D01*
X75700Y265000D02*Y261000D01*
X74700Y264000D02*X75700Y265000D01*
X7000Y214957D02*Y210957D01*
X8500Y214957D02*X9000Y214457D01*
Y211457D01*
X8500Y210957D02*X9000Y211457D01*
X6500Y210957D02*X8500D01*
X6500Y214957D02*X8500D01*
X10200Y214457D02*X10700Y214957D01*
X11700D01*
X12200Y214457D01*
Y211457D01*
X11700Y210957D02*X12200Y211457D01*
X10700Y210957D02*X11700D01*
X10200Y211457D02*X10700Y210957D01*
Y212957D02*X12200D01*
X51000Y262000D02*X52500D01*
Y258500D01*
X52000Y258000D02*X52500Y258500D01*
X51500Y258000D02*X52000D01*
X51000Y258500D02*X51500Y258000D01*
X54200D02*X55200D01*
X54700Y262000D02*Y258000D01*
X53700Y261000D02*X54700Y262000D01*
X72307Y278150D02*X73807D01*
X71807Y278650D02*X72307Y278150D01*
X71807Y281650D02*Y278650D01*
Y281650D02*X72307Y282150D01*
X73807D01*
X75507Y278150D02*X76507D01*
X76007Y282150D02*Y278150D01*
X75007Y281150D02*X76007Y282150D01*
X77707Y281650D02*X78207Y282150D01*
X79207D01*
X79707Y281650D01*
Y278650D01*
X79207Y278150D02*X79707Y278650D01*
X78207Y278150D02*X79207D01*
X77707Y278650D02*X78207Y278150D01*
Y280150D02*X79707D01*
X140400Y235860D02*X141900D01*
Y232360D01*
X141400Y231860D02*X141900Y232360D01*
X140900Y231860D02*X141400D01*
X140400Y232360D02*X140900Y231860D01*
X143100Y235360D02*X143600Y235860D01*
X144600D01*
X145100Y235360D01*
Y232360D01*
X144600Y231860D02*X145100Y232360D01*
X143600Y231860D02*X144600D01*
X143100Y232360D02*X143600Y231860D01*
Y233860D02*X145100D01*
X104914Y250400D02*X106414D01*
X104414Y250900D02*X104914Y250400D01*
X104414Y253900D02*Y250900D01*
Y253900D02*X104914Y254400D01*
X106414D01*
X107614Y253900D02*X108114Y254400D01*
X109614D01*
X110114Y253900D01*
Y252900D01*
X107614Y250400D02*X110114Y252900D01*
X107614Y250400D02*X110114D01*
X104793Y240450D02*X106293D01*
X104293Y240950D02*X104793Y240450D01*
X104293Y243950D02*Y240950D01*
Y243950D02*X104793Y244450D01*
X106293D01*
X107493Y243950D02*X107993Y244450D01*
X109493D01*
X109993Y243950D01*
Y242950D01*
X107493Y240450D02*X109993Y242950D01*
X107493Y240450D02*X109993D01*
X111193Y243950D02*Y240450D01*
Y243950D02*X111693Y244450D01*
X113193D01*
X113693Y243950D01*
Y240450D01*
X111193Y242450D02*X113693D01*
X119050Y255450D02*Y251450D01*
X121050D01*
X122750D02*X123750D01*
X123250Y255450D02*Y251450D01*
X122250Y254450D02*X123250Y255450D01*
X190500Y260000D02*Y257000D01*
Y260000D02*X191000Y260500D01*
X192000D01*
X192500Y260000D01*
Y257000D01*
X192000Y256500D02*X192500Y257000D01*
X191000Y256500D02*X192000D01*
X190500Y257000D02*X191000Y256500D01*
X191500Y257500D02*X192500Y256500D01*
X194200D02*X195200D01*
X194700Y260500D02*Y256500D01*
X193700Y259500D02*X194700Y260500D01*
X26500Y170000D02*X28000D01*
X26000Y170500D02*X26500Y170000D01*
X26000Y173500D02*Y170500D01*
Y173500D02*X26500Y174000D01*
X28000D01*
X29700Y170000D02*X30700D01*
X30200Y174000D02*Y170000D01*
X29200Y173000D02*X30200Y174000D01*
X31900Y170000D02*X33900D01*
X34400Y170500D01*
Y171500D02*Y170500D01*
X33900Y172000D02*X34400Y171500D01*
X32400Y172000D02*X33900D01*
X32400Y174000D02*Y170000D01*
X31900Y174000D02*X33900D01*
X34400Y173500D01*
Y172500D01*
X33900Y172000D02*X34400Y172500D01*
X26000Y200000D02*X27500D01*
X25500Y200500D02*X26000Y200000D01*
X25500Y203500D02*Y200500D01*
Y203500D02*X26000Y204000D01*
X27500D01*
X29200Y200000D02*X30200D01*
X29700Y204000D02*Y200000D01*
X28700Y203000D02*X29700Y204000D01*
X31400Y203500D02*Y200000D01*
Y203500D02*X31900Y204000D01*
X33400D01*
X33900Y203500D01*
Y200000D01*
X31400Y202000D02*X33900D01*
X15264Y166193D02*X17264D01*
X17764Y165693D01*
Y164693D01*
X17264Y164193D02*X17764Y164693D01*
X15764Y164193D02*X17264D01*
X15764Y166193D02*Y162193D01*
Y164193D02*X17764Y162193D01*
X19464D02*X20464D01*
X19964Y166193D02*Y162193D01*
X18964Y165193D02*X19964Y166193D01*
X21664Y162693D02*X22164Y162193D01*
X21664Y165693D02*Y162693D01*
Y165693D02*X22164Y166193D01*
X23164D01*
X23664Y165693D01*
Y162693D01*
X23164Y162193D02*X23664Y162693D01*
X22164Y162193D02*X23164D01*
X21664Y163193D02*X23664Y165193D01*
X7500Y175400D02*Y171400D01*
X9000Y175400D02*X9500Y174900D01*
Y171900D01*
X9000Y171400D02*X9500Y171900D01*
X7000Y171400D02*X9000D01*
X7000Y175400D02*X9000D01*
X10700Y174900D02*X11200Y175400D01*
X12700D01*
X13200Y174900D01*
Y173900D01*
X10700Y171400D02*X13200Y173900D01*
X10700Y171400D02*X13200D01*
X122936Y212650D02*Y208650D01*
X124436Y212650D02*X124936Y212150D01*
Y209150D01*
X124436Y208650D02*X124936Y209150D01*
X122436Y208650D02*X124436D01*
X122436Y212650D02*X124436D01*
X126636Y208650D02*X127636D01*
X127136Y212650D02*Y208650D01*
X126136Y211650D02*X127136Y212650D01*
X246786Y170800D02*X248286D01*
X246286Y171300D02*X246786Y170800D01*
X246286Y174300D02*Y171300D01*
Y174300D02*X246786Y174800D01*
X248286D01*
X249486Y170800D02*X251486Y172800D01*
Y174300D02*Y172800D01*
X250986Y174800D02*X251486Y174300D01*
X249986Y174800D02*X250986D01*
X249486Y174300D02*X249986Y174800D01*
X249486Y174300D02*Y173300D01*
X249986Y172800D01*
X251486D01*
X258429Y207283D02*Y206783D01*
X259429Y205783D01*
X260429Y206783D01*
Y207283D02*Y206783D01*
X259429Y205783D02*Y203283D01*
X262129D02*X263129D01*
X262629Y207283D02*Y203283D01*
X261629Y206283D02*X262629Y207283D01*
X104807Y212150D02*X106807D01*
X107307Y211650D01*
Y210650D01*
X106807Y210150D02*X107307Y210650D01*
X105307Y210150D02*X106807D01*
X105307Y212150D02*Y208150D01*
Y210150D02*X107307Y208150D01*
X109007D02*X110007D01*
X109507Y212150D02*Y208150D01*
X108507Y211150D02*X109507Y212150D01*
X51350Y138150D02*X53350D01*
X53850Y137650D01*
Y136650D01*
X53350Y136150D02*X53850Y136650D01*
X51850Y136150D02*X53350D01*
X51850Y138150D02*Y134150D01*
Y136150D02*X53850Y134150D01*
X55050D02*X57050Y136150D01*
Y137650D02*Y136150D01*
X56550Y138150D02*X57050Y137650D01*
X55550Y138150D02*X56550D01*
X55050Y137650D02*X55550Y138150D01*
X55050Y137650D02*Y136650D01*
X55550Y136150D01*
X57050D01*
X93500Y144500D02*X95000D01*
X93000Y145000D02*X93500Y144500D01*
X93000Y148000D02*Y145000D01*
Y148000D02*X93500Y148500D01*
X95000D01*
X96200Y148000D02*X96700Y148500D01*
X97700D01*
X98200Y148000D01*
Y145000D01*
X97700Y144500D02*X98200Y145000D01*
X96700Y144500D02*X97700D01*
X96200Y145000D02*X96700Y144500D01*
Y146500D02*X98200D01*
X256000Y167000D02*X258000D01*
X258500Y166500D01*
Y165500D01*
X258000Y165000D02*X258500Y165500D01*
X256500Y165000D02*X258000D01*
X256500Y167000D02*Y163000D01*
Y165000D02*X258500Y163000D01*
X259700Y166500D02*X260200Y167000D01*
X261200D01*
X261700Y166500D01*
Y163500D01*
X261200Y163000D02*X261700Y163500D01*
X260200Y163000D02*X261200D01*
X259700Y163500D02*X260200Y163000D01*
Y165000D02*X261700D01*
X148000Y213500D02*X150000D01*
X150500Y213000D01*
Y212000D01*
X150000Y211500D02*X150500Y212000D01*
X148500Y211500D02*X150000D01*
X148500Y213500D02*Y209500D01*
Y211500D02*X150500Y209500D01*
X151700Y213000D02*X152200Y213500D01*
X153700D01*
X154200Y213000D01*
Y212000D01*
X151700Y209500D02*X154200Y212000D01*
X151700Y209500D02*X154200D01*
X161157Y209200D02*X162657D01*
X160657Y209700D02*X161157Y209200D01*
X160657Y212700D02*Y209700D01*
Y212700D02*X161157Y213200D01*
X162657D01*
X163857D02*X165857D01*
X163857D02*Y211200D01*
X164357Y211700D01*
X165357D01*
X165857Y211200D01*
Y209700D01*
X165357Y209200D02*X165857Y209700D01*
X164357Y209200D02*X165357D01*
X163857Y209700D02*X164357Y209200D01*
X297000Y38500D02*X297500Y38000D01*
X295500Y38500D02*X297000D01*
X295000Y38000D02*X295500Y38500D01*
X295000Y38000D02*Y37000D01*
X295500Y36500D01*
X297000D01*
X297500Y36000D01*
Y35000D01*
X297000Y34500D02*X297500Y35000D01*
X295500Y34500D02*X297000D01*
X295000Y35000D02*X295500Y34500D01*
X298700Y38500D02*Y34500D01*
X300200Y36000D01*
X301700Y34500D01*
Y38500D02*Y34500D01*
X303400D02*X304400D01*
X303900Y38500D02*Y34500D01*
X302900Y37500D02*X303900Y38500D01*
X302000Y94500D02*Y91000D01*
X302500Y90500D01*
X303500D01*
X304000Y91000D01*
Y94500D02*Y91000D01*
X305200Y92500D02*X307200Y94500D01*
X305200Y92500D02*X307700D01*
X307200Y94500D02*Y90500D01*
X363000Y71000D02*X364500D01*
Y67500D01*
X364000Y67000D02*X364500Y67500D01*
X363500Y67000D02*X364000D01*
X363000Y67500D02*X363500Y67000D01*
X365700Y69000D02*X367700Y71000D01*
X365700Y69000D02*X368200D01*
X367700Y71000D02*Y67000D01*
X336000Y86000D02*X338000D01*
X338500Y85500D01*
Y84500D01*
X338000Y84000D02*X338500Y84500D01*
X336500Y84000D02*X338000D01*
X336500Y86000D02*Y82000D01*
Y84000D02*X338500Y82000D01*
X340200D02*X341200D01*
X340700Y86000D02*Y82000D01*
X339700Y85000D02*X340700Y86000D01*
X343900D02*X344400Y85500D01*
X342900Y86000D02*X343900D01*
X342400Y85500D02*X342900Y86000D01*
X342400Y85500D02*Y82500D01*
X342900Y82000D01*
X343900Y84000D02*X344400Y83500D01*
X342400Y84000D02*X343900D01*
X342900Y82000D02*X343900D01*
X344400Y82500D01*
Y83500D02*Y82500D01*
X336000Y77500D02*X338000D01*
X338500Y77000D01*
Y76000D01*
X338000Y75500D02*X338500Y76000D01*
X336500Y75500D02*X338000D01*
X336500Y77500D02*Y73500D01*
Y75500D02*X338500Y73500D01*
X340200D02*X341200D01*
X340700Y77500D02*Y73500D01*
X339700Y76500D02*X340700Y77500D01*
X342400Y77000D02*X342900Y77500D01*
X343900D01*
X344400Y77000D01*
Y74000D01*
X343900Y73500D02*X344400Y74000D01*
X342900Y73500D02*X343900D01*
X342400Y74000D02*X342900Y73500D01*
Y75500D02*X344400D01*
X336000Y95000D02*X338000D01*
X338500Y94500D01*
Y93500D01*
X338000Y93000D02*X338500Y93500D01*
X336500Y93000D02*X338000D01*
X336500Y95000D02*Y91000D01*
Y93000D02*X338500Y91000D01*
X340200D02*X341200D01*
X340700Y95000D02*Y91000D01*
X339700Y94000D02*X340700Y95000D01*
X342400Y91000D02*X344400Y93000D01*
Y94500D02*Y93000D01*
X343900Y95000D02*X344400Y94500D01*
X342900Y95000D02*X343900D01*
X342400Y94500D02*X342900Y95000D01*
X342400Y94500D02*Y93500D01*
X342900Y93000D01*
X344400D01*
X335500Y60500D02*X337500D01*
X338000Y60000D01*
Y59000D01*
X337500Y58500D02*X338000Y59000D01*
X336000Y58500D02*X337500D01*
X336000Y60500D02*Y56500D01*
Y58500D02*X338000Y56500D01*
X339700D02*X340700D01*
X340200Y60500D02*Y56500D01*
X339200Y59500D02*X340200Y60500D01*
X341900Y56500D02*X344400Y59000D01*
Y60500D02*Y59000D01*
X341900Y60500D02*X344400D01*
X336086Y69000D02*X338086D01*
X338586Y68500D01*
Y67500D01*
X338086Y67000D02*X338586Y67500D01*
X336586Y67000D02*X338086D01*
X336586Y69000D02*Y65000D01*
Y67000D02*X338586Y65000D01*
X340286D02*X341286D01*
X340786Y69000D02*Y65000D01*
X339786Y68000D02*X340786Y69000D01*
X342486Y67000D02*X344486Y69000D01*
X342486Y67000D02*X344986D01*
X344486Y69000D02*Y65000D01*
X337500Y99500D02*X339000D01*
X337000Y100000D02*X337500Y99500D01*
X337000Y103000D02*Y100000D01*
Y103000D02*X337500Y103500D01*
X339000D01*
X340700Y99500D02*X341700D01*
X341200Y103500D02*Y99500D01*
X340200Y102500D02*X341200Y103500D01*
X342900Y100000D02*X343400Y99500D01*
X342900Y101000D02*Y100000D01*
Y101000D02*X343400Y101500D01*
X344400D01*
X344900Y101000D01*
Y100000D01*
X344400Y99500D02*X344900Y100000D01*
X343400Y99500D02*X344400D01*
X342900Y102000D02*X343400Y101500D01*
X342900Y103000D02*Y102000D01*
Y103000D02*X343400Y103500D01*
X344400D01*
X344900Y103000D01*
Y102000D01*
X344400Y101500D02*X344900Y102000D01*
X336000Y134500D02*X337500D01*
X335500Y135000D02*X336000Y134500D01*
X335500Y138000D02*Y135000D01*
Y138000D02*X336000Y138500D01*
X337500D01*
X338700Y138000D02*X339200Y138500D01*
X340700D01*
X341200Y138000D01*
Y137000D01*
X338700Y134500D02*X341200Y137000D01*
X338700Y134500D02*X341200D01*
X342400Y135000D02*X342900Y134500D01*
X342400Y138000D02*Y135000D01*
Y138000D02*X342900Y138500D01*
X343900D01*
X344400Y138000D01*
Y135000D01*
X343900Y134500D02*X344400Y135000D01*
X342900Y134500D02*X343900D01*
X342400Y135500D02*X344400Y137500D01*
X337000Y117500D02*X338500D01*
X336500Y118000D02*X337000Y117500D01*
X336500Y121000D02*Y118000D01*
Y121000D02*X337000Y121500D01*
X338500D01*
X340200Y117500D02*X341200D01*
X340700Y121500D02*Y117500D01*
X339700Y120500D02*X340700Y121500D01*
X342400Y117500D02*X344400Y119500D01*
Y121000D02*Y119500D01*
X343900Y121500D02*X344400Y121000D01*
X342900Y121500D02*X343900D01*
X342400Y121000D02*X342900Y121500D01*
X342400Y121000D02*Y120000D01*
X342900Y119500D01*
X344400D01*
X338500Y147000D02*X340500D01*
X341000Y146500D01*
Y145500D01*
X340500Y145000D02*X341000Y145500D01*
X339000Y145000D02*X340500D01*
X339000Y147000D02*Y143000D01*
Y145000D02*X341000Y143000D01*
X342200Y143500D02*X342700Y143000D01*
X342200Y144500D02*Y143500D01*
Y144500D02*X342700Y145000D01*
X343700D01*
X344200Y144500D01*
Y143500D01*
X343700Y143000D02*X344200Y143500D01*
X342700Y143000D02*X343700D01*
X342200Y145500D02*X342700Y145000D01*
X342200Y146500D02*Y145500D01*
Y146500D02*X342700Y147000D01*
X343700D01*
X344200Y146500D01*
Y145500D01*
X343700Y145000D02*X344200Y145500D01*
M02*
