G04 start of page 2 for group 0 idx 0 *
G04 Title: (unknown), component *
G04 Creator: pcb 4.0.2 *
G04 CreationDate: Fri Feb  3 04:42:44 2023 UTC *
G04 For: ndholmes *
G04 Format: Gerber/RS-274X *
G04 PCB-Dimensions (mil): 4000.00 2900.00 *
G04 PCB-Coordinate-Origin: lower left *
%MOIN*%
%FSLAX25Y25*%
%LNTOP*%
%ADD33C,0.0472*%
%ADD32C,0.1100*%
%ADD31C,0.1250*%
%ADD30C,0.0390*%
%ADD29C,0.0480*%
%ADD28C,0.0380*%
%ADD27C,0.1285*%
%ADD26C,0.0120*%
%ADD25C,0.0260*%
%ADD24C,0.1500*%
%ADD23C,0.1750*%
%ADD22C,0.0690*%
%ADD21C,0.2937*%
%ADD20C,0.0450*%
%ADD19C,0.0800*%
%ADD18C,0.0700*%
%ADD17C,0.0350*%
%ADD16C,0.0600*%
%ADD15C,0.0500*%
%ADD14C,0.0100*%
%ADD13C,0.0400*%
%ADD12C,0.0250*%
%ADD11C,0.0001*%
G54D11*G36*
X316472Y23000D02*X324000D01*
Y2000D01*
X316472D01*
Y7717D01*
X316531Y7762D01*
X316586Y7818D01*
X316630Y7884D01*
X316819Y8230D01*
X316972Y8594D01*
X317093Y8970D01*
X317180Y9356D01*
X317232Y9747D01*
X317250Y10142D01*
X317232Y10536D01*
X317180Y10928D01*
X317093Y11313D01*
X316972Y11689D01*
X316819Y12053D01*
X316634Y12402D01*
X316589Y12467D01*
X316534Y12524D01*
X316472Y12571D01*
Y23000D01*
G37*
G36*
X312797D02*X316472D01*
Y12571D01*
X316470Y12572D01*
X316400Y12609D01*
X316325Y12635D01*
X316247Y12649D01*
X316168Y12650D01*
X316090Y12639D01*
X316014Y12616D01*
X315943Y12581D01*
X315878Y12536D01*
X315821Y12481D01*
X315773Y12418D01*
X315736Y12348D01*
X315710Y12273D01*
X315696Y12195D01*
X315695Y12115D01*
X315706Y12037D01*
X315729Y11961D01*
X315765Y11891D01*
X315911Y11622D01*
X316030Y11340D01*
X316124Y11049D01*
X316191Y10751D01*
X316232Y10447D01*
X316245Y10142D01*
X316232Y9836D01*
X316191Y9533D01*
X316124Y9234D01*
X316030Y8943D01*
X315911Y8661D01*
X315768Y8391D01*
X315732Y8321D01*
X315709Y8246D01*
X315698Y8168D01*
X315700Y8089D01*
X315713Y8012D01*
X315739Y7937D01*
X315776Y7868D01*
X315823Y7805D01*
X315880Y7750D01*
X315944Y7705D01*
X316015Y7671D01*
X316090Y7648D01*
X316168Y7637D01*
X316247Y7638D01*
X316325Y7652D01*
X316399Y7677D01*
X316468Y7714D01*
X316472Y7717D01*
Y2000D01*
X312797D01*
Y5687D01*
X313190Y5705D01*
X313581Y5757D01*
X313967Y5844D01*
X314343Y5965D01*
X314707Y6118D01*
X315056Y6304D01*
X315121Y6348D01*
X315178Y6403D01*
X315226Y6467D01*
X315263Y6537D01*
X315289Y6612D01*
X315302Y6690D01*
X315304Y6769D01*
X315293Y6847D01*
X315270Y6923D01*
X315235Y6994D01*
X315189Y7059D01*
X315134Y7116D01*
X315071Y7164D01*
X315001Y7201D01*
X314926Y7227D01*
X314848Y7241D01*
X314769Y7242D01*
X314690Y7231D01*
X314615Y7208D01*
X314544Y7172D01*
X314276Y7026D01*
X313994Y6907D01*
X313703Y6813D01*
X313404Y6746D01*
X313101Y6705D01*
X312797Y6692D01*
Y13592D01*
X313101Y13578D01*
X313404Y13538D01*
X313703Y13470D01*
X313994Y13377D01*
X314276Y13258D01*
X314546Y13115D01*
X314616Y13079D01*
X314691Y13056D01*
X314769Y13045D01*
X314848Y13046D01*
X314925Y13060D01*
X315000Y13085D01*
X315069Y13122D01*
X315132Y13170D01*
X315187Y13226D01*
X315232Y13291D01*
X315266Y13362D01*
X315289Y13437D01*
X315300Y13515D01*
X315299Y13593D01*
X315285Y13671D01*
X315260Y13745D01*
X315223Y13815D01*
X315175Y13878D01*
X315119Y13932D01*
X315053Y13976D01*
X314707Y14165D01*
X314343Y14319D01*
X313967Y14439D01*
X313581Y14526D01*
X313190Y14579D01*
X312797Y14596D01*
Y23000D01*
G37*
G36*
X309118D02*X312797D01*
Y14596D01*
X312795Y14596D01*
X312401Y14579D01*
X312009Y14526D01*
X311624Y14439D01*
X311248Y14319D01*
X310884Y14165D01*
X310535Y13980D01*
X310470Y13935D01*
X310413Y13880D01*
X310365Y13817D01*
X310328Y13747D01*
X310302Y13672D01*
X310288Y13594D01*
X310287Y13515D01*
X310298Y13436D01*
X310321Y13360D01*
X310356Y13289D01*
X310401Y13224D01*
X310456Y13167D01*
X310519Y13120D01*
X310589Y13082D01*
X310664Y13057D01*
X310742Y13043D01*
X310822Y13041D01*
X310900Y13052D01*
X310976Y13076D01*
X311046Y13112D01*
X311315Y13258D01*
X311597Y13377D01*
X311888Y13470D01*
X312186Y13538D01*
X312490Y13578D01*
X312795Y13592D01*
X312797Y13592D01*
Y6692D01*
X312795Y6692D01*
X312490Y6705D01*
X312186Y6746D01*
X311888Y6813D01*
X311597Y6907D01*
X311315Y7026D01*
X311045Y7169D01*
X310975Y7205D01*
X310899Y7228D01*
X310821Y7239D01*
X310743Y7237D01*
X310665Y7224D01*
X310591Y7198D01*
X310521Y7161D01*
X310458Y7114D01*
X310404Y7057D01*
X310359Y6993D01*
X310324Y6922D01*
X310301Y6847D01*
X310290Y6769D01*
X310292Y6690D01*
X310305Y6612D01*
X310331Y6538D01*
X310368Y6469D01*
X310415Y6406D01*
X310472Y6351D01*
X310537Y6307D01*
X310884Y6118D01*
X311248Y5965D01*
X311624Y5844D01*
X312009Y5757D01*
X312401Y5705D01*
X312795Y5687D01*
X312797Y5687D01*
Y2000D01*
X309118D01*
Y7713D01*
X309120Y7711D01*
X309190Y7674D01*
X309265Y7648D01*
X309343Y7635D01*
X309422Y7633D01*
X309501Y7644D01*
X309577Y7667D01*
X309648Y7702D01*
X309713Y7748D01*
X309770Y7803D01*
X309817Y7866D01*
X309855Y7936D01*
X309881Y8011D01*
X309894Y8089D01*
X309896Y8168D01*
X309885Y8247D01*
X309861Y8322D01*
X309825Y8393D01*
X309679Y8661D01*
X309560Y8943D01*
X309467Y9234D01*
X309399Y9533D01*
X309359Y9836D01*
X309345Y10142D01*
X309359Y10447D01*
X309399Y10751D01*
X309467Y11049D01*
X309560Y11340D01*
X309679Y11622D01*
X309822Y11892D01*
X309858Y11962D01*
X309881Y12038D01*
X309892Y12116D01*
X309891Y12194D01*
X309877Y12272D01*
X309852Y12346D01*
X309815Y12416D01*
X309767Y12479D01*
X309711Y12533D01*
X309646Y12578D01*
X309575Y12613D01*
X309500Y12636D01*
X309422Y12647D01*
X309344Y12645D01*
X309266Y12632D01*
X309192Y12606D01*
X309122Y12569D01*
X309118Y12566D01*
Y23000D01*
G37*
G36*
X290882D02*X309118D01*
Y12566D01*
X309059Y12522D01*
X309005Y12465D01*
X308961Y12400D01*
X308772Y12053D01*
X308618Y11689D01*
X308498Y11313D01*
X308411Y10928D01*
X308358Y10536D01*
X308341Y10142D01*
X308358Y9747D01*
X308411Y9356D01*
X308498Y8970D01*
X308618Y8594D01*
X308772Y8230D01*
X308957Y7881D01*
X309002Y7816D01*
X309057Y7759D01*
X309118Y7713D01*
Y2000D01*
X290882D01*
Y7717D01*
X290941Y7762D01*
X290995Y7818D01*
X291039Y7884D01*
X291228Y8230D01*
X291382Y8594D01*
X291502Y8970D01*
X291589Y9356D01*
X291642Y9747D01*
X291659Y10142D01*
X291642Y10536D01*
X291589Y10928D01*
X291502Y11313D01*
X291382Y11689D01*
X291228Y12053D01*
X291043Y12402D01*
X290998Y12467D01*
X290943Y12524D01*
X290882Y12571D01*
Y23000D01*
G37*
G36*
X287206D02*X290882D01*
Y12571D01*
X290880Y12572D01*
X290810Y12609D01*
X290735Y12635D01*
X290657Y12649D01*
X290578Y12650D01*
X290499Y12639D01*
X290423Y12616D01*
X290352Y12581D01*
X290287Y12536D01*
X290230Y12481D01*
X290182Y12418D01*
X290145Y12348D01*
X290119Y12273D01*
X290106Y12195D01*
X290104Y12115D01*
X290115Y12037D01*
X290139Y11961D01*
X290175Y11891D01*
X290321Y11622D01*
X290440Y11340D01*
X290533Y11049D01*
X290601Y10751D01*
X290641Y10447D01*
X290655Y10142D01*
X290641Y9836D01*
X290601Y9533D01*
X290533Y9234D01*
X290440Y8943D01*
X290321Y8661D01*
X290178Y8391D01*
X290142Y8321D01*
X290119Y8246D01*
X290108Y8168D01*
X290109Y8089D01*
X290123Y8012D01*
X290148Y7937D01*
X290185Y7868D01*
X290233Y7805D01*
X290289Y7750D01*
X290354Y7705D01*
X290425Y7671D01*
X290500Y7648D01*
X290578Y7637D01*
X290656Y7638D01*
X290734Y7652D01*
X290808Y7677D01*
X290878Y7714D01*
X290882Y7717D01*
Y2000D01*
X287206D01*
Y5687D01*
X287599Y5705D01*
X287991Y5757D01*
X288376Y5844D01*
X288752Y5965D01*
X289116Y6118D01*
X289465Y6304D01*
X289530Y6348D01*
X289587Y6403D01*
X289635Y6467D01*
X289672Y6537D01*
X289698Y6612D01*
X289712Y6690D01*
X289713Y6769D01*
X289702Y6847D01*
X289679Y6923D01*
X289644Y6994D01*
X289599Y7059D01*
X289544Y7116D01*
X289481Y7164D01*
X289411Y7201D01*
X289336Y7227D01*
X289258Y7241D01*
X289178Y7242D01*
X289100Y7231D01*
X289024Y7208D01*
X288954Y7172D01*
X288685Y7026D01*
X288403Y6907D01*
X288112Y6813D01*
X287814Y6746D01*
X287510Y6705D01*
X287206Y6692D01*
Y13592D01*
X287510Y13578D01*
X287814Y13538D01*
X288112Y13470D01*
X288403Y13377D01*
X288685Y13258D01*
X288955Y13115D01*
X289025Y13079D01*
X289101Y13056D01*
X289179Y13045D01*
X289257Y13046D01*
X289335Y13060D01*
X289409Y13085D01*
X289479Y13122D01*
X289542Y13170D01*
X289596Y13226D01*
X289641Y13291D01*
X289676Y13362D01*
X289699Y13437D01*
X289710Y13515D01*
X289708Y13593D01*
X289695Y13671D01*
X289669Y13745D01*
X289632Y13815D01*
X289585Y13878D01*
X289528Y13932D01*
X289463Y13976D01*
X289116Y14165D01*
X288752Y14319D01*
X288376Y14439D01*
X287991Y14526D01*
X287599Y14579D01*
X287206Y14596D01*
Y23000D01*
G37*
G36*
X283528D02*X287206D01*
Y14596D01*
X287205Y14596D01*
X286810Y14579D01*
X286419Y14526D01*
X286033Y14439D01*
X285657Y14319D01*
X285293Y14165D01*
X284944Y13980D01*
X284879Y13935D01*
X284822Y13880D01*
X284774Y13817D01*
X284737Y13747D01*
X284711Y13672D01*
X284698Y13594D01*
X284696Y13515D01*
X284707Y13436D01*
X284730Y13360D01*
X284765Y13289D01*
X284811Y13224D01*
X284866Y13167D01*
X284929Y13120D01*
X284999Y13082D01*
X285074Y13057D01*
X285152Y13043D01*
X285231Y13041D01*
X285310Y13052D01*
X285385Y13076D01*
X285456Y13112D01*
X285724Y13258D01*
X286006Y13377D01*
X286297Y13470D01*
X286596Y13538D01*
X286899Y13578D01*
X287205Y13592D01*
X287206Y13592D01*
Y6692D01*
X287205Y6692D01*
X286899Y6705D01*
X286596Y6746D01*
X286297Y6813D01*
X286006Y6907D01*
X285724Y7026D01*
X285454Y7169D01*
X285384Y7205D01*
X285309Y7228D01*
X285231Y7239D01*
X285152Y7237D01*
X285075Y7224D01*
X285000Y7198D01*
X284931Y7161D01*
X284868Y7114D01*
X284813Y7057D01*
X284768Y6993D01*
X284734Y6922D01*
X284711Y6847D01*
X284700Y6769D01*
X284701Y6690D01*
X284715Y6612D01*
X284740Y6538D01*
X284777Y6469D01*
X284825Y6406D01*
X284881Y6351D01*
X284947Y6307D01*
X285293Y6118D01*
X285657Y5965D01*
X286033Y5844D01*
X286419Y5757D01*
X286810Y5705D01*
X287205Y5687D01*
X287206Y5687D01*
Y2000D01*
X283528D01*
Y7713D01*
X283530Y7711D01*
X283600Y7674D01*
X283675Y7648D01*
X283753Y7635D01*
X283832Y7633D01*
X283910Y7644D01*
X283986Y7667D01*
X284057Y7702D01*
X284122Y7748D01*
X284179Y7803D01*
X284227Y7866D01*
X284264Y7936D01*
X284290Y8011D01*
X284304Y8089D01*
X284305Y8168D01*
X284294Y8247D01*
X284271Y8322D01*
X284235Y8393D01*
X284089Y8661D01*
X283970Y8943D01*
X283876Y9234D01*
X283809Y9533D01*
X283768Y9836D01*
X283755Y10142D01*
X283768Y10447D01*
X283809Y10751D01*
X283876Y11049D01*
X283970Y11340D01*
X284089Y11622D01*
X284232Y11892D01*
X284268Y11962D01*
X284291Y12038D01*
X284302Y12116D01*
X284300Y12194D01*
X284287Y12272D01*
X284261Y12346D01*
X284224Y12416D01*
X284177Y12479D01*
X284120Y12533D01*
X284056Y12578D01*
X283985Y12613D01*
X283910Y12636D01*
X283832Y12647D01*
X283753Y12645D01*
X283675Y12632D01*
X283601Y12606D01*
X283532Y12569D01*
X283528Y12566D01*
Y23000D01*
G37*
G36*
X249772D02*X283528D01*
Y12566D01*
X283469Y12522D01*
X283414Y12465D01*
X283370Y12400D01*
X283181Y12053D01*
X283028Y11689D01*
X282907Y11313D01*
X282820Y10928D01*
X282768Y10536D01*
X282750Y10142D01*
X282768Y9747D01*
X282820Y9356D01*
X282907Y8970D01*
X283028Y8594D01*
X283181Y8230D01*
X283366Y7881D01*
X283411Y7816D01*
X283466Y7759D01*
X283528Y7713D01*
Y2000D01*
X249772D01*
Y7717D01*
X249831Y7762D01*
X249886Y7818D01*
X249930Y7884D01*
X250119Y8230D01*
X250272Y8594D01*
X250393Y8970D01*
X250480Y9356D01*
X250532Y9747D01*
X250550Y10142D01*
X250532Y10536D01*
X250480Y10928D01*
X250393Y11313D01*
X250272Y11689D01*
X250119Y12053D01*
X249934Y12402D01*
X249889Y12467D01*
X249834Y12524D01*
X249772Y12571D01*
Y23000D01*
G37*
G36*
X246097D02*X249772D01*
Y12571D01*
X249770Y12572D01*
X249700Y12609D01*
X249625Y12635D01*
X249547Y12649D01*
X249468Y12650D01*
X249390Y12639D01*
X249314Y12616D01*
X249243Y12581D01*
X249178Y12536D01*
X249121Y12481D01*
X249073Y12418D01*
X249036Y12348D01*
X249010Y12273D01*
X248996Y12195D01*
X248995Y12115D01*
X249006Y12037D01*
X249029Y11961D01*
X249065Y11891D01*
X249211Y11622D01*
X249330Y11340D01*
X249424Y11049D01*
X249491Y10751D01*
X249532Y10447D01*
X249545Y10142D01*
X249532Y9836D01*
X249491Y9533D01*
X249424Y9234D01*
X249330Y8943D01*
X249211Y8661D01*
X249068Y8391D01*
X249032Y8321D01*
X249009Y8246D01*
X248998Y8168D01*
X249000Y8089D01*
X249013Y8012D01*
X249039Y7937D01*
X249076Y7868D01*
X249123Y7805D01*
X249180Y7750D01*
X249244Y7705D01*
X249315Y7671D01*
X249390Y7648D01*
X249468Y7637D01*
X249547Y7638D01*
X249625Y7652D01*
X249699Y7677D01*
X249768Y7714D01*
X249772Y7717D01*
Y2000D01*
X246097D01*
Y5687D01*
X246490Y5705D01*
X246881Y5757D01*
X247267Y5844D01*
X247643Y5965D01*
X248007Y6118D01*
X248356Y6304D01*
X248421Y6348D01*
X248478Y6403D01*
X248526Y6467D01*
X248563Y6537D01*
X248589Y6612D01*
X248602Y6690D01*
X248604Y6769D01*
X248593Y6847D01*
X248570Y6923D01*
X248535Y6994D01*
X248489Y7059D01*
X248434Y7116D01*
X248371Y7164D01*
X248301Y7201D01*
X248226Y7227D01*
X248148Y7241D01*
X248069Y7242D01*
X247990Y7231D01*
X247915Y7208D01*
X247844Y7172D01*
X247576Y7026D01*
X247294Y6907D01*
X247003Y6813D01*
X246704Y6746D01*
X246401Y6705D01*
X246097Y6692D01*
Y13592D01*
X246401Y13578D01*
X246704Y13538D01*
X247003Y13470D01*
X247294Y13377D01*
X247576Y13258D01*
X247846Y13115D01*
X247916Y13079D01*
X247991Y13056D01*
X248069Y13045D01*
X248148Y13046D01*
X248225Y13060D01*
X248300Y13085D01*
X248369Y13122D01*
X248432Y13170D01*
X248487Y13226D01*
X248532Y13291D01*
X248566Y13362D01*
X248589Y13437D01*
X248600Y13515D01*
X248599Y13593D01*
X248585Y13671D01*
X248560Y13745D01*
X248523Y13815D01*
X248475Y13878D01*
X248419Y13932D01*
X248353Y13976D01*
X248007Y14165D01*
X247643Y14319D01*
X247267Y14439D01*
X246881Y14526D01*
X246490Y14579D01*
X246097Y14596D01*
Y23000D01*
G37*
G36*
X242418D02*X246097D01*
Y14596D01*
X246095Y14596D01*
X245701Y14579D01*
X245309Y14526D01*
X244924Y14439D01*
X244548Y14319D01*
X244184Y14165D01*
X243835Y13980D01*
X243770Y13935D01*
X243713Y13880D01*
X243665Y13817D01*
X243628Y13747D01*
X243602Y13672D01*
X243588Y13594D01*
X243587Y13515D01*
X243598Y13436D01*
X243621Y13360D01*
X243656Y13289D01*
X243701Y13224D01*
X243756Y13167D01*
X243819Y13120D01*
X243889Y13082D01*
X243964Y13057D01*
X244042Y13043D01*
X244122Y13041D01*
X244200Y13052D01*
X244276Y13076D01*
X244346Y13112D01*
X244615Y13258D01*
X244897Y13377D01*
X245188Y13470D01*
X245486Y13538D01*
X245790Y13578D01*
X246095Y13592D01*
X246097Y13592D01*
Y6692D01*
X246095Y6692D01*
X245790Y6705D01*
X245486Y6746D01*
X245188Y6813D01*
X244897Y6907D01*
X244615Y7026D01*
X244345Y7169D01*
X244275Y7205D01*
X244199Y7228D01*
X244121Y7239D01*
X244043Y7237D01*
X243965Y7224D01*
X243891Y7198D01*
X243821Y7161D01*
X243758Y7114D01*
X243704Y7057D01*
X243659Y6993D01*
X243624Y6922D01*
X243601Y6847D01*
X243590Y6769D01*
X243592Y6690D01*
X243605Y6612D01*
X243631Y6538D01*
X243668Y6469D01*
X243715Y6406D01*
X243772Y6351D01*
X243837Y6307D01*
X244184Y6118D01*
X244548Y5965D01*
X244924Y5844D01*
X245309Y5757D01*
X245701Y5705D01*
X246095Y5687D01*
X246097Y5687D01*
Y2000D01*
X242418D01*
Y7713D01*
X242420Y7711D01*
X242490Y7674D01*
X242565Y7648D01*
X242643Y7635D01*
X242722Y7633D01*
X242801Y7644D01*
X242877Y7667D01*
X242948Y7702D01*
X243013Y7748D01*
X243070Y7803D01*
X243117Y7866D01*
X243155Y7936D01*
X243181Y8011D01*
X243194Y8089D01*
X243196Y8168D01*
X243185Y8247D01*
X243161Y8322D01*
X243125Y8393D01*
X242979Y8661D01*
X242860Y8943D01*
X242767Y9234D01*
X242699Y9533D01*
X242659Y9836D01*
X242645Y10142D01*
X242659Y10447D01*
X242699Y10751D01*
X242767Y11049D01*
X242860Y11340D01*
X242979Y11622D01*
X243122Y11892D01*
X243158Y11962D01*
X243181Y12038D01*
X243192Y12116D01*
X243191Y12194D01*
X243177Y12272D01*
X243152Y12346D01*
X243115Y12416D01*
X243067Y12479D01*
X243011Y12533D01*
X242946Y12578D01*
X242875Y12613D01*
X242800Y12636D01*
X242722Y12647D01*
X242644Y12645D01*
X242566Y12632D01*
X242492Y12606D01*
X242422Y12569D01*
X242418Y12566D01*
Y23000D01*
G37*
G36*
X224182D02*X242418D01*
Y12566D01*
X242359Y12522D01*
X242305Y12465D01*
X242261Y12400D01*
X242072Y12053D01*
X241918Y11689D01*
X241798Y11313D01*
X241711Y10928D01*
X241658Y10536D01*
X241641Y10142D01*
X241658Y9747D01*
X241711Y9356D01*
X241798Y8970D01*
X241918Y8594D01*
X242072Y8230D01*
X242257Y7881D01*
X242302Y7816D01*
X242357Y7759D01*
X242418Y7713D01*
Y2000D01*
X224182D01*
Y7717D01*
X224241Y7762D01*
X224295Y7818D01*
X224339Y7884D01*
X224528Y8230D01*
X224682Y8594D01*
X224802Y8970D01*
X224889Y9356D01*
X224942Y9747D01*
X224959Y10142D01*
X224942Y10536D01*
X224889Y10928D01*
X224802Y11313D01*
X224682Y11689D01*
X224528Y12053D01*
X224343Y12402D01*
X224298Y12467D01*
X224243Y12524D01*
X224182Y12571D01*
Y23000D01*
G37*
G36*
X220506D02*X224182D01*
Y12571D01*
X224180Y12572D01*
X224110Y12609D01*
X224035Y12635D01*
X223957Y12649D01*
X223878Y12650D01*
X223799Y12639D01*
X223723Y12616D01*
X223652Y12581D01*
X223587Y12536D01*
X223530Y12481D01*
X223482Y12418D01*
X223445Y12348D01*
X223419Y12273D01*
X223406Y12195D01*
X223404Y12115D01*
X223415Y12037D01*
X223439Y11961D01*
X223475Y11891D01*
X223621Y11622D01*
X223740Y11340D01*
X223833Y11049D01*
X223901Y10751D01*
X223941Y10447D01*
X223955Y10142D01*
X223941Y9836D01*
X223901Y9533D01*
X223833Y9234D01*
X223740Y8943D01*
X223621Y8661D01*
X223478Y8391D01*
X223442Y8321D01*
X223419Y8246D01*
X223408Y8168D01*
X223409Y8089D01*
X223423Y8012D01*
X223448Y7937D01*
X223485Y7868D01*
X223533Y7805D01*
X223589Y7750D01*
X223654Y7705D01*
X223725Y7671D01*
X223800Y7648D01*
X223878Y7637D01*
X223956Y7638D01*
X224034Y7652D01*
X224108Y7677D01*
X224178Y7714D01*
X224182Y7717D01*
Y2000D01*
X220506D01*
Y5687D01*
X220899Y5705D01*
X221291Y5757D01*
X221676Y5844D01*
X222052Y5965D01*
X222416Y6118D01*
X222765Y6304D01*
X222830Y6348D01*
X222887Y6403D01*
X222935Y6467D01*
X222972Y6537D01*
X222998Y6612D01*
X223012Y6690D01*
X223013Y6769D01*
X223002Y6847D01*
X222979Y6923D01*
X222944Y6994D01*
X222899Y7059D01*
X222844Y7116D01*
X222781Y7164D01*
X222711Y7201D01*
X222636Y7227D01*
X222558Y7241D01*
X222478Y7242D01*
X222400Y7231D01*
X222324Y7208D01*
X222254Y7172D01*
X221985Y7026D01*
X221703Y6907D01*
X221412Y6813D01*
X221114Y6746D01*
X220810Y6705D01*
X220506Y6692D01*
Y13592D01*
X220810Y13578D01*
X221114Y13538D01*
X221412Y13470D01*
X221703Y13377D01*
X221985Y13258D01*
X222255Y13115D01*
X222325Y13079D01*
X222401Y13056D01*
X222479Y13045D01*
X222557Y13046D01*
X222635Y13060D01*
X222709Y13085D01*
X222779Y13122D01*
X222842Y13170D01*
X222896Y13226D01*
X222941Y13291D01*
X222976Y13362D01*
X222999Y13437D01*
X223010Y13515D01*
X223008Y13593D01*
X222995Y13671D01*
X222969Y13745D01*
X222932Y13815D01*
X222885Y13878D01*
X222828Y13932D01*
X222763Y13976D01*
X222416Y14165D01*
X222052Y14319D01*
X221676Y14439D01*
X221291Y14526D01*
X220899Y14579D01*
X220506Y14596D01*
Y23000D01*
G37*
G36*
X216828D02*X220506D01*
Y14596D01*
X220505Y14596D01*
X220110Y14579D01*
X219719Y14526D01*
X219333Y14439D01*
X218957Y14319D01*
X218593Y14165D01*
X218244Y13980D01*
X218179Y13935D01*
X218122Y13880D01*
X218074Y13817D01*
X218037Y13747D01*
X218011Y13672D01*
X217998Y13594D01*
X217996Y13515D01*
X218007Y13436D01*
X218030Y13360D01*
X218065Y13289D01*
X218111Y13224D01*
X218166Y13167D01*
X218229Y13120D01*
X218299Y13082D01*
X218374Y13057D01*
X218452Y13043D01*
X218531Y13041D01*
X218609Y13052D01*
X218685Y13076D01*
X218756Y13112D01*
X219024Y13258D01*
X219306Y13377D01*
X219597Y13470D01*
X219896Y13538D01*
X220199Y13578D01*
X220505Y13592D01*
X220506Y13592D01*
Y6692D01*
X220505Y6692D01*
X220199Y6705D01*
X219896Y6746D01*
X219597Y6813D01*
X219306Y6907D01*
X219024Y7026D01*
X218754Y7169D01*
X218684Y7205D01*
X218609Y7228D01*
X218531Y7239D01*
X218452Y7237D01*
X218375Y7224D01*
X218300Y7198D01*
X218231Y7161D01*
X218168Y7114D01*
X218113Y7057D01*
X218068Y6993D01*
X218034Y6922D01*
X218011Y6847D01*
X218000Y6769D01*
X218001Y6690D01*
X218015Y6612D01*
X218040Y6538D01*
X218077Y6469D01*
X218125Y6406D01*
X218181Y6351D01*
X218247Y6307D01*
X218593Y6118D01*
X218957Y5965D01*
X219333Y5844D01*
X219719Y5757D01*
X220110Y5705D01*
X220505Y5687D01*
X220506Y5687D01*
Y2000D01*
X216828D01*
Y7713D01*
X216830Y7711D01*
X216900Y7674D01*
X216975Y7648D01*
X217053Y7635D01*
X217132Y7633D01*
X217210Y7644D01*
X217286Y7667D01*
X217357Y7702D01*
X217422Y7748D01*
X217479Y7803D01*
X217527Y7866D01*
X217564Y7936D01*
X217590Y8011D01*
X217604Y8089D01*
X217605Y8168D01*
X217594Y8247D01*
X217571Y8322D01*
X217535Y8393D01*
X217389Y8661D01*
X217270Y8943D01*
X217176Y9234D01*
X217109Y9533D01*
X217068Y9836D01*
X217055Y10142D01*
X217068Y10447D01*
X217109Y10751D01*
X217176Y11049D01*
X217270Y11340D01*
X217389Y11622D01*
X217532Y11892D01*
X217568Y11962D01*
X217591Y12038D01*
X217602Y12116D01*
X217600Y12194D01*
X217587Y12272D01*
X217561Y12346D01*
X217524Y12416D01*
X217477Y12479D01*
X217420Y12533D01*
X217356Y12578D01*
X217285Y12613D01*
X217210Y12636D01*
X217132Y12647D01*
X217053Y12645D01*
X216975Y12632D01*
X216901Y12606D01*
X216832Y12569D01*
X216828Y12566D01*
Y23000D01*
G37*
G36*
X183172D02*X216828D01*
Y12566D01*
X216769Y12522D01*
X216714Y12465D01*
X216670Y12400D01*
X216481Y12053D01*
X216328Y11689D01*
X216207Y11313D01*
X216120Y10928D01*
X216068Y10536D01*
X216050Y10142D01*
X216068Y9747D01*
X216120Y9356D01*
X216207Y8970D01*
X216328Y8594D01*
X216481Y8230D01*
X216666Y7881D01*
X216711Y7816D01*
X216766Y7759D01*
X216828Y7713D01*
Y2000D01*
X183172D01*
Y7717D01*
X183231Y7762D01*
X183286Y7818D01*
X183330Y7884D01*
X183519Y8230D01*
X183672Y8594D01*
X183793Y8970D01*
X183880Y9356D01*
X183932Y9747D01*
X183950Y10142D01*
X183932Y10536D01*
X183880Y10928D01*
X183793Y11313D01*
X183672Y11689D01*
X183519Y12053D01*
X183334Y12402D01*
X183289Y12467D01*
X183234Y12524D01*
X183172Y12571D01*
Y23000D01*
G37*
G36*
X179497D02*X183172D01*
Y12571D01*
X183170Y12572D01*
X183100Y12609D01*
X183025Y12635D01*
X182947Y12649D01*
X182868Y12650D01*
X182790Y12639D01*
X182714Y12616D01*
X182643Y12581D01*
X182578Y12536D01*
X182521Y12481D01*
X182473Y12418D01*
X182436Y12348D01*
X182410Y12273D01*
X182396Y12195D01*
X182395Y12115D01*
X182406Y12037D01*
X182429Y11961D01*
X182465Y11891D01*
X182611Y11622D01*
X182730Y11340D01*
X182824Y11049D01*
X182891Y10751D01*
X182932Y10447D01*
X182945Y10142D01*
X182932Y9836D01*
X182891Y9533D01*
X182824Y9234D01*
X182730Y8943D01*
X182611Y8661D01*
X182468Y8391D01*
X182432Y8321D01*
X182409Y8246D01*
X182398Y8168D01*
X182400Y8089D01*
X182413Y8012D01*
X182439Y7937D01*
X182476Y7868D01*
X182523Y7805D01*
X182580Y7750D01*
X182644Y7705D01*
X182715Y7671D01*
X182790Y7648D01*
X182868Y7637D01*
X182947Y7638D01*
X183025Y7652D01*
X183099Y7677D01*
X183168Y7714D01*
X183172Y7717D01*
Y2000D01*
X179497D01*
Y5687D01*
X179890Y5705D01*
X180281Y5757D01*
X180667Y5844D01*
X181043Y5965D01*
X181407Y6118D01*
X181756Y6304D01*
X181821Y6348D01*
X181878Y6403D01*
X181926Y6467D01*
X181963Y6537D01*
X181989Y6612D01*
X182002Y6690D01*
X182004Y6769D01*
X181993Y6847D01*
X181970Y6923D01*
X181935Y6994D01*
X181889Y7059D01*
X181834Y7116D01*
X181771Y7164D01*
X181701Y7201D01*
X181626Y7227D01*
X181548Y7241D01*
X181469Y7242D01*
X181390Y7231D01*
X181315Y7208D01*
X181244Y7172D01*
X180976Y7026D01*
X180694Y6907D01*
X180403Y6813D01*
X180104Y6746D01*
X179801Y6705D01*
X179497Y6692D01*
Y13592D01*
X179801Y13578D01*
X180104Y13538D01*
X180403Y13470D01*
X180694Y13377D01*
X180976Y13258D01*
X181246Y13115D01*
X181316Y13079D01*
X181391Y13056D01*
X181469Y13045D01*
X181548Y13046D01*
X181625Y13060D01*
X181700Y13085D01*
X181769Y13122D01*
X181832Y13170D01*
X181887Y13226D01*
X181932Y13291D01*
X181966Y13362D01*
X181989Y13437D01*
X182000Y13515D01*
X181999Y13593D01*
X181985Y13671D01*
X181960Y13745D01*
X181923Y13815D01*
X181875Y13878D01*
X181819Y13932D01*
X181753Y13976D01*
X181407Y14165D01*
X181043Y14319D01*
X180667Y14439D01*
X180281Y14526D01*
X179890Y14579D01*
X179497Y14596D01*
Y23000D01*
G37*
G36*
X175818D02*X179497D01*
Y14596D01*
X179495Y14596D01*
X179101Y14579D01*
X178709Y14526D01*
X178324Y14439D01*
X177948Y14319D01*
X177584Y14165D01*
X177235Y13980D01*
X177170Y13935D01*
X177113Y13880D01*
X177065Y13817D01*
X177028Y13747D01*
X177002Y13672D01*
X176988Y13594D01*
X176987Y13515D01*
X176998Y13436D01*
X177021Y13360D01*
X177056Y13289D01*
X177101Y13224D01*
X177156Y13167D01*
X177219Y13120D01*
X177289Y13082D01*
X177364Y13057D01*
X177442Y13043D01*
X177522Y13041D01*
X177600Y13052D01*
X177676Y13076D01*
X177746Y13112D01*
X178015Y13258D01*
X178297Y13377D01*
X178588Y13470D01*
X178886Y13538D01*
X179190Y13578D01*
X179495Y13592D01*
X179497Y13592D01*
Y6692D01*
X179495Y6692D01*
X179190Y6705D01*
X178886Y6746D01*
X178588Y6813D01*
X178297Y6907D01*
X178015Y7026D01*
X177745Y7169D01*
X177675Y7205D01*
X177599Y7228D01*
X177521Y7239D01*
X177443Y7237D01*
X177365Y7224D01*
X177291Y7198D01*
X177221Y7161D01*
X177158Y7114D01*
X177104Y7057D01*
X177059Y6993D01*
X177024Y6922D01*
X177001Y6847D01*
X176990Y6769D01*
X176992Y6690D01*
X177005Y6612D01*
X177031Y6538D01*
X177068Y6469D01*
X177115Y6406D01*
X177172Y6351D01*
X177237Y6307D01*
X177584Y6118D01*
X177948Y5965D01*
X178324Y5844D01*
X178709Y5757D01*
X179101Y5705D01*
X179495Y5687D01*
X179497Y5687D01*
Y2000D01*
X175818D01*
Y7713D01*
X175820Y7711D01*
X175890Y7674D01*
X175965Y7648D01*
X176043Y7635D01*
X176122Y7633D01*
X176201Y7644D01*
X176277Y7667D01*
X176348Y7702D01*
X176413Y7748D01*
X176470Y7803D01*
X176517Y7866D01*
X176555Y7936D01*
X176581Y8011D01*
X176594Y8089D01*
X176596Y8168D01*
X176585Y8247D01*
X176561Y8322D01*
X176525Y8393D01*
X176379Y8661D01*
X176260Y8943D01*
X176167Y9234D01*
X176099Y9533D01*
X176059Y9836D01*
X176045Y10142D01*
X176059Y10447D01*
X176099Y10751D01*
X176167Y11049D01*
X176260Y11340D01*
X176379Y11622D01*
X176522Y11892D01*
X176558Y11962D01*
X176581Y12038D01*
X176592Y12116D01*
X176591Y12194D01*
X176577Y12272D01*
X176552Y12346D01*
X176515Y12416D01*
X176467Y12479D01*
X176411Y12533D01*
X176346Y12578D01*
X176275Y12613D01*
X176200Y12636D01*
X176122Y12647D01*
X176044Y12645D01*
X175966Y12632D01*
X175892Y12606D01*
X175822Y12569D01*
X175818Y12566D01*
Y23000D01*
G37*
G36*
X157582D02*X175818D01*
Y12566D01*
X175759Y12522D01*
X175705Y12465D01*
X175661Y12400D01*
X175472Y12053D01*
X175318Y11689D01*
X175198Y11313D01*
X175111Y10928D01*
X175058Y10536D01*
X175041Y10142D01*
X175058Y9747D01*
X175111Y9356D01*
X175198Y8970D01*
X175318Y8594D01*
X175472Y8230D01*
X175657Y7881D01*
X175702Y7816D01*
X175757Y7759D01*
X175818Y7713D01*
Y2000D01*
X157582D01*
Y7717D01*
X157641Y7762D01*
X157695Y7818D01*
X157739Y7884D01*
X157928Y8230D01*
X158082Y8594D01*
X158202Y8970D01*
X158289Y9356D01*
X158342Y9747D01*
X158359Y10142D01*
X158342Y10536D01*
X158289Y10928D01*
X158202Y11313D01*
X158082Y11689D01*
X157928Y12053D01*
X157743Y12402D01*
X157698Y12467D01*
X157643Y12524D01*
X157582Y12571D01*
Y23000D01*
G37*
G36*
X153906D02*X157582D01*
Y12571D01*
X157580Y12572D01*
X157510Y12609D01*
X157435Y12635D01*
X157357Y12649D01*
X157278Y12650D01*
X157199Y12639D01*
X157123Y12616D01*
X157052Y12581D01*
X156987Y12536D01*
X156930Y12481D01*
X156882Y12418D01*
X156845Y12348D01*
X156819Y12273D01*
X156806Y12195D01*
X156804Y12115D01*
X156815Y12037D01*
X156839Y11961D01*
X156875Y11891D01*
X157021Y11622D01*
X157140Y11340D01*
X157233Y11049D01*
X157301Y10751D01*
X157341Y10447D01*
X157355Y10142D01*
X157341Y9836D01*
X157301Y9533D01*
X157233Y9234D01*
X157140Y8943D01*
X157021Y8661D01*
X156878Y8391D01*
X156842Y8321D01*
X156819Y8246D01*
X156808Y8168D01*
X156809Y8089D01*
X156823Y8012D01*
X156848Y7937D01*
X156885Y7868D01*
X156933Y7805D01*
X156989Y7750D01*
X157054Y7705D01*
X157125Y7671D01*
X157200Y7648D01*
X157278Y7637D01*
X157356Y7638D01*
X157434Y7652D01*
X157508Y7677D01*
X157578Y7714D01*
X157582Y7717D01*
Y2000D01*
X153906D01*
Y5687D01*
X154299Y5705D01*
X154691Y5757D01*
X155076Y5844D01*
X155452Y5965D01*
X155816Y6118D01*
X156165Y6304D01*
X156230Y6348D01*
X156287Y6403D01*
X156335Y6467D01*
X156372Y6537D01*
X156398Y6612D01*
X156412Y6690D01*
X156413Y6769D01*
X156402Y6847D01*
X156379Y6923D01*
X156344Y6994D01*
X156299Y7059D01*
X156244Y7116D01*
X156181Y7164D01*
X156111Y7201D01*
X156036Y7227D01*
X155958Y7241D01*
X155878Y7242D01*
X155800Y7231D01*
X155724Y7208D01*
X155654Y7172D01*
X155385Y7026D01*
X155103Y6907D01*
X154812Y6813D01*
X154514Y6746D01*
X154210Y6705D01*
X153906Y6692D01*
Y13592D01*
X154210Y13578D01*
X154514Y13538D01*
X154812Y13470D01*
X155103Y13377D01*
X155385Y13258D01*
X155655Y13115D01*
X155725Y13079D01*
X155801Y13056D01*
X155879Y13045D01*
X155957Y13046D01*
X156035Y13060D01*
X156109Y13085D01*
X156179Y13122D01*
X156242Y13170D01*
X156296Y13226D01*
X156341Y13291D01*
X156376Y13362D01*
X156399Y13437D01*
X156410Y13515D01*
X156408Y13593D01*
X156395Y13671D01*
X156369Y13745D01*
X156332Y13815D01*
X156285Y13878D01*
X156228Y13932D01*
X156163Y13976D01*
X155816Y14165D01*
X155452Y14319D01*
X155076Y14439D01*
X154691Y14526D01*
X154299Y14579D01*
X153906Y14596D01*
Y23000D01*
G37*
G36*
X150228D02*X153906D01*
Y14596D01*
X153905Y14596D01*
X153510Y14579D01*
X153119Y14526D01*
X152733Y14439D01*
X152357Y14319D01*
X151993Y14165D01*
X151644Y13980D01*
X151579Y13935D01*
X151522Y13880D01*
X151474Y13817D01*
X151437Y13747D01*
X151411Y13672D01*
X151398Y13594D01*
X151396Y13515D01*
X151407Y13436D01*
X151430Y13360D01*
X151465Y13289D01*
X151511Y13224D01*
X151566Y13167D01*
X151629Y13120D01*
X151699Y13082D01*
X151774Y13057D01*
X151852Y13043D01*
X151931Y13041D01*
X152010Y13052D01*
X152085Y13076D01*
X152156Y13112D01*
X152424Y13258D01*
X152706Y13377D01*
X152997Y13470D01*
X153296Y13538D01*
X153599Y13578D01*
X153905Y13592D01*
X153906Y13592D01*
Y6692D01*
X153905Y6692D01*
X153599Y6705D01*
X153296Y6746D01*
X152997Y6813D01*
X152706Y6907D01*
X152424Y7026D01*
X152154Y7169D01*
X152084Y7205D01*
X152009Y7228D01*
X151931Y7239D01*
X151852Y7237D01*
X151775Y7224D01*
X151700Y7198D01*
X151631Y7161D01*
X151568Y7114D01*
X151513Y7057D01*
X151468Y6993D01*
X151434Y6922D01*
X151411Y6847D01*
X151400Y6769D01*
X151401Y6690D01*
X151415Y6612D01*
X151440Y6538D01*
X151477Y6469D01*
X151525Y6406D01*
X151581Y6351D01*
X151647Y6307D01*
X151993Y6118D01*
X152357Y5965D01*
X152733Y5844D01*
X153119Y5757D01*
X153510Y5705D01*
X153905Y5687D01*
X153906Y5687D01*
Y2000D01*
X150228D01*
Y7713D01*
X150230Y7711D01*
X150300Y7674D01*
X150375Y7648D01*
X150453Y7635D01*
X150532Y7633D01*
X150610Y7644D01*
X150686Y7667D01*
X150757Y7702D01*
X150822Y7748D01*
X150879Y7803D01*
X150927Y7866D01*
X150964Y7936D01*
X150990Y8011D01*
X151004Y8089D01*
X151005Y8168D01*
X150994Y8247D01*
X150971Y8322D01*
X150935Y8393D01*
X150789Y8661D01*
X150670Y8943D01*
X150576Y9234D01*
X150509Y9533D01*
X150468Y9836D01*
X150455Y10142D01*
X150468Y10447D01*
X150509Y10751D01*
X150576Y11049D01*
X150670Y11340D01*
X150789Y11622D01*
X150932Y11892D01*
X150968Y11962D01*
X150991Y12038D01*
X151002Y12116D01*
X151000Y12194D01*
X150987Y12272D01*
X150961Y12346D01*
X150924Y12416D01*
X150877Y12479D01*
X150820Y12533D01*
X150756Y12578D01*
X150685Y12613D01*
X150610Y12636D01*
X150532Y12647D01*
X150453Y12645D01*
X150375Y12632D01*
X150301Y12606D01*
X150232Y12569D01*
X150228Y12566D01*
Y23000D01*
G37*
G36*
X116472D02*X150228D01*
Y12566D01*
X150169Y12522D01*
X150114Y12465D01*
X150070Y12400D01*
X149881Y12053D01*
X149728Y11689D01*
X149607Y11313D01*
X149520Y10928D01*
X149468Y10536D01*
X149450Y10142D01*
X149468Y9747D01*
X149520Y9356D01*
X149607Y8970D01*
X149728Y8594D01*
X149881Y8230D01*
X150066Y7881D01*
X150111Y7816D01*
X150166Y7759D01*
X150228Y7713D01*
Y2000D01*
X116472D01*
Y7717D01*
X116531Y7762D01*
X116586Y7818D01*
X116630Y7884D01*
X116819Y8230D01*
X116972Y8594D01*
X117093Y8970D01*
X117180Y9356D01*
X117232Y9747D01*
X117250Y10142D01*
X117232Y10536D01*
X117180Y10928D01*
X117093Y11313D01*
X116972Y11689D01*
X116819Y12053D01*
X116634Y12402D01*
X116589Y12467D01*
X116534Y12524D01*
X116472Y12571D01*
Y23000D01*
G37*
G36*
X112797D02*X116472D01*
Y12571D01*
X116470Y12572D01*
X116400Y12609D01*
X116325Y12635D01*
X116247Y12649D01*
X116168Y12650D01*
X116090Y12639D01*
X116014Y12616D01*
X115943Y12581D01*
X115878Y12536D01*
X115821Y12481D01*
X115773Y12418D01*
X115736Y12348D01*
X115710Y12273D01*
X115696Y12195D01*
X115695Y12115D01*
X115706Y12037D01*
X115729Y11961D01*
X115765Y11891D01*
X115911Y11622D01*
X116030Y11340D01*
X116124Y11049D01*
X116191Y10751D01*
X116232Y10447D01*
X116245Y10142D01*
X116232Y9836D01*
X116191Y9533D01*
X116124Y9234D01*
X116030Y8943D01*
X115911Y8661D01*
X115768Y8391D01*
X115732Y8321D01*
X115709Y8246D01*
X115698Y8168D01*
X115700Y8089D01*
X115713Y8012D01*
X115739Y7937D01*
X115776Y7868D01*
X115823Y7805D01*
X115880Y7750D01*
X115944Y7705D01*
X116015Y7671D01*
X116090Y7648D01*
X116168Y7637D01*
X116247Y7638D01*
X116325Y7652D01*
X116399Y7677D01*
X116468Y7714D01*
X116472Y7717D01*
Y2000D01*
X112797D01*
Y5687D01*
X113190Y5705D01*
X113581Y5757D01*
X113967Y5844D01*
X114343Y5965D01*
X114707Y6118D01*
X115056Y6304D01*
X115121Y6348D01*
X115178Y6403D01*
X115226Y6467D01*
X115263Y6537D01*
X115289Y6612D01*
X115302Y6690D01*
X115304Y6769D01*
X115293Y6847D01*
X115270Y6923D01*
X115235Y6994D01*
X115189Y7059D01*
X115134Y7116D01*
X115071Y7164D01*
X115001Y7201D01*
X114926Y7227D01*
X114848Y7241D01*
X114769Y7242D01*
X114690Y7231D01*
X114615Y7208D01*
X114544Y7172D01*
X114276Y7026D01*
X113994Y6907D01*
X113703Y6813D01*
X113404Y6746D01*
X113101Y6705D01*
X112797Y6692D01*
Y13592D01*
X113101Y13578D01*
X113404Y13538D01*
X113703Y13470D01*
X113994Y13377D01*
X114276Y13258D01*
X114546Y13115D01*
X114616Y13079D01*
X114691Y13056D01*
X114769Y13045D01*
X114848Y13046D01*
X114925Y13060D01*
X115000Y13085D01*
X115069Y13122D01*
X115132Y13170D01*
X115187Y13226D01*
X115232Y13291D01*
X115266Y13362D01*
X115289Y13437D01*
X115300Y13515D01*
X115299Y13593D01*
X115285Y13671D01*
X115260Y13745D01*
X115223Y13815D01*
X115175Y13878D01*
X115119Y13932D01*
X115053Y13976D01*
X114707Y14165D01*
X114343Y14319D01*
X113967Y14439D01*
X113581Y14526D01*
X113190Y14579D01*
X112797Y14596D01*
Y23000D01*
G37*
G36*
X109118D02*X112797D01*
Y14596D01*
X112795Y14596D01*
X112401Y14579D01*
X112009Y14526D01*
X111624Y14439D01*
X111248Y14319D01*
X110884Y14165D01*
X110535Y13980D01*
X110470Y13935D01*
X110413Y13880D01*
X110365Y13817D01*
X110328Y13747D01*
X110302Y13672D01*
X110288Y13594D01*
X110287Y13515D01*
X110298Y13436D01*
X110321Y13360D01*
X110356Y13289D01*
X110401Y13224D01*
X110456Y13167D01*
X110519Y13120D01*
X110589Y13082D01*
X110664Y13057D01*
X110742Y13043D01*
X110822Y13041D01*
X110900Y13052D01*
X110976Y13076D01*
X111046Y13112D01*
X111315Y13258D01*
X111597Y13377D01*
X111888Y13470D01*
X112186Y13538D01*
X112490Y13578D01*
X112795Y13592D01*
X112797Y13592D01*
Y6692D01*
X112795Y6692D01*
X112490Y6705D01*
X112186Y6746D01*
X111888Y6813D01*
X111597Y6907D01*
X111315Y7026D01*
X111045Y7169D01*
X110975Y7205D01*
X110899Y7228D01*
X110821Y7239D01*
X110743Y7237D01*
X110665Y7224D01*
X110591Y7198D01*
X110521Y7161D01*
X110458Y7114D01*
X110404Y7057D01*
X110359Y6993D01*
X110324Y6922D01*
X110301Y6847D01*
X110290Y6769D01*
X110292Y6690D01*
X110305Y6612D01*
X110331Y6538D01*
X110368Y6469D01*
X110415Y6406D01*
X110472Y6351D01*
X110537Y6307D01*
X110884Y6118D01*
X111248Y5965D01*
X111624Y5844D01*
X112009Y5757D01*
X112401Y5705D01*
X112795Y5687D01*
X112797Y5687D01*
Y2000D01*
X109118D01*
Y7713D01*
X109120Y7711D01*
X109190Y7674D01*
X109265Y7648D01*
X109343Y7635D01*
X109422Y7633D01*
X109501Y7644D01*
X109577Y7667D01*
X109648Y7702D01*
X109713Y7748D01*
X109770Y7803D01*
X109817Y7866D01*
X109855Y7936D01*
X109881Y8011D01*
X109894Y8089D01*
X109896Y8168D01*
X109885Y8247D01*
X109861Y8322D01*
X109825Y8393D01*
X109679Y8661D01*
X109560Y8943D01*
X109467Y9234D01*
X109399Y9533D01*
X109359Y9836D01*
X109345Y10142D01*
X109359Y10447D01*
X109399Y10751D01*
X109467Y11049D01*
X109560Y11340D01*
X109679Y11622D01*
X109822Y11892D01*
X109858Y11962D01*
X109881Y12038D01*
X109892Y12116D01*
X109891Y12194D01*
X109877Y12272D01*
X109852Y12346D01*
X109815Y12416D01*
X109767Y12479D01*
X109711Y12533D01*
X109646Y12578D01*
X109575Y12613D01*
X109500Y12636D01*
X109422Y12647D01*
X109344Y12645D01*
X109266Y12632D01*
X109192Y12606D01*
X109122Y12569D01*
X109118Y12566D01*
Y23000D01*
G37*
G36*
X90882D02*X109118D01*
Y12566D01*
X109059Y12522D01*
X109005Y12465D01*
X108961Y12400D01*
X108772Y12053D01*
X108618Y11689D01*
X108498Y11313D01*
X108411Y10928D01*
X108358Y10536D01*
X108341Y10142D01*
X108358Y9747D01*
X108411Y9356D01*
X108498Y8970D01*
X108618Y8594D01*
X108772Y8230D01*
X108957Y7881D01*
X109002Y7816D01*
X109057Y7759D01*
X109118Y7713D01*
Y2000D01*
X90882D01*
Y7717D01*
X90941Y7762D01*
X90995Y7818D01*
X91039Y7884D01*
X91228Y8230D01*
X91382Y8594D01*
X91502Y8970D01*
X91589Y9356D01*
X91642Y9747D01*
X91659Y10142D01*
X91642Y10536D01*
X91589Y10928D01*
X91502Y11313D01*
X91382Y11689D01*
X91228Y12053D01*
X91043Y12402D01*
X90998Y12467D01*
X90943Y12524D01*
X90882Y12571D01*
Y23000D01*
G37*
G36*
X87206D02*X90882D01*
Y12571D01*
X90880Y12572D01*
X90810Y12609D01*
X90735Y12635D01*
X90657Y12649D01*
X90578Y12650D01*
X90499Y12639D01*
X90423Y12616D01*
X90352Y12581D01*
X90287Y12536D01*
X90230Y12481D01*
X90182Y12418D01*
X90145Y12348D01*
X90119Y12273D01*
X90106Y12195D01*
X90104Y12115D01*
X90115Y12037D01*
X90139Y11961D01*
X90175Y11891D01*
X90321Y11622D01*
X90440Y11340D01*
X90533Y11049D01*
X90601Y10751D01*
X90641Y10447D01*
X90655Y10142D01*
X90641Y9836D01*
X90601Y9533D01*
X90533Y9234D01*
X90440Y8943D01*
X90321Y8661D01*
X90178Y8391D01*
X90142Y8321D01*
X90119Y8246D01*
X90108Y8168D01*
X90109Y8089D01*
X90123Y8012D01*
X90148Y7937D01*
X90185Y7868D01*
X90233Y7805D01*
X90289Y7750D01*
X90354Y7705D01*
X90425Y7671D01*
X90500Y7648D01*
X90578Y7637D01*
X90656Y7638D01*
X90734Y7652D01*
X90808Y7677D01*
X90878Y7714D01*
X90882Y7717D01*
Y2000D01*
X87206D01*
Y5687D01*
X87599Y5705D01*
X87991Y5757D01*
X88376Y5844D01*
X88752Y5965D01*
X89116Y6118D01*
X89465Y6304D01*
X89530Y6348D01*
X89587Y6403D01*
X89635Y6467D01*
X89672Y6537D01*
X89698Y6612D01*
X89712Y6690D01*
X89713Y6769D01*
X89702Y6847D01*
X89679Y6923D01*
X89644Y6994D01*
X89599Y7059D01*
X89544Y7116D01*
X89481Y7164D01*
X89411Y7201D01*
X89336Y7227D01*
X89258Y7241D01*
X89178Y7242D01*
X89100Y7231D01*
X89024Y7208D01*
X88954Y7172D01*
X88685Y7026D01*
X88403Y6907D01*
X88112Y6813D01*
X87814Y6746D01*
X87510Y6705D01*
X87206Y6692D01*
Y13592D01*
X87510Y13578D01*
X87814Y13538D01*
X88112Y13470D01*
X88403Y13377D01*
X88685Y13258D01*
X88955Y13115D01*
X89025Y13079D01*
X89101Y13056D01*
X89179Y13045D01*
X89257Y13046D01*
X89335Y13060D01*
X89409Y13085D01*
X89479Y13122D01*
X89542Y13170D01*
X89596Y13226D01*
X89641Y13291D01*
X89676Y13362D01*
X89699Y13437D01*
X89710Y13515D01*
X89708Y13593D01*
X89695Y13671D01*
X89669Y13745D01*
X89632Y13815D01*
X89585Y13878D01*
X89528Y13932D01*
X89463Y13976D01*
X89116Y14165D01*
X88752Y14319D01*
X88376Y14439D01*
X87991Y14526D01*
X87599Y14579D01*
X87206Y14596D01*
Y23000D01*
G37*
G36*
X83528D02*X87206D01*
Y14596D01*
X87205Y14596D01*
X86810Y14579D01*
X86419Y14526D01*
X86033Y14439D01*
X85657Y14319D01*
X85293Y14165D01*
X84944Y13980D01*
X84879Y13935D01*
X84822Y13880D01*
X84774Y13817D01*
X84737Y13747D01*
X84711Y13672D01*
X84698Y13594D01*
X84696Y13515D01*
X84707Y13436D01*
X84730Y13360D01*
X84765Y13289D01*
X84811Y13224D01*
X84866Y13167D01*
X84929Y13120D01*
X84999Y13082D01*
X85074Y13057D01*
X85152Y13043D01*
X85231Y13041D01*
X85310Y13052D01*
X85385Y13076D01*
X85456Y13112D01*
X85724Y13258D01*
X86006Y13377D01*
X86297Y13470D01*
X86596Y13538D01*
X86899Y13578D01*
X87205Y13592D01*
X87206Y13592D01*
Y6692D01*
X87205Y6692D01*
X86899Y6705D01*
X86596Y6746D01*
X86297Y6813D01*
X86006Y6907D01*
X85724Y7026D01*
X85454Y7169D01*
X85384Y7205D01*
X85309Y7228D01*
X85231Y7239D01*
X85152Y7237D01*
X85075Y7224D01*
X85000Y7198D01*
X84931Y7161D01*
X84868Y7114D01*
X84813Y7057D01*
X84768Y6993D01*
X84734Y6922D01*
X84711Y6847D01*
X84700Y6769D01*
X84701Y6690D01*
X84715Y6612D01*
X84740Y6538D01*
X84777Y6469D01*
X84825Y6406D01*
X84881Y6351D01*
X84947Y6307D01*
X85293Y6118D01*
X85657Y5965D01*
X86033Y5844D01*
X86419Y5757D01*
X86810Y5705D01*
X87205Y5687D01*
X87206Y5687D01*
Y2000D01*
X83528D01*
Y7713D01*
X83530Y7711D01*
X83600Y7674D01*
X83675Y7648D01*
X83753Y7635D01*
X83832Y7633D01*
X83910Y7644D01*
X83986Y7667D01*
X84057Y7702D01*
X84122Y7748D01*
X84179Y7803D01*
X84227Y7866D01*
X84264Y7936D01*
X84290Y8011D01*
X84304Y8089D01*
X84305Y8168D01*
X84294Y8247D01*
X84271Y8322D01*
X84235Y8393D01*
X84089Y8661D01*
X83970Y8943D01*
X83876Y9234D01*
X83809Y9533D01*
X83768Y9836D01*
X83755Y10142D01*
X83768Y10447D01*
X83809Y10751D01*
X83876Y11049D01*
X83970Y11340D01*
X84089Y11622D01*
X84232Y11892D01*
X84268Y11962D01*
X84291Y12038D01*
X84302Y12116D01*
X84300Y12194D01*
X84287Y12272D01*
X84261Y12346D01*
X84224Y12416D01*
X84177Y12479D01*
X84120Y12533D01*
X84056Y12578D01*
X83985Y12613D01*
X83910Y12636D01*
X83832Y12647D01*
X83753Y12645D01*
X83675Y12632D01*
X83601Y12606D01*
X83532Y12569D01*
X83528Y12566D01*
Y23000D01*
G37*
G36*
X76000D02*X83528D01*
Y12566D01*
X83469Y12522D01*
X83414Y12465D01*
X83370Y12400D01*
X83181Y12053D01*
X83028Y11689D01*
X82907Y11313D01*
X82820Y10928D01*
X82768Y10536D01*
X82750Y10142D01*
X82768Y9747D01*
X82820Y9356D01*
X82907Y8970D01*
X83028Y8594D01*
X83181Y8230D01*
X83366Y7881D01*
X83411Y7816D01*
X83466Y7759D01*
X83528Y7713D01*
Y2000D01*
X76000D01*
Y23000D01*
G37*
G36*
X91045Y25608D02*X108955D01*
X109184Y25235D01*
X109639Y24702D01*
X110172Y24247D01*
X110769Y23881D01*
X111416Y23613D01*
X112097Y23450D01*
X112795Y23395D01*
X113494Y23450D01*
X114175Y23613D01*
X114822Y23881D01*
X115419Y24247D01*
X115952Y24702D01*
X116407Y25235D01*
X116636Y25608D01*
X140770D01*
X140858Y25601D01*
X141211Y25629D01*
X141211Y25629D01*
X141556Y25712D01*
X141883Y25847D01*
X142185Y26032D01*
X142454Y26262D01*
X142512Y26330D01*
X147932Y31750D01*
X151739D01*
X151281Y31469D01*
X150748Y31015D01*
X150293Y30482D01*
X149928Y29885D01*
X149659Y29238D01*
X149496Y28557D01*
X149441Y27858D01*
X149496Y27160D01*
X149659Y26479D01*
X149928Y25832D01*
X150293Y25235D01*
X150748Y24702D01*
X151281Y24247D01*
X151878Y23881D01*
X152525Y23613D01*
X153206Y23450D01*
X153905Y23395D01*
X154603Y23450D01*
X155284Y23613D01*
X155931Y23881D01*
X156528Y24247D01*
X157061Y24702D01*
X157516Y25235D01*
X157745Y25608D01*
X175655D01*
X175884Y25235D01*
X176339Y24702D01*
X176872Y24247D01*
X177469Y23881D01*
X178116Y23613D01*
X178797Y23450D01*
X179495Y23395D01*
X180194Y23450D01*
X180875Y23613D01*
X181522Y23881D01*
X182119Y24247D01*
X182652Y24702D01*
X183107Y25235D01*
X183336Y25608D01*
X207770D01*
X207858Y25601D01*
X208211Y25629D01*
X208211Y25629D01*
X208556Y25712D01*
X208883Y25847D01*
X209185Y26032D01*
X209454Y26262D01*
X209512Y26330D01*
X214932Y31750D01*
X218339D01*
X217881Y31469D01*
X217348Y31015D01*
X216893Y30482D01*
X216528Y29885D01*
X216259Y29238D01*
X216096Y28557D01*
X216041Y27858D01*
X216096Y27160D01*
X216259Y26479D01*
X216528Y25832D01*
X216893Y25235D01*
X217348Y24702D01*
X217881Y24247D01*
X218478Y23881D01*
X219125Y23613D01*
X219806Y23450D01*
X220505Y23395D01*
X221203Y23450D01*
X221884Y23613D01*
X222531Y23881D01*
X223128Y24247D01*
X223661Y24702D01*
X224116Y25235D01*
X224345Y25608D01*
X242255D01*
X242484Y25235D01*
X242939Y24702D01*
X243472Y24247D01*
X244069Y23881D01*
X244716Y23613D01*
X245397Y23450D01*
X246095Y23395D01*
X246794Y23450D01*
X247475Y23613D01*
X248122Y23881D01*
X248719Y24247D01*
X249252Y24702D01*
X249707Y25235D01*
X249936Y25608D01*
X274270D01*
X274358Y25601D01*
X274711Y25629D01*
X274711Y25629D01*
X275056Y25712D01*
X275383Y25847D01*
X275685Y26032D01*
X275954Y26262D01*
X276012Y26330D01*
X281932Y32250D01*
X286435D01*
X285825Y32104D01*
X285178Y31835D01*
X284581Y31469D01*
X284048Y31015D01*
X283593Y30482D01*
X283228Y29885D01*
X282959Y29238D01*
X282796Y28557D01*
X282741Y27858D01*
X282796Y27160D01*
X282959Y26479D01*
X283228Y25832D01*
X283593Y25235D01*
X284048Y24702D01*
X284581Y24247D01*
X285178Y23881D01*
X285825Y23613D01*
X286506Y23450D01*
X287205Y23395D01*
X287903Y23450D01*
X288584Y23613D01*
X289231Y23881D01*
X289828Y24247D01*
X290361Y24702D01*
X290816Y25235D01*
X291045Y25608D01*
X308955D01*
X309184Y25235D01*
X309639Y24702D01*
X310172Y24247D01*
X310769Y23881D01*
X311416Y23613D01*
X312097Y23450D01*
X312795Y23395D01*
X313494Y23450D01*
X314175Y23613D01*
X314822Y23881D01*
X315419Y24247D01*
X315952Y24702D01*
X316407Y25235D01*
X316772Y25832D01*
X317041Y26479D01*
X317204Y27160D01*
X317245Y27858D01*
X317204Y28557D01*
X317041Y29238D01*
X316772Y29885D01*
X316407Y30482D01*
X315952Y31015D01*
X315419Y31469D01*
X315250Y31573D01*
Y42000D01*
X324000D01*
Y21000D01*
X76000D01*
Y42000D01*
X271818D01*
X270068Y40250D01*
X212588D01*
X212500Y40257D01*
X212147Y40229D01*
X211803Y40146D01*
X211475Y40011D01*
X211173Y39826D01*
X211173Y39826D01*
X210904Y39596D01*
X210847Y39529D01*
X207568Y36250D01*
X147088D01*
X147000Y36257D01*
X146647Y36229D01*
X146303Y36146D01*
X145975Y36011D01*
X145673Y35826D01*
X145673Y35826D01*
X145404Y35596D01*
X145347Y35529D01*
X139926Y30108D01*
X116636D01*
X116407Y30482D01*
X115952Y31015D01*
X115419Y31469D01*
X114822Y31835D01*
X114175Y32104D01*
X113494Y32267D01*
X112795Y32322D01*
X112097Y32267D01*
X111416Y32104D01*
X110769Y31835D01*
X110172Y31469D01*
X109639Y31015D01*
X109184Y30482D01*
X108955Y30108D01*
X91045D01*
X90816Y30482D01*
X90361Y31015D01*
X89828Y31469D01*
X89231Y31835D01*
X88584Y32104D01*
X87903Y32267D01*
X87205Y32322D01*
X86506Y32267D01*
X85825Y32104D01*
X85178Y31835D01*
X84581Y31469D01*
X84048Y31015D01*
X83593Y30482D01*
X83228Y29885D01*
X82959Y29238D01*
X82796Y28557D01*
X82741Y27858D01*
X82796Y27160D01*
X82959Y26479D01*
X83228Y25832D01*
X83593Y25235D01*
X84048Y24702D01*
X84581Y24247D01*
X85178Y23881D01*
X85825Y23613D01*
X86506Y23450D01*
X87205Y23395D01*
X87903Y23450D01*
X88584Y23613D01*
X89231Y23881D01*
X89828Y24247D01*
X90361Y24702D01*
X90816Y25235D01*
X91045Y25608D01*
G37*
G36*
X76500Y47000D02*X293250D01*
Y45932D01*
X292568Y45250D01*
X276088D01*
X276000Y45257D01*
X275647Y45229D01*
X275303Y45146D01*
X274975Y45011D01*
X274673Y44826D01*
X274673Y44826D01*
X274404Y44596D01*
X274347Y44529D01*
X270068Y40250D01*
X212588D01*
X212500Y40257D01*
X212147Y40229D01*
X211803Y40146D01*
X211475Y40011D01*
X211173Y39826D01*
X211173Y39826D01*
X210904Y39596D01*
X210847Y39529D01*
X207568Y36250D01*
X147088D01*
X147000Y36257D01*
X146647Y36229D01*
X146303Y36146D01*
X145975Y36011D01*
X145673Y35826D01*
X145673Y35826D01*
X145404Y35596D01*
X145347Y35529D01*
X139926Y30108D01*
X116636D01*
X116407Y30482D01*
X115952Y31015D01*
X115419Y31469D01*
X114822Y31835D01*
X114175Y32104D01*
X113494Y32267D01*
X112795Y32322D01*
X112097Y32267D01*
X111416Y32104D01*
X110769Y31835D01*
X110172Y31469D01*
X109639Y31015D01*
X109184Y30482D01*
X108955Y30108D01*
X91045D01*
X90816Y30482D01*
X90361Y31015D01*
X89828Y31469D01*
X89231Y31835D01*
X88584Y32104D01*
X87903Y32267D01*
X87205Y32322D01*
X86506Y32267D01*
X85825Y32104D01*
X85178Y31835D01*
X84581Y31469D01*
X84048Y31015D01*
X83593Y30482D01*
X83228Y29885D01*
X82959Y29238D01*
X82796Y28557D01*
X82741Y27858D01*
X82796Y27160D01*
X82959Y26479D01*
X83158Y26000D01*
X76500D01*
Y47000D01*
G37*
G36*
X293250Y50520D02*Y45932D01*
X292568Y45250D01*
X276088D01*
X276000Y45257D01*
X275647Y45229D01*
X275303Y45146D01*
X274975Y45011D01*
X274673Y44826D01*
X274673Y44826D01*
X274404Y44596D01*
X274347Y44529D01*
X270068Y40250D01*
X212588D01*
X212500Y40257D01*
X212147Y40229D01*
X211803Y40146D01*
X211475Y40011D01*
X211173Y39826D01*
X211173Y39826D01*
X210904Y39596D01*
X210847Y39529D01*
X207568Y36250D01*
X147088D01*
X147000Y36257D01*
X146647Y36229D01*
X146303Y36146D01*
X145975Y36011D01*
X145673Y35826D01*
X145673Y35826D01*
X145404Y35596D01*
X145347Y35529D01*
X140318Y30500D01*
X116391D01*
X115952Y31015D01*
X115419Y31469D01*
X114822Y31835D01*
X114175Y32104D01*
X113494Y32267D01*
X112795Y32322D01*
X112097Y32267D01*
X111416Y32104D01*
X110769Y31835D01*
X110172Y31469D01*
X109639Y31015D01*
X109199Y30500D01*
X90801D01*
X90361Y31015D01*
X89828Y31469D01*
X89231Y31835D01*
X88584Y32104D01*
X87903Y32267D01*
X87205Y32322D01*
X86506Y32267D01*
X85825Y32104D01*
X85178Y31835D01*
X84581Y31469D01*
X84048Y31015D01*
X83609Y30500D01*
X76000D01*
Y49500D01*
X289256D01*
X289369Y49369D01*
X289644Y49134D01*
X289953Y48944D01*
X290287Y48806D01*
X290639Y48721D01*
X291000Y48693D01*
X291361Y48721D01*
X291713Y48806D01*
X292047Y48944D01*
X292356Y49134D01*
X292631Y49369D01*
X292866Y49644D01*
X293056Y49953D01*
X293194Y50287D01*
X293250Y50520D01*
G37*
G36*
X116250Y177500D02*X134500D01*
Y132000D01*
X124121D01*
X122102Y134019D01*
X122064Y134064D01*
X121884Y134217D01*
X121683Y134341D01*
X121465Y134431D01*
X121235Y134486D01*
X121000Y134505D01*
X120941Y134500D01*
X116250D01*
Y177500D01*
G37*
G36*
Y121500D02*X120941D01*
X121000Y121495D01*
X121235Y121514D01*
X121235Y121514D01*
X121465Y121569D01*
X121683Y121659D01*
X121884Y121783D01*
X122064Y121936D01*
X122102Y121981D01*
X124121Y124000D01*
X134500D01*
Y72500D01*
X116250D01*
Y116502D01*
X120578Y116505D01*
X120655Y116523D01*
X120728Y116553D01*
X120795Y116594D01*
X120855Y116645D01*
X120906Y116705D01*
X120947Y116772D01*
X120977Y116845D01*
X120995Y116922D01*
X121000Y117000D01*
X120995Y119078D01*
X120977Y119155D01*
X120947Y119228D01*
X120906Y119295D01*
X120855Y119355D01*
X120795Y119406D01*
X120728Y119447D01*
X120655Y119477D01*
X120578Y119495D01*
X120500Y119500D01*
X116250Y119498D01*
Y121500D01*
G37*
G36*
Y126500D02*X122379D01*
X120379Y124500D01*
X116250D01*
Y126500D01*
G37*
G36*
Y131500D02*X120379D01*
X122379Y129500D01*
X116250D01*
Y131500D01*
G37*
G36*
X111500Y134000D02*X111505Y131922D01*
X111523Y131845D01*
X111553Y131772D01*
X111594Y131705D01*
X111645Y131645D01*
X111705Y131594D01*
X111772Y131553D01*
X111845Y131523D01*
X111922Y131505D01*
X112000Y131500D01*
X116211Y131502D01*
X116250Y131500D01*
Y129500D01*
X116211Y129498D01*
X111922Y129495D01*
X111845Y129477D01*
X111772Y129447D01*
X111705Y129406D01*
X111645Y129355D01*
X111594Y129295D01*
X111553Y129228D01*
X111523Y129155D01*
X111505Y129078D01*
X111500Y129000D01*
X111505Y126922D01*
X111523Y126845D01*
X111553Y126772D01*
X111594Y126705D01*
X111645Y126645D01*
X111705Y126594D01*
X111772Y126553D01*
X111845Y126523D01*
X111922Y126505D01*
X112000Y126500D01*
X116211Y126502D01*
X116250Y126500D01*
Y124500D01*
X116211Y124498D01*
X111922Y124495D01*
X111845Y124477D01*
X111772Y124447D01*
X111705Y124406D01*
X111645Y124355D01*
X111594Y124295D01*
X111553Y124228D01*
X111523Y124155D01*
X111505Y124078D01*
X111500Y124000D01*
X111505Y121922D01*
X111523Y121845D01*
X111553Y121772D01*
X111594Y121705D01*
X111645Y121645D01*
X111705Y121594D01*
X111772Y121553D01*
X111845Y121523D01*
X111922Y121505D01*
X112000Y121500D01*
X116211Y121502D01*
X116250Y121500D01*
Y119498D01*
X111922Y119495D01*
X111845Y119477D01*
X111772Y119447D01*
X111705Y119406D01*
X111645Y119355D01*
X111594Y119295D01*
X111553Y119228D01*
X111523Y119155D01*
X111505Y119078D01*
X111500Y119000D01*
X111505Y116922D01*
X111523Y116845D01*
X111553Y116772D01*
X111594Y116705D01*
X111645Y116645D01*
X111705Y116594D01*
X111772Y116553D01*
X111845Y116523D01*
X111922Y116505D01*
X112000Y116500D01*
X116250Y116502D01*
Y72500D01*
X81621D01*
X80000Y74121D01*
Y104756D01*
X80131Y104869D01*
X80366Y105144D01*
X80556Y105453D01*
X80694Y105787D01*
X80779Y106139D01*
X80800Y106500D01*
X80779Y106861D01*
X80694Y107213D01*
X80556Y107547D01*
X80366Y107856D01*
X80131Y108131D01*
X79856Y108366D01*
X79547Y108556D01*
X79213Y108694D01*
X78861Y108779D01*
X78503Y108807D01*
X78770Y109450D01*
X78954Y110215D01*
X79015Y111000D01*
X78959Y111716D01*
X82243Y115000D01*
X95750D01*
X96221Y115028D01*
X96680Y115138D01*
X97116Y115319D01*
X97519Y115565D01*
X97878Y115872D01*
X98185Y116231D01*
X98352Y116504D01*
X100078Y116505D01*
X100155Y116523D01*
X100228Y116553D01*
X100295Y116594D01*
X100355Y116645D01*
X100406Y116705D01*
X100447Y116772D01*
X100477Y116845D01*
X100495Y116922D01*
X100500Y117000D01*
X100495Y119078D01*
X100477Y119155D01*
X100447Y119228D01*
X100406Y119295D01*
X100355Y119355D01*
X100295Y119406D01*
X100228Y119447D01*
X100155Y119477D01*
X100078Y119495D01*
X100000Y119500D01*
X98350Y119499D01*
X98185Y119769D01*
X97878Y120128D01*
X97519Y120435D01*
X97412Y120500D01*
X97519Y120565D01*
X97878Y120872D01*
X98185Y121231D01*
X98352Y121504D01*
X100078Y121505D01*
X100155Y121523D01*
X100228Y121553D01*
X100295Y121594D01*
X100355Y121645D01*
X100406Y121705D01*
X100447Y121772D01*
X100477Y121845D01*
X100495Y121922D01*
X100500Y122000D01*
X100495Y124078D01*
X100477Y124155D01*
X100447Y124228D01*
X100406Y124295D01*
X100355Y124355D01*
X100295Y124406D01*
X100228Y124447D01*
X100155Y124477D01*
X100078Y124495D01*
X100000Y124500D01*
X98350Y124499D01*
X98185Y124769D01*
X97878Y125128D01*
X97519Y125435D01*
X97412Y125500D01*
X97519Y125565D01*
X97878Y125872D01*
X98185Y126231D01*
X98352Y126504D01*
X100078Y126505D01*
X100155Y126523D01*
X100228Y126553D01*
X100295Y126594D01*
X100355Y126645D01*
X100406Y126705D01*
X100447Y126772D01*
X100477Y126845D01*
X100495Y126922D01*
X100500Y127000D01*
X100495Y129078D01*
X100477Y129155D01*
X100447Y129228D01*
X100406Y129295D01*
X100355Y129355D01*
X100295Y129406D01*
X100228Y129447D01*
X100155Y129477D01*
X100078Y129495D01*
X100000Y129500D01*
X98350Y129499D01*
X98185Y129769D01*
X97878Y130128D01*
X97519Y130435D01*
X97412Y130500D01*
X97519Y130565D01*
X97878Y130872D01*
X98185Y131231D01*
X98352Y131504D01*
X100078Y131505D01*
X100155Y131523D01*
X100228Y131553D01*
X100295Y131594D01*
X100355Y131645D01*
X100406Y131705D01*
X100447Y131772D01*
X100477Y131845D01*
X100495Y131922D01*
X100500Y132000D01*
X100495Y134078D01*
X100477Y134155D01*
X100447Y134228D01*
X100406Y134295D01*
X100355Y134355D01*
X100295Y134406D01*
X100228Y134447D01*
X100155Y134477D01*
X100078Y134495D01*
X100000Y134500D01*
X98350Y134499D01*
X98185Y134769D01*
X97878Y135128D01*
X97519Y135435D01*
X97116Y135681D01*
X96680Y135862D01*
X96221Y135972D01*
X95750Y136000D01*
X91743D01*
X90500Y137243D01*
Y138907D01*
X90609Y138907D01*
X90762Y138944D01*
X90907Y139004D01*
X91042Y139086D01*
X91161Y139189D01*
X91264Y139308D01*
X91346Y139443D01*
X91406Y139588D01*
X91443Y139741D01*
X91452Y139898D01*
X91443Y146173D01*
X91406Y146326D01*
X91346Y146471D01*
X91264Y146606D01*
X91161Y146725D01*
X91042Y146828D01*
X90907Y146910D01*
X90762Y146970D01*
X90609Y147007D01*
X90452Y147016D01*
X83391Y147007D01*
X83238Y146970D01*
X83207Y146957D01*
X77500D01*
Y177500D01*
X116250D01*
Y134500D01*
X116211Y134498D01*
X111922Y134495D01*
X111845Y134477D01*
X111772Y134447D01*
X111705Y134406D01*
X111645Y134355D01*
X111594Y134295D01*
X111553Y134228D01*
X111523Y134155D01*
X111505Y134078D01*
X111500Y134000D01*
G37*
G36*
X116250Y121500D02*X120941D01*
X121000Y121495D01*
X121235Y121514D01*
X121235Y121514D01*
X121465Y121569D01*
X121683Y121659D01*
X121884Y121783D01*
X122064Y121936D01*
X122102Y121981D01*
X124121Y124000D01*
X182500D01*
Y72500D01*
X116250D01*
Y116502D01*
X120578Y116505D01*
X120655Y116523D01*
X120728Y116553D01*
X120795Y116594D01*
X120855Y116645D01*
X120906Y116705D01*
X120947Y116772D01*
X120977Y116845D01*
X120995Y116922D01*
X121000Y117000D01*
X120995Y119078D01*
X120977Y119155D01*
X120947Y119228D01*
X120906Y119295D01*
X120855Y119355D01*
X120795Y119406D01*
X120728Y119447D01*
X120655Y119477D01*
X120578Y119495D01*
X120500Y119500D01*
X116250Y119498D01*
Y121500D01*
G37*
G36*
Y126500D02*X122379D01*
X120379Y124500D01*
X116250D01*
Y126500D01*
G37*
G36*
Y131500D02*X120379D01*
X122379Y129500D01*
X116250D01*
Y131500D01*
G37*
G36*
Y139000D02*X182500D01*
Y132000D01*
X124121D01*
X122102Y134019D01*
X122064Y134064D01*
X121884Y134217D01*
X121683Y134341D01*
X121465Y134431D01*
X121235Y134486D01*
X121000Y134505D01*
X120941Y134500D01*
X116250D01*
Y139000D01*
G37*
G36*
X98352Y116504D02*X100078Y116505D01*
X100155Y116523D01*
X100228Y116553D01*
X100295Y116594D01*
X100355Y116645D01*
X100406Y116705D01*
X100447Y116772D01*
X100477Y116845D01*
X100495Y116922D01*
X100500Y117000D01*
X100495Y119078D01*
X100477Y119155D01*
X100447Y119228D01*
X100406Y119295D01*
X100355Y119355D01*
X100295Y119406D01*
X100228Y119447D01*
X100155Y119477D01*
X100078Y119495D01*
X100000Y119500D01*
X98350Y119499D01*
X98185Y119769D01*
X97878Y120128D01*
X97519Y120435D01*
X97412Y120500D01*
X97519Y120565D01*
X97878Y120872D01*
X98185Y121231D01*
X98352Y121504D01*
X100078Y121505D01*
X100155Y121523D01*
X100228Y121553D01*
X100295Y121594D01*
X100355Y121645D01*
X100406Y121705D01*
X100447Y121772D01*
X100477Y121845D01*
X100495Y121922D01*
X100500Y122000D01*
X100495Y124078D01*
X100477Y124155D01*
X100447Y124228D01*
X100406Y124295D01*
X100355Y124355D01*
X100295Y124406D01*
X100228Y124447D01*
X100155Y124477D01*
X100078Y124495D01*
X100000Y124500D01*
X98350Y124499D01*
X98185Y124769D01*
X97878Y125128D01*
X97519Y125435D01*
X97412Y125500D01*
X97519Y125565D01*
X97878Y125872D01*
X98185Y126231D01*
X98352Y126504D01*
X100078Y126505D01*
X100155Y126523D01*
X100228Y126553D01*
X100295Y126594D01*
X100355Y126645D01*
X100406Y126705D01*
X100447Y126772D01*
X100477Y126845D01*
X100495Y126922D01*
X100500Y127000D01*
X100495Y129078D01*
X100477Y129155D01*
X100447Y129228D01*
X100406Y129295D01*
X100355Y129355D01*
X100295Y129406D01*
X100228Y129447D01*
X100155Y129477D01*
X100078Y129495D01*
X100000Y129500D01*
X98350Y129499D01*
X98185Y129769D01*
X97878Y130128D01*
X97519Y130435D01*
X97412Y130500D01*
X97519Y130565D01*
X97878Y130872D01*
X98185Y131231D01*
X98352Y131504D01*
X100078Y131505D01*
X100155Y131523D01*
X100228Y131553D01*
X100295Y131594D01*
X100355Y131645D01*
X100406Y131705D01*
X100447Y131772D01*
X100477Y131845D01*
X100495Y131922D01*
X100500Y132000D01*
X100495Y134078D01*
X100477Y134155D01*
X100447Y134228D01*
X100406Y134295D01*
X100355Y134355D01*
X100295Y134406D01*
X100228Y134447D01*
X100155Y134477D01*
X100078Y134495D01*
X100000Y134500D01*
X98350Y134499D01*
X98185Y134769D01*
X97878Y135128D01*
X97519Y135435D01*
X97116Y135681D01*
X96680Y135862D01*
X96221Y135972D01*
X95750Y136000D01*
X91743D01*
X90500Y137243D01*
Y138907D01*
X90609Y138907D01*
X90762Y138944D01*
X90897Y139000D01*
X116250D01*
Y134500D01*
X116211Y134498D01*
X111922Y134495D01*
X111845Y134477D01*
X111772Y134447D01*
X111705Y134406D01*
X111645Y134355D01*
X111594Y134295D01*
X111553Y134228D01*
X111523Y134155D01*
X111505Y134078D01*
X111500Y134000D01*
X111505Y131922D01*
X111523Y131845D01*
X111553Y131772D01*
X111594Y131705D01*
X111645Y131645D01*
X111705Y131594D01*
X111772Y131553D01*
X111845Y131523D01*
X111922Y131505D01*
X112000Y131500D01*
X116211Y131502D01*
X116250Y131500D01*
Y129500D01*
X116211Y129498D01*
X111922Y129495D01*
X111845Y129477D01*
X111772Y129447D01*
X111705Y129406D01*
X111645Y129355D01*
X111594Y129295D01*
X111553Y129228D01*
X111523Y129155D01*
X111505Y129078D01*
X111500Y129000D01*
X111505Y126922D01*
X111523Y126845D01*
X111553Y126772D01*
X111594Y126705D01*
X111645Y126645D01*
X111705Y126594D01*
X111772Y126553D01*
X111845Y126523D01*
X111922Y126505D01*
X112000Y126500D01*
X116211Y126502D01*
X116250Y126500D01*
Y124500D01*
X116211Y124498D01*
X111922Y124495D01*
X111845Y124477D01*
X111772Y124447D01*
X111705Y124406D01*
X111645Y124355D01*
X111594Y124295D01*
X111553Y124228D01*
X111523Y124155D01*
X111505Y124078D01*
X111500Y124000D01*
X111505Y121922D01*
X111523Y121845D01*
X111553Y121772D01*
X111594Y121705D01*
X111645Y121645D01*
X111705Y121594D01*
X111772Y121553D01*
X111845Y121523D01*
X111922Y121505D01*
X112000Y121500D01*
X116211Y121502D01*
X116250Y121500D01*
Y119498D01*
X111922Y119495D01*
X111845Y119477D01*
X111772Y119447D01*
X111705Y119406D01*
X111645Y119355D01*
X111594Y119295D01*
X111553Y119228D01*
X111523Y119155D01*
X111505Y119078D01*
X111500Y119000D01*
X111505Y116922D01*
X111523Y116845D01*
X111553Y116772D01*
X111594Y116705D01*
X111645Y116645D01*
X111705Y116594D01*
X111772Y116553D01*
X111845Y116523D01*
X111922Y116505D01*
X112000Y116500D01*
X116250Y116502D01*
Y72500D01*
X89500D01*
Y115000D01*
X95750D01*
X96221Y115028D01*
X96680Y115138D01*
X97116Y115319D01*
X97519Y115565D01*
X97878Y115872D01*
X98185Y116231D01*
X98352Y116504D01*
G37*
G36*
X140500Y170000D02*X177500D01*
Y132000D01*
X140500D01*
Y170000D01*
G37*
G36*
X287300Y72500D02*X150500D01*
Y124000D01*
X266941D01*
X267000Y123995D01*
X267235Y124014D01*
X267235Y124014D01*
X267465Y124069D01*
X267683Y124159D01*
X267884Y124283D01*
X268064Y124436D01*
X268102Y124481D01*
X272519Y128898D01*
X272564Y128936D01*
X272717Y129115D01*
X272717Y129116D01*
X272841Y129317D01*
X272931Y129535D01*
X272986Y129765D01*
X273005Y130000D01*
X273000Y130059D01*
Y155379D01*
X273621Y156000D01*
X280441D01*
X280500Y155995D01*
X280735Y156014D01*
X280735Y156014D01*
X280965Y156069D01*
X281183Y156159D01*
X281384Y156283D01*
X281564Y156436D01*
X281602Y156481D01*
X283019Y157898D01*
X283064Y157936D01*
X283217Y158115D01*
X283217Y158116D01*
X283341Y158317D01*
X283431Y158535D01*
X283486Y158765D01*
X283505Y159000D01*
X283500Y159059D01*
Y165879D01*
X284121Y166500D01*
X285842D01*
X285901Y166495D01*
X286136Y166514D01*
X286137Y166514D01*
X286366Y166569D01*
X286584Y166659D01*
X286786Y166783D01*
X286965Y166936D01*
X287003Y166981D01*
X287920Y167898D01*
X287965Y167936D01*
X288118Y168115D01*
X288118Y168116D01*
X288242Y168317D01*
X288332Y168535D01*
X288387Y168765D01*
X288405Y168995D01*
X288476Y169039D01*
X288581Y168974D01*
X288799Y168884D01*
X289029Y168829D01*
X289264Y168815D01*
X291073Y168829D01*
X291303Y168884D01*
X291521Y168974D01*
X291626Y169038D01*
X291700Y168993D01*
Y168321D01*
X288481Y165102D01*
X288436Y165064D01*
X288283Y164884D01*
X288159Y164683D01*
X288069Y164465D01*
X288014Y164235D01*
X288014Y164235D01*
X287995Y164000D01*
X288000Y163941D01*
Y159744D01*
X287869Y159631D01*
X287634Y159356D01*
X287444Y159047D01*
X287306Y158713D01*
X287221Y158361D01*
X287193Y158000D01*
X287221Y157639D01*
X287306Y157287D01*
X287444Y156953D01*
X287634Y156644D01*
X287869Y156369D01*
X288144Y156134D01*
X288453Y155944D01*
X288787Y155806D01*
X289139Y155721D01*
X289500Y155693D01*
X289861Y155721D01*
X290213Y155806D01*
X290547Y155944D01*
X290856Y156134D01*
X291131Y156369D01*
X291366Y156644D01*
X291556Y156953D01*
X291694Y157287D01*
X291779Y157639D01*
X291800Y158000D01*
X291779Y158361D01*
X291725Y158584D01*
X291953Y158444D01*
X292287Y158306D01*
X292639Y158221D01*
X293000Y158193D01*
X293361Y158221D01*
X293713Y158306D01*
X294047Y158444D01*
X294356Y158634D01*
X294631Y158869D01*
X294866Y159144D01*
X295056Y159453D01*
X295194Y159787D01*
X295279Y160139D01*
X295300Y160500D01*
X295279Y160861D01*
X295194Y161213D01*
X295056Y161547D01*
X294866Y161856D01*
X294631Y162131D01*
X294500Y162244D01*
Y162879D01*
X296500Y164879D01*
Y164119D01*
X296447Y163992D01*
X296330Y163502D01*
X296300Y163000D01*
Y105184D01*
X288870Y97754D01*
X288613Y97597D01*
X288230Y97270D01*
X287903Y96887D01*
X287640Y96457D01*
X287447Y95992D01*
X287330Y95502D01*
X287300Y95000D01*
Y72500D01*
G37*
G36*
X233000Y175500D02*X262000D01*
Y132000D01*
X233000D01*
Y175500D01*
G37*
G36*
X317000Y180500D02*X303510D01*
X303397Y180546D01*
X303053Y180629D01*
X302700Y180657D01*
X302347Y180629D01*
X302003Y180546D01*
X301890Y180500D01*
X282000D01*
Y196958D01*
X282011Y196975D01*
X282146Y197303D01*
X282229Y197647D01*
X282257Y198000D01*
X282229Y198353D01*
X282146Y198697D01*
X282011Y199025D01*
X282000Y199042D01*
Y215500D01*
X298690D01*
X298803Y215454D01*
X299147Y215371D01*
X299500Y215343D01*
X299853Y215371D01*
X300197Y215454D01*
X300310Y215500D01*
X317000D01*
Y205559D01*
X316995Y205500D01*
X317000Y205441D01*
Y199042D01*
X316989Y199025D01*
X316854Y198697D01*
X316771Y198353D01*
X316743Y198000D01*
X316771Y197647D01*
X316854Y197303D01*
X316989Y196975D01*
X317000Y196958D01*
Y181059D01*
X316995Y181000D01*
X317000Y180941D01*
Y180500D01*
G37*
G36*
X111500Y129000D02*X111505Y126922D01*
X111523Y126845D01*
X111553Y126772D01*
X111594Y126705D01*
X111645Y126645D01*
X111705Y126594D01*
X111772Y126553D01*
X111845Y126523D01*
X111922Y126505D01*
X112000Y126500D01*
X116211Y126502D01*
X116250Y126500D01*
X122379D01*
X120379Y124500D01*
X116250D01*
X116211Y124498D01*
X111922Y124495D01*
X111845Y124477D01*
X111772Y124447D01*
X111705Y124406D01*
X111645Y124355D01*
X111594Y124295D01*
X111553Y124228D01*
X111523Y124155D01*
X111505Y124078D01*
X111500Y124000D01*
X100496D01*
X100495Y124078D01*
X100477Y124155D01*
X100447Y124228D01*
X100406Y124295D01*
X100355Y124355D01*
X100295Y124406D01*
X100228Y124447D01*
X100155Y124477D01*
X100078Y124495D01*
X100000Y124500D01*
X98350Y124499D01*
X98185Y124769D01*
X97878Y125128D01*
X97519Y125435D01*
X97412Y125500D01*
X97519Y125565D01*
X97878Y125872D01*
X98185Y126231D01*
X98352Y126504D01*
X100078Y126505D01*
X100155Y126523D01*
X100228Y126553D01*
X100295Y126594D01*
X100355Y126645D01*
X100406Y126705D01*
X100447Y126772D01*
X100477Y126845D01*
X100495Y126922D01*
X100500Y127000D01*
X100495Y129078D01*
X100477Y129155D01*
X100447Y129228D01*
X100406Y129295D01*
X100355Y129355D01*
X100295Y129406D01*
X100228Y129447D01*
X100155Y129477D01*
X100078Y129495D01*
X100000Y129500D01*
X98350Y129499D01*
X98185Y129769D01*
X97878Y130128D01*
X97519Y130435D01*
X97412Y130500D01*
X97519Y130565D01*
X97878Y130872D01*
X98185Y131231D01*
X98352Y131504D01*
X100078Y131505D01*
X100155Y131523D01*
X100228Y131553D01*
X100295Y131594D01*
X100355Y131645D01*
X100406Y131705D01*
X100447Y131772D01*
X100477Y131845D01*
X100495Y131922D01*
X100500Y132000D01*
X100495Y134078D01*
X100477Y134155D01*
X100447Y134228D01*
X100406Y134295D01*
X100355Y134355D01*
X100295Y134406D01*
X100228Y134447D01*
X100155Y134477D01*
X100078Y134495D01*
X100000Y134500D01*
X98350Y134499D01*
X98185Y134769D01*
X97878Y135128D01*
X97519Y135435D01*
X97116Y135681D01*
X96680Y135862D01*
X96221Y135972D01*
X95750Y136000D01*
X91743D01*
X90500Y137243D01*
Y138907D01*
X90609Y138907D01*
X90762Y138944D01*
X90907Y139004D01*
X91042Y139086D01*
X91161Y139189D01*
X91264Y139308D01*
X91346Y139443D01*
X91406Y139588D01*
X91443Y139741D01*
X91452Y139898D01*
X91443Y146173D01*
X91406Y146326D01*
X91346Y146471D01*
X91264Y146606D01*
X91161Y146725D01*
X91042Y146828D01*
X90907Y146910D01*
X90762Y146970D01*
X90609Y147007D01*
X90452Y147016D01*
X89500Y147015D01*
Y212500D01*
X241500D01*
Y201428D01*
X241407Y201371D01*
X241287Y201268D01*
X241185Y201149D01*
X241103Y201014D01*
X241043Y200869D01*
X241006Y200716D01*
X240997Y200559D01*
X241006Y195284D01*
X241043Y195131D01*
X241103Y194986D01*
X241185Y194851D01*
X241287Y194732D01*
X241407Y194629D01*
X241500Y194572D01*
Y192372D01*
X241407Y192315D01*
X241287Y192212D01*
X241185Y192093D01*
X241103Y191958D01*
X241043Y191813D01*
X241006Y191660D01*
X240997Y191503D01*
X241006Y186228D01*
X241043Y186075D01*
X241103Y185930D01*
X241185Y185795D01*
X241287Y185676D01*
X241407Y185573D01*
X241500Y185516D01*
Y132000D01*
X124121D01*
X122102Y134019D01*
X122064Y134064D01*
X121884Y134217D01*
X121683Y134341D01*
X121465Y134431D01*
X121235Y134486D01*
X121000Y134505D01*
X120941Y134500D01*
X116250D01*
X116211Y134498D01*
X111922Y134495D01*
X111845Y134477D01*
X111772Y134447D01*
X111705Y134406D01*
X111645Y134355D01*
X111594Y134295D01*
X111553Y134228D01*
X111523Y134155D01*
X111505Y134078D01*
X111500Y134000D01*
X111505Y131922D01*
X111523Y131845D01*
X111553Y131772D01*
X111594Y131705D01*
X111645Y131645D01*
X111705Y131594D01*
X111772Y131553D01*
X111845Y131523D01*
X111922Y131505D01*
X112000Y131500D01*
X116211Y131502D01*
X116250Y131500D01*
X120379D01*
X122379Y129500D01*
X116250D01*
X116211Y129498D01*
X111922Y129495D01*
X111845Y129477D01*
X111772Y129447D01*
X111705Y129406D01*
X111645Y129355D01*
X111594Y129295D01*
X111553Y129228D01*
X111523Y129155D01*
X111505Y129078D01*
X111500Y129000D01*
G37*
G36*
X139500Y221000D02*X147048D01*
X147057Y215741D01*
X147094Y215588D01*
X147154Y215443D01*
X147236Y215308D01*
X147339Y215189D01*
X147458Y215086D01*
X147593Y215004D01*
X147738Y214944D01*
X147891Y214907D01*
X148048Y214898D01*
X154109Y214907D01*
X154262Y214944D01*
X154407Y215004D01*
X154542Y215086D01*
X154661Y215189D01*
X154764Y215308D01*
X154846Y215443D01*
X154906Y215588D01*
X154943Y215741D01*
X154952Y215898D01*
X154950Y216957D01*
X156941D01*
X157000Y216952D01*
X157059Y216957D01*
X159055D01*
X159057Y215698D01*
X159094Y215545D01*
X159154Y215400D01*
X159236Y215265D01*
X159339Y215146D01*
X159458Y215044D01*
X159593Y214961D01*
X159738Y214901D01*
X159891Y214864D01*
X160048Y214855D01*
X166109Y214864D01*
X166262Y214901D01*
X166407Y214961D01*
X166542Y215044D01*
X166661Y215146D01*
X166764Y215265D01*
X166846Y215400D01*
X166906Y215545D01*
X166943Y215698D01*
X166952Y215855D01*
X166950Y216957D01*
X168398D01*
X168457Y216952D01*
X168692Y216971D01*
X168692Y216971D01*
X168692Y216971D01*
X168692D01*
X168818Y217001D01*
X168922Y217026D01*
X168922Y217026D01*
X168966Y217044D01*
X169140Y217116D01*
X169341Y217240D01*
X169342Y217240D01*
X169342Y217240D01*
X169521Y217393D01*
X169559Y217438D01*
X172061Y219939D01*
X172061Y219939D01*
X173121Y221000D01*
X237379D01*
X241500Y216879D01*
Y201428D01*
X241407Y201371D01*
X241287Y201268D01*
X241185Y201149D01*
X241103Y201014D01*
X241043Y200869D01*
X241006Y200716D01*
X240997Y200559D01*
X241006Y195284D01*
X241043Y195131D01*
X241103Y194986D01*
X241185Y194851D01*
X241287Y194732D01*
X241407Y194629D01*
X241500Y194572D01*
Y192372D01*
X241407Y192315D01*
X241287Y192212D01*
X241185Y192093D01*
X241103Y191958D01*
X241043Y191813D01*
X241006Y191660D01*
X240997Y191503D01*
X240999Y190000D01*
X139500D01*
Y221000D01*
G37*
G36*
X75500Y267500D02*Y251500D01*
X62000D01*
Y267500D01*
X75500D01*
G37*
G36*
X83000Y260500D02*X64000D01*
Y267500D01*
X83000D01*
Y260500D01*
G37*
G36*
X83800Y263500D02*X91300D01*
Y260900D01*
X83800D01*
Y263500D01*
G37*
G36*
Y263700D02*X86400D01*
Y253400D01*
X83800D01*
Y263700D01*
G37*
G36*
X96900Y284000D02*X107100D01*
Y258500D01*
X96900D01*
Y284000D01*
G37*
G36*
X114000D02*X123100D01*
Y240600D01*
X114000D01*
Y284000D01*
G37*
G36*
X117500Y269500D02*X134000D01*
Y226500D01*
X117500D01*
Y269500D01*
G37*
G36*
X96500Y247900D02*X134000D01*
Y226500D01*
X96500D01*
Y247900D01*
G37*
G36*
X77500Y259400D02*X94500D01*
Y240600D01*
X77500D01*
Y259400D01*
G37*
G36*
X96500Y257200D02*X123100D01*
Y240600D01*
X96500D01*
Y257200D01*
G37*
G36*
X92500Y267400D02*X97400Y272300D01*
Y259800D01*
X92500Y264700D01*
Y267400D01*
G37*
G36*
X83800Y272500D02*X85918D01*
X86400Y272018D01*
Y258700D01*
X83800D01*
Y272500D01*
G37*
G36*
X77500Y259400D02*X94500D01*
Y251543D01*
X77500D01*
Y259400D01*
G37*
G36*
X60000Y285000D02*X75500D01*
Y248500D01*
X60000D01*
Y285000D01*
G37*
G36*
X53996Y288000D02*X75500D01*
Y234000D01*
X62654D01*
X62965Y234642D01*
X63276Y235466D01*
X63512Y236315D01*
X63671Y237182D01*
X63750Y238059D01*
Y238941D01*
X63671Y239818D01*
X63512Y240685D01*
X63276Y241534D01*
X62965Y242358D01*
X62581Y243151D01*
X62126Y243906D01*
X61606Y244616D01*
X61551Y244675D01*
X61488Y244724D01*
X61417Y244762D01*
X61342Y244789D01*
X61263Y244804D01*
X61183Y244807D01*
X61104Y244797D01*
X61027Y244774D01*
X60955Y244740D01*
X60888Y244695D01*
X60830Y244640D01*
X60781Y244576D01*
X60743Y244506D01*
X60716Y244431D01*
X60701Y244352D01*
X60698Y244272D01*
X60709Y244192D01*
X60731Y244115D01*
X60765Y244043D01*
X60812Y243978D01*
X61285Y243346D01*
X61693Y242669D01*
X62037Y241959D01*
X62317Y241220D01*
X62528Y240459D01*
X62670Y239682D01*
X62741Y238895D01*
Y238105D01*
X62670Y237318D01*
X62528Y236541D01*
X62317Y235780D01*
X62037Y235041D01*
X61693Y234331D01*
X61494Y234000D01*
X53996D01*
Y247241D01*
X54395D01*
X55182Y247170D01*
X55959Y247028D01*
X56720Y246817D01*
X57459Y246537D01*
X58169Y246193D01*
X58846Y245785D01*
X59483Y245319D01*
X59548Y245273D01*
X59619Y245239D01*
X59694Y245217D01*
X59772Y245207D01*
X59851Y245210D01*
X59928Y245224D01*
X60002Y245251D01*
X60071Y245289D01*
X60134Y245337D01*
X60188Y245394D01*
X60232Y245459D01*
X60266Y245530D01*
X60288Y245606D01*
X60298Y245684D01*
X60295Y245762D01*
X60281Y245840D01*
X60254Y245914D01*
X60217Y245983D01*
X60168Y246045D01*
X60110Y246098D01*
X59406Y246626D01*
X58651Y247081D01*
X57858Y247465D01*
X57034Y247776D01*
X56185Y248012D01*
X55318Y248171D01*
X54441Y248250D01*
X53996D01*
Y288000D01*
G37*
G36*
X43000D02*X53996D01*
Y248250D01*
X53559D01*
X52682Y248171D01*
X51815Y248012D01*
X50966Y247776D01*
X50142Y247465D01*
X49349Y247081D01*
X48594Y246626D01*
X47884Y246106D01*
X47825Y246051D01*
X47776Y245988D01*
X47738Y245917D01*
X47711Y245842D01*
X47696Y245763D01*
X47693Y245683D01*
X47703Y245604D01*
X47726Y245527D01*
X47760Y245455D01*
X47805Y245388D01*
X47860Y245330D01*
X47924Y245281D01*
X47994Y245243D01*
X48069Y245216D01*
X48148Y245201D01*
X48228Y245198D01*
X48308Y245209D01*
X48385Y245231D01*
X48457Y245265D01*
X48522Y245312D01*
X49154Y245785D01*
X49831Y246193D01*
X50541Y246537D01*
X51280Y246817D01*
X52041Y247028D01*
X52818Y247170D01*
X53605Y247241D01*
X53996D01*
Y234000D01*
X46506D01*
X46307Y234331D01*
X45963Y235041D01*
X45683Y235780D01*
X45472Y236541D01*
X45330Y237318D01*
X45259Y238105D01*
Y238895D01*
X45330Y239682D01*
X45472Y240459D01*
X45683Y241220D01*
X45963Y241959D01*
X46307Y242669D01*
X46715Y243346D01*
X47181Y243983D01*
X47227Y244048D01*
X47261Y244119D01*
X47283Y244194D01*
X47293Y244272D01*
X47290Y244351D01*
X47276Y244428D01*
X47249Y244502D01*
X47211Y244571D01*
X47163Y244634D01*
X47106Y244688D01*
X47041Y244732D01*
X46970Y244766D01*
X46894Y244788D01*
X46816Y244798D01*
X46738Y244795D01*
X46660Y244781D01*
X46586Y244754D01*
X46517Y244717D01*
X46455Y244668D01*
X46402Y244610D01*
X45874Y243906D01*
X45419Y243151D01*
X45035Y242358D01*
X44724Y241534D01*
X44488Y240685D01*
X44329Y239818D01*
X44250Y238941D01*
Y238059D01*
X44329Y237182D01*
X44488Y236315D01*
X44724Y235466D01*
X45035Y234642D01*
X45346Y234000D01*
X43000D01*
Y288000D01*
G37*
G36*
X62224Y241464D02*X62317Y241220D01*
X62528Y240459D01*
X62670Y239682D01*
X62741Y238895D01*
Y238105D01*
X62670Y237318D01*
X62528Y236541D01*
X62317Y235780D01*
X62224Y235536D01*
Y241464D01*
G37*
G36*
Y266500D02*X75500D01*
Y213000D01*
X62224D01*
Y233257D01*
X62581Y233849D01*
X62965Y234642D01*
X63276Y235466D01*
X63512Y236315D01*
X63671Y237182D01*
X63750Y238059D01*
Y238941D01*
X63671Y239818D01*
X63512Y240685D01*
X63276Y241534D01*
X62965Y242358D01*
X62581Y243151D01*
X62224Y243743D01*
Y266500D01*
G37*
G36*
X60000D02*X62224D01*
Y243743D01*
X62126Y243906D01*
X61606Y244616D01*
X61551Y244675D01*
X61488Y244724D01*
X61417Y244762D01*
X61342Y244789D01*
X61263Y244804D01*
X61183Y244807D01*
X61104Y244797D01*
X61027Y244774D01*
X60955Y244740D01*
X60888Y244695D01*
X60830Y244640D01*
X60781Y244576D01*
X60743Y244506D01*
X60716Y244431D01*
X60701Y244352D01*
X60698Y244272D01*
X60709Y244192D01*
X60731Y244115D01*
X60765Y244043D01*
X60812Y243978D01*
X61285Y243346D01*
X61693Y242669D01*
X62037Y241959D01*
X62224Y241464D01*
Y235536D01*
X62037Y235041D01*
X61693Y234331D01*
X61285Y233654D01*
X60819Y233017D01*
X60773Y232952D01*
X60739Y232881D01*
X60717Y232806D01*
X60707Y232728D01*
X60710Y232649D01*
X60724Y232572D01*
X60751Y232498D01*
X60789Y232429D01*
X60837Y232366D01*
X60894Y232312D01*
X60959Y232268D01*
X61030Y232234D01*
X61106Y232212D01*
X61184Y232202D01*
X61262Y232205D01*
X61340Y232219D01*
X61414Y232246D01*
X61483Y232283D01*
X61545Y232332D01*
X61598Y232390D01*
X62126Y233094D01*
X62224Y233257D01*
Y213000D01*
X60000D01*
Y230809D01*
X60116Y230894D01*
X60175Y230949D01*
X60224Y231012D01*
X60262Y231083D01*
X60289Y231158D01*
X60304Y231237D01*
X60307Y231317D01*
X60297Y231396D01*
X60274Y231473D01*
X60240Y231545D01*
X60195Y231612D01*
X60140Y231670D01*
X60076Y231719D01*
X60006Y231757D01*
X60000Y231760D01*
Y245250D01*
X60002Y245251D01*
X60071Y245289D01*
X60134Y245337D01*
X60188Y245394D01*
X60232Y245459D01*
X60266Y245530D01*
X60288Y245606D01*
X60298Y245684D01*
X60295Y245762D01*
X60281Y245840D01*
X60254Y245914D01*
X60217Y245983D01*
X60168Y246045D01*
X60110Y246098D01*
X60000Y246181D01*
Y266500D01*
G37*
G36*
X77500Y244000D02*X94500D01*
Y224500D01*
X77500D01*
Y244000D01*
G37*
G36*
Y237700D02*X94500D01*
Y211300D01*
X77500D01*
Y237700D01*
G37*
G36*
X54004Y241500D02*X62211D01*
X62317Y241220D01*
X62528Y240459D01*
X62670Y239682D01*
X62741Y238895D01*
Y238105D01*
X62670Y237318D01*
X62528Y236541D01*
X62317Y235780D01*
X62037Y235041D01*
X61693Y234331D01*
X61285Y233654D01*
X60819Y233017D01*
X60773Y232952D01*
X60739Y232881D01*
X60717Y232806D01*
X60707Y232728D01*
X60710Y232649D01*
X60724Y232572D01*
X60751Y232498D01*
X60789Y232429D01*
X60837Y232366D01*
X60894Y232312D01*
X60959Y232268D01*
X61030Y232234D01*
X61106Y232212D01*
X61184Y232202D01*
X61262Y232205D01*
X61340Y232219D01*
X61414Y232246D01*
X61483Y232283D01*
X61545Y232332D01*
X61598Y232390D01*
X62126Y233094D01*
X62581Y233849D01*
X62965Y234642D01*
X63276Y235466D01*
X63512Y236315D01*
X63671Y237182D01*
X63750Y238059D01*
Y238941D01*
X63671Y239818D01*
X63512Y240685D01*
X63286Y241500D01*
X75500D01*
Y213000D01*
X54004D01*
Y228750D01*
X54441D01*
X55318Y228829D01*
X56185Y228988D01*
X57034Y229224D01*
X57858Y229535D01*
X58651Y229919D01*
X59406Y230374D01*
X60116Y230894D01*
X60175Y230949D01*
X60224Y231012D01*
X60262Y231083D01*
X60289Y231158D01*
X60304Y231237D01*
X60307Y231317D01*
X60297Y231396D01*
X60274Y231473D01*
X60240Y231545D01*
X60195Y231612D01*
X60140Y231670D01*
X60076Y231719D01*
X60006Y231757D01*
X59931Y231784D01*
X59852Y231799D01*
X59772Y231802D01*
X59692Y231791D01*
X59615Y231769D01*
X59543Y231735D01*
X59478Y231688D01*
X58846Y231215D01*
X58169Y230807D01*
X57459Y230463D01*
X56720Y230183D01*
X55959Y229972D01*
X55182Y229830D01*
X54395Y229759D01*
X54004D01*
Y241500D01*
G37*
G36*
X43000D02*X44714D01*
X44488Y240685D01*
X44329Y239818D01*
X44250Y238941D01*
Y238059D01*
X44329Y237182D01*
X44488Y236315D01*
X44724Y235466D01*
X45035Y234642D01*
X45419Y233849D01*
X45874Y233094D01*
X46394Y232384D01*
X46449Y232325D01*
X46512Y232276D01*
X46583Y232238D01*
X46658Y232211D01*
X46737Y232196D01*
X46817Y232193D01*
X46896Y232203D01*
X46973Y232226D01*
X47045Y232260D01*
X47112Y232305D01*
X47170Y232360D01*
X47219Y232424D01*
X47257Y232494D01*
X47284Y232569D01*
X47299Y232648D01*
X47302Y232728D01*
X47291Y232808D01*
X47269Y232885D01*
X47235Y232957D01*
X47188Y233022D01*
X46715Y233654D01*
X46307Y234331D01*
X45963Y235041D01*
X45683Y235780D01*
X45472Y236541D01*
X45330Y237318D01*
X45259Y238105D01*
Y238895D01*
X45330Y239682D01*
X45472Y240459D01*
X45683Y241220D01*
X45789Y241500D01*
X54004D01*
Y229759D01*
X53605D01*
X52818Y229830D01*
X52041Y229972D01*
X51280Y230183D01*
X50541Y230463D01*
X49831Y230807D01*
X49154Y231215D01*
X48517Y231681D01*
X48452Y231727D01*
X48381Y231761D01*
X48306Y231783D01*
X48228Y231793D01*
X48149Y231790D01*
X48072Y231776D01*
X47998Y231749D01*
X47929Y231711D01*
X47866Y231663D01*
X47812Y231606D01*
X47768Y231541D01*
X47734Y231470D01*
X47712Y231394D01*
X47702Y231316D01*
X47705Y231238D01*
X47719Y231160D01*
X47746Y231086D01*
X47783Y231017D01*
X47832Y230955D01*
X47890Y230902D01*
X48594Y230374D01*
X49349Y229919D01*
X50142Y229535D01*
X50966Y229224D01*
X51815Y228988D01*
X52682Y228829D01*
X53559Y228750D01*
X54004D01*
Y213000D01*
X53000D01*
Y222000D01*
X43000Y232000D01*
Y241500D01*
G37*
G36*
X75500Y206500D02*X53000D01*
Y217000D01*
X75500D01*
Y206500D01*
G37*
G36*
X87200Y267400D02*X98300D01*
Y264800D01*
X87200D01*
Y267400D01*
G37*
G36*
X114000Y288000D02*X350000D01*
Y280000D01*
X114000D01*
Y288000D01*
G37*
G36*
X119000Y284500D02*X195500D01*
Y266500D01*
X119000D01*
Y284500D01*
G37*
G36*
X397063Y264400D02*X397200D01*
Y214400D01*
X389700D01*
Y257933D01*
X390507Y258267D01*
X392719Y259623D01*
X394692Y261308D01*
X396377Y263281D01*
X397063Y264400D01*
G37*
G36*
X42004Y219500D02*X49493D01*
Y219170D01*
X49435Y218512D01*
X49319Y217862D01*
X49147Y217225D01*
X48919Y216605D01*
X48638Y216008D01*
X48305Y215438D01*
X47923Y214899D01*
X47879Y214834D01*
X47846Y214763D01*
X47825Y214687D01*
X47817Y214609D01*
X47820Y214530D01*
X47836Y214453D01*
X47864Y214379D01*
X47903Y214311D01*
X47952Y214249D01*
X48010Y214196D01*
X48076Y214153D01*
X48148Y214121D01*
X48224Y214100D01*
X48302Y214091D01*
X48381Y214095D01*
X48458Y214111D01*
X48531Y214139D01*
X48600Y214178D01*
X48661Y214227D01*
X48713Y214286D01*
X49152Y214892D01*
X49530Y215539D01*
X49849Y216216D01*
X50107Y216919D01*
X50303Y217642D01*
X50434Y218380D01*
X50500Y219126D01*
Y219500D01*
X51000D01*
Y187500D01*
X42004D01*
Y211000D01*
X42374D01*
X43120Y211066D01*
X43858Y211197D01*
X44581Y211393D01*
X45284Y211651D01*
X45961Y211970D01*
X46608Y212348D01*
X47219Y212781D01*
X47279Y212834D01*
X47328Y212896D01*
X47368Y212966D01*
X47396Y213040D01*
X47412Y213119D01*
X47416Y213198D01*
X47407Y213278D01*
X47386Y213355D01*
X47353Y213427D01*
X47309Y213494D01*
X47256Y213553D01*
X47193Y213603D01*
X47124Y213643D01*
X47049Y213671D01*
X46971Y213687D01*
X46891Y213691D01*
X46812Y213682D01*
X46735Y213661D01*
X46662Y213628D01*
X46596Y213583D01*
X46062Y213195D01*
X45492Y212862D01*
X44895Y212581D01*
X44275Y212353D01*
X43638Y212181D01*
X42988Y212065D01*
X42330Y212007D01*
X42004D01*
Y219500D01*
G37*
G36*
X30000D02*X33500D01*
Y219126D01*
X33566Y218380D01*
X33697Y217642D01*
X33893Y216919D01*
X34151Y216216D01*
X34470Y215539D01*
X34848Y214892D01*
X35281Y214281D01*
X35334Y214221D01*
X35396Y214172D01*
X35466Y214132D01*
X35540Y214104D01*
X35619Y214088D01*
X35698Y214084D01*
X35778Y214093D01*
X35855Y214114D01*
X35927Y214147D01*
X35994Y214191D01*
X36053Y214244D01*
X36103Y214307D01*
X36143Y214376D01*
X36171Y214451D01*
X36187Y214529D01*
X36191Y214609D01*
X36182Y214688D01*
X36161Y214765D01*
X36128Y214838D01*
X36083Y214904D01*
X35695Y215438D01*
X35362Y216008D01*
X35081Y216605D01*
X34853Y217225D01*
X34681Y217862D01*
X34565Y218512D01*
X34507Y219170D01*
Y219500D01*
X42004D01*
Y212007D01*
X41670D01*
X41012Y212065D01*
X40362Y212181D01*
X39725Y212353D01*
X39105Y212581D01*
X38508Y212862D01*
X37938Y213195D01*
X37399Y213577D01*
X37334Y213621D01*
X37263Y213654D01*
X37187Y213675D01*
X37109Y213683D01*
X37030Y213680D01*
X36953Y213664D01*
X36879Y213636D01*
X36811Y213597D01*
X36749Y213548D01*
X36696Y213490D01*
X36653Y213424D01*
X36621Y213352D01*
X36600Y213276D01*
X36591Y213198D01*
X36595Y213119D01*
X36611Y213042D01*
X36639Y212969D01*
X36678Y212900D01*
X36727Y212839D01*
X36786Y212787D01*
X37392Y212348D01*
X38039Y211970D01*
X38716Y211651D01*
X39419Y211393D01*
X40142Y211197D01*
X40879Y211066D01*
X41626Y211000D01*
X42004D01*
Y187500D01*
X30000D01*
Y219500D01*
G37*
G36*
X17500Y150000D02*Y195000D01*
X51000D01*
Y150000D01*
X17500D01*
G37*
G36*
X37155Y240745D02*X37319Y240138D01*
X37435Y239488D01*
X37493Y238830D01*
Y238170D01*
X37435Y237512D01*
X37319Y236862D01*
X37155Y236255D01*
Y240745D01*
G37*
G36*
Y225315D02*X37188Y225318D01*
X37265Y225339D01*
X37338Y225372D01*
X37404Y225417D01*
X37938Y225805D01*
X38508Y226138D01*
X39105Y226419D01*
X39725Y226647D01*
X40362Y226819D01*
X41000Y226932D01*
Y212068D01*
X40362Y212181D01*
X39725Y212353D01*
X39105Y212581D01*
X38508Y212862D01*
X37938Y213195D01*
X37399Y213577D01*
X37334Y213621D01*
X37263Y213654D01*
X37187Y213675D01*
X37155Y213678D01*
Y225315D01*
G37*
G36*
Y288000D02*X41000D01*
Y227945D01*
X40879Y227934D01*
X40142Y227803D01*
X39419Y227607D01*
X38716Y227349D01*
X38039Y227030D01*
X37392Y226652D01*
X37155Y226484D01*
Y233896D01*
X37530Y234539D01*
X37849Y235216D01*
X38107Y235919D01*
X38303Y236642D01*
X38434Y237380D01*
X38500Y238126D01*
Y238874D01*
X38434Y239621D01*
X38303Y240358D01*
X38107Y241081D01*
X37849Y241784D01*
X37530Y242461D01*
X37155Y243104D01*
Y288000D01*
G37*
G36*
X41000Y174000D02*X37155D01*
Y212520D01*
X37392Y212348D01*
X38039Y211970D01*
X38716Y211651D01*
X39419Y211393D01*
X40142Y211197D01*
X40879Y211066D01*
X41000Y211055D01*
Y174000D01*
G37*
G36*
X37155D02*X34845D01*
Y214896D01*
X34848Y214892D01*
X35281Y214281D01*
X35334Y214221D01*
X35396Y214172D01*
X35466Y214132D01*
X35540Y214104D01*
X35619Y214088D01*
X35698Y214084D01*
X35778Y214093D01*
X35855Y214114D01*
X35927Y214147D01*
X35994Y214191D01*
X36053Y214244D01*
X36103Y214307D01*
X36143Y214376D01*
X36171Y214451D01*
X36187Y214529D01*
X36191Y214609D01*
X36182Y214688D01*
X36161Y214765D01*
X36128Y214838D01*
X36083Y214904D01*
X35695Y215438D01*
X35362Y216008D01*
X35081Y216605D01*
X34853Y217225D01*
X34845Y217255D01*
Y221745D01*
X34853Y221775D01*
X35081Y222395D01*
X35362Y222992D01*
X35695Y223562D01*
X36077Y224101D01*
X36121Y224166D01*
X36154Y224237D01*
X36175Y224313D01*
X36183Y224391D01*
X36180Y224470D01*
X36164Y224547D01*
X36136Y224621D01*
X36097Y224689D01*
X36048Y224751D01*
X35990Y224804D01*
X35924Y224847D01*
X35852Y224879D01*
X35776Y224900D01*
X35698Y224909D01*
X35619Y224905D01*
X35542Y224889D01*
X35469Y224861D01*
X35400Y224822D01*
X35339Y224773D01*
X35287Y224714D01*
X34848Y224108D01*
X34845Y224104D01*
Y231516D01*
X35219Y231781D01*
X35279Y231834D01*
X35328Y231896D01*
X35368Y231966D01*
X35396Y232040D01*
X35412Y232119D01*
X35416Y232198D01*
X35407Y232278D01*
X35386Y232355D01*
X35353Y232427D01*
X35309Y232494D01*
X35256Y232553D01*
X35193Y232603D01*
X35124Y232643D01*
X35049Y232671D01*
X34971Y232687D01*
X34891Y232691D01*
X34845Y232686D01*
Y244322D01*
X34891Y244317D01*
X34970Y244320D01*
X35047Y244336D01*
X35121Y244364D01*
X35189Y244403D01*
X35251Y244452D01*
X35304Y244510D01*
X35347Y244576D01*
X35379Y244648D01*
X35400Y244724D01*
X35409Y244802D01*
X35405Y244881D01*
X35389Y244958D01*
X35361Y245031D01*
X35322Y245100D01*
X35273Y245161D01*
X35214Y245213D01*
X34845Y245480D01*
Y288000D01*
X37155D01*
Y243104D01*
X37152Y243108D01*
X36719Y243719D01*
X36666Y243779D01*
X36604Y243828D01*
X36534Y243868D01*
X36460Y243896D01*
X36381Y243912D01*
X36302Y243916D01*
X36222Y243907D01*
X36145Y243886D01*
X36073Y243853D01*
X36006Y243809D01*
X35947Y243756D01*
X35897Y243693D01*
X35857Y243624D01*
X35829Y243549D01*
X35813Y243471D01*
X35809Y243391D01*
X35818Y243312D01*
X35839Y243235D01*
X35872Y243162D01*
X35917Y243096D01*
X36305Y242562D01*
X36638Y241992D01*
X36919Y241395D01*
X37147Y240775D01*
X37155Y240745D01*
Y236255D01*
X37147Y236225D01*
X36919Y235605D01*
X36638Y235008D01*
X36305Y234438D01*
X35923Y233899D01*
X35879Y233834D01*
X35846Y233763D01*
X35825Y233687D01*
X35817Y233609D01*
X35820Y233530D01*
X35836Y233453D01*
X35864Y233379D01*
X35903Y233311D01*
X35952Y233249D01*
X36010Y233196D01*
X36076Y233153D01*
X36148Y233121D01*
X36224Y233100D01*
X36302Y233091D01*
X36381Y233095D01*
X36458Y233111D01*
X36531Y233139D01*
X36600Y233178D01*
X36661Y233227D01*
X36713Y233286D01*
X37152Y233892D01*
X37155Y233896D01*
Y226484D01*
X36781Y226219D01*
X36721Y226166D01*
X36672Y226104D01*
X36632Y226034D01*
X36604Y225960D01*
X36588Y225881D01*
X36584Y225802D01*
X36593Y225722D01*
X36614Y225645D01*
X36647Y225573D01*
X36691Y225506D01*
X36744Y225447D01*
X36807Y225397D01*
X36876Y225357D01*
X36951Y225329D01*
X37029Y225313D01*
X37109Y225309D01*
X37155Y225315D01*
Y213678D01*
X37109Y213683D01*
X37030Y213680D01*
X36953Y213664D01*
X36879Y213636D01*
X36811Y213597D01*
X36749Y213548D01*
X36696Y213490D01*
X36653Y213424D01*
X36621Y213352D01*
X36600Y213276D01*
X36591Y213198D01*
X36595Y213119D01*
X36611Y213042D01*
X36639Y212969D01*
X36678Y212900D01*
X36727Y212839D01*
X36786Y212787D01*
X37155Y212520D01*
Y174000D01*
G37*
G36*
X34845Y217255D02*X34681Y217862D01*
X34565Y218512D01*
X34507Y219170D01*
Y219830D01*
X34565Y220488D01*
X34681Y221138D01*
X34845Y221745D01*
Y217255D01*
G37*
G36*
Y245480D02*X34608Y245652D01*
X33961Y246030D01*
X33284Y246349D01*
X32581Y246607D01*
X31858Y246803D01*
X31120Y246934D01*
X30374Y247000D01*
X30004D01*
Y262690D01*
X30458Y263222D01*
X31822Y265448D01*
X32821Y267859D01*
X33430Y270398D01*
X33584Y273000D01*
X33430Y275602D01*
X32821Y278141D01*
X31822Y280552D01*
X30458Y282778D01*
X30004Y283310D01*
Y288000D01*
X34845D01*
Y245480D01*
G37*
G36*
Y232686D02*X34812Y232682D01*
X34735Y232661D01*
X34662Y232628D01*
X34596Y232583D01*
X34062Y232195D01*
X33492Y231862D01*
X32895Y231581D01*
X32275Y231353D01*
X31638Y231181D01*
X30988Y231065D01*
X30330Y231007D01*
X30004D01*
Y245993D01*
X30330D01*
X30988Y245935D01*
X31638Y245819D01*
X32275Y245647D01*
X32895Y245419D01*
X33492Y245138D01*
X34062Y244805D01*
X34601Y244423D01*
X34666Y244379D01*
X34737Y244346D01*
X34813Y244325D01*
X34845Y244322D01*
Y232686D01*
G37*
G36*
Y174000D02*X30004D01*
Y230000D01*
X30374D01*
X31120Y230066D01*
X31858Y230197D01*
X32581Y230393D01*
X33284Y230651D01*
X33961Y230970D01*
X34608Y231348D01*
X34845Y231516D01*
Y224104D01*
X34470Y223461D01*
X34151Y222784D01*
X33893Y222081D01*
X33697Y221358D01*
X33566Y220621D01*
X33500Y219874D01*
Y219126D01*
X33566Y218380D01*
X33697Y217642D01*
X33893Y216919D01*
X34151Y216216D01*
X34470Y215539D01*
X34845Y214896D01*
Y174000D01*
G37*
G36*
X30004Y283310D02*X28763Y284763D01*
X26778Y286458D01*
X24552Y287822D01*
X24123Y288000D01*
X30004D01*
Y283310D01*
G37*
G36*
Y174000D02*X22845D01*
Y233896D01*
X22848Y233892D01*
X23281Y233281D01*
X23334Y233221D01*
X23396Y233172D01*
X23466Y233132D01*
X23540Y233104D01*
X23619Y233088D01*
X23698Y233084D01*
X23778Y233093D01*
X23855Y233114D01*
X23927Y233147D01*
X23994Y233191D01*
X24053Y233244D01*
X24103Y233307D01*
X24143Y233376D01*
X24171Y233451D01*
X24187Y233529D01*
X24191Y233609D01*
X24182Y233688D01*
X24161Y233765D01*
X24128Y233838D01*
X24083Y233904D01*
X23695Y234438D01*
X23362Y235008D01*
X23081Y235605D01*
X22853Y236225D01*
X22845Y236255D01*
Y240745D01*
X22853Y240775D01*
X23081Y241395D01*
X23362Y241992D01*
X23695Y242562D01*
X24077Y243101D01*
X24121Y243166D01*
X24154Y243237D01*
X24175Y243313D01*
X24183Y243391D01*
X24180Y243470D01*
X24164Y243547D01*
X24136Y243621D01*
X24097Y243689D01*
X24048Y243751D01*
X23990Y243804D01*
X23924Y243847D01*
X23852Y243879D01*
X23776Y243900D01*
X23698Y243909D01*
X23619Y243905D01*
X23542Y243889D01*
X23469Y243861D01*
X23400Y243822D01*
X23339Y243773D01*
X23287Y243714D01*
X22848Y243108D01*
X22845Y243104D01*
Y257471D01*
X24552Y258178D01*
X26778Y259542D01*
X28763Y261237D01*
X30004Y262690D01*
Y247000D01*
X29626D01*
X28879Y246934D01*
X28142Y246803D01*
X27419Y246607D01*
X26716Y246349D01*
X26039Y246030D01*
X25392Y245652D01*
X24781Y245219D01*
X24721Y245166D01*
X24672Y245104D01*
X24632Y245034D01*
X24604Y244960D01*
X24588Y244881D01*
X24584Y244802D01*
X24593Y244722D01*
X24614Y244645D01*
X24647Y244573D01*
X24691Y244506D01*
X24744Y244447D01*
X24807Y244397D01*
X24876Y244357D01*
X24951Y244329D01*
X25029Y244313D01*
X25109Y244309D01*
X25188Y244318D01*
X25265Y244339D01*
X25338Y244372D01*
X25404Y244417D01*
X25938Y244805D01*
X26508Y245138D01*
X27105Y245419D01*
X27725Y245647D01*
X28362Y245819D01*
X29012Y245935D01*
X29670Y245993D01*
X30004D01*
Y231007D01*
X29670D01*
X29012Y231065D01*
X28362Y231181D01*
X27725Y231353D01*
X27105Y231581D01*
X26508Y231862D01*
X25938Y232195D01*
X25399Y232577D01*
X25334Y232621D01*
X25263Y232654D01*
X25187Y232675D01*
X25109Y232683D01*
X25030Y232680D01*
X24953Y232664D01*
X24879Y232636D01*
X24811Y232597D01*
X24749Y232548D01*
X24696Y232490D01*
X24653Y232424D01*
X24621Y232352D01*
X24600Y232276D01*
X24591Y232198D01*
X24595Y232119D01*
X24611Y232042D01*
X24639Y231969D01*
X24678Y231900D01*
X24727Y231839D01*
X24786Y231787D01*
X25392Y231348D01*
X26039Y230970D01*
X26716Y230651D01*
X27419Y230393D01*
X28142Y230197D01*
X28879Y230066D01*
X29626Y230000D01*
X30004D01*
Y174000D01*
G37*
G36*
X22845Y236255D02*X22681Y236862D01*
X22565Y237512D01*
X22507Y238170D01*
Y238830D01*
X22565Y239488D01*
X22681Y240138D01*
X22845Y240745D01*
Y236255D01*
G37*
G36*
Y174000D02*X17500D01*
Y256404D01*
X19602Y256570D01*
X22141Y257179D01*
X22845Y257471D01*
Y243104D01*
X22470Y242461D01*
X22151Y241784D01*
X21893Y241081D01*
X21697Y240358D01*
X21566Y239621D01*
X21500Y238874D01*
Y238126D01*
X21566Y237380D01*
X21697Y236642D01*
X21893Y235919D01*
X22151Y235216D01*
X22470Y234539D01*
X22845Y233896D01*
Y174000D01*
G37*
G36*
X48207Y72444D02*X47741Y72443D01*
X47588Y72406D01*
X47443Y72346D01*
X47308Y72264D01*
X47189Y72161D01*
X47086Y72042D01*
X47004Y71907D01*
X46944Y71762D01*
X46907Y71609D01*
X46898Y71452D01*
X46907Y65391D01*
X46944Y65238D01*
X47004Y65093D01*
X47086Y64958D01*
X47189Y64839D01*
X47308Y64736D01*
X47443Y64654D01*
X47457Y64648D01*
Y62660D01*
X47448Y62543D01*
X47485Y62072D01*
X47485Y62072D01*
X47485Y62072D01*
Y62072D01*
X47582Y61668D01*
X47595Y61613D01*
X47595Y61613D01*
X47743Y61257D01*
X47776Y61177D01*
X47776Y61177D01*
X47776Y61177D01*
X47940Y60908D01*
X48022Y60774D01*
X48022Y60774D01*
X48022Y60774D01*
X48023Y60774D01*
X48329Y60415D01*
X48419Y60338D01*
X50796Y57962D01*
X50872Y57872D01*
X51231Y57565D01*
X51231Y57565D01*
X51231Y57565D01*
X51401Y57462D01*
X51634Y57319D01*
X51634Y57319D01*
X51634Y57319D01*
X52070Y57138D01*
X52070Y57138D01*
X52260Y57092D01*
X52529Y57028D01*
X52529D01*
X52529Y57028D01*
X53000Y56991D01*
X53118Y57000D01*
X61756D01*
X61634Y56856D01*
X61444Y56547D01*
X61306Y56213D01*
X61221Y55861D01*
X61193Y55500D01*
X61221Y55139D01*
X61306Y54787D01*
X61444Y54453D01*
X61634Y54144D01*
X61869Y53869D01*
X62144Y53634D01*
X62453Y53444D01*
X62787Y53306D01*
X63139Y53221D01*
X63500Y53193D01*
X63861Y53221D01*
X64213Y53306D01*
X64547Y53444D01*
X64856Y53634D01*
X65131Y53869D01*
X65244Y54000D01*
X70379D01*
X74398Y49981D01*
X74436Y49936D01*
X74616Y49783D01*
X74817Y49659D01*
X75035Y49569D01*
X75265Y49514D01*
X75500Y49495D01*
X75559Y49500D01*
X79000D01*
Y42000D01*
X25269D01*
X26837Y42961D01*
X28834Y44666D01*
X30539Y46663D01*
X31911Y48902D01*
X32916Y51328D01*
X33529Y53882D01*
X33684Y56500D01*
X33529Y59118D01*
X32916Y61672D01*
X31911Y64098D01*
X30539Y66337D01*
X28834Y68334D01*
X26837Y70039D01*
X24598Y71411D01*
X22172Y72416D01*
X19618Y73029D01*
X17000Y73235D01*
X14382Y73029D01*
X11828Y72416D01*
X9402Y71411D01*
X7163Y70039D01*
X5166Y68334D01*
X3461Y66337D01*
X2089Y64098D01*
X2000Y63884D01*
Y76000D01*
X48207D01*
Y72444D01*
G37*
G36*
X53000Y215000D02*X75500D01*
Y151000D01*
X53000D01*
Y215000D01*
G37*
G36*
X52500Y208000D02*X75000D01*
Y146396D01*
X74685Y146203D01*
X74679Y146198D01*
X74406Y146085D01*
X73936Y145797D01*
X73517Y145440D01*
X73160Y145021D01*
X72872Y144551D01*
X72661Y144042D01*
X72651Y144000D01*
X52500D01*
Y208000D01*
G37*
G36*
X69000Y157500D02*X75500D01*
Y146647D01*
X75221Y146532D01*
X74685Y146203D01*
X74679Y146198D01*
X74406Y146085D01*
X73936Y145797D01*
X73588Y145500D01*
X69000D01*
Y157500D01*
G37*
G36*
X17500Y133500D02*Y178500D01*
X51000D01*
Y139015D01*
X50942Y138948D01*
X50531Y138277D01*
X50230Y137550D01*
X50046Y136785D01*
X50046Y136784D01*
X49985Y136000D01*
X50000Y135804D01*
Y133500D01*
X33085D01*
X33049Y133522D01*
X32395Y133793D01*
X31706Y133958D01*
X31000Y134014D01*
X30294Y133958D01*
X29605Y133793D01*
X28951Y133522D01*
X28915Y133500D01*
X17500D01*
G37*
G36*
X77500Y213000D02*X94500D01*
Y173500D01*
X77500D01*
Y213000D01*
G37*
G36*
Y206500D02*X134500D01*
Y172000D01*
X77500D01*
Y206500D01*
G37*
G36*
X122000D02*X160000D01*
Y132000D01*
X124121D01*
X122102Y134019D01*
X122064Y134064D01*
X122000Y134119D01*
Y206500D01*
G37*
G36*
X90500Y212500D02*X149500D01*
Y192500D01*
X90500D01*
Y212500D01*
G37*
G36*
X155500Y206500D02*X164500D01*
Y151000D01*
X155500D01*
Y206500D01*
G37*
G54D12*X203400Y273100D02*X203500Y273000D01*
Y262500D02*Y273000D01*
Y264900D02*Y258100D01*
G54D13*X213500Y273000D02*Y284000D01*
G54D14*X233500Y273000D02*Y265000D01*
Y261500D02*Y268000D01*
X223500Y273000D02*Y261000D01*
G54D12*X91500Y280700D02*X100700D01*
X89200Y270000D02*Y272400D01*
X84900Y276700D01*
Y280357D01*
G54D14*X81000Y270000D02*Y274700D01*
X80800Y286100D02*X111900D01*
X81000Y274700D02*X79300Y276400D01*
Y284600D01*
X80800Y286100D01*
X110900D02*X117400D01*
G54D13*X95750Y133000D02*X90957D01*
X94500D02*X90500D01*
X87000Y136500D01*
G54D15*Y142957D01*
G54D13*X167100Y261100D02*X183700D01*
X183800Y261000D01*
G54D14*X159500Y246400D02*X175000D01*
X167100Y251100D02*X177000D01*
X179100Y249000D01*
X178000Y250100D01*
X175000Y246400D02*X176500Y244900D01*
X175700Y245700D01*
X154000Y246500D02*X151000D01*
X150000Y247500D01*
Y251000D01*
X158360Y251100D02*Y247540D01*
X159500Y246400D01*
X158360Y248960D02*Y257040D01*
G54D12*X163000Y229500D02*Y242000D01*
G54D14*X157000Y233720D02*X149620Y241100D01*
X149520Y261000D02*X149620Y261100D01*
X154300D01*
X158360Y257040D02*X157700Y257700D01*
X150600Y261100D02*X154300D01*
X157900Y257500D01*
G54D16*X185000Y269000D02*Y241500D01*
G54D14*X179100Y239900D02*Y249000D01*
G54D12*X131000Y228500D02*X148043D01*
G54D14*X147500Y128000D02*X197500D01*
G54D16*X185000Y241500D02*X191500Y235000D01*
G54D14*X189000Y230000D02*X179100Y239900D01*
X188000Y228000D02*X176500Y239500D01*
Y244900D01*
X185000Y226000D02*X176500Y234500D01*
X181500Y224000D02*X174000D01*
X169000Y219000D01*
X151000Y218457D02*X168457D01*
G54D12*X148043Y228500D02*X151000Y225543D01*
G54D14*X168457Y218457D02*X171000Y221000D01*
G54D12*X163000Y225500D02*Y233000D01*
G54D14*X157000Y218457D02*Y233720D01*
X200500Y128000D02*X196500D01*
X223500Y261000D02*X229000Y255500D01*
G54D17*X207500Y249800D02*X216200D01*
G54D12*X203500Y258100D02*X203600Y258000D01*
G54D16*X242000Y235000D02*X200000D01*
X191500D02*X209000D01*
G54D14*X239500Y230000D02*X189000D01*
X200900Y242900D02*X199700Y244100D01*
Y249800D01*
X10043Y164500D02*X10000Y164457D01*
X4500Y181500D02*Y108000D01*
X10000Y165543D02*Y179957D01*
X10043Y180000D01*
X6500Y111500D02*Y154957D01*
X10000Y158457D01*
G54D12*X103914Y217500D02*X91000D01*
X121957D02*X111000D01*
X129000Y228500D02*Y217543D01*
X129043Y217500D01*
G54D14*X10000Y205543D02*X13957D01*
X15000Y204500D01*
Y181000D01*
X14000Y180000D01*
X10043D01*
X4543Y171543D02*X4500Y171500D01*
Y180000D02*Y197500D01*
X5500Y198500D01*
X9414D01*
X9500Y198414D01*
X10000Y187043D02*X4543D01*
X4500Y187000D01*
G54D18*X44000Y125500D02*X35000D01*
G54D14*X49000D02*X45500D01*
G54D18*X35000D02*X31000Y129500D01*
Y144000D01*
G54D19*X62500Y138000D02*X69000D01*
X63500D02*X57000D01*
X55000Y136000D01*
G54D13*X75500Y123000D02*X83500D01*
X82000Y128000D02*X72000Y138000D01*
G54D16*X87000Y142957D02*X77043D01*
G54D15*X70500Y148457D02*X76000Y142957D01*
X80500D01*
G54D14*Y135000D02*X78000Y132500D01*
X48500Y116500D02*X49500Y117500D01*
Y125000D01*
X49000Y125500D01*
G54D19*X55000Y136000D02*Y113500D01*
G54D14*X61000Y116500D02*X60500Y117000D01*
Y125000D01*
X61000Y125500D01*
G54D13*X66000D02*X73000D01*
X75500Y123000D01*
G54D14*X61000Y125500D02*X65000D01*
G54D13*X95750Y128000D02*X82000D01*
X95750Y123000D02*X79000D01*
X77500D02*X85000D01*
G54D14*X116250Y133000D02*X121000D01*
X116250Y123000D02*X121000D01*
G54D13*X95750Y118000D02*X81000D01*
G54D14*X116250D02*X124000D01*
X117000D02*X109500D01*
X116250Y128000D02*X148000D01*
X121000Y123000D02*X123500Y125500D01*
G54D19*X22500Y90000D02*X32500D01*
G54D14*X4500Y108000D02*X22500Y90000D01*
Y110000D02*X8000D01*
X6500Y111500D01*
G54D19*X29000Y90000D02*X41000D01*
X50000Y99000D01*
G54D14*X53500Y92000D02*Y87000D01*
G54D19*X22500Y110000D02*X51500D01*
G54D12*X57543Y68500D02*Y82043D01*
X50457Y68500D02*Y76157D01*
X53300Y79000D01*
X61500Y82900D02*X58443D01*
X57543Y82000D01*
G54D13*X72500Y70500D02*X75000Y68000D01*
G54D14*X61500Y79000D02*Y73500D01*
X63500Y71500D01*
G54D13*X72500Y99500D02*Y70500D01*
G54D14*X57000Y92000D02*Y88000D01*
X58000Y87000D01*
X61500D01*
X76500Y72000D02*Y104500D01*
X78500Y73500D02*Y106500D01*
G54D13*X81000Y118000D02*X72000Y109000D01*
G54D19*X71000Y108000D02*X74000Y111000D01*
G54D14*X76500Y104500D02*X72000Y109000D01*
G54D19*X50000Y99000D02*X62000D01*
X71750Y108750D01*
X51500Y110000D02*X55000Y113500D01*
G54D13*X50457Y68500D02*Y62543D01*
X53000Y60000D01*
X72000D01*
G54D14*X63500Y71500D02*Y64500D01*
G54D13*X81000Y62000D02*X72500Y70500D01*
X81000Y62000D02*X76750Y66250D01*
G54D14*X81750Y66750D02*X76500Y72000D01*
X82000Y70000D02*X78500Y73500D01*
X81700Y66800D02*X79000Y69500D01*
X63500Y55500D02*X71000D01*
G54D13*X72000Y60000D02*X77000Y55000D01*
G54D14*X71000Y55500D02*X75500Y51000D01*
G54D12*X87205Y27858D02*X112795D01*
X153905D02*X191358D01*
X112858D02*X140858D01*
X147000Y34000D01*
G54D14*X121000Y133000D02*X123500Y130500D01*
X173000D01*
X123500Y125500D02*X201000D01*
X172000Y130500D02*X183500D01*
X181500D02*X263500D01*
X266000Y133000D01*
X199500Y128000D02*X266000D01*
X269000Y131000D01*
X199500Y125500D02*X267000D01*
X271500Y130000D01*
G54D12*X300400Y82500D02*X308600D01*
X304500Y74400D02*Y86500D01*
X300400Y86400D02*X296400D01*
X295500Y85500D01*
Y74500D01*
X308500Y78500D02*X308600Y78600D01*
Y86400D02*X312100D01*
X313000Y85500D02*Y80500D01*
G54D14*X329075Y69925D02*X329000Y70000D01*
X326500Y91000D02*Y76500D01*
X318500Y68500D01*
X313500Y91000D02*Y88400D01*
X300400Y86400D02*Y91400D01*
X313500Y88400D02*X311500Y86400D01*
G54D12*X313000Y74500D02*Y83000D01*
Y78500D02*Y27858D01*
X308500Y39000D02*Y78500D01*
X300400Y78600D02*Y41900D01*
X304500Y74400D02*Y41500D01*
X274358Y27858D02*X281000Y34500D01*
X277500Y39000D02*X272500Y34000D01*
X271000Y38000D02*X276000Y43000D01*
X281000Y34500D02*X304000D01*
X308500Y39000D01*
X300400Y41900D02*X297500Y39000D01*
X277500D01*
X276000Y43000D02*X293500D01*
X295500Y45000D01*
Y78500D01*
G54D13*X290500Y56500D02*Y65500D01*
X289000Y55000D02*X290500Y56500D01*
Y61000D02*Y95000D01*
X299500Y104000D01*
X294250Y98750D01*
G54D12*X147000Y34000D02*X186000D01*
X190500D02*X182500D01*
X185000D02*X208500D01*
X272500D02*X216000D01*
X214000D02*X225500D01*
X212500Y38000D02*X271000D01*
X220505Y27858D02*X246095D01*
X312795D02*X287205D01*
X246358D02*X274358D01*
X188000D02*X207858D01*
X214000Y34000D01*
X208500D02*X212500Y38000D01*
G54D13*X77000Y55000D02*X289000D01*
X282500Y62000D02*X81000D01*
G54D14*X279000Y70000D02*X82000D01*
X275700Y66800D02*X81700D01*
X75500Y51000D02*X291000D01*
X318500Y68500D02*Y59500D01*
Y51000D02*Y61000D01*
G54D12*X312100Y86400D02*X313000Y85500D01*
G54D14*X314000Y94000D02*X319000D01*
X321000Y96000D01*
Y102000D01*
X318500Y98000D02*X317000Y96500D01*
X300400Y91400D02*X303000Y94000D01*
X316000D01*
X328500Y93000D02*X326500Y91000D01*
X321000Y99000D02*Y128500D01*
X318500Y131500D02*Y98000D01*
X317000Y96500D02*X309000D01*
X300000D02*X310500D01*
X313500Y136500D02*Y100000D01*
X316000Y134500D02*Y103500D01*
X298500Y94000D02*Y95000D01*
X300000Y96500D01*
X274815Y191701D02*X267299D01*
G54D12*X274815Y201150D02*X286850D01*
X269500Y198000D02*X280000D01*
G54D14*X274815Y207449D02*X270551D01*
X274815Y204300D02*X270700D01*
G54D12*X299500Y227700D02*Y217600D01*
X302650Y222685D02*Y211350D01*
X302700Y178400D02*Y168300D01*
X299500Y173315D02*Y183000D01*
G54D14*X308948Y173315D02*Y163348D01*
X308900Y163300D01*
G54D13*X274000Y224000D02*X286000Y212000D01*
G54D14*X274815Y210599D02*X270401D01*
X274815Y213748D02*X270252D01*
X282000Y166500D02*X283500Y168000D01*
X285901D01*
X286901Y169000D01*
Y172599D01*
X267299Y191701D02*X266000Y193000D01*
X260500Y203000D02*Y198000D01*
D03*
D03*
X267252Y182252D02*X266000Y181000D01*
Y193000D02*X249989D01*
G54D12*X260500Y188944D02*X253056D01*
G54D14*X249989Y193000D02*X245933Y188944D01*
X245371Y180000D02*Y188382D01*
G54D12*X245457Y206500D02*Y198476D01*
X253000Y198000D02*X245957D01*
G54D14*X252543Y206500D02*X257000D01*
G54D12*X253000Y189000D02*Y180543D01*
G54D14*X266000Y133000D02*Y161000D01*
Y181000D02*Y156500D01*
X269000Y131000D02*Y148500D01*
X271500Y130000D02*Y147000D01*
X269000D02*Y158000D01*
X271500Y142000D02*Y156000D01*
G54D16*X274000Y224000D02*X253000D01*
G54D14*X263000Y215000D02*X248500D01*
X249500Y217000D02*X264099D01*
X265000Y219000D02*X250500D01*
X238500Y228000D02*X188000D01*
X237500Y226000D02*X219000D01*
X281600Y242900D02*X200900D01*
X249500Y217000D02*X238500Y228000D01*
X248500Y215000D02*X237500Y226000D01*
X250500Y219000D02*X248000Y221500D01*
X222000Y226000D02*X185000D01*
X247500Y213000D02*X236500Y224000D01*
X180500D01*
X270700Y204300D02*X262000Y213000D01*
X257000Y206500D02*X260500Y203000D01*
X262000Y213000D02*X247500D01*
X270551Y207449D02*X263000Y215000D01*
X264099Y217000D02*X270500Y210599D01*
X270252Y213748D02*X265000Y219000D01*
X328500Y155000D02*Y171000D01*
G54D13*X299500Y163000D02*Y104000D01*
G54D14*X274815Y182252D02*X267252D01*
X273043Y165500D02*Y177543D01*
X280000Y161500D02*Y176500D01*
X281000Y177500D01*
X273043Y177543D02*X275000Y179500D01*
X280000D01*
X283500Y181000D02*X281500D01*
X280000Y179500D01*
X278500D01*
X269000Y158000D02*X271000Y160000D01*
X278500D01*
X280000Y161500D01*
X271500Y156000D02*X273000Y157500D01*
X280500D01*
X282000Y159000D01*
Y166500D01*
G54D13*X353500Y273000D02*Y260000D01*
X343500Y262914D02*X346414Y260000D01*
X343500Y262914D02*Y280500D01*
G54D12*X346550Y259864D02*X346207Y260207D01*
X346500Y259914D02*X346457Y259957D01*
G54D14*X313500Y266000D02*Y273000D01*
X318500Y259000D02*X323500Y264000D01*
Y273000D01*
G54D13*X346500Y253500D02*Y259914D01*
G54D14*X303500Y267500D02*Y273000D01*
Y264000D02*Y268500D01*
X309500Y262000D02*X313500Y266000D01*
X308949Y261449D02*X312500Y265000D01*
X305800Y261700D02*X303500Y264000D01*
X296351Y262149D02*X294000Y264500D01*
X255500D01*
X253500Y266500D01*
Y273000D01*
X293201Y259299D02*X291000Y261500D01*
X246500D01*
X287500Y258500D02*X236500D01*
X233500Y261500D01*
X229000Y255500D02*X282500D01*
X285000D02*X279500D01*
X246500Y261500D02*X243500Y264500D01*
Y273000D01*
X312099Y222685D02*Y252599D01*
X322250Y262750D01*
X308949Y222685D02*Y261449D01*
X305800Y222685D02*Y261700D01*
X296351Y222685D02*Y262149D01*
X293201Y222685D02*Y259299D01*
X290052Y255948D02*X287500Y258500D01*
X286902Y253598D02*X285000Y255500D01*
G54D17*X331500Y238000D02*X325043D01*
G54D13*X349000Y251000D02*X346500Y253500D01*
G54D14*X339500Y251000D02*X343500D01*
X346250Y253750D01*
X354469Y241469D02*X352000Y239000D01*
X337914Y236500D02*Y249414D01*
X339500Y251000D01*
G54D12*X379000Y233594D02*X368506D01*
G54D13*X379000Y237531D02*X385031D01*
X386500Y239000D01*
Y249000D01*
X384500Y251000D01*
X349000D01*
G54D14*X379000Y241469D02*X354469D01*
X379000Y245406D02*X353406D01*
X350000Y242000D01*
X345043Y245000D02*X350000D01*
X351500Y243500D01*
X345000Y231000D02*Y236500D01*
X359500Y231000D02*Y226043D01*
X355000Y231000D02*X352000D01*
X274815Y194851D02*X268149D01*
X265500Y197500D01*
X261000D01*
X260500Y198000D01*
X290052Y222685D02*Y255948D01*
X286902Y222685D02*Y253598D01*
X283752Y222685D02*Y240748D01*
X281500Y243000D01*
G54D20*X263000Y231500D02*X274000D01*
G54D16*X253000Y224000D02*X242000Y235000D01*
G54D14*X250500Y219000D02*X239500Y230000D01*
G54D12*X324185Y194850D02*X313350D01*
X319000Y198000D02*X329400D01*
X328000D02*X338957D01*
G54D14*X324185Y201149D02*X333649D01*
X324185Y204299D02*X331299D01*
X325201D02*X319701D01*
X318500Y205500D01*
G54D12*X322850Y194850D02*X330150D01*
X334000Y191000D01*
X338957D01*
G54D14*X324185Y191700D02*X329300D01*
G54D12*X339000Y206457D02*Y198043D01*
G54D14*X334500Y212500D02*Y203000D01*
Y202000D02*Y205000D01*
X333649Y201149D02*X334500Y202000D01*
X331299Y204299D02*X332500Y205500D01*
Y215500D01*
X334500Y217500D01*
X350000Y217000D02*Y187500D01*
X352000Y184500D02*Y217000D01*
X347000Y207500D02*Y217500D01*
Y198500D02*Y201500D01*
X344500Y204000D01*
Y216000D01*
X343500Y217000D01*
X339000Y213543D02*X335543D01*
X334500Y212500D01*
Y217500D02*X343000D01*
X344000Y216500D01*
X327748Y213748D02*X333500Y219500D01*
X318500Y205500D02*Y237043D01*
X333500Y219500D02*X344500D01*
X352000Y239000D02*Y214500D01*
X350000Y242000D02*Y216000D01*
X359500Y218957D02*Y211500D01*
X357000Y209500D02*X355000Y207500D01*
X347000Y217500D02*X345000Y219500D01*
X342500D01*
G54D12*X299500Y175500D02*Y163000D01*
G54D13*Y161000D02*Y165000D01*
G54D14*X312098Y173315D02*Y158402D01*
X315248Y173315D02*Y158752D01*
X316000Y158000D01*
X324185Y207448D02*X329448D01*
X329500Y207500D01*
X324185Y213748D02*X327748D01*
X324185Y210598D02*X328598D01*
X329500Y211500D01*
X324185Y188551D02*X329449D01*
X323500Y169500D02*X331000Y177000D01*
X321000Y170500D02*X330000Y179500D01*
X328500Y171000D02*X330250Y172750D01*
X305800Y166000D02*Y173314D01*
X305799Y173315D01*
X290051D02*Y176949D01*
X293200Y173315D02*Y167700D01*
X296350Y173315D02*Y166850D01*
X290051Y176949D02*X289000Y178000D01*
X281500D01*
X280500Y177000D01*
X289500Y158000D02*Y164000D01*
X293000Y167500D01*
X293200Y167700D02*X291750Y166250D01*
X296350Y166850D02*X293000Y163500D01*
Y160500D01*
X330500Y180000D02*Y183500D01*
X328599Y185401D02*X330500Y183500D01*
X332250Y178250D02*X330000Y176000D01*
X331000Y173500D02*X334500Y177000D01*
X329449Y188551D02*X332250Y185750D01*
Y178250D01*
X334500Y177000D02*Y186500D01*
X329000Y171500D02*X333000Y175500D01*
X372500Y73500D02*X388000D01*
X386500Y75500D02*X371000D01*
X364500Y67000D02*X371000Y73500D01*
X375500D01*
X388000D02*X390000Y75500D01*
Y86000D01*
X388000Y87500D02*Y77000D01*
X385600Y85100D02*X382750Y82250D01*
X376030D01*
X376000Y82220D01*
X388000Y77000D02*X386500Y75500D01*
X329000Y70000D02*X334457D01*
X339957Y75500D01*
X348957D02*X339957D01*
X337478Y73022D01*
X325600Y66800D02*X348757D01*
X348957Y67000D01*
X373000Y75500D02*X356043D01*
Y67000D02*X364500D01*
X356000Y75500D02*Y84000D01*
X349000D02*X345000D01*
X343500Y85500D01*
X356043Y67000D02*Y58500D01*
X349000Y52500D02*Y58457D01*
X348957Y58500D01*
X312098Y158402D02*X313500Y157000D01*
Y137000D01*
X316000Y158000D02*Y137500D01*
X318500Y129000D02*Y178000D01*
X313500Y134000D02*Y139500D01*
X316000Y131500D02*Y139500D01*
X331500Y158000D02*Y112000D01*
X333500Y110000D01*
X334000Y129500D02*Y135000D01*
Y160500D02*Y132500D01*
X323500Y155000D02*Y169500D01*
X321000Y128000D02*Y170500D01*
X385600Y156100D02*Y97600D01*
X388000Y86500D02*Y160000D01*
X390000Y170500D02*Y85500D01*
X385600Y100000D02*Y85100D01*
X383000Y170000D02*Y105000D01*
X381000Y103000D01*
X357000Y145000D02*X376000D01*
X349000Y128000D02*Y119500D01*
X376000Y131220D02*X369220D01*
X366000Y128000D01*
X356043D01*
X366000Y162500D02*X369500Y159000D01*
X357000Y172500D02*X380500D01*
X383000Y170000D01*
X369500Y159000D02*X375779D01*
X375890Y158890D01*
X366500Y101000D02*Y95000D01*
X364500Y93000D01*
X356043D01*
X356000Y110000D02*X376000D01*
X356000Y119500D02*X361000D01*
X381000Y103000D02*X368500D01*
X366500Y101000D01*
X348500Y110000D02*Y101000D01*
X356000Y101500D02*X361000D01*
X343500Y85500D02*Y89000D01*
X348957Y93000D02*X328500D01*
X348957Y145000D02*Y136500D01*
X333500Y110000D02*X348500D01*
X349000Y128000D02*X335500D01*
X334000Y129500D01*
X336500Y145000D02*X348957D01*
X361000Y136500D02*X356043D01*
X361000Y154000D02*X356043D01*
X355000Y174500D02*X357000Y172500D01*
X335000Y166000D02*Y171000D01*
X332000Y163500D02*X338000D01*
Y170500D01*
X344500Y161500D02*X345500Y162500D01*
X348957D01*
Y154000D02*X345500D01*
X344500Y155000D01*
Y161500D02*Y155000D01*
X390000Y189000D02*Y164500D01*
Y207500D02*Y187500D01*
X388000D02*Y160500D01*
Y201500D02*Y184000D01*
X382000Y180000D02*X381000Y179000D01*
X377543D01*
Y187500D02*X381000D01*
X382000Y186500D01*
Y180000D02*Y186500D01*
X324185Y182252D02*X319752D01*
X318500Y181000D01*
Y175500D01*
X328500Y178000D02*X330500Y180000D01*
X324185Y185401D02*X328599D01*
X334500Y186500D02*X330000Y191000D01*
X329300Y191700D02*X331750Y189250D01*
X350000Y186000D02*Y189500D01*
X335000Y171000D02*X350000Y186000D01*
X338000Y170500D02*X352000Y184500D01*
X385600Y153100D02*Y180900D01*
Y174400D02*Y194400D01*
X388000Y169500D02*Y155000D01*
G54D12*X375779Y159000D02*X376000Y158779D01*
G54D14*X356043Y162500D02*X366000D01*
X355000Y198500D02*Y174500D01*
Y211500D02*X356000D01*
X358000D02*X355000D01*
X366000D02*X355500D01*
X370000Y209500D02*X357000D01*
X355000Y203000D02*X362500D01*
X364000Y201500D01*
Y198000D01*
X365500Y196500D01*
X364500Y211500D02*X386000D01*
X366000Y209500D02*X385000D01*
X370500D02*Y205043D01*
X370457Y205000D01*
X386000Y211500D02*X390000Y207500D01*
X385500Y194500D02*X383500Y196500D01*
X385600Y194400D02*X384500Y195500D01*
X385000Y209500D02*X388000Y206500D01*
Y199000D01*
X383500Y196500D02*X377500D01*
X377543Y205000D02*X381000D01*
X382000Y204000D01*
Y201000D01*
X370457Y196500D02*Y179000D01*
X365500Y196500D02*X370457D01*
G54D21*X383000Y273000D03*
G54D11*G36*
X350500Y276000D02*Y270000D01*
X356500D01*
Y276000D01*
X350500D01*
G37*
G54D16*X343500Y273000D03*
X333500D03*
X323500D03*
X313500D03*
X303500D03*
X293500D03*
X283500D03*
X273500D03*
X263500D03*
X253500D03*
X243500D03*
X233500D03*
X223500D03*
X213500D03*
X203500D03*
G54D21*X17000Y56500D03*
G54D11*G36*
X18500Y114000D02*Y106000D01*
X26500D01*
Y114000D01*
X18500D01*
G37*
G54D19*X22500Y90000D03*
G54D22*X153905Y10142D03*
Y27858D03*
G54D21*X17000Y273000D03*
G54D22*X112795Y10142D03*
X87205D03*
X112795Y27858D03*
X87205D03*
G54D23*X54000Y238500D03*
G54D24*X30000D03*
X42000Y219500D03*
G54D22*X179495Y10142D03*
X246095D03*
X220505D03*
X312795D03*
X287205D03*
X179495Y27858D03*
X246095D03*
X220505D03*
X312795D03*
X287205D03*
G54D21*X383000Y56500D03*
G54D11*G36*
X372000Y86220D02*Y78220D01*
X380000D01*
Y86220D01*
X372000D01*
G37*
G54D19*X376000Y96000D03*
Y109779D03*
G54D11*G36*
X372000Y135220D02*Y127220D01*
X380000D01*
Y135220D01*
X372000D01*
G37*
G54D19*X376000Y145000D03*
Y158779D03*
G54D11*G36*
X60102Y71452D02*X54984D01*
Y65548D01*
X60102D01*
Y71452D01*
G37*
G36*
X53016D02*X47898D01*
Y65548D01*
X53016D01*
Y71452D01*
G37*
G36*
X51300Y88000D02*Y85600D01*
X55300D01*
Y88000D01*
X51300D01*
G37*
G36*
Y80200D02*Y77800D01*
X55300D01*
Y80200D01*
X51300D01*
G37*
G36*
X59500D02*Y77800D01*
X63500D01*
Y80200D01*
X59500D01*
G37*
G36*
Y84100D02*Y81700D01*
X63500D01*
Y84100D01*
X59500D01*
G37*
G36*
Y88000D02*Y85600D01*
X63500D01*
Y88000D01*
X59500D01*
G37*
G36*
X80000Y92098D02*Y84098D01*
X132000D01*
Y92098D01*
X80000D01*
G37*
G36*
X53543Y164650D02*Y158350D01*
X66142D01*
Y164650D01*
X53543D01*
G37*
G36*
X33858D02*Y158350D01*
X46457D01*
Y164650D01*
X33858D01*
G37*
G36*
X7048Y162016D02*Y156898D01*
X12952D01*
Y162016D01*
X7048D01*
G37*
G36*
Y169102D02*Y163984D01*
X12952D01*
Y169102D01*
X7048D01*
G37*
G36*
X84048Y152602D02*Y147484D01*
X89952D01*
Y152602D01*
X84048D01*
G37*
G36*
X83548Y146016D02*Y139898D01*
X90452D01*
Y146016D01*
X83548D01*
G37*
G36*
X80000Y166902D02*Y158902D01*
X132000D01*
Y166902D01*
X80000D01*
G37*
G36*
X112000Y119000D02*Y117000D01*
X120500D01*
Y119000D01*
X112000D01*
G37*
G36*
X91500D02*Y117000D01*
X100000D01*
Y119000D01*
X91500D01*
G37*
G36*
X112000Y124000D02*Y122000D01*
X120500D01*
Y124000D01*
X112000D01*
G37*
G36*
X91500D02*Y122000D01*
X100000D01*
Y124000D01*
X91500D01*
G37*
G36*
X112000Y129000D02*Y127000D01*
X120500D01*
Y129000D01*
X112000D01*
G37*
G36*
Y134000D02*Y132000D01*
X120500D01*
Y134000D01*
X112000D01*
G37*
G36*
X91500D02*Y132000D01*
X100000D01*
Y134000D01*
X91500D01*
G37*
G36*
Y129000D02*Y127000D01*
X100000D01*
Y129000D01*
X91500D01*
G37*
G36*
X109250Y129830D02*X102750D01*
Y121170D01*
X109250D01*
Y129830D01*
G37*
G36*
X110725Y131605D02*X101275D01*
Y119395D01*
X110725D01*
Y131605D01*
G37*
G36*
X69568Y131800D02*X62481D01*
Y119201D01*
X69568D01*
Y131800D01*
G37*
G36*
X47519D02*X40432D01*
Y119201D01*
X47519D01*
Y131800D01*
G37*
G36*
X348973Y262952D02*X343855D01*
Y257048D01*
X348973D01*
Y262952D01*
G37*
G36*
X356059D02*X350941D01*
Y257048D01*
X356059D01*
Y262952D01*
G37*
G36*
X201400Y251800D02*X198000D01*
Y247800D01*
X201400D01*
Y251800D01*
G37*
G36*
X209200D02*X205800D01*
Y247800D01*
X209200D01*
Y251800D01*
G37*
G36*
X205300Y260000D02*X201900D01*
Y256000D01*
X205300D01*
Y260000D01*
G37*
G36*
X390713Y252886D02*Y248162D01*
X397799D01*
Y252886D01*
X390713D01*
G37*
G36*
X255102Y209452D02*X249984D01*
Y203548D01*
X255102D01*
Y209452D01*
G37*
G36*
X248016D02*X242898D01*
Y203548D01*
X248016D01*
Y209452D01*
G37*
G36*
X247930Y182952D02*X242812D01*
Y177048D01*
X247930D01*
Y182952D01*
G37*
G36*
X255016D02*X249898D01*
Y177048D01*
X255016D01*
Y182952D01*
G37*
G36*
X241997Y191503D02*Y186385D01*
X249870D01*
Y191503D01*
X241997D01*
G37*
G36*
X256564D02*Y186385D01*
X264437D01*
Y191503D01*
X256564D01*
G37*
G36*
Y200559D02*Y195441D01*
X264437D01*
Y200559D01*
X256564D01*
G37*
G36*
X241997D02*Y195441D01*
X249870D01*
Y200559D01*
X241997D01*
G37*
G36*
X271815Y214535D02*Y212961D01*
X277815D01*
Y214535D01*
X271815D01*
G37*
G36*
Y211386D02*Y209812D01*
X277815D01*
Y211386D01*
X271815D01*
G37*
G36*
Y208236D02*Y206662D01*
X277815D01*
Y208236D01*
X271815D01*
G37*
G36*
Y205087D02*Y203513D01*
X277815D01*
Y205087D01*
X271815D01*
G37*
G36*
Y201937D02*Y200363D01*
X277815D01*
Y201937D01*
X271815D01*
G37*
G36*
Y198787D02*Y197213D01*
X277815D01*
Y198787D01*
X271815D01*
G37*
G36*
Y195638D02*Y194064D01*
X277815D01*
Y195638D01*
X271815D01*
G37*
G36*
Y192488D02*Y190914D01*
X277815D01*
Y192488D01*
X271815D01*
G37*
G36*
Y189339D02*Y187765D01*
X277815D01*
Y189339D01*
X271815D01*
G37*
G36*
Y186189D02*Y184615D01*
X277815D01*
Y186189D01*
X271815D01*
G37*
G36*
X265548Y227016D02*Y221898D01*
X271452D01*
Y227016D01*
X265548D01*
G37*
G36*
Y234102D02*Y228984D01*
X271452D01*
Y234102D01*
X265548D01*
G37*
G36*
X321185Y192487D02*Y190913D01*
X327185D01*
Y192487D01*
X321185D01*
G37*
G36*
Y195637D02*Y194063D01*
X327185D01*
Y195637D01*
X321185D01*
G37*
G36*
Y198787D02*Y197213D01*
X327185D01*
Y198787D01*
X321185D01*
G37*
G36*
Y201936D02*Y200362D01*
X327185D01*
Y201936D01*
X321185D01*
G37*
G36*
Y205086D02*Y203512D01*
X327185D01*
Y205086D01*
X321185D01*
G37*
G36*
Y208235D02*Y206661D01*
X327185D01*
Y208235D01*
X321185D01*
G37*
G36*
Y211385D02*Y209811D01*
X327185D01*
Y211385D01*
X321185D01*
G37*
G36*
X336048Y209016D02*Y203898D01*
X341952D01*
Y209016D01*
X336048D01*
G37*
G36*
X373016Y207952D02*X367898D01*
Y202048D01*
X373016D01*
Y207952D01*
G37*
G36*
Y199452D02*X367898D01*
Y193548D01*
X373016D01*
Y199452D01*
G37*
G36*
X380102Y207952D02*X374984D01*
Y202048D01*
X380102D01*
Y207952D01*
G37*
G36*
Y199452D02*X374984D01*
Y193548D01*
X380102D01*
Y199452D01*
G37*
G36*
X373016Y181952D02*X367898D01*
Y176048D01*
X373016D01*
Y181952D01*
G37*
G36*
Y190452D02*X367898D01*
Y184548D01*
X373016D01*
Y190452D01*
G37*
G36*
X380102Y181952D02*X374984D01*
Y176048D01*
X380102D01*
Y181952D01*
G37*
G36*
Y190452D02*X374984D01*
Y184548D01*
X380102D01*
Y190452D01*
G37*
G36*
X321185Y214535D02*Y212961D01*
X327185D01*
Y214535D01*
X321185D01*
G37*
G36*
X316035Y225685D02*X314461D01*
Y219685D01*
X316035D01*
Y225685D01*
G37*
G36*
X336048Y216102D02*Y210984D01*
X341952D01*
Y216102D01*
X336048D01*
G37*
G36*
X356548Y221516D02*Y216398D01*
X362452D01*
Y221516D01*
X356548D01*
G37*
G36*
Y228602D02*Y223484D01*
X362452D01*
Y228602D01*
X356548D01*
G37*
G36*
X312886Y225685D02*X311312D01*
Y219685D01*
X312886D01*
Y225685D01*
G37*
G36*
X309736D02*X308162D01*
Y219685D01*
X309736D01*
Y225685D01*
G37*
G36*
X306587D02*X305013D01*
Y219685D01*
X306587D01*
Y225685D01*
G37*
G36*
X303437D02*X301863D01*
Y219685D01*
X303437D01*
Y225685D01*
G37*
G36*
X300287D02*X298713D01*
Y219685D01*
X300287D01*
Y225685D01*
G37*
G36*
X297138D02*X295564D01*
Y219685D01*
X297138D01*
Y225685D01*
G37*
G36*
X293988D02*X292414D01*
Y219685D01*
X293988D01*
Y225685D01*
G37*
G36*
X290839D02*X289265D01*
Y219685D01*
X290839D01*
Y225685D01*
G37*
G36*
X287689D02*X286115D01*
Y219685D01*
X287689D01*
Y225685D01*
G37*
G36*
X284539D02*X282965D01*
Y219685D01*
X284539D01*
Y225685D01*
G37*
G36*
X320516Y240952D02*X315398D01*
Y235048D01*
X320516D01*
Y240952D01*
G37*
G36*
X327602D02*X322484D01*
Y235048D01*
X327602D01*
Y240952D01*
G37*
G36*
X340516Y247952D02*X335398D01*
Y242048D01*
X340516D01*
Y247952D01*
G37*
G36*
X347602D02*X342484D01*
Y242048D01*
X347602D01*
Y247952D01*
G37*
G36*
X340473Y239452D02*X335355D01*
Y233548D01*
X340473D01*
Y239452D01*
G37*
G36*
X347559D02*X342441D01*
Y233548D01*
X347559D01*
Y239452D01*
G37*
G36*
X375949Y234775D02*Y232413D01*
X382051D01*
Y234775D01*
X375949D01*
G37*
G36*
Y238712D02*Y236350D01*
X382051D01*
Y238712D01*
X375949D01*
G37*
G36*
Y242650D02*Y240288D01*
X382051D01*
Y242650D01*
X375949D01*
G37*
G36*
Y246587D02*Y244225D01*
X382051D01*
Y246587D01*
X375949D01*
G37*
G36*
X390713Y230838D02*Y226114D01*
X397799D01*
Y230838D01*
X390713D01*
G37*
G36*
X271815Y183039D02*Y181465D01*
X277815D01*
Y183039D01*
X271815D01*
G37*
G36*
X284539Y176315D02*X282965D01*
Y170315D01*
X284539D01*
Y176315D01*
G37*
G36*
X287688D02*X286114D01*
Y170315D01*
X287688D01*
Y176315D01*
G37*
G36*
X290838D02*X289264D01*
Y170315D01*
X290838D01*
Y176315D01*
G37*
G36*
X293987D02*X292413D01*
Y170315D01*
X293987D01*
Y176315D01*
G37*
G36*
X297137D02*X295563D01*
Y170315D01*
X297137D01*
Y176315D01*
G37*
G36*
X300287D02*X298713D01*
Y170315D01*
X300287D01*
Y176315D01*
G37*
G36*
X275602Y168452D02*X270484D01*
Y162548D01*
X275602D01*
Y168452D01*
G37*
G36*
X268516D02*X263398D01*
Y162548D01*
X268516D01*
Y168452D01*
G37*
G36*
X303436Y176315D02*X301862D01*
Y170315D01*
X303436D01*
Y176315D01*
G37*
G36*
X306586D02*X305012D01*
Y170315D01*
X306586D01*
Y176315D01*
G37*
G36*
X309735D02*X308161D01*
Y170315D01*
X309735D01*
Y176315D01*
G37*
G36*
X312885D02*X311311D01*
Y170315D01*
X312885D01*
Y176315D01*
G37*
G36*
X316035D02*X314461D01*
Y170315D01*
X316035D01*
Y176315D01*
G37*
G36*
X321185Y183039D02*Y181465D01*
X327185D01*
Y183039D01*
X321185D01*
G37*
G36*
Y186188D02*Y184614D01*
X327185D01*
Y186188D01*
X321185D01*
G37*
G36*
Y189338D02*Y187764D01*
X327185D01*
Y189338D01*
X321185D01*
G37*
G36*
X336048Y193516D02*Y188398D01*
X341952D01*
Y193516D01*
X336048D01*
G37*
G36*
Y200602D02*Y195484D01*
X341952D01*
Y200602D01*
X336048D01*
G37*
G36*
X306600Y79800D02*Y77400D01*
X310600D01*
Y79800D01*
X306600D01*
G37*
G36*
Y83700D02*Y81300D01*
X310600D01*
Y83700D01*
X306600D01*
G37*
G36*
Y87600D02*Y85200D01*
X310600D01*
Y87600D01*
X306600D01*
G37*
G36*
X298400D02*Y85200D01*
X302400D01*
Y87600D01*
X298400D01*
G37*
G36*
Y83700D02*Y81300D01*
X302400D01*
Y83700D01*
X298400D01*
G37*
G36*
Y79800D02*Y77400D01*
X302400D01*
Y79800D01*
X298400D01*
G37*
G36*
X358602Y95952D02*X353484D01*
Y90048D01*
X358602D01*
Y95952D01*
G37*
G36*
Y104452D02*X353484D01*
Y98548D01*
X358602D01*
Y104452D01*
G37*
G36*
X351516Y95952D02*X346398D01*
Y90048D01*
X351516D01*
Y95952D01*
G37*
G36*
Y104452D02*X346398D01*
Y98548D01*
X351516D01*
Y104452D01*
G37*
G36*
X358602Y61452D02*X353484D01*
Y55548D01*
X358602D01*
Y61452D01*
G37*
G36*
Y69952D02*X353484D01*
Y64048D01*
X358602D01*
Y69952D01*
G37*
G36*
Y78452D02*X353484D01*
Y72548D01*
X358602D01*
Y78452D01*
G37*
G36*
X351516Y61452D02*X346398D01*
Y55548D01*
X351516D01*
Y61452D01*
G37*
G36*
Y69952D02*X346398D01*
Y64048D01*
X351516D01*
Y69952D01*
G37*
G36*
Y78452D02*X346398D01*
Y72548D01*
X351516D01*
Y78452D01*
G37*
G36*
X358602Y86952D02*X353484D01*
Y81048D01*
X358602D01*
Y86952D01*
G37*
G36*
X351516D02*X346398D01*
Y81048D01*
X351516D01*
Y86952D01*
G37*
G36*
Y156952D02*X346398D01*
Y151048D01*
X351516D01*
Y156952D01*
G37*
G36*
X358602D02*X353484D01*
Y151048D01*
X358602D01*
Y156952D01*
G37*
G36*
X351516Y165452D02*X346398D01*
Y159548D01*
X351516D01*
Y165452D01*
G37*
G36*
X358602D02*X353484D01*
Y159548D01*
X358602D01*
Y165452D01*
G37*
G36*
X351516Y139452D02*X346398D01*
Y133548D01*
X351516D01*
Y139452D01*
G37*
G36*
X358602D02*X353484D01*
Y133548D01*
X358602D01*
Y139452D01*
G37*
G36*
X351516Y122452D02*X346398D01*
Y116548D01*
X351516D01*
Y122452D01*
G37*
G36*
X358602D02*X353484D01*
Y116548D01*
X358602D01*
Y122452D01*
G37*
G36*
X351516Y130952D02*X346398D01*
Y125048D01*
X351516D01*
Y130952D01*
G37*
G36*
X358602D02*X353484D01*
Y125048D01*
X358602D01*
Y130952D01*
G37*
G36*
X351516Y147952D02*X346398D01*
Y142048D01*
X351516D01*
Y147952D01*
G37*
G36*
X358602D02*X353484D01*
Y142048D01*
X358602D01*
Y147952D01*
G37*
G36*
X351516Y112952D02*X346398D01*
Y107048D01*
X351516D01*
Y112952D01*
G37*
G36*
X358602D02*X353484D01*
Y107048D01*
X358602D01*
Y112952D01*
G37*
G36*
X62858Y223450D02*Y217150D01*
X75457D01*
Y223450D01*
X62858D01*
G37*
G36*
X82543D02*Y217150D01*
X95142D01*
Y223450D01*
X82543D01*
G37*
G36*
X6548Y200973D02*Y195855D01*
X12452D01*
Y200973D01*
X6548D01*
G37*
G36*
X7048Y182516D02*Y177398D01*
X12952D01*
Y182516D01*
X7048D01*
G37*
G36*
Y189602D02*Y184484D01*
X12952D01*
Y189602D01*
X7048D01*
G37*
G36*
X6548Y208059D02*Y202941D01*
X12452D01*
Y208059D01*
X6548D01*
G37*
G36*
X53543Y194150D02*Y187850D01*
X66142D01*
Y194150D01*
X53543D01*
G37*
G36*
X33858D02*Y187850D01*
X46457D01*
Y194150D01*
X33858D01*
G37*
G36*
X106473Y220452D02*X101355D01*
Y214548D01*
X106473D01*
Y220452D01*
G37*
G36*
X113559D02*X108441D01*
Y214548D01*
X113559D01*
Y220452D01*
G37*
G36*
X124516D02*X119398D01*
Y214548D01*
X124516D01*
Y220452D01*
G37*
G36*
X131602D02*X126484D01*
Y214548D01*
X131602D01*
Y220452D01*
G37*
G36*
X159856Y243600D02*Y238600D01*
X174344D01*
Y243600D01*
X159856D01*
G37*
G36*
Y253600D02*Y248600D01*
X174344D01*
Y253600D01*
X159856D01*
G37*
G36*
Y263600D02*Y258600D01*
X174344D01*
Y263600D01*
X159856D01*
G37*
G36*
X142376D02*Y258600D01*
X156864D01*
Y263600D01*
X142376D01*
G37*
G36*
Y253600D02*Y248600D01*
X156864D01*
Y253600D01*
X142376D01*
G37*
G36*
Y243600D02*Y238600D01*
X156864D01*
Y243600D01*
X142376D01*
G37*
G36*
X148048Y228102D02*Y222984D01*
X153952D01*
Y228102D01*
X148048D01*
G37*
G36*
X160048Y228059D02*Y222941D01*
X165952D01*
Y228059D01*
X160048D01*
G37*
G36*
X148048Y221016D02*Y215898D01*
X153952D01*
Y221016D01*
X148048D01*
G37*
G36*
X160048Y220973D02*Y215855D01*
X165952D01*
Y220973D01*
X160048D01*
G37*
G36*
X101602Y255052D02*X96484D01*
Y249148D01*
X101602D01*
Y255052D01*
G37*
G36*
X94516D02*X89398D01*
Y249148D01*
X94516D01*
Y255052D01*
G37*
G36*
X101602Y245152D02*X96484D01*
Y239248D01*
X101602D01*
Y245152D01*
G37*
G36*
X94516D02*X89398D01*
Y239248D01*
X94516D01*
Y245152D01*
G37*
G36*
X75516Y257452D02*X70398D01*
Y251548D01*
X75516D01*
Y257452D01*
G37*
G36*
X82602D02*X77484D01*
Y251548D01*
X82602D01*
Y257452D01*
G37*
G36*
X79000Y271200D02*Y268800D01*
X83000D01*
Y271200D01*
X79000D01*
G37*
G36*
Y267300D02*Y264900D01*
X83000D01*
Y267300D01*
X79000D01*
G37*
G36*
Y263400D02*Y261000D01*
X83000D01*
Y263400D01*
X79000D01*
G37*
G36*
X87200Y267300D02*Y264900D01*
X91200D01*
Y267300D01*
X87200D01*
G37*
G36*
Y263400D02*Y261000D01*
X91200D01*
Y263400D01*
X87200D01*
G37*
G36*
X101000Y282300D02*X98700D01*
Y258600D01*
X101000D01*
Y282300D01*
G37*
G36*
X98700Y260900D02*Y258600D01*
X106600D01*
Y260900D01*
X98700D01*
G37*
G36*
X99000Y262900D02*Y258900D01*
X103000D01*
Y262900D01*
X99000D01*
G37*
G36*
Y282000D02*Y278000D01*
X103000D01*
Y282000D01*
X99000D01*
G37*
G36*
X87200Y271200D02*Y268800D01*
X91200D01*
Y271200D01*
X87200D01*
G37*
G36*
X98700Y282300D02*Y280000D01*
X106600D01*
Y282300D01*
X98700D01*
G37*
G36*
X114500D02*Y280000D01*
X122400D01*
Y282300D01*
X114500D01*
G37*
G36*
X106594Y280000D02*X104473Y282121D01*
X98879Y276527D01*
X101000Y274406D01*
X106594Y280000D01*
G37*
G36*
X116627Y282121D02*X114506Y280000D01*
X120100Y274406D01*
X122221Y276527D01*
X116627Y282121D01*
G37*
G36*
X118100Y282000D02*Y278000D01*
X122100D01*
Y282000D01*
X118100D01*
G37*
G36*
X122400Y282300D02*X120100D01*
Y258600D01*
X122400D01*
Y282300D01*
G37*
G36*
X114500Y260900D02*Y258600D01*
X122400D01*
Y260900D01*
X114500D01*
G37*
G36*
X101000Y266494D02*X98879Y264373D01*
X104473Y258779D01*
X106594Y260900D01*
X101000Y266494D01*
G37*
G36*
X122221Y264373D02*X120100Y266494D01*
X114506Y260900D01*
X116627Y258779D01*
X122221Y264373D01*
G37*
G36*
X118100Y262900D02*Y258900D01*
X122100D01*
Y262900D01*
X118100D01*
G37*
G36*
X87016Y283452D02*X81898D01*
Y277548D01*
X87016D01*
Y283452D01*
G37*
G36*
X94102D02*X88984D01*
Y277548D01*
X94102D01*
Y283452D01*
G37*
G54D25*X102500Y137500D03*
X109500D03*
X80500Y135000D03*
X98500Y137500D03*
X102500Y141500D03*
X98500D03*
X113500Y137500D03*
X109500Y141500D03*
X113500D03*
X279500Y142000D03*
X336500Y145000D03*
X283500Y142000D03*
Y138000D03*
X253500Y140500D03*
X257500D03*
X253500Y136500D03*
X257500D03*
X279500Y138000D03*
X361000Y136500D03*
X102500Y113500D03*
Y109500D03*
X104000Y79500D03*
X109500Y113500D03*
X113500D03*
X109500Y109500D03*
X113500D03*
X98500Y113500D03*
Y109500D03*
X97500Y79500D03*
X126000D03*
X130000D03*
X78500Y106500D03*
X48500Y116500D03*
X61000D03*
X53500Y92000D03*
X57000D03*
X108000Y79500D03*
X115000D03*
X119000D03*
X57500Y74000D03*
Y79000D03*
X86500Y79500D03*
X93500D03*
X82500D03*
X72500Y99500D03*
Y96000D03*
Y92500D03*
X39000Y52000D03*
X43000D03*
X63500Y64500D03*
Y55500D03*
X39000Y48000D03*
X43000D03*
X151500Y43500D03*
X155500D03*
X304500Y86500D03*
X298500Y94000D03*
X361000Y119500D03*
Y101500D03*
X343500Y89000D03*
X218000Y43500D03*
X222000D03*
X291000Y51000D03*
X279500Y76000D03*
X284000D03*
X316000Y103500D03*
X313500Y100000D03*
X318500Y51000D03*
X313500Y91000D03*
X304500Y82500D03*
Y41500D03*
Y47000D03*
Y55500D03*
Y78700D03*
X308600Y74500D03*
X300400D03*
X304500Y74400D03*
X282500Y62000D03*
X279000D03*
X275500D03*
X275700Y66800D03*
X279000Y70000D03*
X329000D03*
X325600Y66800D03*
X349000Y52500D03*
X85100Y257400D03*
X92400D03*
X88600D03*
X85000Y247500D03*
X80500D03*
X30000Y252000D03*
X34500D03*
X25500D03*
X84500Y227000D03*
X80000D03*
X67500D03*
X72000D03*
X63000D03*
X25000Y224500D03*
X29500D03*
X20500D03*
X60000Y264500D03*
X64500D03*
X55500D03*
X60000Y260000D03*
X64500D03*
X55500D03*
X84500Y213500D03*
X80000D03*
X89000Y227000D03*
Y213500D03*
X81000Y242500D03*
X85000D03*
X163000Y236000D03*
Y231000D03*
X154000Y246500D03*
X176500Y234500D03*
X67500Y213500D03*
X72000D03*
X63000D03*
X39500Y184500D03*
X44000D03*
X35000D03*
X39500Y168000D03*
X44000D03*
X35000D03*
X39500Y197000D03*
X44000D03*
X35000D03*
X38000Y285500D03*
X33500D03*
X39500Y155500D03*
X44000D03*
X35000D03*
X86500Y171500D03*
X93500D03*
X82500D03*
X97500D03*
X108000D03*
X104000D03*
X115000D03*
X119000D03*
X126000D03*
X130000D03*
X89000Y155000D03*
X85000D03*
X92500Y151500D03*
X72500Y155500D03*
Y152000D03*
Y148500D03*
X302700Y168300D03*
X329400Y198000D03*
X280000D03*
X302700Y178400D03*
X319000Y198000D03*
X269500D03*
X253000Y189000D03*
X355000Y207500D03*
Y211500D03*
X347000Y198500D03*
Y207500D03*
X355000Y203000D03*
X329500Y207500D03*
Y211500D03*
X212600Y249800D03*
X216200D03*
X227500Y218500D03*
X299500Y227700D03*
Y217600D03*
X263000Y231500D03*
X274000D03*
X231500Y218500D03*
X227500Y214500D03*
X231500D03*
X331500Y238000D03*
X368506Y233594D03*
X372300Y233600D03*
X359500Y231000D03*
X345000D03*
X355000D03*
X253000Y198000D03*
X305800Y166000D03*
X335000D03*
X308900Y163300D03*
X289500Y158000D03*
X293000Y160500D03*
X331500Y158000D03*
X332000Y163500D03*
X334000Y160500D03*
X323500Y155000D03*
X328500D03*
X361000Y154000D03*
X382000Y183000D03*
Y201000D03*
X355000Y198500D03*
X344500Y158000D03*
G54D26*G54D27*G54D28*G54D27*G54D29*G54D30*G54D27*G54D30*G54D31*G54D32*G54D30*G54D27*G54D33*M02*
